// Song: dr_mario_3
// Generated from: packmidis/Games/dr_mario_3.mid
// Notes: 570

const int dr_mario_3_notes[] PROGMEM = {
  NOTE_G1,NOTE_G1,NOTE_AS1,NOTE_B1,NOTE_C2,NOTE_B1,
  NOTE_AS1,NOTE_A1,NOTE_G1,NOTE_G1,NOTE_AS1,NOTE_B1,
  NOTE_C2,NOTE_B1,NOTE_AS1,NOTE_A1,NOTE_G1,NOTE_G1,
  NOTE_AS1,NOTE_B1,NOTE_C2,NOTE_B1,NOTE_AS1,NOTE_A1,
  NOTE_G1,NOTE_G1,NOTE_AS1,NOTE_B1,NOTE_C2,NOTE_G1,
  NOTE_G1,NOTE_AS1,NOTE_B1,NOTE_C2,NOTE_B1,NOTE_AS1,
  NOTE_A1,NOTE_G1,NOTE_G1,NOTE_G1,NOTE_A1,NOTE_A1,
  NOTE_A1,NOTE_AS1,NOTE_AS1,NOTE_AS1,NOTE_B1,NOTE_B1,
  NOTE_B1,NOTE_G1,NOTE_G1,NOTE_AS1,NOTE_B1,NOTE_C2,
  NOTE_B1,NOTE_AS1,NOTE_A1,NOTE_G1,NOTE_G1,NOTE_AS1,
  NOTE_B1,NOTE_C2,NOTE_G1,NOTE_G1,NOTE_AS1,NOTE_B1,
  NOTE_C2,NOTE_B1,NOTE_AS1,NOTE_A1,NOTE_C2,NOTE_C2,
  NOTE_DS2,NOTE_E2,NOTE_F1,NOTE_F1,NOTE_GS1,NOTE_A1,
  NOTE_C2,NOTE_C2,NOTE_DS2,NOTE_E2,NOTE_F1,NOTE_F1,
  NOTE_F1,NOTE_GS1,NOTE_A1,NOTE_C2,NOTE_C2,NOTE_DS2,
  NOTE_E2,NOTE_F1,NOTE_F1,NOTE_GS1,NOTE_A1,NOTE_D2,
  NOTE_D2,NOTE_D2,NOTE_D2,NOTE_G2,NOTE_G2,NOTE_G2,
  NOTE_G1,NOTE_G1,NOTE_G1,NOTE_C2,NOTE_C2,NOTE_G2,
  NOTE_FS2,NOTE_F2,NOTE_C2,NOTE_C2,NOTE_G2,NOTE_FS2,
  NOTE_F2,NOTE_G2,NOTE_G2,NOTE_G2,NOTE_G2,NOTE_F2,
  NOTE_E2,NOTE_D2,NOTE_C2,NOTE_G1,NOTE_G1,NOTE_G1,
  NOTE_G2,NOTE_G2,NOTE_G2,NOTE_C2,NOTE_G1,NOTE_G1,
  NOTE_C2,NOTE_C2,NOTE_C3,NOTE_C2,NOTE_B2,NOTE_B1,
  NOTE_A2,NOTE_A1,NOTE_G2,NOTE_G1,NOTE_F2,NOTE_F1,
  NOTE_E2,NOTE_E1,NOTE_D2,NOTE_D1,NOTE_G2,NOTE_G1,
  NOTE_C3,NOTE_C2,NOTE_B2,NOTE_B1,NOTE_A2,NOTE_A1,
  NOTE_G2,NOTE_G1,NOTE_F2,NOTE_F1,NOTE_E2,NOTE_E1,
  NOTE_D2,NOTE_D1,NOTE_G2,NOTE_G1,NOTE_C2,NOTE_C2,
  NOTE_G2,NOTE_FS2,NOTE_F2,NOTE_C2,NOTE_C2,NOTE_G2,
  NOTE_FS2,NOTE_F2,NOTE_G2,NOTE_G2,NOTE_G2,NOTE_G2,
  NOTE_F2,NOTE_E2,NOTE_D2,NOTE_C2,NOTE_G1,NOTE_G1,
  NOTE_G1,NOTE_G2,NOTE_G2,NOTE_G2,NOTE_C2,NOTE_G1,
  NOTE_G1,NOTE_C2,NOTE_C2,NOTE_C2,NOTE_C2,NOTE_DS2,
  NOTE_E2,NOTE_F2,NOTE_F2,NOTE_FS2,NOTE_G2,NOTE_C2,
  NOTE_C2,NOTE_DS2,NOTE_E2,NOTE_F2,NOTE_F2,NOTE_FS2,
  NOTE_G2,NOTE_C2,NOTE_C2,NOTE_DS2,NOTE_E2,NOTE_F2,
  NOTE_F2,NOTE_FS2,NOTE_G2,NOTE_DS3,NOTE_D3,NOTE_CS3,
  NOTE_C3,NOTE_B2,NOTE_AS2,NOTE_A2,NOTE_GS2,NOTE_C2,
  NOTE_C2,NOTE_DS2,NOTE_E2,NOTE_F2,NOTE_F2,NOTE_FS2,
  NOTE_G2,NOTE_C2,NOTE_C2,NOTE_DS2,NOTE_E2,NOTE_F2,
  NOTE_F2,NOTE_FS2,NOTE_G2,NOTE_C2,NOTE_C2,NOTE_DS2,
  NOTE_E2,NOTE_F2,NOTE_F2,NOTE_FS2,NOTE_G2,NOTE_DS3,
  NOTE_D3,NOTE_CS3,NOTE_C3,NOTE_B2,NOTE_AS2,NOTE_A2,
  NOTE_GS2,NOTE_G2,NOTE_FS2,NOTE_G2,NOTE_FS2,NOTE_G2,
  NOTE_FS2,NOTE_GS2,NOTE_G1,NOTE_G1,NOTE_AS1,NOTE_B1,
  NOTE_C2,NOTE_B1,NOTE_AS1,NOTE_A1,NOTE_G1,NOTE_G1,
  NOTE_AS1,NOTE_B1,NOTE_C2,NOTE_G1,NOTE_G1,NOTE_AS1,
  NOTE_B1,NOTE_C2,NOTE_B1,NOTE_AS1,NOTE_A1,NOTE_G1,
  NOTE_G1,NOTE_G1,NOTE_A1,NOTE_A1,NOTE_A1,NOTE_AS1,
  NOTE_AS1,NOTE_AS1,NOTE_B1,NOTE_B1,NOTE_B1,NOTE_G1,
  NOTE_G1,NOTE_AS1,NOTE_B1,NOTE_C2,NOTE_B1,NOTE_AS1,
  NOTE_A1,NOTE_G1,NOTE_G1,NOTE_AS1,NOTE_B1,NOTE_C2,
  NOTE_G1,NOTE_G1,NOTE_AS1,NOTE_B1,NOTE_C2,NOTE_B1,
  NOTE_AS1,NOTE_A1,NOTE_C2,NOTE_C2,NOTE_DS2,NOTE_E2,
  NOTE_F1,NOTE_F1,NOTE_GS1,NOTE_A1,NOTE_C2,NOTE_C2,
  NOTE_DS2,NOTE_E2,NOTE_F1,NOTE_F1,NOTE_F1,NOTE_GS1,
  NOTE_A1,NOTE_C2,NOTE_C2,NOTE_DS2,NOTE_E2,NOTE_F1,
  NOTE_F1,NOTE_GS1,NOTE_A1,NOTE_D2,NOTE_D2,NOTE_D2,
  NOTE_D2,NOTE_G2,NOTE_G2,NOTE_G2,NOTE_G1,NOTE_G1,
  NOTE_G1,NOTE_C2,NOTE_C2,NOTE_G2,NOTE_FS2,NOTE_F2,
  NOTE_C2,NOTE_C2,NOTE_G2,NOTE_FS2,NOTE_F2,NOTE_G2,
  NOTE_G2,NOTE_G2,NOTE_G2,NOTE_F2,NOTE_E2,NOTE_D2,
  NOTE_C2,NOTE_G1,NOTE_G1,NOTE_G1,NOTE_G2,NOTE_G2,
  NOTE_G2,NOTE_C2,NOTE_G1,NOTE_G1,NOTE_C2,NOTE_C2,
  NOTE_C3,NOTE_C2,NOTE_B2,NOTE_B1,NOTE_A2,NOTE_A1,
  NOTE_G2,NOTE_G1,NOTE_F2,NOTE_F1,NOTE_E2,NOTE_E1,
  NOTE_D2,NOTE_D1,NOTE_G2,NOTE_G1,NOTE_C3,NOTE_C2,
  NOTE_B2,NOTE_B1,NOTE_A2,NOTE_A1,NOTE_G2,NOTE_G1,
  NOTE_F2,NOTE_F1,NOTE_E2,NOTE_E1,NOTE_D2,NOTE_D1,
  NOTE_G2,NOTE_G1,NOTE_C2,NOTE_C2,NOTE_G2,NOTE_FS2,
  NOTE_F2,NOTE_C2,NOTE_C2,NOTE_G2,NOTE_FS2,NOTE_F2,
  NOTE_G2,NOTE_G2,NOTE_G2,NOTE_G2,NOTE_F2,NOTE_E2,
  NOTE_D2,NOTE_C2,NOTE_G1,NOTE_G1,NOTE_G1,NOTE_G2,
  NOTE_G2,NOTE_G2,NOTE_C2,NOTE_G1,NOTE_G1,NOTE_C2,
  NOTE_C2,NOTE_C2,NOTE_C2,NOTE_DS2,NOTE_E2,NOTE_F2,
  NOTE_F2,NOTE_FS2,NOTE_G2,NOTE_C2,NOTE_C2,NOTE_DS2,
  NOTE_E2,NOTE_F2,NOTE_F2,NOTE_FS2,NOTE_G2,NOTE_C2,
  NOTE_C2,NOTE_DS2,NOTE_E2,NOTE_F2,NOTE_F2,NOTE_FS2,
  NOTE_G2,NOTE_DS3,NOTE_D3,NOTE_CS3,NOTE_C3,NOTE_B2,
  NOTE_AS2,NOTE_A2,NOTE_GS2,NOTE_C2,NOTE_C2,NOTE_DS2,
  NOTE_E2,NOTE_F2,NOTE_F2,NOTE_FS2,NOTE_G2,NOTE_C2,
  NOTE_C2,NOTE_DS2,NOTE_E2,NOTE_F2,NOTE_F2,NOTE_FS2,
  NOTE_G2,NOTE_C2,NOTE_C2,NOTE_DS2,NOTE_E2,NOTE_F2,
  NOTE_F2,NOTE_FS2,NOTE_G2,NOTE_DS3,NOTE_D3,NOTE_CS3,
  NOTE_C3,NOTE_B2,NOTE_AS2,NOTE_A2,NOTE_GS2,NOTE_G2,
  NOTE_FS2,NOTE_G2,NOTE_FS2,NOTE_G2,NOTE_FS2,NOTE_GS2,
  NOTE_G1,NOTE_G1,NOTE_AS1,NOTE_B1,NOTE_C2,NOTE_B1,
  NOTE_AS1,NOTE_A1,NOTE_G1,NOTE_G1,NOTE_AS1,NOTE_B1,
  NOTE_C2,NOTE_G1,NOTE_G1,NOTE_AS1,NOTE_B1,NOTE_C2,
  NOTE_B1,NOTE_AS1,NOTE_A1,NOTE_G1,NOTE_G1,NOTE_G1,
  NOTE_A1,NOTE_A1,NOTE_A1,NOTE_AS1,NOTE_AS1,NOTE_AS1,
  NOTE_B1,NOTE_B1,NOTE_B1,NOTE_G1,NOTE_G1,NOTE_AS1,
  NOTE_B1,NOTE_C2,NOTE_B1,NOTE_AS1,NOTE_A1,NOTE_G1,
  NOTE_G1,NOTE_AS1,NOTE_B1,NOTE_C2,NOTE_G1,NOTE_G1,
  NOTE_AS1,NOTE_B1,NOTE_C2,NOTE_B1,NOTE_AS1,NOTE_A1
};
const int dr_mario_3_dur[] PROGMEM = {
  8,8,8,8,8,8,
  8,8,8,8,8,8,
  8,8,8,8,16,16,
  16,16,16,16,16,16,
  16,16,16,16,16,16,
  16,16,16,16,16,16,
  16,16,16,16,16,16,
  16,16,16,16,16,16,
  16,16,16,16,16,16,
  16,16,16,16,16,16,
  16,16,16,16,16,16,
  16,16,16,16,16,16,
  16,16,16,16,16,16,
  16,16,16,16,16,16,
  16,16,16,16,16,16,
  16,16,16,16,16,16,
  16,16,16,16,16,16,
  16,16,16,16,16,16,
  16,16,16,16,16,16,
  16,16,16,16,16,16,
  16,16,16,16,16,16,
  16,16,16,16,16,16,
  16,16,2,2,2,2,
  2,2,2,2,2,2,
  2,2,2,2,2,2,
  2,2,2,2,2,2,
  2,2,2,2,2,2,
  2,2,2,2,16,16,
  16,16,16,16,16,16,
  16,16,16,16,16,16,
  16,16,16,16,16,16,
  16,16,16,16,16,16,
  16,16,16,8,8,8,
  8,8,8,8,8,8,
  8,8,8,8,8,8,
  8,8,8,8,8,8,
  8,8,8,8,8,8,
  8,8,8,8,8,8,
  8,8,8,8,8,8,
  8,8,8,8,8,8,
  8,8,8,8,8,8,
  8,8,8,8,8,8,
  8,8,8,8,8,8,
  8,8,8,8,8,8,
  8,8,16,16,16,16,
  16,16,16,16,16,16,
  16,16,16,16,16,16,
  16,16,16,16,16,16,
  16,16,16,16,16,16,
  16,16,16,16,16,16,
  16,16,16,16,16,16,
  16,16,16,16,16,16,
  16,16,16,16,16,16,
  16,16,16,16,16,16,
  16,16,16,16,16,16,
  16,16,16,16,16,16,
  16,16,16,16,16,16,
  16,16,16,16,16,16,
  16,16,16,16,16,16,
  16,16,16,16,16,16,
  16,16,16,16,16,16,
  16,16,16,16,16,16,
  16,16,16,16,16,16,
  16,16,16,16,16,16,
  2,2,2,2,2,2,
  2,2,2,2,2,2,
  2,2,2,2,2,2,
  2,2,2,2,2,2,
  2,2,2,2,2,2,
  2,2,16,16,16,16,
  16,16,16,16,16,16,
  16,16,16,16,16,16,
  16,16,16,16,16,16,
  16,16,16,16,16,16,
  16,8,8,8,8,8,
  8,8,8,8,8,8,
  8,8,8,8,8,8,
  8,8,8,8,8,8,
  8,8,8,8,8,8,
  8,8,8,8,8,8,
  8,8,8,8,8,8,
  8,8,8,8,8,8,
  8,8,8,8,8,8,
  8,8,8,8,8,8,
  8,8,8,8,8,8,
  8,8,8,8,8,8,
  16,16,16,16,16,16,
  16,16,16,16,16,16,
  16,16,16,16,16,16,
  16,16,16,16,16,16,
  16,16,16,16,16,16,
  16,16,16,16,16,16,
  16,16,16,16,16,16,
  16,16,16,16,16,16,
  16,16,16,16,16,16
};
const int dr_mario_3_length = 570;
