// Song: dr_mario_arranged
// Generated from: packmidis/Games/dr_mario_arranged.mid
// Notes: 478

const int dr_mario_arranged_notes[] PROGMEM = {
  NOTE_G1,NOTE_G1,NOTE_AS1,NOTE_B1,NOTE_C2,NOTE_B1,
  NOTE_AS1,NOTE_A1,NOTE_G1,NOTE_G1,NOTE_AS1,NOTE_B1,
  NOTE_C2,NOTE_B1,NOTE_AS1,NOTE_A1,NOTE_G2,NOTE_FS2,
  NOTE_F2,NOTE_E2,NOTE_DS2,NOTE_D2,NOTE_G2,NOTE_G2,
  NOTE_G2,NOTE_A2,NOTE_A2,NOTE_A2,NOTE_AS2,NOTE_AS2,
  NOTE_AS2,NOTE_B2,NOTE_B2,NOTE_B2,NOTE_C2,NOTE_C2,
  NOTE_DS2,NOTE_E2,NOTE_F1,NOTE_F1,NOTE_F1,NOTE_GS1,
  NOTE_A1,NOTE_C2,NOTE_C2,NOTE_DS2,NOTE_E2,NOTE_F1,
  NOTE_F1,NOTE_GS1,NOTE_A1,NOTE_CS2,NOTE_C2,NOTE_C2,
  NOTE_DS2,NOTE_E2,NOTE_F1,NOTE_F1,NOTE_F1,NOTE_GS1,
  NOTE_A1,NOTE_D2,NOTE_D2,NOTE_D2,NOTE_FS2,NOTE_A2,
  NOTE_G2,NOTE_F2,NOTE_G2,NOTE_G2,NOTE_G2,NOTE_F2,
  NOTE_G2,NOTE_G2,NOTE_C2,NOTE_C2,NOTE_C2,NOTE_DS2,
  NOTE_E2,NOTE_F2,NOTE_F1,NOTE_B0,NOTE_C2,NOTE_C2,
  NOTE_C2,NOTE_DS2,NOTE_E2,NOTE_F2,NOTE_FS1,NOTE_B0,
  NOTE_E2,NOTE_E2,NOTE_E2,NOTE_E2,NOTE_D2,NOTE_D2,
  NOTE_D2,NOTE_D2,NOTE_G2,NOTE_F2,NOTE_G2,NOTE_G2,
  NOTE_G2,NOTE_F2,NOTE_G2,NOTE_G2,NOTE_C2,NOTE_G1,
  NOTE_G1,NOTE_C2,NOTE_C2,NOTE_C3,NOTE_C3,NOTE_C3,
  NOTE_G3,NOTE_C3,NOTE_B2,NOTE_B2,NOTE_B2,NOTE_G3,
  NOTE_B2,NOTE_A2,NOTE_A2,NOTE_A2,NOTE_G3,NOTE_A2,
  NOTE_G2,NOTE_G2,NOTE_G2,NOTE_G3,NOTE_G2,NOTE_F2,
  NOTE_F2,NOTE_F2,NOTE_F3,NOTE_F2,NOTE_E2,NOTE_E2,
  NOTE_E2,NOTE_F3,NOTE_E2,NOTE_D3,NOTE_D3,NOTE_D3,
  NOTE_D3,NOTE_D3,NOTE_D3,NOTE_G2,NOTE_G2,NOTE_G2,
  NOTE_G2,NOTE_G2,NOTE_G2,NOTE_C3,NOTE_C3,NOTE_C3,
  NOTE_G3,NOTE_C3,NOTE_B2,NOTE_B2,NOTE_B2,NOTE_G3,
  NOTE_B2,NOTE_A2,NOTE_A2,NOTE_A2,NOTE_G3,NOTE_A2,
  NOTE_G2,NOTE_G2,NOTE_G2,NOTE_G3,NOTE_G2,NOTE_F2,
  NOTE_F2,NOTE_F2,NOTE_F3,NOTE_F2,NOTE_E2,NOTE_E2,
  NOTE_E2,NOTE_F3,NOTE_E2,NOTE_D3,NOTE_D3,NOTE_D3,
  NOTE_D3,NOTE_D3,NOTE_D3,NOTE_G2,NOTE_G2,NOTE_G2,
  NOTE_G2,NOTE_G2,NOTE_G2,NOTE_C2,NOTE_C2,NOTE_C2,
  NOTE_DS2,NOTE_E2,NOTE_F2,NOTE_F1,NOTE_B0,NOTE_C2,
  NOTE_C2,NOTE_C2,NOTE_DS2,NOTE_E2,NOTE_F2,NOTE_FS1,
  NOTE_B0,NOTE_E2,NOTE_E2,NOTE_E2,NOTE_E2,NOTE_D2,
  NOTE_D2,NOTE_D2,NOTE_D2,NOTE_G2,NOTE_F2,NOTE_G2,
  NOTE_G2,NOTE_G2,NOTE_F2,NOTE_G2,NOTE_G2,NOTE_C2,
  NOTE_G1,NOTE_G1,NOTE_C2,NOTE_G3,NOTE_F3,NOTE_E3,
  NOTE_DS3,NOTE_C3,NOTE_B2,NOTE_AS2,NOTE_G2,NOTE_FS2,
  NOTE_F2,NOTE_E2,NOTE_DS2,NOTE_D2,NOTE_G2,NOTE_G2,
  NOTE_G2,NOTE_A2,NOTE_A2,NOTE_A2,NOTE_AS2,NOTE_AS2,
  NOTE_AS2,NOTE_B2,NOTE_B2,NOTE_B2,NOTE_C2,NOTE_C2,
  NOTE_DS2,NOTE_E2,NOTE_F1,NOTE_F1,NOTE_F1,NOTE_GS1,
  NOTE_A1,NOTE_C2,NOTE_C2,NOTE_DS2,NOTE_E2,NOTE_F1,
  NOTE_F1,NOTE_GS1,NOTE_A1,NOTE_CS2,NOTE_C2,NOTE_C2,
  NOTE_DS2,NOTE_E2,NOTE_F1,NOTE_F1,NOTE_F1,NOTE_GS1,
  NOTE_A1,NOTE_D2,NOTE_D2,NOTE_D2,NOTE_FS2,NOTE_A2,
  NOTE_G2,NOTE_F2,NOTE_G2,NOTE_G2,NOTE_G2,NOTE_F2,
  NOTE_G2,NOTE_G2,NOTE_C2,NOTE_C2,NOTE_C2,NOTE_DS2,
  NOTE_E2,NOTE_F2,NOTE_F1,NOTE_B0,NOTE_C2,NOTE_C2,
  NOTE_C2,NOTE_DS2,NOTE_E2,NOTE_F2,NOTE_FS1,NOTE_B0,
  NOTE_E2,NOTE_E2,NOTE_E2,NOTE_E2,NOTE_D2,NOTE_D2,
  NOTE_D2,NOTE_D2,NOTE_G2,NOTE_F2,NOTE_G2,NOTE_G2,
  NOTE_G2,NOTE_F2,NOTE_G2,NOTE_G2,NOTE_C2,NOTE_G1,
  NOTE_G1,NOTE_C2,NOTE_C2,NOTE_C3,NOTE_C3,NOTE_C3,
  NOTE_G3,NOTE_C3,NOTE_B2,NOTE_B2,NOTE_B2,NOTE_G3,
  NOTE_B2,NOTE_A2,NOTE_A2,NOTE_A2,NOTE_G3,NOTE_A2,
  NOTE_G2,NOTE_G2,NOTE_G2,NOTE_G3,NOTE_G2,NOTE_F2,
  NOTE_F2,NOTE_F2,NOTE_F3,NOTE_F2,NOTE_E2,NOTE_E2,
  NOTE_E2,NOTE_F3,NOTE_E2,NOTE_D3,NOTE_D3,NOTE_D3,
  NOTE_D3,NOTE_D3,NOTE_D3,NOTE_G2,NOTE_G2,NOTE_G2,
  NOTE_G2,NOTE_G2,NOTE_G2,NOTE_C3,NOTE_C3,NOTE_C3,
  NOTE_G3,NOTE_C3,NOTE_B2,NOTE_B2,NOTE_B2,NOTE_G3,
  NOTE_B2,NOTE_A2,NOTE_A2,NOTE_A2,NOTE_G3,NOTE_A2,
  NOTE_G2,NOTE_G2,NOTE_G2,NOTE_G3,NOTE_G2,NOTE_F2,
  NOTE_F2,NOTE_F2,NOTE_F3,NOTE_F2,NOTE_E2,NOTE_E2,
  NOTE_E2,NOTE_F3,NOTE_E2,NOTE_D3,NOTE_D3,NOTE_D3,
  NOTE_D3,NOTE_D3,NOTE_D3,NOTE_G2,NOTE_G2,NOTE_G2,
  NOTE_G2,NOTE_G2,NOTE_G2,NOTE_C2,NOTE_C2,NOTE_C2,
  NOTE_DS2,NOTE_E2,NOTE_F2,NOTE_F1,NOTE_B0,NOTE_C2,
  NOTE_C2,NOTE_C2,NOTE_DS2,NOTE_E2,NOTE_F2,NOTE_FS1,
  NOTE_B0,NOTE_E2,NOTE_E2,NOTE_E2,NOTE_E2,NOTE_D2,
  NOTE_D2,NOTE_D2,NOTE_D2,NOTE_G2,NOTE_F2,NOTE_G2,
  NOTE_G2,NOTE_G2,NOTE_F2,NOTE_G2,NOTE_G2,NOTE_C2,
  NOTE_G1,NOTE_G1,NOTE_C2,NOTE_G3,NOTE_F3,NOTE_E3,
  NOTE_DS3,NOTE_C3,NOTE_B2,NOTE_AS2,NOTE_G2,NOTE_FS2,
  NOTE_F2,NOTE_E2,NOTE_DS2,NOTE_D2,NOTE_G2,NOTE_G2,
  NOTE_G2,NOTE_A2,NOTE_A2,NOTE_A2,NOTE_AS2,NOTE_AS2,
  NOTE_AS2,NOTE_B2,NOTE_B2,NOTE_B2
};
const int dr_mario_arranged_dur[] PROGMEM = {
  8,8,8,8,8,8,
  8,8,8,8,8,8,
  8,8,8,8,32,32,
  32,32,32,32,16,16,
  16,16,16,16,16,16,
  16,16,16,16,8,8,
  8,8,16,16,8,8,
  8,8,8,8,8,16,
  16,8,8,8,8,8,
  8,8,16,16,8,8,
  8,16,16,8,8,8,
  16,16,16,8,16,16,
  16,8,16,16,8,8,
  8,4,4,4,16,16,
  8,8,8,4,4,4,
  8,8,8,8,8,8,
  8,8,16,16,16,8,
  16,16,16,8,8,16,
  16,8,8,16,16,16,
  16,16,16,16,16,16,
  16,16,16,16,16,16,
  16,16,16,16,16,16,
  16,16,16,16,16,16,
  16,16,16,16,16,16,
  16,16,16,16,16,16,
  16,16,16,16,16,16,
  16,16,16,16,16,16,
  16,16,16,16,16,16,
  16,16,16,16,16,16,
  16,16,16,16,16,16,
  16,16,16,16,16,16,
  16,16,16,16,16,16,
  16,16,16,16,16,8,
  8,8,4,4,4,16,
  16,8,8,8,4,4,
  4,8,8,8,8,8,
  8,8,8,16,16,16,
  8,16,16,16,8,8,
  16,16,4,2,2,2,
  2,2,2,1,32,32,
  32,32,32,32,16,16,
  16,16,16,16,16,16,
  16,16,16,16,8,8,
  8,8,16,16,8,8,
  8,8,8,8,8,16,
  16,8,8,8,8,8,
  8,8,16,16,8,8,
  8,16,16,8,8,8,
  16,16,16,8,16,16,
  16,8,16,16,8,8,
  8,4,4,4,16,16,
  8,8,8,4,4,4,
  8,8,8,8,8,8,
  8,8,16,16,16,8,
  16,16,16,8,8,16,
  16,8,8,16,16,16,
  16,16,16,16,16,16,
  16,16,16,16,16,16,
  16,16,16,16,16,16,
  16,16,16,16,16,16,
  16,16,16,16,16,16,
  16,16,16,16,16,16,
  16,16,16,16,16,16,
  16,16,16,16,16,16,
  16,16,16,16,16,16,
  16,16,16,16,16,16,
  16,16,16,16,16,16,
  16,16,16,16,16,16,
  16,16,16,16,16,16,
  16,16,16,16,16,8,
  8,8,4,4,4,16,
  16,8,8,8,4,4,
  4,8,8,8,8,8,
  8,8,8,16,16,16,
  8,16,16,16,8,8,
  16,16,4,2,2,2,
  2,2,2,1,32,32,
  32,32,32,32,16,16,
  16,16,16,16,16,16,
  16,16,16,16
};
const int dr_mario_arranged_length = 478;
