// Song: dr_mario
// Generated from: packmidis/Games/dr_mario.mid
// Notes: 60

const int dr_mario_notes[] PROGMEM = {
  NOTE_G4,NOTE_G5,NOTE_G4,NOTE_G5,NOTE_G4,NOTE_FS4,
  NOTE_G4,NOTE_FS4,NOTE_G4,NOTE_FS4,NOTE_GS4,NOTE_G4,
  NOTE_FS4,NOTE_G4,NOTE_FS4,NOTE_G4,NOTE_FS4,NOTE_GS4,
  NOTE_G4,NOTE_FS4,NOTE_G4,NOTE_FS4,NOTE_G4,NOTE_FS4,
  NOTE_GS4,NOTE_G4,NOTE_FS4,NOTE_G4,NOTE_FS4,NOTE_G4,
  NOTE_FS4,NOTE_GS4,NOTE_G4,NOTE_FS4,NOTE_G4,NOTE_FS4,
  NOTE_G4,NOTE_FS4,NOTE_GS4,NOTE_G4,NOTE_FS4,NOTE_G4,
  NOTE_FS4,NOTE_G4,NOTE_FS4,NOTE_GS4,NOTE_G4,NOTE_FS4,
  NOTE_G4,NOTE_FS4,NOTE_G4,NOTE_FS4,NOTE_GS4,NOTE_G4,
  NOTE_FS4,NOTE_G4,NOTE_FS4,NOTE_G4,NOTE_FS4,NOTE_GS4
};
const int dr_mario_dur[] PROGMEM = {
  8,1,8,1,8,8,
  8,8,8,8,1,8,
  8,8,8,8,8,1,
  8,8,8,8,8,8,
  1,8,8,8,8,8,
  8,1,8,8,8,8,
  8,8,1,8,8,8,
  8,8,8,1,8,8,
  8,8,8,8,1,8,
  8,8,8,8,8,1
};
const int dr_mario_length = 60;
