// Song: dr_mario_4
// Generated from: packmidis/Games/dr_mario_4.mid
// Notes: 2921

const int dr_mario_4_notes[] PROGMEM = {
  NOTE_G2,NOTE_G5,NOTE_G3,NOTE_G4,NOTE_G2,NOTE_G5,
  NOTE_G3,NOTE_G4,NOTE_AS2,NOTE_B2,NOTE_C3,NOTE_B2,
  NOTE_AS2,NOTE_A2,NOTE_G2,NOTE_G3,NOTE_G4,NOTE_G5,
  NOTE_G2,NOTE_G3,NOTE_G5,NOTE_G4,NOTE_AS2,NOTE_B2,
  NOTE_C3,NOTE_B2,NOTE_AS2,NOTE_A2,NOTE_B1,NOTE_GS3,
  NOTE_G2,NOTE_G1,NOTE_G5,NOTE_G3,NOTE_G4,NOTE_G2,
  NOTE_G1,NOTE_GS3,NOTE_D2,NOTE_AS2,NOTE_AS1,NOTE_D2,
  NOTE_B2,NOTE_B1,NOTE_GS3,NOTE_B1,NOTE_C3,NOTE_C2,
  NOTE_B1,NOTE_B2,NOTE_D2,NOTE_GS3,NOTE_AS2,NOTE_AS1,
  NOTE_A2,NOTE_CS3,NOTE_E3,NOTE_A1,NOTE_B1,NOTE_GS3,
  NOTE_G2,NOTE_G1,NOTE_G2,NOTE_G1,NOTE_GS3,NOTE_D2,
  NOTE_AS2,NOTE_AS1,NOTE_D2,NOTE_B2,NOTE_B1,NOTE_D2,
  NOTE_B1,NOTE_GS3,NOTE_C3,NOTE_C2,NOTE_D2,NOTE_D2,
  NOTE_B2,NOTE_B1,NOTE_D2,NOTE_GS3,NOTE_D2,NOTE_AS2,
  NOTE_AS1,NOTE_D2,NOTE_D2,NOTE_A2,NOTE_A1,NOTE_D2,
  NOTE_C2,NOTE_AS5,NOTE_G4,NOTE_FS2,NOTE_G1,NOTE_FS2,
  NOTE_B5,NOTE_G4,NOTE_G2,NOTE_E2,NOTE_FS2,NOTE_AS5,
  NOTE_AS4,NOTE_G1,NOTE_E2,NOTE_FS2,NOTE_B5,NOTE_B4,
  NOTE_G1,NOTE_FS2,NOTE_C2,NOTE_A5,NOTE_C5,NOTE_G1,
  NOTE_FS2,NOTE_G5,NOTE_C5,NOTE_G2,NOTE_E2,NOTE_FS2,
  NOTE_G5,NOTE_D5,NOTE_G1,NOTE_FS2,NOTE_A5,NOTE_E5,
  NOTE_CS3,NOTE_G2,NOTE_A3,NOTE_G3,NOTE_FS2,NOTE_AS5,
  NOTE_G4,NOTE_C2,NOTE_G1,NOTE_FS2,NOTE_G4,NOTE_B5,
  NOTE_G2,NOTE_FS2,NOTE_A5,NOTE_AS4,NOTE_E2,NOTE_G1,
  NOTE_E2,NOTE_G5,NOTE_B4,NOTE_FS2,NOTE_G1,NOTE_C2,
  NOTE_G5,NOTE_C5,NOTE_FS2,NOTE_G1,NOTE_FS2,NOTE_G2,
  NOTE_F2,NOTE_E2,NOTE_FS2,NOTE_E2,NOTE_D2,NOTE_C2,
  NOTE_B1,NOTE_FS2,NOTE_A1,NOTE_G1,NOTE_C2,NOTE_AS5,
  NOTE_G4,NOTE_FS2,NOTE_G1,NOTE_FS2,NOTE_G4,NOTE_B5,
  NOTE_G2,NOTE_E2,NOTE_AS5,NOTE_AS4,NOTE_FS2,NOTE_G1,
  NOTE_E2,NOTE_B5,NOTE_B4,NOTE_FS2,NOTE_G1,NOTE_FS2,
  NOTE_A5,NOTE_C5,NOTE_C2,NOTE_G1,NOTE_FS2,NOTE_C5,
  NOTE_G5,NOTE_G2,NOTE_FS2,NOTE_G5,NOTE_D5,NOTE_E2,
  NOTE_G1,NOTE_FS2,NOTE_E5,NOTE_A5,NOTE_G2,NOTE_G3,
  NOTE_G1,NOTE_B3,NOTE_E2,NOTE_G3,NOTE_B3,NOTE_G1,
  NOTE_C2,NOTE_E2,NOTE_FS2,NOTE_G3,NOTE_G1,NOTE_B3,
  NOTE_AS2,NOTE_A3,NOTE_A1,NOTE_C4,NOTE_E2,NOTE_A3,
  NOTE_C4,NOTE_A1,NOTE_C2,NOTE_E2,NOTE_GS2,NOTE_A3,
  NOTE_A1,NOTE_C4,NOTE_AS2,NOTE_AS3,NOTE_AS1,NOTE_CS4,
  NOTE_D3,NOTE_AS3,NOTE_CS4,NOTE_AS1,NOTE_C2,NOTE_D3,
  NOTE_GS2,NOTE_C3,NOTE_AS3,NOTE_AS1,NOTE_CS4,NOTE_C3,
  NOTE_AS2,NOTE_B3,NOTE_B1,NOTE_D4,NOTE_A2,NOTE_B3,
  NOTE_D4,NOTE_B1,NOTE_C2,NOTE_A2,NOTE_GS2,NOTE_F2,
  NOTE_B3,NOTE_B1,NOTE_D4,NOTE_F2,NOTE_AS2,NOTE_FS2,
  NOTE_G4,NOTE_AS5,NOTE_C2,NOTE_G1,NOTE_FS2,NOTE_G4,
  NOTE_B5,NOTE_G2,NOTE_E2,NOTE_FS2,NOTE_AS4,NOTE_AS5,
  NOTE_G1,NOTE_E2,NOTE_FS2,NOTE_B4,NOTE_B5,NOTE_G1,
  NOTE_C2,NOTE_FS2,NOTE_C5,NOTE_A5,NOTE_G1,NOTE_FS2,
  NOTE_C5,NOTE_G5,NOTE_G2,NOTE_E2,NOTE_FS2,NOTE_D5,
  NOTE_G5,NOTE_G1,NOTE_FS2,NOTE_E5,NOTE_A5,NOTE_G3,
  NOTE_G2,NOTE_A3,NOTE_C2,NOTE_AS5,NOTE_G4,NOTE_FS2,
  NOTE_G1,NOTE_FS2,NOTE_G4,NOTE_B5,NOTE_G2,NOTE_FS2,
  NOTE_A5,NOTE_AS4,NOTE_E2,NOTE_G1,NOTE_FS2,NOTE_G5,
  NOTE_B4,NOTE_E2,NOTE_G1,NOTE_C2,NOTE_G5,NOTE_C5,
  NOTE_FS2,NOTE_G1,NOTE_FS2,NOTE_E2,NOTE_FS2,NOTE_FS2,
  NOTE_FS2,NOTE_AS5,NOTE_G4,NOTE_C2,NOTE_G1,NOTE_FS2,
  NOTE_G4,NOTE_B5,NOTE_G2,NOTE_FS2,NOTE_AS5,NOTE_AS4,
  NOTE_E2,NOTE_G1,NOTE_FS2,NOTE_B5,NOTE_B4,NOTE_E2,
  NOTE_G1,NOTE_C2,NOTE_A5,NOTE_C5,NOTE_FS2,NOTE_G1,
  NOTE_FS2,NOTE_C5,NOTE_G5,NOTE_G2,NOTE_E2,NOTE_G5,
  NOTE_D5,NOTE_FS2,NOTE_G1,NOTE_A5,NOTE_E5,NOTE_G2,
  NOTE_AS2,NOTE_D7,NOTE_C7,NOTE_GS6,NOTE_C7,NOTE_F6,
  NOTE_A6,NOTE_E6,NOTE_DS6,NOTE_CS6,NOTE_G2,NOTE_A5,
  NOTE_CS6,NOTE_G5,NOTE_C6,NOTE_FS5,NOTE_B5,NOTE_AS5,
  NOTE_A5,NOTE_G3,NOTE_A3,NOTE_G5,NOTE_FS2,NOTE_DS6,
  NOTE_C2,NOTE_G5,NOTE_FS2,NOTE_G5,NOTE_FS2,NOTE_E6,
  NOTE_C2,NOTE_G5,NOTE_G5,NOTE_DS6,NOTE_FS2,NOTE_E1,
  NOTE_DS2,NOTE_G5,NOTE_FS2,NOTE_G5,NOTE_FS2,NOTE_E6,
  NOTE_E2,NOTE_G5,NOTE_C4,NOTE_G4,NOTE_E4,NOTE_C2,
  NOTE_D6,NOTE_FS2,NOTE_F5,NOTE_F1,NOTE_FS2,NOTE_FS2,
  NOTE_C6,NOTE_B5,NOTE_F1,NOTE_E1,NOTE_A5,NOTE_FS2,
  NOTE_C6,NOTE_GS1,NOTE_FS2,NOTE_FS2,NOTE_A5,NOTE_G5,
  NOTE_A1,NOTE_G3,NOTE_G4,NOTE_F4,NOTE_A3,NOTE_A4,
  NOTE_G5,NOTE_DS6,NOTE_FS2,NOTE_C2,NOTE_G5,NOTE_FS2,
  NOTE_G5,NOTE_FS2,NOTE_E6,NOTE_C2,NOTE_G5,NOTE_G5,
  NOTE_E1,NOTE_FS2,NOTE_D6,NOTE_DS2,NOTE_G5,NOTE_FS2,
  NOTE_G5,NOTE_FS2,NOTE_C6,NOTE_E2,NOTE_G5,NOTE_C4,
  NOTE_G4,NOTE_E4,NOTE_F1,NOTE_C6,NOTE_FS2,NOTE_C2,
  NOTE_F5,NOTE_F1,NOTE_A4,NOTE_F4,NOTE_G4,NOTE_FS2,
  NOTE_FS2,NOTE_F1,NOTE_FS2,NOTE_E1,NOTE_GS1,NOTE_FS2,
  NOTE_FS2,NOTE_A1,NOTE_G5,NOTE_DS6,NOTE_FS2,NOTE_C2,
  NOTE_G5,NOTE_FS2,NOTE_G5,NOTE_FS2,NOTE_E6,NOTE_C2,
  NOTE_G5,NOTE_G5,NOTE_FS2,NOTE_E1,NOTE_DS6,NOTE_DS2,
  NOTE_G5,NOTE_FS2,NOTE_G5,NOTE_FS2,NOTE_E6,NOTE_E2,
  NOTE_G5,NOTE_C4,NOTE_E4,NOTE_G4,NOTE_FS2,NOTE_F5,
  NOTE_C2,NOTE_D6,NOTE_F1,NOTE_FS2,NOTE_FS2,NOTE_C6,
  NOTE_B5,NOTE_F1,NOTE_E1,NOTE_FS2,NOTE_C6,NOTE_A5,
  NOTE_GS1,NOTE_FS2,NOTE_FS2,NOTE_A5,NOTE_G5,NOTE_A1,
  NOTE_D4,NOTE_A4,NOTE_F4,NOTE_FS5,NOTE_FS2,NOTE_C2,
  NOTE_D2,NOTE_FS5,NOTE_FS2,NOTE_FS2,NOTE_A5,NOTE_FS5,
  NOTE_D2,NOTE_E1,NOTE_FS2,NOTE_B5,NOTE_D5,NOTE_D2,
  NOTE_FS2,NOTE_FS2,NOTE_D6,NOTE_G5,NOTE_D2,NOTE_D4,
  NOTE_A4,NOTE_FS4,NOTE_G2,NOTE_C6,NOTE_FS2,NOTE_C2,
  NOTE_E5,NOTE_G2,NOTE_C5,NOTE_G4,NOTE_D4,NOTE_FS2,
  NOTE_FS2,NOTE_G2,NOTE_G1,NOTE_B5,NOTE_FS2,NOTE_E1,
  NOTE_D5,NOTE_G1,NOTE_G4,NOTE_B4,NOTE_B3,NOTE_FS2,
  NOTE_FS2,NOTE_G1,NOTE_G5,NOTE_DS6,NOTE_C2,NOTE_FS2,
  NOTE_G5,NOTE_FS2,NOTE_G5,NOTE_FS2,NOTE_E6,NOTE_C2,
  NOTE_G5,NOTE_G5,NOTE_FS2,NOTE_E1,NOTE_D6,NOTE_G2,
  NOTE_G5,NOTE_FS2,NOTE_G5,NOTE_FS2,NOTE_C6,NOTE_G5,
  NOTE_C4,NOTE_G4,NOTE_E4,NOTE_C2,NOTE_F5,NOTE_FS2,
  NOTE_C6,NOTE_F2,NOTE_G4,NOTE_A4,NOTE_F4,NOTE_FS2,
  NOTE_FS2,NOTE_F2,NOTE_F1,NOTE_AS2,NOTE_C2,NOTE_E1,
  NOTE_G5,NOTE_DS6,NOTE_FS2,NOTE_C2,NOTE_G5,NOTE_FS2,
  NOTE_G5,NOTE_FS2,NOTE_E6,NOTE_C2,NOTE_G5,NOTE_G5,
  NOTE_FS2,NOTE_E1,NOTE_D6,NOTE_G2,NOTE_G5,NOTE_FS2,
  NOTE_G5,NOTE_FS2,NOTE_C6,NOTE_G5,NOTE_C4,NOTE_E4,
  NOTE_G4,NOTE_FS2,NOTE_F5,NOTE_C2,NOTE_C6,NOTE_F2,
  NOTE_A4,NOTE_F4,NOTE_G4,NOTE_FS2,NOTE_FS2,NOTE_AS2,
  NOTE_FS1,NOTE_FS2,NOTE_C2,NOTE_E1,NOTE_G5,NOTE_DS6,
  NOTE_C2,NOTE_FS2,NOTE_G2,NOTE_G5,NOTE_FS2,NOTE_G5,
  NOTE_FS2,NOTE_E6,NOTE_G2,NOTE_G5,NOTE_G5,NOTE_E1,
  NOTE_FS2,NOTE_DS6,NOTE_G2,NOTE_G5,NOTE_FS2,NOTE_G5,
  NOTE_FS2,NOTE_E6,NOTE_G2,NOTE_G5,NOTE_C4,NOTE_E4,
  NOTE_G4,NOTE_FS2,NOTE_F5,NOTE_C2,NOTE_D6,NOTE_F2,
  NOTE_FS2,NOTE_FS2,NOTE_C6,NOTE_B5,NOTE_E2,NOTE_E1,
  NOTE_FS2,NOTE_C6,NOTE_A5,NOTE_D2,NOTE_FS2,NOTE_FS2,
  NOTE_A5,NOTE_G5,NOTE_C2,NOTE_D4,NOTE_A4,NOTE_F4,
  NOTE_G1,NOTE_D5,NOTE_C6,NOTE_C2,NOTE_FS2,NOTE_G1,
  NOTE_D5,NOTE_G4,NOTE_D4,NOTE_FS2,NOTE_F4,NOTE_FS2,
  NOTE_D5,NOTE_G1,NOTE_G2,NOTE_D6,NOTE_E1,NOTE_FS2,
  NOTE_G5,NOTE_G2,NOTE_G3,NOTE_G4,NOTE_F4,NOTE_FS2,
  NOTE_FS2,NOTE_F5,NOTE_G2,NOTE_FS2,NOTE_E5,NOTE_C2,
  NOTE_C6,NOTE_FS2,NOTE_G4,NOTE_C4,NOTE_E4,NOTE_FS2,
  NOTE_E1,NOTE_E1,NOTE_E3,NOTE_C4,NOTE_B3,NOTE_C4,
  NOTE_G4,NOTE_C3,NOTE_E5,NOTE_C4,NOTE_B3,NOTE_D5,
  NOTE_C4,NOTE_G4,NOTE_B3,NOTE_B2,NOTE_G5,NOTE_C4,
  NOTE_B3,NOTE_C4,NOTE_G4,NOTE_A2,NOTE_C4,NOTE_B3,
  NOTE_C4,NOTE_G4,NOTE_C5,NOTE_G2,NOTE_C4,NOTE_B3,
  NOTE_C4,NOTE_G4,NOTE_F2,NOTE_A5,NOTE_C4,NOTE_B3,
  NOTE_G5,NOTE_C4,NOTE_G4,NOTE_E2,NOTE_C6,NOTE_C4,
  NOTE_B3,NOTE_C4,NOTE_G4,NOTE_D2,NOTE_C4,NOTE_B3,
  NOTE_C4,NOTE_G4,NOTE_F5,NOTE_G2,NOTE_C4,NOTE_B3,
  NOTE_C4,NOTE_G4,NOTE_C3,NOTE_E5,NOTE_C4,NOTE_B3,
  NOTE_D5,NOTE_C4,NOTE_G4,NOTE_B3,NOTE_B2,NOTE_G5,
  NOTE_C4,NOTE_B3,NOTE_C4,NOTE_G4,NOTE_A2,NOTE_C4,
  NOTE_B3,NOTE_C4,NOTE_G4,NOTE_C5,NOTE_G2,NOTE_C4,
  NOTE_B3,NOTE_C4,NOTE_G4,NOTE_F2,NOTE_A5,NOTE_C4,
  NOTE_B3,NOTE_G5,NOTE_C4,NOTE_G4,NOTE_E2,NOTE_B5,
  NOTE_C4,NOTE_B3,NOTE_C4,NOTE_G4,NOTE_D2,NOTE_C4,
  NOTE_B3,NOTE_C4,NOTE_G4,NOTE_C6,NOTE_G2,NOTE_G5,
  NOTE_FS2,NOTE_DS6,NOTE_C2,NOTE_G5,NOTE_FS2,NOTE_G5,
  NOTE_FS2,NOTE_E6,NOTE_C2,NOTE_G5,NOTE_G5,NOTE_FS2,
  NOTE_D6,NOTE_E1,NOTE_G2,NOTE_G5,NOTE_FS2,NOTE_G5,
  NOTE_FS2,NOTE_C6,NOTE_G5,NOTE_G4,NOTE_C4,NOTE_E4,
  NOTE_FS2,NOTE_C6,NOTE_C2,NOTE_F5,NOTE_F2,NOTE_G4,
  NOTE_F4,NOTE_A4,NOTE_FS2,NOTE_FS2,NOTE_F1,NOTE_F2,
  NOTE_C2,NOTE_E1,NOTE_AS2,NOTE_A3,NOTE_G5,NOTE_DS6,
  NOTE_C2,NOTE_FS2,NOTE_G5,NOTE_FS2,NOTE_G5,NOTE_FS2,
  NOTE_E6,NOTE_C2,NOTE_G5,NOTE_G5,NOTE_E1,NOTE_FS2,
  NOTE_D6,NOTE_G2,NOTE_G5,NOTE_FS2,NOTE_G5,NOTE_FS2,
  NOTE_C6,NOTE_G5,NOTE_C4,NOTE_G4,NOTE_E4,NOTE_C2,
  NOTE_F5,NOTE_FS2,NOTE_C6,NOTE_F2,NOTE_G4,NOTE_A4,
  NOTE_F4,NOTE_FS2,NOTE_FS2,NOTE_C2,NOTE_FS1,NOTE_FS2,
  NOTE_E1,NOTE_AS2,NOTE_G5,NOTE_DS6,NOTE_FS2,NOTE_C2,
  NOTE_G2,NOTE_G5,NOTE_FS2,NOTE_G5,NOTE_FS2,NOTE_E6,
  NOTE_G2,NOTE_G5,NOTE_G5,NOTE_E1,NOTE_FS2,NOTE_DS6,
  NOTE_G2,NOTE_G5,NOTE_FS2,NOTE_G5,NOTE_FS2,NOTE_E6,
  NOTE_G2,NOTE_G5,NOTE_C4,NOTE_E4,NOTE_G4,NOTE_FS2,
  NOTE_F5,NOTE_C2,NOTE_D6,NOTE_F2,NOTE_FS2,NOTE_FS2,
  NOTE_C6,NOTE_B5,NOTE_E2,NOTE_FS2,NOTE_E1,NOTE_C6,
  NOTE_A5,NOTE_D2,NOTE_FS2,NOTE_FS2,NOTE_A5,NOTE_G5,
  NOTE_C2,NOTE_D4,NOTE_A4,NOTE_F4,NOTE_G1,NOTE_D5,
  NOTE_C6,NOTE_FS2,NOTE_C2,NOTE_G1,NOTE_D5,NOTE_G4,
  NOTE_D4,NOTE_FS2,NOTE_F4,NOTE_FS2,NOTE_D5,NOTE_G1,
  NOTE_G2,NOTE_D6,NOTE_FS2,NOTE_E1,NOTE_G5,NOTE_G2,
  NOTE_G3,NOTE_G4,NOTE_F4,NOTE_FS2,NOTE_FS2,NOTE_F5,
  NOTE_G2,NOTE_FS2,NOTE_E5,NOTE_C2,NOTE_C6,NOTE_FS2,
  NOTE_G4,NOTE_E4,NOTE_C4,NOTE_D3,NOTE_FS2,NOTE_D3,
  NOTE_C2,NOTE_F2,NOTE_C3,NOTE_C2,NOTE_C3,NOTE_C2,
  NOTE_DS3,NOTE_DS2,NOTE_D2,NOTE_E3,NOTE_E2,NOTE_D2,
  NOTE_F3,NOTE_F2,NOTE_C2,NOTE_F3,NOTE_F2,NOTE_C2,
  NOTE_FS3,NOTE_FS2,NOTE_D2,NOTE_G3,NOTE_G2,NOTE_C2,
  NOTE_C3,NOTE_C2,NOTE_C3,NOTE_C2,NOTE_DS3,NOTE_DS2,
  NOTE_D2,NOTE_E3,NOTE_E2,NOTE_D2,NOTE_F3,NOTE_F2,
  NOTE_C2,NOTE_F3,NOTE_F2,NOTE_C2,NOTE_FS3,NOTE_FS2,
  NOTE_D2,NOTE_G3,NOTE_G2,NOTE_C2,NOTE_C3,NOTE_C2,
  NOTE_C3,NOTE_C2,NOTE_DS3,NOTE_DS2,NOTE_D2,NOTE_E3,
  NOTE_E2,NOTE_D2,NOTE_F3,NOTE_F2,NOTE_C2,NOTE_F3,
  NOTE_F2,NOTE_C2,NOTE_FS3,NOTE_FS2,NOTE_D2,NOTE_G3,
  NOTE_G2,NOTE_C2,NOTE_DS4,NOTE_DS3,NOTE_C2,NOTE_D4,
  NOTE_D3,NOTE_C2,NOTE_CS4,NOTE_CS3,NOTE_D2,NOTE_C4,
  NOTE_C3,NOTE_D2,NOTE_B3,NOTE_B2,NOTE_C2,NOTE_AS3,
  NOTE_AS2,NOTE_C2,NOTE_A3,NOTE_A2,NOTE_D2,NOTE_GS3,
  NOTE_GS2,NOTE_C2,NOTE_C3,NOTE_C2,NOTE_C3,NOTE_C2,
  NOTE_DS3,NOTE_DS2,NOTE_D2,NOTE_E3,NOTE_E2,NOTE_D2,
  NOTE_F3,NOTE_F2,NOTE_C2,NOTE_F3,NOTE_F2,NOTE_C2,
  NOTE_FS3,NOTE_FS2,NOTE_D2,NOTE_G3,NOTE_G2,NOTE_C2,
  NOTE_C3,NOTE_C2,NOTE_C3,NOTE_C2,NOTE_DS3,NOTE_DS2,
  NOTE_D2,NOTE_E3,NOTE_E2,NOTE_D2,NOTE_F3,NOTE_F2,
  NOTE_C2,NOTE_F3,NOTE_F2,NOTE_C2,NOTE_FS3,NOTE_FS2,
  NOTE_D2,NOTE_G3,NOTE_G2,NOTE_C2,NOTE_C3,NOTE_C2,
  NOTE_C3,NOTE_C2,NOTE_DS3,NOTE_DS2,NOTE_D2,NOTE_E3,
  NOTE_E2,NOTE_D2,NOTE_F3,NOTE_F2,NOTE_C2,NOTE_F3,
  NOTE_F2,NOTE_C2,NOTE_FS3,NOTE_FS2,NOTE_D2,NOTE_G3,
  NOTE_G2,NOTE_C2,NOTE_DS4,NOTE_DS3,NOTE_C2,NOTE_D4,
  NOTE_D3,NOTE_C2,NOTE_CS4,NOTE_CS3,NOTE_D2,NOTE_C4,
  NOTE_C3,NOTE_D2,NOTE_B3,NOTE_B2,NOTE_C2,NOTE_AS3,
  NOTE_AS2,NOTE_C2,NOTE_A3,NOTE_A2,NOTE_D2,NOTE_GS3,
  NOTE_GS2,NOTE_C2,NOTE_G3,NOTE_G2,NOTE_G4,NOTE_G5,
  NOTE_G6,NOTE_C2,NOTE_D2,NOTE_FS3,NOTE_FS2,NOTE_C2,
  NOTE_D2,NOTE_FS6,NOTE_FS5,NOTE_FS4,NOTE_G3,NOTE_G2,
  NOTE_G4,NOTE_G5,NOTE_G6,NOTE_C2,NOTE_D2,NOTE_FS3,
  NOTE_FS2,NOTE_D2,NOTE_C2,NOTE_FS6,NOTE_FS5,NOTE_FS4,
  NOTE_G3,NOTE_G2,NOTE_G4,NOTE_G5,NOTE_G6,NOTE_D2,
  NOTE_C2,NOTE_FS3,NOTE_FS2,NOTE_C2,NOTE_D2,NOTE_FS6,
  NOTE_FS5,NOTE_FS4,NOTE_GS3,NOTE_GS2,NOTE_GS5,NOTE_GS6,
  NOTE_GS4,NOTE_C2,NOTE_D2,NOTE_G7,NOTE_B3,NOTE_D6,
  NOTE_D7,NOTE_B3,NOTE_G6,NOTE_B6,NOTE_B3,NOTE_D6,
  NOTE_D7,NOTE_G3,NOTE_G5,NOTE_D5,NOTE_B4,NOTE_B3,
  NOTE_G7,NOTE_B3,NOTE_D6,NOTE_D7,NOTE_B3,NOTE_G6,
  NOTE_B6,NOTE_B3,NOTE_D6,NOTE_D7,NOTE_F3,NOTE_F5,
  NOTE_D5,NOTE_B4,NOTE_B3,NOTE_G7,NOTE_B3,NOTE_E6,
  NOTE_E7,NOTE_B3,NOTE_G6,NOTE_C7,NOTE_B3,NOTE_E6,
  NOTE_E7,NOTE_E3,NOTE_E5,NOTE_C5,NOTE_G4,NOTE_B3,
  NOTE_G7,NOTE_B3,NOTE_DS6,NOTE_DS7,NOTE_B3,NOTE_G6,
  NOTE_C7,NOTE_B3,NOTE_DS6,NOTE_DS7,NOTE_DS3,NOTE_DS5,
  NOTE_C5,NOTE_G4,NOTE_B3,NOTE_G7,NOTE_B3,NOTE_C6,
  NOTE_E7,NOTE_B3,NOTE_G6,NOTE_C7,NOTE_B3,NOTE_C6,
  NOTE_E7,NOTE_C3,NOTE_C5,NOTE_G4,NOTE_E4,NOTE_B3,
  NOTE_G7,NOTE_B3,NOTE_B5,NOTE_D7,NOTE_B3,NOTE_G6,
  NOTE_B6,NOTE_B3,NOTE_B5,NOTE_D7,NOTE_B2,NOTE_B4,
  NOTE_G4,NOTE_D4,NOTE_B3,NOTE_E2,NOTE_E2,NOTE_AS5,
  NOTE_E2,NOTE_E2,NOTE_E2,NOTE_AS6,NOTE_E2,NOTE_AS5,
  NOTE_E2,NOTE_E2,NOTE_AS2,NOTE_E2,NOTE_E2,NOTE_E2,
  NOTE_E2,NOTE_E2,NOTE_E2,NOTE_D4,NOTE_G4,NOTE_AS4,
  NOTE_G7,NOTE_C2,NOTE_AS5,NOTE_G4,NOTE_FS2,NOTE_G1,
  NOTE_FS2,NOTE_B5,NOTE_G4,NOTE_G2,NOTE_E2,NOTE_FS2,
  NOTE_AS5,NOTE_AS4,NOTE_G1,NOTE_FS2,NOTE_E2,NOTE_B5,
  NOTE_B4,NOTE_G1,NOTE_FS2,NOTE_C2,NOTE_A5,NOTE_C5,
  NOTE_G1,NOTE_FS2,NOTE_G5,NOTE_C5,NOTE_G2,NOTE_FS2,
  NOTE_E2,NOTE_G5,NOTE_D5,NOTE_G1,NOTE_FS2,NOTE_A5,
  NOTE_E5,NOTE_CS3,NOTE_G2,NOTE_A3,NOTE_G3,NOTE_C2,
  NOTE_AS5,NOTE_G4,NOTE_FS2,NOTE_G1,NOTE_FS2,NOTE_G4,
  NOTE_B5,NOTE_G2,NOTE_E2,NOTE_A5,NOTE_AS4,NOTE_FS2,
  NOTE_G1,NOTE_E2,NOTE_G5,NOTE_B4,NOTE_FS2,NOTE_G1,
  NOTE_FS2,NOTE_G5,NOTE_C5,NOTE_C2,NOTE_G1,NOTE_FS2,
  NOTE_G2,NOTE_F2,NOTE_E2,NOTE_FS2,NOTE_E2,NOTE_D2,
  NOTE_C2,NOTE_B1,NOTE_FS2,NOTE_A1,NOTE_G1,NOTE_C2,
  NOTE_AS5,NOTE_G4,NOTE_FS2,NOTE_G1,NOTE_FS2,NOTE_G4,
  NOTE_B5,NOTE_G2,NOTE_E2,NOTE_AS5,NOTE_AS4,NOTE_FS2,
  NOTE_G1,NOTE_E2,NOTE_B5,NOTE_B4,NOTE_FS2,NOTE_G1,
  NOTE_C2,NOTE_A5,NOTE_C5,NOTE_FS2,NOTE_G1,NOTE_FS2,
  NOTE_C5,NOTE_G5,NOTE_G2,NOTE_E2,NOTE_G5,NOTE_D5,
  NOTE_FS2,NOTE_G1,NOTE_FS2,NOTE_E5,NOTE_A5,NOTE_G2,
  NOTE_G3,NOTE_G1,NOTE_B3,NOTE_E2,NOTE_G3,NOTE_B3,
  NOTE_G1,NOTE_C2,NOTE_E2,NOTE_FS2,NOTE_G3,NOTE_G1,
  NOTE_B3,NOTE_AS2,NOTE_A3,NOTE_A1,NOTE_C4,NOTE_E2,
  NOTE_A3,NOTE_C4,NOTE_A1,NOTE_C2,NOTE_E2,NOTE_GS2,
  NOTE_A3,NOTE_A1,NOTE_C4,NOTE_AS2,NOTE_AS3,NOTE_AS1,
  NOTE_CS4,NOTE_D3,NOTE_AS3,NOTE_CS4,NOTE_AS1,NOTE_C2,
  NOTE_D3,NOTE_GS2,NOTE_C3,NOTE_AS1,NOTE_AS3,NOTE_CS4,
  NOTE_C3,NOTE_AS2,NOTE_B3,NOTE_B1,NOTE_D4,NOTE_A2,
  NOTE_B3,NOTE_D4,NOTE_B1,NOTE_C2,NOTE_A2,NOTE_GS2,
  NOTE_F2,NOTE_B1,NOTE_B3,NOTE_D4,NOTE_F2,NOTE_AS2,
  NOTE_FS2,NOTE_C2,NOTE_G4,NOTE_AS5,NOTE_G1,NOTE_FS2,
  NOTE_G4,NOTE_B5,NOTE_G2,NOTE_E2,NOTE_FS2,NOTE_AS4,
  NOTE_AS5,NOTE_G1,NOTE_E2,NOTE_FS2,NOTE_B4,NOTE_B5,
  NOTE_G1,NOTE_FS2,NOTE_C2,NOTE_C5,NOTE_A5,NOTE_G1,
  NOTE_FS2,NOTE_C5,NOTE_G5,NOTE_G2,NOTE_E2,NOTE_FS2,
  NOTE_D5,NOTE_G5,NOTE_G1,NOTE_FS2,NOTE_E5,NOTE_A5,
  NOTE_G3,NOTE_G2,NOTE_A3,NOTE_C2,NOTE_AS5,NOTE_G4,
  NOTE_FS2,NOTE_G1,NOTE_FS2,NOTE_G4,NOTE_B5,NOTE_G2,
  NOTE_E2,NOTE_A5,NOTE_AS4,NOTE_FS2,NOTE_G1,NOTE_FS2,
  NOTE_G5,NOTE_B4,NOTE_E2,NOTE_G1,NOTE_C2,NOTE_G5,
  NOTE_C5,NOTE_FS2,NOTE_G1,NOTE_FS2,NOTE_E2,NOTE_FS2,
  NOTE_FS2,NOTE_C2,NOTE_AS5,NOTE_G4,NOTE_FS2,NOTE_G1,
  NOTE_FS2,NOTE_G4,NOTE_B5,NOTE_G2,NOTE_FS2,NOTE_AS5,
  NOTE_AS4,NOTE_E2,NOTE_G1,NOTE_E2,NOTE_B5,NOTE_B4,
  NOTE_FS2,NOTE_G1,NOTE_FS2,NOTE_A5,NOTE_C5,NOTE_C2,
  NOTE_G1,NOTE_FS2,NOTE_C5,NOTE_G5,NOTE_G2,NOTE_E2,
  NOTE_G5,NOTE_D5,NOTE_FS2,NOTE_G1,NOTE_A5,NOTE_E5,
  NOTE_G2,NOTE_AS2,NOTE_D7,NOTE_C7,NOTE_GS6,NOTE_C7,
  NOTE_F6,NOTE_A6,NOTE_E6,NOTE_DS6,NOTE_CS6,NOTE_G2,
  NOTE_A5,NOTE_CS6,NOTE_G5,NOTE_C6,NOTE_FS5,NOTE_B5,
  NOTE_AS5,NOTE_A5,NOTE_A3,NOTE_G3,NOTE_G5,NOTE_FS2,
  NOTE_DS6,NOTE_C2,NOTE_G5,NOTE_FS2,NOTE_G5,NOTE_FS2,
  NOTE_E6,NOTE_C2,NOTE_G5,NOTE_G5,NOTE_DS6,NOTE_E1,
  NOTE_FS2,NOTE_DS2,NOTE_G5,NOTE_FS2,NOTE_G5,NOTE_FS2,
  NOTE_E6,NOTE_E2,NOTE_G5,NOTE_G4,NOTE_E4,NOTE_C4,
  NOTE_FS2,NOTE_D6,NOTE_C2,NOTE_F5,NOTE_F1,NOTE_FS2,
  NOTE_FS2,NOTE_C6,NOTE_B5,NOTE_F1,NOTE_E1,NOTE_A5,
  NOTE_FS2,NOTE_C6,NOTE_GS1,NOTE_FS2,NOTE_FS2,NOTE_A5,
  NOTE_G5,NOTE_A1,NOTE_G3,NOTE_G4,NOTE_F4,NOTE_A3,
  NOTE_A4,NOTE_G5,NOTE_DS6,NOTE_FS2,NOTE_C2,NOTE_G5,
  NOTE_FS2,NOTE_G5,NOTE_FS2,NOTE_E6,NOTE_C2,NOTE_G5,
  NOTE_G5,NOTE_FS2,NOTE_E1,NOTE_D6,NOTE_DS2,NOTE_G5,
  NOTE_FS2,NOTE_G5,NOTE_FS2,NOTE_C6,NOTE_E2,NOTE_G5,
  NOTE_G4,NOTE_E4,NOTE_C4,NOTE_F1,NOTE_C6,NOTE_FS2,
  NOTE_C2,NOTE_F5,NOTE_F1,NOTE_G4,NOTE_F4,NOTE_A4,
  NOTE_FS2,NOTE_FS2,NOTE_F1,NOTE_FS2,NOTE_E1,NOTE_GS1,
  NOTE_FS2,NOTE_FS2,NOTE_A1,NOTE_G5,NOTE_DS6,NOTE_C2,
  NOTE_FS2,NOTE_G5,NOTE_FS2,NOTE_G5,NOTE_FS2,NOTE_E6,
  NOTE_C2,NOTE_G5,NOTE_G5,NOTE_FS2,NOTE_E1,NOTE_DS6,
  NOTE_DS2,NOTE_G5,NOTE_FS2,NOTE_G5,NOTE_FS2,NOTE_E6,
  NOTE_E2,NOTE_G5,NOTE_C4,NOTE_E4,NOTE_G4,NOTE_FS2,
  NOTE_F5,NOTE_C2,NOTE_D6,NOTE_F1,NOTE_FS2,NOTE_FS2,
  NOTE_C6,NOTE_B5,NOTE_F1,NOTE_FS2,NOTE_E1,NOTE_C6,
  NOTE_A5,NOTE_GS1,NOTE_FS2,NOTE_FS2,NOTE_A5,NOTE_G5,
  NOTE_A1,NOTE_D4,NOTE_A4,NOTE_F4,NOTE_FS5,NOTE_C2,
  NOTE_FS2,NOTE_D2,NOTE_FS5,NOTE_FS2,NOTE_FS2,NOTE_A5,
  NOTE_FS5,NOTE_D2,NOTE_E1,NOTE_FS2,NOTE_B5,NOTE_D5,
  NOTE_D2,NOTE_FS2,NOTE_FS2,NOTE_D6,NOTE_G5,NOTE_D2,
  NOTE_D4,NOTE_FS4,NOTE_A4,NOTE_G2,NOTE_C6,NOTE_C2,
  NOTE_FS2,NOTE_E5,NOTE_G2,NOTE_D4,NOTE_G4,NOTE_C5,
  NOTE_FS2,NOTE_FS2,NOTE_G2,NOTE_G1,NOTE_B5,NOTE_FS2,
  NOTE_E1,NOTE_D5,NOTE_G1,NOTE_B3,NOTE_B4,NOTE_G4,
  NOTE_FS2,NOTE_FS2,NOTE_G1,NOTE_G5,NOTE_DS6,NOTE_FS2,
  NOTE_C2,NOTE_G5,NOTE_FS2,NOTE_G5,NOTE_FS2,NOTE_E6,
  NOTE_C2,NOTE_G5,NOTE_G5,NOTE_E1,NOTE_FS2,NOTE_D6,
  NOTE_G2,NOTE_G5,NOTE_FS2,NOTE_G5,NOTE_FS2,NOTE_C6,
  NOTE_G5,NOTE_C4,NOTE_G4,NOTE_E4,NOTE_C2,NOTE_F5,
  NOTE_FS2,NOTE_C6,NOTE_F2,NOTE_G4,NOTE_A4,NOTE_F4,
  NOTE_FS2,NOTE_FS2,NOTE_F2,NOTE_F1,NOTE_E1,NOTE_C2,
  NOTE_AS2,NOTE_G5,NOTE_DS6,NOTE_C2,NOTE_FS2,NOTE_G5,
  NOTE_FS2,NOTE_G5,NOTE_FS2,NOTE_E6,NOTE_C2,NOTE_G5,
  NOTE_G5,NOTE_FS2,NOTE_E1,NOTE_D6,NOTE_G2,NOTE_G5,
  NOTE_FS2,NOTE_G5,NOTE_FS2,NOTE_C6,NOTE_G5,NOTE_C4,
  NOTE_G4,NOTE_E4,NOTE_C2,NOTE_F5,NOTE_FS2,NOTE_C6,
  NOTE_F2,NOTE_G4,NOTE_F4,NOTE_A4,NOTE_FS2,NOTE_FS2,
  NOTE_AS2,NOTE_FS1,NOTE_FS2,NOTE_C2,NOTE_E1,NOTE_G5,
  NOTE_DS6,NOTE_FS2,NOTE_C2,NOTE_G2,NOTE_G5,NOTE_FS2,
  NOTE_G5,NOTE_FS2,NOTE_E6,NOTE_G2,NOTE_G5,NOTE_G5,
  NOTE_E1,NOTE_FS2,NOTE_DS6,NOTE_G2,NOTE_G5,NOTE_FS2,
  NOTE_G5,NOTE_FS2,NOTE_E6,NOTE_G2,NOTE_G5,NOTE_G4,
  NOTE_C4,NOTE_E4,NOTE_FS2,NOTE_F5,NOTE_C2,NOTE_D6,
  NOTE_F2,NOTE_FS2,NOTE_FS2,NOTE_C6,NOTE_B5,NOTE_E2,
  NOTE_FS2,NOTE_E1,NOTE_C6,NOTE_A5,NOTE_D2,NOTE_FS2,
  NOTE_FS2,NOTE_A5,NOTE_G5,NOTE_C2,NOTE_F4,NOTE_A4,
  NOTE_D4,NOTE_G1,NOTE_D5,NOTE_C6,NOTE_FS2,NOTE_C2,
  NOTE_G1,NOTE_D5,NOTE_F4,NOTE_D4,NOTE_FS2,NOTE_G4,
  NOTE_FS2,NOTE_D5,NOTE_G1,NOTE_G2,NOTE_D6,NOTE_E1,
  NOTE_FS2,NOTE_G5,NOTE_G2,NOTE_G3,NOTE_G4,NOTE_F4,
  NOTE_FS2,NOTE_FS2,NOTE_F5,NOTE_G2,NOTE_C2,NOTE_E5,
  NOTE_FS2,NOTE_C6,NOTE_FS2,NOTE_C4,NOTE_E4,NOTE_G4,
  NOTE_FS2,NOTE_E1,NOTE_E1,NOTE_E3,NOTE_C4,NOTE_B3,
  NOTE_C4,NOTE_G4,NOTE_C3,NOTE_E5,NOTE_C4,NOTE_B3,
  NOTE_D5,NOTE_C4,NOTE_G4,NOTE_B3,NOTE_B2,NOTE_G5,
  NOTE_C4,NOTE_B3,NOTE_C4,NOTE_G4,NOTE_A2,NOTE_C4,
  NOTE_B3,NOTE_C4,NOTE_G4,NOTE_C5,NOTE_G2,NOTE_C4,
  NOTE_B3,NOTE_C4,NOTE_G4,NOTE_F2,NOTE_A5,NOTE_C4,
  NOTE_B3,NOTE_G5,NOTE_C4,NOTE_G4,NOTE_E2,NOTE_C6,
  NOTE_C4,NOTE_B3,NOTE_C4,NOTE_G4,NOTE_D2,NOTE_C4,
  NOTE_B3,NOTE_C4,NOTE_G4,NOTE_F5,NOTE_G2,NOTE_C4,
  NOTE_B3,NOTE_C4,NOTE_G4,NOTE_C3,NOTE_E5,NOTE_C4,
  NOTE_B3,NOTE_D5,NOTE_C4,NOTE_G4,NOTE_B3,NOTE_B2,
  NOTE_G5,NOTE_C4,NOTE_B3,NOTE_C4,NOTE_G4,NOTE_A2,
  NOTE_C4,NOTE_B3,NOTE_C4,NOTE_G4,NOTE_C5,NOTE_G2,
  NOTE_C4,NOTE_B3,NOTE_C4,NOTE_G4,NOTE_F2,NOTE_A5,
  NOTE_C4,NOTE_B3,NOTE_G5,NOTE_C4,NOTE_G4,NOTE_E2,
  NOTE_B5,NOTE_C4,NOTE_B3,NOTE_C4,NOTE_G4,NOTE_D2,
  NOTE_C4,NOTE_B3,NOTE_C4,NOTE_G4,NOTE_C6,NOTE_G2,
  NOTE_G5,NOTE_C2,NOTE_FS2,NOTE_DS6,NOTE_G5,NOTE_FS2,
  NOTE_G5,NOTE_FS2,NOTE_E6,NOTE_C2,NOTE_G5,NOTE_G5,
  NOTE_E1,NOTE_D6,NOTE_FS2,NOTE_G2,NOTE_G5,NOTE_FS2,
  NOTE_G5,NOTE_FS2,NOTE_C6,NOTE_G5,NOTE_C4,NOTE_G4,
  NOTE_E4,NOTE_FS2,NOTE_C6,NOTE_C2,NOTE_F5,NOTE_F2,
  NOTE_F4,NOTE_A4,NOTE_G4,NOTE_FS2,NOTE_FS2,NOTE_F1,
  NOTE_F2,NOTE_E1,NOTE_C2,NOTE_AS2,NOTE_A3,NOTE_G5,
  NOTE_DS6,NOTE_FS2,NOTE_C2,NOTE_G5,NOTE_FS2,NOTE_G5,
  NOTE_FS2,NOTE_E6,NOTE_C2,NOTE_G5,NOTE_G5,NOTE_E1,
  NOTE_FS2,NOTE_D6,NOTE_G2,NOTE_G5,NOTE_FS2,NOTE_G5,
  NOTE_FS2,NOTE_C6,NOTE_G5,NOTE_E4,NOTE_G4,NOTE_C4,
  NOTE_FS2,NOTE_F5,NOTE_C2,NOTE_C6,NOTE_F2,NOTE_G4,
  NOTE_F4,NOTE_A4,NOTE_FS2,NOTE_FS2,NOTE_C2,NOTE_FS2,
  NOTE_FS1,NOTE_E1,NOTE_AS2,NOTE_G5,NOTE_DS6,NOTE_C2,
  NOTE_FS2,NOTE_G2,NOTE_G5,NOTE_FS2,NOTE_G5,NOTE_FS2,
  NOTE_E6,NOTE_G2,NOTE_G5,NOTE_G5,NOTE_E1,NOTE_FS2,
  NOTE_DS6,NOTE_G2,NOTE_G5,NOTE_FS2,NOTE_G5,NOTE_FS2,
  NOTE_E6,NOTE_G2,NOTE_G5,NOTE_E4,NOTE_G4,NOTE_C4,
  NOTE_FS2,NOTE_F5,NOTE_C2,NOTE_D6,NOTE_F2,NOTE_FS2,
  NOTE_FS2,NOTE_C6,NOTE_B5,NOTE_E2,NOTE_E1,NOTE_FS2,
  NOTE_C6,NOTE_A5,NOTE_D2,NOTE_FS2,NOTE_FS2,NOTE_A5,
  NOTE_G5,NOTE_C2,NOTE_D4,NOTE_A4,NOTE_F4,NOTE_G1,
  NOTE_D5,NOTE_C6,NOTE_C2,NOTE_FS2,NOTE_G1,NOTE_D5,
  NOTE_F4,NOTE_D4,NOTE_FS2,NOTE_G4,NOTE_FS2,NOTE_D5,
  NOTE_G1,NOTE_G2,NOTE_D6,NOTE_FS2,NOTE_E1,NOTE_G5,
  NOTE_G2,NOTE_F4,NOTE_G4,NOTE_G3,NOTE_FS2,NOTE_FS2,
  NOTE_F5,NOTE_G2,NOTE_C2,NOTE_E5,NOTE_FS2,NOTE_C6,
  NOTE_FS2,NOTE_G4,NOTE_C4,NOTE_E4,NOTE_D3,NOTE_FS2,
  NOTE_D3,NOTE_C2,NOTE_F2,NOTE_C3,NOTE_C2,NOTE_C3,
  NOTE_C2,NOTE_DS3,NOTE_DS2,NOTE_D2,NOTE_E3,NOTE_E2,
  NOTE_D2,NOTE_F3,NOTE_F2,NOTE_C2,NOTE_F3,NOTE_F2,
  NOTE_C2,NOTE_FS3,NOTE_FS2,NOTE_D2,NOTE_G3,NOTE_G2,
  NOTE_C2,NOTE_C3,NOTE_C2,NOTE_C3,NOTE_C2,NOTE_DS3,
  NOTE_DS2,NOTE_D2,NOTE_E3,NOTE_E2,NOTE_D2,NOTE_F3,
  NOTE_F2,NOTE_C2,NOTE_F3,NOTE_F2,NOTE_C2,NOTE_FS3,
  NOTE_FS2,NOTE_D2,NOTE_G3,NOTE_G2,NOTE_C2,NOTE_C3,
  NOTE_C2,NOTE_C3,NOTE_C2,NOTE_DS3,NOTE_DS2,NOTE_D2,
  NOTE_E3,NOTE_E2,NOTE_D2,NOTE_F3,NOTE_F2,NOTE_C2,
  NOTE_F3,NOTE_F2,NOTE_C2,NOTE_FS3,NOTE_FS2,NOTE_D2,
  NOTE_G3,NOTE_G2,NOTE_C2,NOTE_DS4,NOTE_DS3,NOTE_C2,
  NOTE_D4,NOTE_D3,NOTE_C2,NOTE_CS4,NOTE_CS3,NOTE_D2,
  NOTE_C4,NOTE_C3,NOTE_D2,NOTE_B3,NOTE_B2,NOTE_C2,
  NOTE_AS3,NOTE_AS2,NOTE_C2,NOTE_A3,NOTE_A2,NOTE_D2,
  NOTE_GS3,NOTE_GS2,NOTE_C2,NOTE_C3,NOTE_C2,NOTE_C3,
  NOTE_C2,NOTE_DS3,NOTE_DS2,NOTE_D2,NOTE_E3,NOTE_E2,
  NOTE_D2,NOTE_F3,NOTE_F2,NOTE_C2,NOTE_F3,NOTE_F2,
  NOTE_C2,NOTE_FS3,NOTE_FS2,NOTE_D2,NOTE_G3,NOTE_G2,
  NOTE_C2,NOTE_C3,NOTE_C2,NOTE_C3,NOTE_C2,NOTE_DS3,
  NOTE_DS2,NOTE_D2,NOTE_E3,NOTE_E2,NOTE_D2,NOTE_F3,
  NOTE_F2,NOTE_C2,NOTE_F3,NOTE_F2,NOTE_C2,NOTE_FS3,
  NOTE_FS2,NOTE_D2,NOTE_G3,NOTE_G2,NOTE_C2,NOTE_C3,
  NOTE_C2,NOTE_C3,NOTE_C2,NOTE_DS3,NOTE_DS2,NOTE_D2,
  NOTE_E3,NOTE_E2,NOTE_D2,NOTE_F3,NOTE_F2,NOTE_C2,
  NOTE_F3,NOTE_F2,NOTE_C2,NOTE_FS3,NOTE_FS2,NOTE_D2,
  NOTE_G3,NOTE_G2,NOTE_C2,NOTE_DS4,NOTE_DS3,NOTE_C2,
  NOTE_D4,NOTE_D3,NOTE_C2,NOTE_CS4,NOTE_CS3,NOTE_D2,
  NOTE_C4,NOTE_C3,NOTE_D2,NOTE_B3,NOTE_B2,NOTE_C2,
  NOTE_AS3,NOTE_AS2,NOTE_C2,NOTE_A3,NOTE_A2,NOTE_D2,
  NOTE_GS3,NOTE_GS2,NOTE_C2,NOTE_G3,NOTE_G2,NOTE_G6,
  NOTE_G5,NOTE_G4,NOTE_D2,NOTE_C2,NOTE_FS3,NOTE_FS2,
  NOTE_D2,NOTE_C2,NOTE_FS4,NOTE_FS5,NOTE_FS6,NOTE_G3,
  NOTE_G2,NOTE_G4,NOTE_G5,NOTE_G6,NOTE_D2,NOTE_C2,
  NOTE_FS3,NOTE_FS2,NOTE_D2,NOTE_C2,NOTE_FS4,NOTE_FS5,
  NOTE_FS6,NOTE_G3,NOTE_G2,NOTE_G6,NOTE_G4,NOTE_G5,
  NOTE_D2,NOTE_C2,NOTE_FS3,NOTE_FS2,NOTE_C2,NOTE_D2,
  NOTE_FS4,NOTE_FS6,NOTE_FS5,NOTE_GS3,NOTE_GS2,NOTE_GS5,
  NOTE_GS6,NOTE_GS4,NOTE_C2,NOTE_D2,NOTE_G7,NOTE_B3,
  NOTE_D6,NOTE_D7,NOTE_B3,NOTE_G6,NOTE_B6,NOTE_B3,
  NOTE_D6,NOTE_D7,NOTE_G3,NOTE_B4,NOTE_G5,NOTE_D5,
  NOTE_B3,NOTE_G7,NOTE_B3,NOTE_D6,NOTE_D7,NOTE_B3,
  NOTE_G6,NOTE_B6,NOTE_B3,NOTE_D6,NOTE_D7,NOTE_B4,
  NOTE_F5,NOTE_D5,NOTE_F3,NOTE_B3,NOTE_G7,NOTE_B3,
  NOTE_E6,NOTE_E7,NOTE_B3,NOTE_G6,NOTE_C7,NOTE_B3,
  NOTE_E6,NOTE_E7,NOTE_E3,NOTE_C5,NOTE_E5,NOTE_G4,
  NOTE_B3,NOTE_G7,NOTE_B3,NOTE_DS6,NOTE_DS7,NOTE_B3,
  NOTE_G6,NOTE_C7,NOTE_B3,NOTE_DS6,NOTE_DS7,NOTE_DS3,
  NOTE_DS5,NOTE_G4,NOTE_C5,NOTE_B3,NOTE_G7,NOTE_B3,
  NOTE_C6,NOTE_E7,NOTE_B3,NOTE_G6,NOTE_C7,NOTE_B3,
  NOTE_C6,NOTE_E7,NOTE_C5,NOTE_G4,NOTE_E4,NOTE_C3,
  NOTE_B3,NOTE_G7,NOTE_B3,NOTE_B5,NOTE_D7,NOTE_B3,
  NOTE_G6,NOTE_B6,NOTE_B3,NOTE_B5,NOTE_D7,NOTE_B2,
  NOTE_B4,NOTE_G4,NOTE_D4,NOTE_B3,NOTE_E2,NOTE_E2,
  NOTE_AS5,NOTE_E2,NOTE_E2,NOTE_E2,NOTE_AS6,NOTE_E2,
  NOTE_AS5,NOTE_E2,NOTE_E2,NOTE_AS2,NOTE_E2,NOTE_E2,
  NOTE_E2,NOTE_E2,NOTE_E2,NOTE_E2,NOTE_D4,NOTE_G4,
  NOTE_G7,NOTE_AS4,NOTE_C2,NOTE_FS2,NOTE_G4,NOTE_AS5,
  NOTE_G1,NOTE_FS2,NOTE_B5,NOTE_G4,NOTE_G2,NOTE_E2,
  NOTE_FS2,NOTE_AS5,NOTE_AS4,NOTE_G1,NOTE_E2,NOTE_FS2,
  NOTE_B5,NOTE_B4,NOTE_G1,NOTE_C2,NOTE_FS2,NOTE_A5,
  NOTE_C5,NOTE_G1,NOTE_FS2,NOTE_G5,NOTE_C5,NOTE_G2,
  NOTE_FS2,NOTE_E2,NOTE_G5,NOTE_D5,NOTE_G1,NOTE_FS2,
  NOTE_A5,NOTE_E5,NOTE_CS3,NOTE_G2,NOTE_G3,NOTE_A3,
  NOTE_C2,NOTE_AS5,NOTE_G4,NOTE_FS2,NOTE_G1,NOTE_FS2,
  NOTE_G4,NOTE_B5,NOTE_G2,NOTE_FS2,NOTE_A5,NOTE_AS4,
  NOTE_E2,NOTE_G1,NOTE_FS2,NOTE_G5,NOTE_B4,NOTE_E2,
  NOTE_G1,NOTE_C2,NOTE_G5,NOTE_C5,NOTE_FS2,NOTE_G1,
  NOTE_FS2,NOTE_G2,NOTE_F2,NOTE_FS2,NOTE_E2,NOTE_E2,
  NOTE_D2,NOTE_C2,NOTE_B1,NOTE_FS2,NOTE_A1,NOTE_G1,
  NOTE_C2,NOTE_AS5,NOTE_G4,NOTE_FS2,NOTE_G1,NOTE_FS2,
  NOTE_G4,NOTE_B5,NOTE_G2,NOTE_FS2,NOTE_AS5,NOTE_AS4,
  NOTE_E2,NOTE_G1,NOTE_E2,NOTE_B5,NOTE_B4,NOTE_FS2,
  NOTE_G1,NOTE_FS2,NOTE_A5,NOTE_C5,NOTE_C2,NOTE_G1,
  NOTE_FS2,NOTE_C5,NOTE_G5,NOTE_G2,NOTE_E2,NOTE_G5,
  NOTE_D5,NOTE_FS2,NOTE_G1,NOTE_FS2,NOTE_E5,NOTE_A5,
  NOTE_G2,NOTE_G3,NOTE_G1,NOTE_B3,NOTE_E2,NOTE_G3,
  NOTE_B3,NOTE_G1,NOTE_C2,NOTE_E2,NOTE_FS2,NOTE_G3,
  NOTE_G1,NOTE_B3,NOTE_AS2,NOTE_A3,NOTE_A1,NOTE_C4,
  NOTE_E2,NOTE_A3,NOTE_C4,NOTE_A1,NOTE_C2,NOTE_E2,
  NOTE_GS2,NOTE_A3,NOTE_A1,NOTE_C4,NOTE_AS2,NOTE_AS3,
  NOTE_AS1,NOTE_CS4,NOTE_D3,NOTE_AS3,NOTE_CS4,NOTE_AS1,
  NOTE_GS2,NOTE_D3,NOTE_C2,NOTE_C3,NOTE_AS3,NOTE_AS1,
  NOTE_CS4,NOTE_C3,NOTE_AS2,NOTE_B3,NOTE_B1,NOTE_D4,
  NOTE_A2,NOTE_B3,NOTE_D4,NOTE_B1,NOTE_C2,NOTE_A2,
  NOTE_GS2,NOTE_F2,NOTE_B3,NOTE_B1,NOTE_D4,NOTE_F2,
  NOTE_AS2,NOTE_FS2,NOTE_C2,NOTE_G4,NOTE_AS5,NOTE_G1,
  NOTE_FS2,NOTE_G4,NOTE_B5,NOTE_G2,NOTE_FS2,NOTE_E2,
  NOTE_AS4,NOTE_AS5,NOTE_G1,NOTE_FS2,NOTE_E2,NOTE_B4,
  NOTE_B5,NOTE_G1,NOTE_FS2,NOTE_C2,NOTE_C5,NOTE_A5,
  NOTE_G1,NOTE_FS2,NOTE_C5,NOTE_G5,NOTE_G2,NOTE_E2,
  NOTE_FS2,NOTE_D5,NOTE_G5,NOTE_G1,NOTE_FS2,NOTE_E5,
  NOTE_A5,NOTE_G3,NOTE_G2,NOTE_A3,NOTE_C2,NOTE_AS5,
  NOTE_G4,NOTE_FS2,NOTE_G1,NOTE_FS2,NOTE_G4,NOTE_B5,
  NOTE_G2,NOTE_FS2,NOTE_A5,NOTE_AS4,NOTE_E2,NOTE_G1,
  NOTE_FS2,NOTE_G5,NOTE_B4,NOTE_E2,NOTE_G1,NOTE_FS2,
  NOTE_G5,NOTE_C5,NOTE_C2,NOTE_G1,NOTE_FS2,NOTE_FS2,
  NOTE_E2,NOTE_FS2,NOTE_C2,NOTE_AS5,NOTE_G4,NOTE_FS2,
  NOTE_G1,NOTE_FS2,NOTE_G4,NOTE_B5,NOTE_G2,NOTE_FS2,
  NOTE_AS5,NOTE_AS4,NOTE_E2,NOTE_G1,NOTE_E2,NOTE_B5,
  NOTE_B4,NOTE_FS2,NOTE_G1,NOTE_FS2,NOTE_A5,NOTE_C5,
  NOTE_C2,NOTE_G1,NOTE_FS2,NOTE_C5,NOTE_G5,NOTE_G2,
  NOTE_FS2,NOTE_G5,NOTE_D5,NOTE_E2,NOTE_G1,NOTE_A5,
  NOTE_E5,NOTE_G2,NOTE_AS2,NOTE_D7,NOTE_C7,NOTE_GS6,
  NOTE_C7,NOTE_F6,NOTE_A6,NOTE_E6,NOTE_DS6,NOTE_CS6,
  NOTE_G2,NOTE_A5,NOTE_CS6,NOTE_G5,NOTE_C6,NOTE_FS5,
  NOTE_B5,NOTE_AS5,NOTE_A5,NOTE_A3,NOTE_G3
};
const int dr_mario_4_dur[] PROGMEM = {
  8,8,8,8,8,8,
  8,8,8,8,8,8,
  8,8,8,8,8,8,
  8,8,8,8,8,8,
  8,8,8,8,16,16,
  8,8,8,8,8,8,
  8,16,16,8,8,16,
  8,8,16,16,8,8,
  16,8,16,16,8,8,
  8,1,1,8,16,16,
  8,8,8,8,16,16,
  8,8,16,8,8,16,
  16,16,8,8,16,16,
  8,8,16,16,16,8,
  8,16,16,8,8,16,
  16,16,16,16,8,16,
  16,16,8,16,16,16,
  16,8,16,16,16,16,
  8,16,16,16,16,8,
  16,16,16,8,16,16,
  16,16,8,16,16,16,
  1,8,1,1,16,16,
  16,16,8,16,16,16,
  8,16,16,16,16,8,
  16,16,16,16,8,16,
  16,16,16,8,16,32,
  32,16,16,32,32,32,
  32,16,32,32,16,16,
  16,16,8,16,16,16,
  8,16,16,16,16,8,
  16,16,16,16,8,16,
  16,16,16,8,16,16,
  16,8,16,16,16,16,
  8,16,16,16,8,16,
  16,16,16,16,16,16,
  8,16,8,16,16,16,
  8,16,16,16,16,16,
  16,16,8,16,8,16,
  16,16,8,16,16,16,
  16,16,16,16,8,16,
  8,16,16,16,16,16,
  8,16,16,16,16,16,
  16,16,8,16,8,16,
  16,16,16,16,8,16,
  16,16,16,8,16,16,
  16,8,16,16,16,16,
  8,16,16,16,16,8,
  16,16,16,16,8,16,
  16,16,8,16,16,16,
  16,8,16,16,16,1,
  8,1,16,16,16,16,
  8,16,16,16,8,16,
  16,16,16,8,16,16,
  16,16,8,16,16,16,
  16,8,16,16,16,16,
  16,16,16,16,8,16,
  16,16,8,16,16,16,
  16,8,16,16,16,16,
  8,16,16,16,16,8,
  16,16,16,8,16,16,
  16,16,8,16,16,8,
  8,16,16,16,16,16,
  16,16,16,16,16,16,
  32,32,32,32,32,32,
  16,4,4,16,16,16,
  16,16,16,16,16,16,
  8,16,16,16,16,16,
  8,16,16,16,16,16,
  8,16,2,2,2,16,
  16,16,16,8,16,16,
  16,16,8,16,16,16,
  16,8,16,16,16,16,
  8,1,2,2,1,2,
  16,16,16,16,16,16,
  16,16,16,8,16,16,
  16,16,16,8,16,16,
  16,16,16,8,16,2,
  2,2,32,16,16,16,
  16,32,8,8,8,16,
  16,8,16,16,8,16,
  16,8,16,16,16,16,
  16,16,16,16,16,8,
  16,16,16,16,16,8,
  16,16,16,16,16,8,
  16,2,2,2,16,16,
  16,16,8,16,16,16,
  16,8,16,16,16,16,
  8,16,16,16,16,8,
  2,2,2,16,16,16,
  8,16,16,16,16,16,
  8,16,16,16,16,8,
  16,16,16,16,8,2,
  2,2,32,16,16,16,
  16,32,8,8,8,16,
  16,8,32,16,16,16,
  16,32,8,8,8,16,
  16,8,16,16,16,16,
  16,16,16,16,16,8,
  16,16,16,16,16,8,
  16,16,16,16,16,16,
  2,2,2,16,16,16,
  16,8,8,8,8,16,
  16,8,8,8,8,8,
  16,16,16,16,16,16,
  16,16,16,8,16,16,
  16,16,16,8,16,16,
  16,16,16,16,2,2,
  2,16,16,16,16,8,
  8,8,8,16,16,8,
  8,8,8,8,16,16,
  16,16,8,16,16,16,
  16,16,8,16,16,16,
  16,16,8,16,16,16,
  16,16,8,16,2,2,
  2,16,16,16,16,8,
  16,16,16,16,8,16,
  16,16,16,8,16,16,
  16,16,8,2,2,2,
  32,16,16,16,16,32,
  16,8,8,16,8,16,
  16,8,32,16,16,16,
  16,32,8,8,8,16,
  16,16,8,16,16,16,
  16,16,8,8,8,16,
  16,16,4,8,8,8,
  8,2,2,8,8,4,
  8,8,4,2,4,8,
  8,8,8,2,8,8,
  8,8,1,2,8,8,
  8,8,2,2,8,8,
  4,8,8,2,4,8,
  8,8,8,2,8,8,
  8,8,1,2,8,8,
  8,8,2,2,8,8,
  4,8,8,4,2,4,
  8,8,8,8,2,8,
  8,8,8,1,2,8,
  8,8,8,2,2,8,
  8,4,8,8,2,4,
  8,8,8,8,2,8,
  8,8,8,1,2,16,
  16,16,16,16,16,16,
  16,16,8,16,16,16,
  16,16,8,16,16,16,
  16,16,16,2,2,2,
  16,16,16,16,8,8,
  8,8,16,16,8,8,
  8,8,8,1,16,16,
  16,16,16,16,16,16,
  16,8,16,16,16,16,
  16,8,16,16,16,16,
  16,16,2,2,2,16,
  16,16,16,8,8,8,
  8,16,16,8,8,8,
  8,8,16,16,16,16,
  8,16,16,16,16,16,
  8,16,16,16,16,16,
  8,16,16,16,16,16,
  8,16,2,2,2,16,
  16,16,16,8,16,16,
  16,16,8,16,16,16,
  16,8,16,16,16,16,
  8,2,2,2,32,16,
  16,16,16,32,16,8,
  8,16,8,16,16,8,
  32,16,16,16,16,32,
  8,8,8,16,16,16,
  8,16,16,16,16,16,
  8,8,8,16,16,16,
  4,4,8,8,8,8,
  8,8,8,8,8,8,
  8,8,8,8,8,8,
  8,8,8,8,8,8,
  8,8,8,8,8,8,
  8,8,8,8,8,8,
  8,8,8,8,8,8,
  8,8,8,8,8,8,
  8,8,8,8,8,8,
  8,8,8,8,8,8,
  8,8,8,8,8,8,
  8,8,8,8,8,8,
  8,8,8,8,8,8,
  8,8,8,8,8,8,
  8,8,8,8,8,8,
  8,8,8,8,8,8,
  8,8,8,8,8,8,
  8,8,8,8,8,8,
  8,8,8,8,8,8,
  8,8,8,8,8,8,
  8,8,8,8,8,8,
  8,8,8,8,8,8,
  8,8,8,8,8,8,
  8,8,8,8,8,8,
  8,8,8,8,8,8,
  8,8,8,8,8,8,
  8,8,8,8,8,8,
  8,8,8,8,8,8,
  8,8,8,8,8,8,
  8,8,8,8,8,8,
  8,8,8,8,8,8,
  8,8,8,8,8,8,
  8,8,8,8,8,8,
  8,8,8,8,8,8,
  8,8,8,8,8,8,
  8,8,8,8,8,8,
  8,8,8,8,8,8,
  8,8,8,8,8,8,
  8,8,8,16,8,16,
  16,8,16,16,8,16,
  16,2,2,2,2,8,
  16,8,16,16,8,16,
  16,8,16,16,2,2,
  2,2,8,16,8,16,
  16,8,16,16,8,16,
  16,2,2,2,2,8,
  16,8,16,16,8,16,
  16,8,16,16,2,2,
  2,2,8,16,8,16,
  16,8,16,16,8,16,
  16,2,2,2,2,8,
  16,8,16,16,8,16,
  16,8,16,16,2,2,
  2,2,8,16,16,16,
  16,16,16,16,16,16,
  16,16,2,8,8,8,
  8,8,8,1,1,1,
  1,16,16,16,16,8,
  16,16,16,8,16,16,
  16,16,8,16,16,16,
  16,8,16,16,16,16,
  8,16,16,16,8,16,
  16,16,16,8,16,16,
  16,1,8,1,1,16,
  16,16,16,8,16,16,
  16,8,16,16,16,16,
  8,16,16,16,16,8,
  16,16,16,16,8,16,
  32,32,16,16,32,32,
  32,32,16,32,32,16,
  16,16,16,8,16,16,
  16,8,16,16,16,16,
  8,16,16,16,16,8,
  16,16,16,16,8,16,
  16,16,8,16,16,16,
  16,8,16,16,16,8,
  16,16,16,16,16,16,
  16,8,16,8,16,16,
  16,8,16,16,16,16,
  16,16,16,8,16,8,
  16,16,16,8,16,16,
  16,16,16,16,16,8,
  16,8,16,16,16,16,
  16,8,16,16,16,16,
  16,16,16,8,16,8,
  16,16,16,16,16,8,
  16,16,16,16,8,16,
  16,16,8,16,16,16,
  16,8,16,16,16,16,
  8,16,16,16,16,8,
  16,16,16,8,16,16,
  16,16,8,16,16,16,
  1,8,1,16,16,16,
  16,8,16,16,16,8,
  16,16,16,16,8,16,
  16,16,16,8,16,16,
  16,16,8,16,16,16,
  16,16,16,16,16,8,
  16,16,16,8,16,16,
  16,16,8,16,16,16,
  16,8,16,16,16,16,
  8,16,16,16,8,16,
  16,16,16,8,16,16,
  8,8,16,16,16,16,
  16,16,16,16,16,16,
  16,32,32,32,32,32,
  32,16,4,4,16,16,
  16,16,16,16,16,16,
  16,8,16,16,16,16,
  16,8,16,16,16,16,
  16,8,16,2,2,2,
  16,16,16,16,8,16,
  16,16,16,8,16,16,
  16,16,8,16,16,16,
  16,8,1,2,2,1,
  2,16,16,16,16,16,
  16,16,16,16,8,16,
  16,16,16,16,8,16,
  16,16,16,16,8,16,
  2,2,2,32,16,16,
  16,16,32,8,8,8,
  16,16,8,16,16,8,
  16,16,8,16,16,16,
  16,16,16,16,16,16,
  8,16,16,16,16,16,
  8,16,16,16,16,16,
  8,16,2,2,2,16,
  16,16,16,8,16,16,
  16,16,8,16,16,16,
  16,8,16,16,16,16,
  8,2,2,2,16,16,
  16,8,16,16,16,16,
  16,8,16,16,16,16,
  8,16,16,16,16,8,
  2,2,2,32,16,16,
  16,16,32,8,8,8,
  16,16,8,32,16,16,
  16,16,32,8,8,8,
  16,16,8,16,16,16,
  16,16,16,16,16,16,
  8,16,16,16,16,16,
  8,16,16,16,16,16,
  16,2,2,2,16,16,
  16,16,8,8,8,8,
  16,16,8,8,8,8,
  8,16,16,16,16,16,
  16,16,16,16,8,16,
  16,16,16,16,8,16,
  16,16,16,16,16,2,
  2,2,16,16,16,16,
  8,8,8,8,16,16,
  8,8,8,8,8,16,
  16,16,16,8,16,16,
  16,16,16,8,16,16,
  16,16,16,8,16,16,
  16,16,16,8,16,2,
  2,2,16,16,16,16,
  8,16,16,16,16,8,
  16,16,16,16,8,16,
  16,16,16,8,2,2,
  2,32,16,16,16,16,
  32,16,8,8,16,8,
  16,16,8,32,16,16,
  16,16,32,8,8,8,
  16,16,16,8,16,16,
  16,16,16,8,8,8,
  16,16,16,4,8,8,
  8,8,2,2,8,8,
  4,8,8,4,2,4,
  8,8,8,8,2,8,
  8,8,8,1,2,8,
  8,8,8,2,2,8,
  8,4,8,8,2,4,
  8,8,8,8,2,8,
  8,8,8,1,2,8,
  8,8,8,2,2,8,
  8,4,8,8,4,2,
  4,8,8,8,8,2,
  8,8,8,8,1,2,
  8,8,8,8,2,2,
  8,8,4,8,8,2,
  4,8,8,8,8,2,
  8,8,8,8,1,2,
  16,16,16,16,16,16,
  16,16,16,8,16,16,
  16,16,16,8,16,16,
  16,16,16,16,2,2,
  2,16,16,16,16,8,
  8,8,8,16,16,8,
  8,8,8,8,1,16,
  16,16,16,16,16,16,
  16,16,8,16,16,16,
  16,16,8,16,16,16,
  16,16,16,2,2,2,
  16,16,16,16,8,8,
  8,8,16,16,8,8,
  8,8,8,16,16,16,
  16,8,16,16,16,16,
  16,8,16,16,16,16,
  16,8,16,16,16,16,
  16,8,16,2,2,2,
  16,16,16,16,8,16,
  16,16,16,8,16,16,
  16,16,8,16,16,16,
  16,8,2,2,2,32,
  16,16,16,16,32,16,
  8,8,16,8,16,16,
  8,32,16,16,16,16,
  32,8,8,8,16,16,
  16,8,16,16,16,16,
  16,8,8,8,16,16,
  16,4,4,8,8,8,
  8,8,8,8,8,8,
  8,8,8,8,8,8,
  8,8,8,8,8,8,
  8,8,8,8,8,8,
  8,8,8,8,8,8,
  8,8,8,8,8,8,
  8,8,8,8,8,8,
  8,8,8,8,8,8,
  8,8,8,8,8,8,
  8,8,8,8,8,8,
  8,8,8,8,8,8,
  8,8,8,8,8,8,
  8,8,8,8,8,8,
  8,8,8,8,8,8,
  8,8,8,8,8,8,
  8,8,8,8,8,8,
  8,8,8,8,8,8,
  8,8,8,8,8,8,
  8,8,8,8,8,8,
  8,8,8,8,8,8,
  8,8,8,8,8,8,
  8,8,8,8,8,8,
  8,8,8,8,8,8,
  8,8,8,8,8,8,
  8,8,8,8,8,8,
  8,8,8,8,8,8,
  8,8,8,8,8,8,
  8,8,8,8,8,8,
  8,8,8,8,8,8,
  8,8,8,8,8,8,
  8,8,8,8,8,8,
  8,8,8,8,8,8,
  8,8,8,8,8,8,
  8,8,8,8,8,8,
  8,8,8,8,8,8,
  8,8,8,8,8,8,
  8,8,8,8,8,8,
  8,8,8,8,16,8,
  16,16,8,16,16,8,
  16,16,2,2,2,2,
  8,16,8,16,16,8,
  16,16,8,16,16,2,
  2,2,2,8,16,8,
  16,16,8,16,16,8,
  16,16,2,2,2,2,
  8,16,8,16,16,8,
  16,16,8,16,16,2,
  2,2,2,8,16,8,
  16,16,8,16,16,8,
  16,16,2,2,2,2,
  8,16,8,16,16,8,
  16,16,8,16,16,2,
  2,2,2,8,16,16,
  16,16,16,16,16,16,
  16,16,16,2,8,8,
  8,8,8,8,1,1,
  1,1,16,16,16,16,
  8,16,16,16,8,16,
  16,16,16,8,16,16,
  16,16,8,16,16,16,
  16,8,16,16,16,8,
  16,16,16,16,8,16,
  16,16,1,8,1,1,
  16,16,16,16,8,16,
  16,16,8,16,16,16,
  16,8,16,16,16,16,
  8,16,16,16,16,8,
  16,32,32,16,16,32,
  32,32,32,16,32,32,
  16,16,16,16,8,16,
  16,16,8,16,16,16,
  16,8,16,16,16,16,
  8,16,16,16,16,8,
  16,16,16,8,16,16,
  16,16,8,16,16,16,
  8,16,16,16,16,16,
  16,16,8,16,8,16,
  16,16,8,16,16,16,
  16,16,16,16,8,16,
  8,16,16,16,8,16,
  16,16,16,16,16,16,
  8,16,8,16,16,16,
  16,16,8,16,16,16,
  16,16,16,16,8,16,
  8,16,16,16,16,16,
  8,16,16,16,16,8,
  16,16,16,8,16,16,
  16,16,8,16,16,16,
  16,8,16,16,16,16,
  8,16,16,16,8,16,
  16,16,16,8,16,16,
  16,1,8,1,16,16,
  16,16,8,16,16,16,
  8,16,16,16,16,8,
  16,16,16,16,8,16,
  16,16,16,8,16,16,
  16,16,16,16,16,16,
  8,16,16,16,8,16,
  16,16,16,8,16,16,
  16,16,8,16,16,16,
  16,8,16,16,16,8,
  16,16,16,16,8,16,
  16,8,8,16,16,16,
  16,16,16,16,16,16,
  16,16,32,32,32,32,
  32,32,16,4,4
};
const int dr_mario_4_length = 2921;
