// Song: dr_mario_remix
// Generated from: packmidis/Games/dr_mario_remix.mid
// Notes: 3888

const int dr_mario_remix_notes[] PROGMEM = {
  NOTE_F2,NOTE_F2,NOTE_GS2,NOTE_F2,NOTE_F2,NOTE_F2,
  NOTE_F2,NOTE_GS2,NOTE_F2,NOTE_CS3,NOTE_E3,NOTE_F2,
  NOTE_F2,NOTE_F2,NOTE_GS2,NOTE_F2,NOTE_F2,NOTE_F2,
  NOTE_F2,NOTE_GS2,NOTE_F2,NOTE_F2,NOTE_F2,NOTE_F2,
  NOTE_GS2,NOTE_F2,NOTE_F2,NOTE_F2,NOTE_F2,NOTE_GS2,
  NOTE_F2,NOTE_F2,NOTE_F2,NOTE_F2,NOTE_F2,NOTE_GS2,
  NOTE_F2,NOTE_F2,NOTE_F2,NOTE_F2,NOTE_F2,NOTE_GS2,
  NOTE_F2,NOTE_F2,NOTE_F2,NOTE_F2,NOTE_F2,NOTE_GS2,
  NOTE_F2,NOTE_F2,NOTE_F2,NOTE_F2,NOTE_F2,NOTE_GS2,
  NOTE_F2,NOTE_F2,NOTE_F2,NOTE_F2,NOTE_GS2,NOTE_F2,
  NOTE_F2,NOTE_F2,NOTE_F2,NOTE_GS2,NOTE_F2,NOTE_F2,
  NOTE_F2,NOTE_F2,NOTE_F2,NOTE_GS2,NOTE_F2,NOTE_F2,
  NOTE_F2,NOTE_F2,NOTE_F2,NOTE_GS2,NOTE_F2,NOTE_C2,
  NOTE_G3,NOTE_CS3,NOTE_E2,NOTE_E2,NOTE_E2,NOTE_E2,
  NOTE_E2,NOTE_E2,NOTE_E2,NOTE_DS1,NOTE_A4,NOTE_FS4,
  NOTE_DS4,NOTE_DS5,NOTE_DS1,NOTE_DS4,NOTE_DS5,NOTE_G4,
  NOTE_AS4,NOTE_B3,NOTE_GS2,NOTE_FS1,NOTE_G1,NOTE_B3,
  NOTE_B3,NOTE_GS1,NOTE_G1,NOTE_B3,NOTE_GS2,NOTE_FS1,
  NOTE_F1,NOTE_CS3,NOTE_A3,NOTE_B3,NOTE_B3,NOTE_DS1,
  NOTE_DS1,NOTE_B3,NOTE_GS2,NOTE_FS1,NOTE_G1,NOTE_B3,
  NOTE_B3,NOTE_GS1,NOTE_G1,NOTE_B3,NOTE_GS2,NOTE_FS1,
  NOTE_F1,NOTE_B3,NOTE_DS6,NOTE_DS5,NOTE_B3,NOTE_FS4,
  NOTE_DS3,NOTE_A3,NOTE_DS1,NOTE_A4,NOTE_DS4,NOTE_DS1,
  NOTE_DS4,NOTE_G4,NOTE_DS3,NOTE_AS3,NOTE_DS5,NOTE_DS6,
  NOTE_AS4,NOTE_B3,NOTE_GS2,NOTE_FS1,NOTE_G1,NOTE_B3,
  NOTE_B3,NOTE_GS1,NOTE_G1,NOTE_B3,NOTE_GS2,NOTE_FS1,
  NOTE_F1,NOTE_B3,NOTE_B3,NOTE_DS1,NOTE_DS1,NOTE_B3,
  NOTE_GS2,NOTE_FS1,NOTE_G1,NOTE_E2,NOTE_E2,NOTE_GS1,
  NOTE_E2,NOTE_G1,NOTE_E2,NOTE_E2,NOTE_FS1,NOTE_E2,
  NOTE_F1,NOTE_E2,NOTE_A4,NOTE_FS5,NOTE_AS4,NOTE_DS1,
  NOTE_G5,NOTE_B3,NOTE_A4,NOTE_GS2,NOTE_E2,NOTE_FS5,
  NOTE_G5,NOTE_B3,NOTE_G1,NOTE_AS4,NOTE_F5,NOTE_B3,
  NOTE_GS4,NOTE_DS5,NOTE_GS1,NOTE_G4,NOTE_B3,NOTE_E2,
  NOTE_GS2,NOTE_F5,NOTE_AS1,NOTE_CS3,NOTE_A3,NOTE_GS4,
  NOTE_B3,NOTE_B3,NOTE_FS5,NOTE_A4,NOTE_G5,NOTE_AS4,
  NOTE_DS1,NOTE_B3,NOTE_E2,NOTE_GS2,NOTE_GS4,NOTE_F5,
  NOTE_G1,NOTE_DS5,NOTE_G4,NOTE_B3,NOTE_GS1,NOTE_B3,
  NOTE_GS1,NOTE_B3,NOTE_GS2,NOTE_E2,NOTE_B3,NOTE_AS1,
  NOTE_B3,NOTE_FS5,NOTE_A4,NOTE_G5,NOTE_AS4,NOTE_DS1,
  NOTE_B3,NOTE_GS2,NOTE_E2,NOTE_A4,NOTE_FS5,NOTE_G5,
  NOTE_G1,NOTE_B3,NOTE_AS4,NOTE_F5,NOTE_GS4,NOTE_B3,
  NOTE_DS5,NOTE_G4,NOTE_GS1,NOTE_B3,NOTE_GS2,NOTE_E2,
  NOTE_C5,NOTE_AS1,NOTE_B3,NOTE_DS4,NOTE_B3,NOTE_A4,
  NOTE_C4,NOTE_C5,NOTE_F4,NOTE_F1,NOTE_B3,NOTE_GS2,
  NOTE_E2,NOTE_A4,NOTE_F5,NOTE_F1,NOTE_DS5,NOTE_G4,
  NOTE_B3,NOTE_AS1,NOTE_B3,NOTE_B3,NOTE_F4,NOTE_D5,
  NOTE_E2,NOTE_GS2,NOTE_B0,NOTE_B3,NOTE_B3,NOTE_FS5,
  NOTE_A4,NOTE_G5,NOTE_AS4,NOTE_DS1,NOTE_B3,NOTE_E2,
  NOTE_GS2,NOTE_GS4,NOTE_F5,NOTE_DS1,NOTE_DS5,NOTE_G4,
  NOTE_B3,NOTE_G1,NOTE_E2,NOTE_E2,NOTE_B3,NOTE_FS5,
  NOTE_A4,NOTE_G5,NOTE_AS4,NOTE_GS1,NOTE_B3,NOTE_E2,
  NOTE_GS2,NOTE_GS4,NOTE_F5,NOTE_GS1,NOTE_DS5,NOTE_G4,
  NOTE_B3,NOTE_A1,NOTE_E2,NOTE_E2,NOTE_B3,NOTE_FS5,
  NOTE_A4,NOTE_G5,NOTE_AS4,NOTE_AS1,NOTE_B3,NOTE_GS2,
  NOTE_E2,NOTE_A4,NOTE_FS5,NOTE_G5,NOTE_AS1,NOTE_B3,
  NOTE_AS4,NOTE_F5,NOTE_GS4,NOTE_B3,NOTE_GS1,NOTE_G1,
  NOTE_DS5,NOTE_G4,NOTE_B3,NOTE_E2,NOTE_GS2,NOTE_F1,
  NOTE_DS1,NOTE_A4,NOTE_B3,NOTE_C5,NOTE_F4,NOTE_B3,
  NOTE_GS4,NOTE_DS4,NOTE_DS5,NOTE_E2,NOTE_B0,NOTE_D4,
  NOTE_F5,NOTE_E2,NOTE_GS4,NOTE_GS2,NOTE_AS1,NOTE_CS3,
  NOTE_G3,NOTE_C2,NOTE_DS1,NOTE_DS4,NOTE_G4,NOTE_DS5,
  NOTE_E2,NOTE_E2,NOTE_E2,NOTE_E2,NOTE_B4,NOTE_D5,
  NOTE_B5,NOTE_C6,NOTE_C5,NOTE_GS1,NOTE_DS5,NOTE_B4,
  NOTE_B3,NOTE_DS5,NOTE_DS4,NOTE_C5,NOTE_FS4,NOTE_FS5,
  NOTE_E2,NOTE_GS2,NOTE_D5,NOTE_B5,NOTE_C6,NOTE_C5,
  NOTE_B3,NOTE_C2,NOTE_DS5,NOTE_AS4,NOTE_CS5,NOTE_B3,
  NOTE_AS5,NOTE_D5,NOTE_D4,NOTE_F5,NOTE_F4,NOTE_DS5,
  NOTE_FS4,NOTE_C5,NOTE_FS5,NOTE_DS4,NOTE_CS2,NOTE_GS5,
  NOTE_GS4,NOTE_B3,NOTE_E2,NOTE_GS2,NOTE_AS5,NOTE_AS4,
  NOTE_DS2,NOTE_A3,NOTE_CS3,NOTE_CS5,NOTE_B3,NOTE_B4,
  NOTE_B3,NOTE_FS4,NOTE_C5,NOTE_DS4,NOTE_FS5,NOTE_DS5,
  NOTE_D5,NOTE_B5,NOTE_C6,NOTE_GS1,NOTE_C5,NOTE_DS5,
  NOTE_AS4,NOTE_B3,NOTE_E2,NOTE_GS2,NOTE_CS5,NOTE_AS5,
  NOTE_D5,NOTE_C2,NOTE_F5,NOTE_D4,NOTE_F4,NOTE_DS5,
  NOTE_FS4,NOTE_C5,NOTE_FS5,NOTE_DS4,NOTE_GS4,NOTE_GS5,
  NOTE_B3,NOTE_CS2,NOTE_B3,NOTE_CS2,NOTE_DS4,NOTE_F4,
  NOTE_B3,NOTE_E2,NOTE_GS2,NOTE_GS4,NOTE_AS4,NOTE_B3,
  NOTE_DS2,NOTE_B4,NOTE_B3,NOTE_B5,NOTE_D5,NOTE_C6,
  NOTE_GS1,NOTE_C5,NOTE_DS5,NOTE_B4,NOTE_B3,NOTE_C5,
  NOTE_FS4,NOTE_FS5,NOTE_DS5,NOTE_DS4,NOTE_GS2,NOTE_D5,
  NOTE_E2,NOTE_B5,NOTE_C6,NOTE_C5,NOTE_C2,NOTE_B3,
  NOTE_DS5,NOTE_AS4,NOTE_AS5,NOTE_B3,NOTE_CS5,NOTE_D4,
  NOTE_F4,NOTE_F5,NOTE_D5,NOTE_DS5,NOTE_FS5,NOTE_DS4,
  NOTE_FS4,NOTE_C5,NOTE_GS5,NOTE_GS4,NOTE_CS2,NOTE_B3,
  NOTE_E2,NOTE_GS2,NOTE_F5,NOTE_F4,NOTE_DS2,NOTE_B3,
  NOTE_GS4,NOTE_D4,NOTE_B3,NOTE_F4,NOTE_AS4,NOTE_F5,
  NOTE_D5,NOTE_AS4,NOTE_AS1,NOTE_F4,NOTE_F5,NOTE_AS4,
  NOTE_B3,NOTE_E2,NOTE_GS2,NOTE_AS5,NOTE_D5,NOTE_AS1,
  NOTE_F5,NOTE_D4,NOTE_F4,NOTE_DS5,NOTE_F4,NOTE_GS4,
  NOTE_F5,NOTE_C5,NOTE_GS5,NOTE_B3,NOTE_DS2,NOTE_B3,
  NOTE_G4,NOTE_B3,NOTE_G5,NOTE_AS4,NOTE_GS2,NOTE_E2,
  NOTE_DS4,NOTE_DS5,NOTE_DS1,NOTE_B3,NOTE_B4,NOTE_B3,
  NOTE_DS5,NOTE_C5,NOTE_GS4,NOTE_GS5,NOTE_DS4,NOTE_B5,
  NOTE_D5,NOTE_DS5,NOTE_C5,NOTE_C6,NOTE_GS1,NOTE_AS4,
  NOTE_B3,NOTE_GS2,NOTE_E2,NOTE_AS5,NOTE_CS5,NOTE_DS5,
  NOTE_GS4,NOTE_DS4,NOTE_C5,NOTE_GS1,NOTE_GS5,NOTE_DS5,
  NOTE_FS5,NOTE_DS4,NOTE_FS4,NOTE_C5,NOTE_AS2,NOTE_B3,
  NOTE_GS4,NOTE_GS5,NOTE_C2,NOTE_E2,NOTE_C2,NOTE_E2,
  NOTE_E2,NOTE_E2,NOTE_G3,NOTE_B4,NOTE_B3,NOTE_GS5,
  NOTE_CS5,NOTE_F4,NOTE_CS4,NOTE_B5,NOTE_D5,NOTE_C6,
  NOTE_C5,NOTE_DS5,NOTE_CS2,NOTE_AS4,NOTE_B3,NOTE_GS2,
  NOTE_E2,NOTE_AS5,NOTE_CS5,NOTE_F5,NOTE_GS4,NOTE_CS4,
  NOTE_CS2,NOTE_GS5,NOTE_GS5,NOTE_D4,NOTE_F4,NOTE_D5,
  NOTE_C5,NOTE_C2,NOTE_A3,NOTE_GS4,NOTE_B3,NOTE_D3,
  NOTE_D2,NOTE_B2,NOTE_G3,NOTE_C2,NOTE_F2,NOTE_E3,
  NOTE_B4,NOTE_B3,NOTE_D5,NOTE_B5,NOTE_C6,NOTE_C5,
  NOTE_DS2,NOTE_DS5,NOTE_B4,NOTE_B3,NOTE_DS5,NOTE_DS4,
  NOTE_C5,NOTE_FS4,NOTE_FS5,NOTE_D5,NOTE_GS2,NOTE_E2,
  NOTE_B5,NOTE_C6,NOTE_C5,NOTE_B3,NOTE_DS2,NOTE_DS5,
  NOTE_AS4,NOTE_CS5,NOTE_B3,NOTE_AS5,NOTE_CS4,NOTE_CS2,
  NOTE_F5,NOTE_F4,NOTE_C5,NOTE_C4,NOTE_GS4,NOTE_DS4,
  NOTE_DS5,NOTE_C2,NOTE_GS5,NOTE_B3,NOTE_GS2,NOTE_E2,
  NOTE_AS1,NOTE_GS1,NOTE_CS3,NOTE_F5,NOTE_B3,NOTE_F4,
  NOTE_D5,NOTE_AS4,NOTE_GS4,NOTE_E2,NOTE_B3,NOTE_AS4,
  NOTE_FS4,NOTE_FS5,NOTE_CS5,NOTE_CS4,NOTE_GS5,NOTE_E2,
  NOTE_E2,NOTE_DS1,NOTE_G4,NOTE_AS5,NOTE_AS4,NOTE_E2,
  NOTE_CS5,NOTE_GS2,NOTE_D5,NOTE_DS2,NOTE_D4,NOTE_G5,
  NOTE_B4,NOTE_GS4,NOTE_G3,NOTE_CS3,NOTE_C2,NOTE_GS1,
  NOTE_C5,NOTE_DS5,NOTE_DS4,NOTE_GS5,NOTE_G4,NOTE_F4,
  NOTE_DS4,NOTE_CS4,NOTE_C4,NOTE_AS3,NOTE_E2,NOTE_E2,
  NOTE_GS3,NOTE_E2,NOTE_E2,NOTE_GS2,NOTE_B3,NOTE_DS4,
  NOTE_GS4,NOTE_GS3,NOTE_C5,NOTE_GS2,NOTE_C4,NOTE_E2,
  NOTE_B3,NOTE_G2,NOTE_B3,NOTE_G3,NOTE_DS4,NOTE_G4,
  NOTE_AS3,NOTE_AS4,NOTE_AS4,NOTE_AS3,NOTE_DS4,NOTE_DS5,
  NOTE_F2,NOTE_B3,NOTE_GS2,NOTE_E2,NOTE_B3,NOTE_A3,
  NOTE_DS2,NOTE_CS3,NOTE_B3,NOTE_CS2,NOTE_B3,NOTE_GS2,
  NOTE_GS4,NOTE_C4,NOTE_E2,NOTE_F4,NOTE_B3,NOTE_C2,
  NOTE_F3,NOTE_B3,NOTE_AS1,NOTE_B3,NOTE_E2,NOTE_GS2,
  NOTE_DS4,NOTE_GS4,NOTE_DS3,NOTE_C4,NOTE_GS3,NOTE_B3,
  NOTE_GS1,NOTE_B3,NOTE_AS1,NOTE_B3,NOTE_CS4,NOTE_GS4,
  NOTE_F5,NOTE_GS2,NOTE_F4,NOTE_E2,NOTE_CS5,NOTE_B3,
  NOTE_C2,NOTE_B3,NOTE_DS5,NOTE_C5,NOTE_GS4,NOTE_DS4,
  NOTE_C4,NOTE_DS5,NOTE_CS2,NOTE_GS4,NOTE_C5,NOTE_GS5,
  NOTE_DS4,NOTE_B3,NOTE_E2,NOTE_GS2,NOTE_B3,NOTE_DS2,
  NOTE_B3,NOTE_CS2,NOTE_B3,NOTE_GS2,NOTE_CS4,NOTE_GS4,
  NOTE_E2,NOTE_F4,NOTE_B3,NOTE_DS2,NOTE_B3,NOTE_F2,
  NOTE_B3,NOTE_GS2,NOTE_E2,NOTE_G4,NOTE_AS3,NOTE_CS5,
  NOTE_AS4,NOTE_DS4,NOTE_B3,NOTE_G2,NOTE_B3,NOTE_GS2,
  NOTE_B3,NOTE_GS3,NOTE_DS4,NOTE_C5,NOTE_E2,NOTE_C4,
  NOTE_GS2,NOTE_GS4,NOTE_B3,NOTE_G2,NOTE_B3,NOTE_AS4,
  NOTE_G4,NOTE_DS4,NOTE_AS3,NOTE_G3,NOTE_AS4,NOTE_F2,
  NOTE_DS4,NOTE_DS5,NOTE_AS3,NOTE_B3,NOTE_GS2,NOTE_E2,
  NOTE_B3,NOTE_DS2,NOTE_B3,NOTE_CS2,NOTE_B3,NOTE_GS2,
  NOTE_F4,NOTE_GS4,NOTE_E2,NOTE_C4,NOTE_B3,NOTE_C2,
  NOTE_F3,NOTE_B3,NOTE_AS1,NOTE_B3,NOTE_GS2,NOTE_E2,
  NOTE_DS4,NOTE_GS4,NOTE_DS3,NOTE_GS3,NOTE_C4,NOTE_B3,
  NOTE_GS1,NOTE_B3,NOTE_AS1,NOTE_B3,NOTE_CS4,NOTE_GS4,
  NOTE_F5,NOTE_E2,NOTE_F4,NOTE_GS2,NOTE_CS5,NOTE_B3,
  NOTE_C2,NOTE_B3,NOTE_DS5,NOTE_C5,NOTE_GS4,NOTE_DS4,
  NOTE_C4,NOTE_DS5,NOTE_CS2,NOTE_G4,NOTE_AS4,NOTE_G5,
  NOTE_DS4,NOTE_B3,NOTE_E2,NOTE_GS2,NOTE_DS2,NOTE_B3,
  NOTE_F2,NOTE_B3,NOTE_E2,NOTE_F2,NOTE_E2,NOTE_CS4,
  NOTE_GS2,NOTE_F4,NOTE_GS4,NOTE_G3,NOTE_CS5,NOTE_F5,
  NOTE_DS2,NOTE_CS3,NOTE_C2,NOTE_DS4,NOTE_F2,NOTE_E2,
  NOTE_E2,NOTE_DS5,NOTE_G4,NOTE_AS3,NOTE_AS4,NOTE_GS5,
  NOTE_E2,NOTE_E2,NOTE_G2,NOTE_B4,NOTE_B3,NOTE_GS4,
  NOTE_C5,NOTE_GS5,NOTE_DS4,NOTE_DS5,NOTE_B5,NOTE_D5,
  NOTE_C6,NOTE_C5,NOTE_DS5,NOTE_GS1,NOTE_AS4,NOTE_B3,
  NOTE_GS2,NOTE_E2,NOTE_AS5,NOTE_CS5,NOTE_DS5,NOTE_GS4,
  NOTE_DS4,NOTE_C5,NOTE_GS1,NOTE_GS5,NOTE_DS5,NOTE_FS5,
  NOTE_DS4,NOTE_FS4,NOTE_C5,NOTE_AS2,NOTE_C2,NOTE_GS4,
  NOTE_GS5,NOTE_B3,NOTE_E2,NOTE_C2,NOTE_E2,NOTE_E2,
  NOTE_E2,NOTE_G3,NOTE_B4,NOTE_B3,NOTE_GS5,NOTE_CS5,
  NOTE_F4,NOTE_CS4,NOTE_B5,NOTE_D5,NOTE_C6,NOTE_C5,
  NOTE_DS5,NOTE_CS2,NOTE_AS4,NOTE_B3,NOTE_E2,NOTE_GS2,
  NOTE_AS5,NOTE_CS5,NOTE_F5,NOTE_GS4,NOTE_CS4,NOTE_CS2,
  NOTE_GS5,NOTE_GS5,NOTE_D4,NOTE_F4,NOTE_D5,NOTE_C5,
  NOTE_A3,NOTE_B3,NOTE_GS4,NOTE_C2,NOTE_D3,NOTE_D2,
  NOTE_B2,NOTE_C2,NOTE_G3,NOTE_F2,NOTE_E3,NOTE_B4,
  NOTE_B3,NOTE_D5,NOTE_B5,NOTE_C6,NOTE_C5,NOTE_DS2,
  NOTE_DS5,NOTE_B4,NOTE_B3,NOTE_DS5,NOTE_DS4,NOTE_C5,
  NOTE_FS4,NOTE_FS5,NOTE_D5,NOTE_E2,NOTE_GS2,NOTE_B5,
  NOTE_C6,NOTE_C5,NOTE_B3,NOTE_DS2,NOTE_DS5,NOTE_AS4,
  NOTE_CS5,NOTE_B3,NOTE_AS5,NOTE_CS4,NOTE_CS2,NOTE_F5,
  NOTE_F4,NOTE_C5,NOTE_C4,NOTE_GS4,NOTE_DS4,NOTE_DS5,
  NOTE_C2,NOTE_GS5,NOTE_B3,NOTE_E2,NOTE_GS2,NOTE_AS1,
  NOTE_GS1,NOTE_CS3,NOTE_F5,NOTE_B3,NOTE_F4,NOTE_D5,
  NOTE_AS4,NOTE_GS4,NOTE_E2,NOTE_B3,NOTE_AS4,NOTE_FS4,
  NOTE_FS5,NOTE_CS5,NOTE_CS4,NOTE_GS5,NOTE_E2,NOTE_E2,
  NOTE_DS1,NOTE_G4,NOTE_AS5,NOTE_AS4,NOTE_E2,NOTE_CS5,
  NOTE_GS2,NOTE_D5,NOTE_DS2,NOTE_D4,NOTE_G5,NOTE_B4,
  NOTE_GS4,NOTE_C2,NOTE_G3,NOTE_CS3,NOTE_GS1,NOTE_C5,
  NOTE_DS5,NOTE_DS4,NOTE_GS5,NOTE_G4,NOTE_F4,NOTE_DS4,
  NOTE_CS4,NOTE_C4,NOTE_AS3,NOTE_E2,NOTE_E2,NOTE_GS3,
  NOTE_E2,NOTE_B4,NOTE_E2,NOTE_C5,NOTE_C5,NOTE_GS4,
  NOTE_GS1,NOTE_DS4,NOTE_B3,NOTE_E2,NOTE_GS2,NOTE_B3,
  NOTE_C2,NOTE_B3,NOTE_GS4,NOTE_CS2,NOTE_B3,NOTE_GS2,
  NOTE_DS4,NOTE_E2,NOTE_C5,NOTE_B3,NOTE_CS3,NOTE_DS2,
  NOTE_A3,NOTE_DS4,NOTE_B3,NOTE_F4,NOTE_GS4,NOTE_GS1,
  NOTE_B3,NOTE_E2,NOTE_DS4,NOTE_C5,NOTE_GS2,NOTE_C2,
  NOTE_B3,NOTE_GS4,NOTE_CS2,NOTE_C5,NOTE_DS4,NOTE_B3,
  NOTE_CS2,NOTE_B3,NOTE_GS2,NOTE_E2,NOTE_B3,NOTE_F4,
  NOTE_DS2,NOTE_B3,NOTE_DS4,NOTE_C5,NOTE_GS1,NOTE_DS4,
  NOTE_GS4,NOTE_B3,NOTE_E2,NOTE_GS2,NOTE_GS4,NOTE_B3,
  NOTE_C2,NOTE_B3,NOTE_GS4,NOTE_CS2,NOTE_B3,NOTE_DS4,
  NOTE_DS5,NOTE_E2,NOTE_C5,NOTE_GS2,NOTE_B4,NOTE_B3,
  NOTE_DS2,NOTE_B3,NOTE_AS1,NOTE_B3,NOTE_C5,NOTE_CS5,
  NOTE_GS4,NOTE_GS2,NOTE_F4,NOTE_E2,NOTE_AS1,NOTE_B3,
  NOTE_DS2,NOTE_DS4,NOTE_CS5,NOTE_G4,NOTE_AS4,NOTE_B3,
  NOTE_B3,NOTE_GS2,NOTE_E2,NOTE_DS1,NOTE_B3,NOTE_DS4,
  NOTE_B3,NOTE_C5,NOTE_GS1,NOTE_B3,NOTE_GS4,NOTE_DS4,
  NOTE_E2,NOTE_GS2,NOTE_GS1,NOTE_B3,NOTE_AS2,NOTE_FS4,
  NOTE_C5,NOTE_DS4,NOTE_C2,NOTE_GS4,NOTE_E2,NOTE_C2,
  NOTE_E2,NOTE_E2,NOTE_DS4,NOTE_D5,NOTE_E2,NOTE_G3,
  NOTE_B3,NOTE_DS5,NOTE_CS5,NOTE_CS2,NOTE_B3,NOTE_F4,
  NOTE_GS4,NOTE_GS2,NOTE_E2,NOTE_CS2,NOTE_DS5,NOTE_A3,
  NOTE_E4,NOTE_GS4,NOTE_C2,NOTE_CS5,NOTE_D3,NOTE_B3,
  NOTE_B4,NOTE_D2,NOTE_B2,NOTE_G3,NOTE_C2,NOTE_F2,
  NOTE_F4,NOTE_E3,NOTE_B3,NOTE_DS4,NOTE_GS4,NOTE_DS4,
  NOTE_DS2,NOTE_C5,NOTE_B3,NOTE_GS2,NOTE_GS4,NOTE_E2,
  NOTE_B3,NOTE_DS2,NOTE_B3,NOTE_CS2,NOTE_CS5,NOTE_C2,
  NOTE_C5,NOTE_B3,NOTE_E2,NOTE_DS4,NOTE_GS2,NOTE_GS4,
  NOTE_AS1,NOTE_AS4,NOTE_GS1,NOTE_G4,NOTE_CS3,NOTE_B3,
  NOTE_E2,NOTE_B3,NOTE_DS4,NOTE_E2,NOTE_E2,NOTE_DS1,
  NOTE_F4,NOTE_E2,NOTE_G4,NOTE_AS4,NOTE_GS2,NOTE_DS2,
  NOTE_G3,NOTE_CS3,NOTE_GS4,NOTE_C2,NOTE_GS1,NOTE_DS4,
  NOTE_C5,NOTE_G5,NOTE_E2,NOTE_E2,NOTE_GS5,NOTE_E2,
  NOTE_GS3,NOTE_E2,NOTE_AS3,NOTE_C4,NOTE_GS2,NOTE_B3,
  NOTE_E2,NOTE_C4,NOTE_GS2,NOTE_DS4,NOTE_GS4,NOTE_C5,
  NOTE_B3,NOTE_G2,NOTE_B3,NOTE_AS3,NOTE_F2,NOTE_B3,
  NOTE_E2,NOTE_C4,NOTE_DS4,NOTE_GS2,NOTE_G4,NOTE_AS4,
  NOTE_B3,NOTE_DS2,NOTE_A3,NOTE_CS3,NOTE_B3,NOTE_CS4,
  NOTE_CS2,NOTE_B3,NOTE_GS4,NOTE_CS4,NOTE_F4,NOTE_E2,
  NOTE_C4,NOTE_GS2,NOTE_B3,NOTE_C2,NOTE_B3,NOTE_C4,
  NOTE_AS3,NOTE_AS1,NOTE_B3,NOTE_GS2,NOTE_GS3,NOTE_E2,
  NOTE_DS4,NOTE_GS4,NOTE_B3,NOTE_GS1,NOTE_B3,NOTE_AS3,
  NOTE_AS1,NOTE_B3,NOTE_GS2,NOTE_AS3,NOTE_E2,NOTE_F4,
  NOTE_GS4,NOTE_CS5,NOTE_B3,NOTE_C2,NOTE_B3,NOTE_CS2,
  NOTE_B3,NOTE_F3,NOTE_C5,NOTE_DS4,NOTE_GS2,NOTE_GS4,
  NOTE_E2,NOTE_B3,NOTE_DS2,NOTE_B3,NOTE_DS3,NOTE_CS2,
  NOTE_B3,NOTE_E2,NOTE_CS4,NOTE_F4,NOTE_GS4,NOTE_GS2,
  NOTE_B3,NOTE_DS2,NOTE_DS4,NOTE_B3,NOTE_F2,NOTE_B3,
  NOTE_E2,NOTE_GS2,NOTE_AS4,NOTE_G4,NOTE_GS3,NOTE_B3,
  NOTE_AS3,NOTE_G2,NOTE_B3,NOTE_C4,NOTE_GS2,NOTE_B3,
  NOTE_GS2,NOTE_C4,NOTE_E2,NOTE_GS4,NOTE_DS4,NOTE_C5,
  NOTE_B3,NOTE_G2,NOTE_B3,NOTE_AS3,NOTE_F2,NOTE_B3,
  NOTE_G4,NOTE_C4,NOTE_AS4,NOTE_GS2,NOTE_DS4,NOTE_E2,
  NOTE_B3,NOTE_DS2,NOTE_B3,NOTE_CS4,NOTE_CS2,NOTE_B3,
  NOTE_GS4,NOTE_CS4,NOTE_F4,NOTE_E2,NOTE_C4,NOTE_GS2,
  NOTE_B3,NOTE_C2,NOTE_B3,NOTE_C4,NOTE_AS3,NOTE_AS1,
  NOTE_B3,NOTE_E2,NOTE_GS3,NOTE_GS2,NOTE_GS4,NOTE_DS4,
  NOTE_B3,NOTE_GS1,NOTE_B3,NOTE_AS3,NOTE_AS1,NOTE_B3,
  NOTE_GS2,NOTE_AS3,NOTE_E2,NOTE_CS5,NOTE_GS4,NOTE_F4,
  NOTE_B3,NOTE_C2,NOTE_B3,NOTE_CS2,NOTE_B3,NOTE_CS4,
  NOTE_DS4,NOTE_GS4,NOTE_GS2,NOTE_C5,NOTE_E2,NOTE_DS2,
  NOTE_B3,NOTE_F2,NOTE_B3,NOTE_DS4,NOTE_E2,NOTE_F2,
  NOTE_E2,NOTE_CS4,NOTE_GS4,NOTE_F4,NOTE_AS4,NOTE_GS2,
  NOTE_G3,NOTE_CS3,NOTE_C2,NOTE_DS2,NOTE_E2,NOTE_F2,
  NOTE_E2,NOTE_E2,NOTE_AS3,NOTE_G4,NOTE_AS4,NOTE_DS5,
  NOTE_CS4,NOTE_DS4,NOTE_E2,NOTE_DS4,NOTE_G2,NOTE_B3,
  NOTE_F4,NOTE_GS1,NOTE_B3,NOTE_GS4,NOTE_C5,NOTE_DS4,
  NOTE_GS2,NOTE_E2,NOTE_GS1,NOTE_B3,NOTE_C5,NOTE_C2,
  NOTE_CS4,NOTE_AS2,NOTE_FS4,NOTE_DS4,NOTE_DS4,NOTE_E2,
  NOTE_C4,NOTE_C2,NOTE_E2,NOTE_E2,NOTE_GS3,NOTE_E2,
  NOTE_G3,NOTE_B3,NOTE_CS4,NOTE_CS2,NOTE_B3,NOTE_CS5,
  NOTE_F4,NOTE_GS4,NOTE_E2,NOTE_GS2,NOTE_CS2,NOTE_C4,
  NOTE_D3,NOTE_GS4,NOTE_B4,NOTE_C2,NOTE_AS3,NOTE_B3,
  NOTE_A3,NOTE_E4,NOTE_D2,NOTE_C4,NOTE_B2,NOTE_G3,
  NOTE_C2,NOTE_GS3,NOTE_F3,NOTE_F2,NOTE_E3,NOTE_B3,
  NOTE_AS3,NOTE_GS4,NOTE_C5,NOTE_DS2,NOTE_DS4,NOTE_B3,
  NOTE_E2,NOTE_GS2,NOTE_B3,NOTE_DS2,NOTE_B3,NOTE_CS2,
  NOTE_AS3,NOTE_C2,NOTE_GS3,NOTE_B3,NOTE_GS2,NOTE_GS4,
  NOTE_C5,NOTE_E2,NOTE_DS4,NOTE_AS1,NOTE_F3,NOTE_GS1,
  NOTE_GS3,NOTE_CS3,NOTE_B3,NOTE_E2,NOTE_B3,NOTE_E2,
  NOTE_AS3,NOTE_DS1,NOTE_E2,NOTE_E2,NOTE_GS2,NOTE_G4,
  NOTE_DS4,NOTE_AS4,NOTE_DS5,NOTE_DS2,NOTE_DS3,NOTE_C2,
  NOTE_CS3,NOTE_G3,NOTE_GS1,NOTE_GS5,NOTE_DS4,NOTE_GS4,
  NOTE_C5,NOTE_E2,NOTE_GS3,NOTE_E2,NOTE_G4,NOTE_AS3,
  NOTE_C4,NOTE_GS4,NOTE_CS4,NOTE_AS4,NOTE_E2,NOTE_DS4,
  NOTE_C5,NOTE_F4,NOTE_CS5,NOTE_DS5,NOTE_G4,NOTE_GS4,
  NOTE_F5,NOTE_E2,NOTE_AS4,NOTE_G5,NOTE_GS4,NOTE_DS4,
  NOTE_C5,NOTE_GS4,NOTE_GS1,NOTE_B3,NOTE_F4,NOTE_E2,
  NOTE_GS2,NOTE_B3,NOTE_C2,NOTE_GS4,NOTE_B3,NOTE_CS2,
  NOTE_B3,NOTE_F4,NOTE_E2,NOTE_DS4,NOTE_C5,NOTE_GS2,
  NOTE_B3,NOTE_CS3,NOTE_DS2,NOTE_A3,NOTE_B3,NOTE_C4,
  NOTE_DS4,NOTE_GS1,NOTE_B3,NOTE_F4,NOTE_GS2,NOTE_C5,
  NOTE_E2,NOTE_GS4,NOTE_C2,NOTE_B3,NOTE_CS2,NOTE_DS4,
  NOTE_GS4,NOTE_C5,NOTE_B3,NOTE_CS2,NOTE_B3,NOTE_E2,
  NOTE_GS2,NOTE_B3,NOTE_DS2,NOTE_B3,NOTE_C5,NOTE_DS4,
  NOTE_GS4,NOTE_GS1,NOTE_B3,NOTE_DS4,NOTE_E2,NOTE_GS2,
  NOTE_B3,NOTE_C2,NOTE_F4,NOTE_B3,NOTE_GS4,NOTE_CS2,
  NOTE_B3,NOTE_F4,NOTE_GS2,NOTE_E2,NOTE_DS4,NOTE_C5,
  NOTE_B3,NOTE_GS5,NOTE_DS5,NOTE_DS4,NOTE_DS2,NOTE_B3,
  NOTE_FS4,NOTE_G4,NOTE_AS1,NOTE_B3,NOTE_AS4,NOTE_E2,
  NOTE_CS5,NOTE_GS2,NOTE_GS4,NOTE_F4,NOTE_AS1,NOTE_GS5,
  NOTE_F5,NOTE_B3,NOTE_DS2,NOTE_AS4,NOTE_CS5,NOTE_G4,
  NOTE_DS4,NOTE_B3,NOTE_B3,NOTE_GS2,NOTE_E2,NOTE_DS1,
  NOTE_G5,NOTE_DS5,NOTE_B3,NOTE_B3,NOTE_DS4,NOTE_GS4,
  NOTE_GS1,NOTE_B3,NOTE_C5,NOTE_E2,NOTE_GS2,NOTE_GS1,
  NOTE_F4,NOTE_FS4,NOTE_C2,NOTE_C5,NOTE_AS2,NOTE_B3,
  NOTE_DS4,NOTE_GS4,NOTE_E2,NOTE_C2,NOTE_E2,NOTE_AS4,
  NOTE_E2,NOTE_E2,NOTE_GS5,NOTE_DS5,NOTE_G3,NOTE_FS5,
  NOTE_B3,NOTE_B4,NOTE_F4,NOTE_CS2,NOTE_B3,NOTE_CS5,
  NOTE_GS4,NOTE_GS2,NOTE_E2,NOTE_CS2,NOTE_GS5,NOTE_F5,
  NOTE_D3,NOTE_GS4,NOTE_E4,NOTE_B4,NOTE_A3,NOTE_B3,
  NOTE_C2,NOTE_D2,NOTE_G3,NOTE_B2,NOTE_C2,NOTE_F2,
  NOTE_E3,NOTE_B5,NOTE_E5,NOTE_GS5,NOTE_B3,NOTE_C5,
  NOTE_GS4,NOTE_B4,NOTE_DS4,NOTE_DS2,NOTE_B3,NOTE_GS2,
  NOTE_C5,NOTE_E2,NOTE_B3,NOTE_DS5,NOTE_DS2,NOTE_GS4,
  NOTE_B3,NOTE_CS2,NOTE_C2,NOTE_F4,NOTE_B3,NOTE_C5,
  NOTE_DS4,NOTE_E2,NOTE_GS2,NOTE_AS1,NOTE_GS1,NOTE_CS3,
  NOTE_GS5,NOTE_B3,NOTE_E2,NOTE_B3,NOTE_DS4,NOTE_E2,
  NOTE_E2,NOTE_G4,NOTE_DS1,NOTE_E2,NOTE_GS2,NOTE_AS4,
  NOTE_DS2,NOTE_G5,NOTE_DS5,NOTE_G3,NOTE_C2,NOTE_CS3,
  NOTE_GS1,NOTE_GS4,NOTE_GS5,NOTE_DS4,NOTE_C5,NOTE_DS5,
  NOTE_E2,NOTE_E2,NOTE_AS3,NOTE_G4,NOTE_GS4,NOTE_C4,
  NOTE_CS4,NOTE_AS4,NOTE_E2,NOTE_DS4,NOTE_C5,NOTE_F4,
  NOTE_CS5,NOTE_G4,NOTE_DS5,NOTE_GS4,NOTE_F5,NOTE_E2,
  NOTE_G5,NOTE_AS4,NOTE_GS4,NOTE_GS2,NOTE_B3,NOTE_GS2,
  NOTE_E2,NOTE_GS4,NOTE_C5,NOTE_DS4,NOTE_B3,NOTE_G2,
  NOTE_GS5,NOTE_DS4,NOTE_B3,NOTE_F2,NOTE_B3,NOTE_GS2,
  NOTE_G4,NOTE_C4,NOTE_E2,NOTE_AS4,NOTE_B3,NOTE_CS3,
  NOTE_G5,NOTE_A3,NOTE_DS5,NOTE_DS2,NOTE_B3,NOTE_CS2,
  NOTE_F4,NOTE_B3,NOTE_E2,NOTE_C4,NOTE_GS4,NOTE_GS2,
  NOTE_B3,NOTE_F5,NOTE_C2,NOTE_G4,NOTE_B3,NOTE_AS1,
  NOTE_FS4,NOTE_B3,NOTE_GS2,NOTE_E2,NOTE_F4,NOTE_DS4,
  NOTE_C4,NOTE_GS4,NOTE_B3,NOTE_C5,NOTE_GS1,NOTE_DS5,
  NOTE_B3,NOTE_DS4,NOTE_AS1,NOTE_C5,NOTE_B3,NOTE_E2,
  NOTE_GS2,NOTE_GS4,NOTE_F4,NOTE_CS5,NOTE_B3,NOTE_F5,
  NOTE_C2,NOTE_DS5,NOTE_F5,NOTE_B3,NOTE_CS2,NOTE_B3,
  NOTE_E2,NOTE_CS5,NOTE_GS4,NOTE_C5,NOTE_GS2,NOTE_DS4,
  NOTE_B3,NOTE_DS5,NOTE_DS2,NOTE_B3,NOTE_CS2,NOTE_C5,
  NOTE_B3,NOTE_GS4,NOTE_E2,NOTE_F4,NOTE_GS2,NOTE_CS4,
  NOTE_B3,NOTE_GS4,NOTE_F5,NOTE_DS2,NOTE_CS5,NOTE_AS4,
  NOTE_B3,NOTE_F2,NOTE_G4,NOTE_B3,NOTE_GS2,NOTE_E2,
  NOTE_DS4,NOTE_B3,NOTE_G5,NOTE_G2,NOTE_DS5,NOTE_G4,
  NOTE_B3,NOTE_GS4,NOTE_GS2,NOTE_B3,NOTE_GS2,NOTE_E2,
  NOTE_GS4,NOTE_DS4,NOTE_C5,NOTE_B3,NOTE_G2,NOTE_GS5,
  NOTE_DS4,NOTE_B3,NOTE_F2,NOTE_B3,NOTE_E2,NOTE_C4,
  NOTE_G4,NOTE_AS4,NOTE_GS2,NOTE_B3,NOTE_DS2,NOTE_DS5,
  NOTE_G5,NOTE_B3,NOTE_CS2,NOTE_F4,NOTE_B3,NOTE_E2,
  NOTE_GS4,NOTE_GS2,NOTE_C4,NOTE_FS4,NOTE_B3,NOTE_C2,
  NOTE_F5,NOTE_G4,NOTE_B3,NOTE_AS1,NOTE_FS4,NOTE_B3,
  NOTE_E2,NOTE_GS2,NOTE_F4,NOTE_GS4,NOTE_C4,NOTE_DS4,
  NOTE_B3,NOTE_DS5,NOTE_GS1,NOTE_C5,NOTE_B3,NOTE_DS4,
  NOTE_AS1,NOTE_C5,NOTE_B3,NOTE_E2,NOTE_GS2,NOTE_GS4,
  NOTE_CS5,NOTE_F4,NOTE_B3,NOTE_F5,NOTE_C2,NOTE_DS5,
  NOTE_F5,NOTE_B3,NOTE_CS2,NOTE_B3,NOTE_E2,NOTE_CS5,
  NOTE_DS4,NOTE_GS4,NOTE_GS2,NOTE_C5,NOTE_DS2,NOTE_B3,
  NOTE_DS5,NOTE_F2,NOTE_B3,NOTE_E2,NOTE_F2,NOTE_C5,
  NOTE_E2,NOTE_GS4,NOTE_AS4,NOTE_GS2,NOTE_F4,NOTE_CS4,
  NOTE_GS4,NOTE_CS5,NOTE_C2,NOTE_F5,NOTE_DS2,NOTE_CS3,
  NOTE_G3,NOTE_AS4,NOTE_C5,NOTE_CS5,NOTE_E2,NOTE_F2,
  NOTE_DS5,NOTE_E2,NOTE_F5,NOTE_E2,NOTE_G4,NOTE_DS4,
  NOTE_AS3,NOTE_G5,NOTE_G2,NOTE_E2,NOTE_B3,NOTE_GS5,
  NOTE_GS1,NOTE_G5,NOTE_DS4,NOTE_GS4,NOTE_B3,NOTE_C5,
  NOTE_GS5,NOTE_E2,NOTE_GS2,NOTE_GS1,NOTE_B3,NOTE_C2,
  NOTE_C5,NOTE_AS2,NOTE_FS4,NOTE_DS4,NOTE_F5,NOTE_GS5,
  NOTE_E2,NOTE_C2,NOTE_E2,NOTE_E2,NOTE_F5,NOTE_DS5,
  NOTE_FS5,NOTE_E2,NOTE_G3,NOTE_GS5,NOTE_B3,NOTE_F5,
  NOTE_CS2,NOTE_DS5,NOTE_F4,NOTE_GS4,NOTE_B3,NOTE_CS5,
  NOTE_GS2,NOTE_E2,NOTE_CS2,NOTE_GS5,NOTE_C2,NOTE_E4,
  NOTE_B4,NOTE_GS4,NOTE_D3,NOTE_B3,NOTE_A3,NOTE_D2,
  NOTE_C2,NOTE_B2,NOTE_G3,NOTE_DS5,NOTE_E3,NOTE_B5,
  NOTE_E5,NOTE_F2,NOTE_DS6,NOTE_B3,NOTE_F6,NOTE_C5,
  NOTE_GS4,NOTE_DS2,NOTE_DS4,NOTE_DS6,NOTE_B3,NOTE_E2,
  NOTE_GS2,NOTE_F6,NOTE_B3,NOTE_DS2,NOTE_DS6,NOTE_B3,
  NOTE_CS2,NOTE_C2,NOTE_DS5,NOTE_CS6,NOTE_B3,NOTE_C5,
  NOTE_GS4,NOTE_DS4,NOTE_GS2,NOTE_E2,NOTE_AS1,NOTE_C6,
  NOTE_GS1,NOTE_GS5,NOTE_CS3,NOTE_B3,NOTE_AS5,NOTE_GS5,
  NOTE_E2,NOTE_B3,NOTE_E2,NOTE_B4,NOTE_DS1,NOTE_DS5,
  NOTE_E2,NOTE_C5,NOTE_E2,NOTE_AS4,NOTE_GS2,NOTE_G4,
  NOTE_DS5,NOTE_DS4,NOTE_DS2,NOTE_AS5,NOTE_G5,NOTE_GS4,
  NOTE_CS3,NOTE_C2,NOTE_G3,NOTE_GS1,NOTE_DS4,NOTE_GS5,
  NOTE_C5,NOTE_DS5,NOTE_C6,NOTE_E2,NOTE_E2,NOTE_E2,
  NOTE_E2,NOTE_B4,NOTE_B3,NOTE_GS4,NOTE_C5,NOTE_GS5,
  NOTE_DS5,NOTE_DS4,NOTE_B5,NOTE_D5,NOTE_C6,NOTE_GS1,
  NOTE_DS5,NOTE_C5,NOTE_AS4,NOTE_B3,NOTE_GS4,NOTE_C5,
  NOTE_DS4,NOTE_CS5,NOTE_GS2,NOTE_AS5,NOTE_E2,NOTE_GS5,
  NOTE_DS5,NOTE_GS1,NOTE_DS5,NOTE_FS4,NOTE_FS5,NOTE_DS4,
  NOTE_C5,NOTE_GS4,NOTE_C2,NOTE_B3,NOTE_GS5,NOTE_AS2,
  NOTE_E2,NOTE_C2,NOTE_E2,NOTE_E2,NOTE_E2,NOTE_G3,
  NOTE_B4,NOTE_B3,NOTE_F4,NOTE_CS5,NOTE_GS5,NOTE_CS4,
  NOTE_B5,NOTE_D5,NOTE_C6,NOTE_CS2,NOTE_DS5,NOTE_C5,
  NOTE_AS4,NOTE_B3,NOTE_GS4,NOTE_CS5,NOTE_E2,NOTE_AS5,
  NOTE_GS2,NOTE_GS5,NOTE_F5,NOTE_CS4,NOTE_CS2,NOTE_GS5,
  NOTE_D4,NOTE_F4,NOTE_D5,NOTE_GS4,NOTE_B3,NOTE_B4,
  NOTE_D3,NOTE_C5,NOTE_E4,NOTE_A3,NOTE_C2,NOTE_D2,
  NOTE_B2,NOTE_G3,NOTE_C2,NOTE_F2,NOTE_E5,NOTE_E3,
  NOTE_B5,NOTE_B4,NOTE_B3,NOTE_D5,NOTE_B5,NOTE_C6,
  NOTE_DS4,NOTE_DS2,NOTE_GS4,NOTE_C5,NOTE_DS5,NOTE_B4,
  NOTE_B3,NOTE_FS4,NOTE_C5,NOTE_FS5,NOTE_DS4,NOTE_DS5,
  NOTE_D5,NOTE_B5,NOTE_E2,NOTE_GS2,NOTE_C6,NOTE_B3,
  NOTE_DS5,NOTE_DS2,NOTE_C5,NOTE_AS4,NOTE_AS5,NOTE_CS5,
  NOTE_B3,NOTE_F4,NOTE_CS2,NOTE_F5,NOTE_CS4,NOTE_C5,
  NOTE_GS4,NOTE_DS4,NOTE_C4,NOTE_DS5,NOTE_C2,NOTE_GS5,
  NOTE_B3,NOTE_GS2,NOTE_E2,NOTE_AS1,NOTE_GS1,NOTE_CS3,
  NOTE_F4,NOTE_F5,NOTE_B3,NOTE_AS4,NOTE_D5,NOTE_GS4,
  NOTE_E2,NOTE_B3,NOTE_FS4,NOTE_AS4,NOTE_FS5,NOTE_CS5,
  NOTE_CS4,NOTE_GS5,NOTE_E2,NOTE_E2,NOTE_DS1,NOTE_G4,
  NOTE_CS5,NOTE_AS4,NOTE_E2,NOTE_AS5,NOTE_GS2,NOTE_DS5,
  NOTE_DS4,NOTE_D4,NOTE_B4,NOTE_G5,NOTE_D5,NOTE_DS2,
  NOTE_GS4,NOTE_G3,NOTE_CS3,NOTE_C2,NOTE_GS1,NOTE_GS5,
  NOTE_C5,NOTE_DS5,NOTE_DS4,NOTE_C6,NOTE_G4,NOTE_F4,
  NOTE_DS4,NOTE_CS4,NOTE_C4,NOTE_AS3,NOTE_E2,NOTE_E2,
  NOTE_GS3,NOTE_E2,NOTE_E2,NOTE_GS1,NOTE_GS1,NOTE_B3,
  NOTE_GS2,NOTE_E2,NOTE_B1,NOTE_C2,NOTE_B3,NOTE_B3,
  NOTE_CS2,NOTE_CS2,NOTE_B3,NOTE_GS2,NOTE_E2,NOTE_D2,
  NOTE_DS2,NOTE_A3,NOTE_B3,NOTE_CS3,NOTE_B3,NOTE_GS1,
  NOTE_GS1,NOTE_B3,NOTE_GS2,NOTE_E2,NOTE_B1,NOTE_C2,
  NOTE_B3,NOTE_B3,NOTE_CS2,NOTE_CS2,NOTE_B3,NOTE_GS2,
  NOTE_E2,NOTE_D2,NOTE_DS2,NOTE_B3,NOTE_B3,NOTE_GS1,
  NOTE_GS1,NOTE_B3,NOTE_E2,NOTE_GS2,NOTE_B1,NOTE_C2,
  NOTE_B3,NOTE_B3,NOTE_CS2,NOTE_CS2,NOTE_B3,NOTE_E2,
  NOTE_GS2,NOTE_D2,NOTE_DS2,NOTE_B3,NOTE_B3,NOTE_C2,
  NOTE_GS5,NOTE_DS4,NOTE_B2,NOTE_B5,NOTE_B4,NOTE_DS5,
  NOTE_E2,NOTE_E2,NOTE_G5,NOTE_D4,NOTE_AS2,NOTE_AS5,
  NOTE_AS4,NOTE_D5,NOTE_AS3,NOTE_G2,NOTE_F2,NOTE_FS5,
  NOTE_CS4,NOTE_A2,NOTE_A5,NOTE_A4,NOTE_CS5,NOTE_A3,
  NOTE_GS2,NOTE_GS3,NOTE_F5,NOTE_C4,NOTE_GS5,NOTE_GS4,
  NOTE_C5,NOTE_CS3,NOTE_B2,NOTE_G2,NOTE_G3,NOTE_E5,
  NOTE_B3,NOTE_G5,NOTE_G4,NOTE_B4,NOTE_E3,NOTE_FS2,
  NOTE_FS3,NOTE_DS5,NOTE_AS3,NOTE_FS5,NOTE_FS4,NOTE_AS4,
  NOTE_A3,NOTE_C2,NOTE_GS1,NOTE_GS2,NOTE_GS1,NOTE_GS2,
  NOTE_B3,NOTE_E2,NOTE_GS2,NOTE_B1,NOTE_B2,NOTE_C2,
  NOTE_C3,NOTE_B3,NOTE_B3,NOTE_CS2,NOTE_CS3,NOTE_CS2,
  NOTE_CS3,NOTE_B3,NOTE_GS2,NOTE_E2,NOTE_D2,NOTE_D3,
  NOTE_DS2,NOTE_DS3,NOTE_A3,NOTE_B3,NOTE_B3,NOTE_GS1,
  NOTE_GS2,NOTE_GS1,NOTE_GS2,NOTE_B3,NOTE_E2,NOTE_GS2,
  NOTE_B1,NOTE_B2,NOTE_C2,NOTE_C3,NOTE_B3,NOTE_B3,
  NOTE_CS2,NOTE_CS3,NOTE_CS2,NOTE_CS3,NOTE_B3,NOTE_E2,
  NOTE_GS2,NOTE_D2,NOTE_D3,NOTE_DS2,NOTE_DS3,NOTE_B3,
  NOTE_B3,NOTE_C2,NOTE_GS1,NOTE_GS2,NOTE_GS1,NOTE_GS2,
  NOTE_B3,NOTE_GS2,NOTE_E2,NOTE_B1,NOTE_B2,NOTE_C2,
  NOTE_C3,NOTE_B3,NOTE_AS2,NOTE_CS2,NOTE_CS3,NOTE_CS2,
  NOTE_CS3,NOTE_E2,NOTE_C2,NOTE_E2,NOTE_D2,NOTE_E2,
  NOTE_D3,NOTE_DS2,NOTE_G3,NOTE_E2,NOTE_DS3,NOTE_B3,
  NOTE_B2,NOTE_AS2,NOTE_AS3,NOTE_B3,NOTE_E2,NOTE_GS2,
  NOTE_A2,NOTE_A3,NOTE_GS2,NOTE_B3,NOTE_GS3,NOTE_C2,
  NOTE_D3,NOTE_A3,NOTE_G2,NOTE_G3,NOTE_FS2,NOTE_E2,
  NOTE_FS3,NOTE_C2,NOTE_B2,NOTE_G3,NOTE_E2,NOTE_DS4,
  NOTE_F4,NOTE_F2,NOTE_G4,NOTE_E2,NOTE_F3,NOTE_GS4,
  NOTE_AS4,NOTE_C5,NOTE_E2,NOTE_E3,NOTE_CS5,NOTE_F2,
  NOTE_A3,NOTE_C2,NOTE_DS2,NOTE_DS3,NOTE_DS5,NOTE_C2,
  NOTE_G3,NOTE_D2,NOTE_D5,NOTE_D3,NOTE_GS2,NOTE_E2,
  NOTE_E2,NOTE_GS2,NOTE_E2,NOTE_E2,NOTE_G3,NOTE_C2,
  NOTE_DS2,NOTE_DS5,NOTE_DS4,NOTE_DS3,NOTE_CS3,NOTE_C2,
  NOTE_D4,NOTE_D2,NOTE_D5,NOTE_D3,NOTE_GS2,NOTE_E2,
  NOTE_E2,NOTE_GS2,NOTE_E2,NOTE_E2,NOTE_C2,NOTE_CS3,
  NOTE_DS2,NOTE_DS5,NOTE_DS4,NOTE_DS6,NOTE_DS3,NOTE_C2,
  NOTE_E3,NOTE_D6,NOTE_D4,NOTE_D3,NOTE_D5,NOTE_D2,
  NOTE_GS2,NOTE_E2,NOTE_E2,NOTE_GS2,NOTE_E2,NOTE_E2,
  NOTE_E2,NOTE_A3,NOTE_E6,NOTE_CS3,NOTE_E5,NOTE_G3,
  NOTE_E4,NOTE_E1,NOTE_E3,NOTE_E2,NOTE_E2,NOTE_E2,
  NOTE_E2,NOTE_E2,NOTE_E2,NOTE_E2,NOTE_B3,NOTE_GS2,
  NOTE_DS2,NOTE_AS4,NOTE_DS5,NOTE_G4,NOTE_B3,NOTE_B3,
  NOTE_B3,NOTE_GS2,NOTE_CS2,NOTE_G4,NOTE_CS5,NOTE_AS4,
  NOTE_B3,NOTE_A3,NOTE_CS3,NOTE_B3,NOTE_B3,NOTE_DS4,
  NOTE_C2,NOTE_C5,NOTE_GS2,NOTE_GS4,NOTE_B3,NOTE_B3,
  NOTE_B3,NOTE_B1,NOTE_GS2,NOTE_GS4,NOTE_E4,NOTE_B4,
  NOTE_B3,NOTE_B3,NOTE_B3,NOTE_GS1,NOTE_GS2,NOTE_GS4,
  NOTE_C4,NOTE_DS4,NOTE_B3,NOTE_B3,NOTE_B3,NOTE_G4,
  NOTE_G1,NOTE_DS4,NOTE_GS2,NOTE_C4,NOTE_B3,NOTE_B3,
  NOTE_B3,NOTE_GS2,NOTE_E2,NOTE_E2,NOTE_E2,NOTE_E2,
  NOTE_E2,NOTE_E2,NOTE_E2,NOTE_FS4,NOTE_CS4,NOTE_AS3,
  NOTE_FS1,NOTE_A4,NOTE_FS5,NOTE_G5,NOTE_DS1,NOTE_AS4,
  NOTE_B3,NOTE_FS5,NOTE_E2,NOTE_GS2,NOTE_A4,NOTE_G5,
  NOTE_B3,NOTE_G1,NOTE_AS4,NOTE_F5,NOTE_B3,NOTE_GS4,
  NOTE_DS5,NOTE_GS1,NOTE_G4,NOTE_B3,NOTE_GS2,NOTE_E2,
  NOTE_F5,NOTE_AS1,NOTE_A3,NOTE_CS3,NOTE_GS4,NOTE_B3,
  NOTE_B3,NOTE_FS5,NOTE_A4,NOTE_G5,NOTE_AS4,NOTE_DS1,
  NOTE_B3,NOTE_E2,NOTE_GS2,NOTE_GS4,NOTE_F5,NOTE_G1,
  NOTE_DS5,NOTE_G4,NOTE_B3,NOTE_GS1,NOTE_B3,NOTE_GS1,
  NOTE_B3,NOTE_GS2,NOTE_E2,NOTE_B3,NOTE_AS1,NOTE_B3,
  NOTE_FS5,NOTE_A4,NOTE_G5,NOTE_AS4,NOTE_DS1,NOTE_B3,
  NOTE_E2,NOTE_GS2,NOTE_A4,NOTE_FS5,NOTE_G5,NOTE_G1,
  NOTE_B3,NOTE_AS4,NOTE_F5,NOTE_GS4,NOTE_B3,NOTE_DS5,
  NOTE_G4,NOTE_GS1,NOTE_B3,NOTE_GS2,NOTE_E2,NOTE_C5,
  NOTE_AS1,NOTE_B3,NOTE_DS4,NOTE_B3,NOTE_A4,NOTE_C4,
  NOTE_C5,NOTE_F4,NOTE_F1,NOTE_B3,NOTE_E2,NOTE_GS2,
  NOTE_A4,NOTE_F5,NOTE_F1,NOTE_DS5,NOTE_G4,NOTE_B3,
  NOTE_AS1,NOTE_B3,NOTE_B3,NOTE_F4,NOTE_D5,NOTE_GS2,
  NOTE_E2,NOTE_B0,NOTE_B3,NOTE_B3,NOTE_FS5,NOTE_A4,
  NOTE_G5,NOTE_AS4,NOTE_DS1,NOTE_B3,NOTE_E2,NOTE_GS2,
  NOTE_GS4,NOTE_F5,NOTE_DS1,NOTE_DS5,NOTE_G4,NOTE_B3,
  NOTE_G1,NOTE_E2,NOTE_E2,NOTE_B3,NOTE_FS5,NOTE_A4,
  NOTE_G5,NOTE_AS4,NOTE_GS1,NOTE_B3,NOTE_GS2,NOTE_E2,
  NOTE_GS4,NOTE_F5,NOTE_GS1,NOTE_DS5,NOTE_G4,NOTE_B3,
  NOTE_A1,NOTE_E2,NOTE_E2,NOTE_B3,NOTE_FS5,NOTE_A4,
  NOTE_G5,NOTE_AS4,NOTE_AS1,NOTE_B3,NOTE_E2,NOTE_GS2,
  NOTE_A4,NOTE_FS5,NOTE_G5,NOTE_AS1,NOTE_B3,NOTE_AS4,
  NOTE_F5,NOTE_GS4,NOTE_B3,NOTE_GS1,NOTE_G1,NOTE_DS5,
  NOTE_G4,NOTE_B3,NOTE_GS2,NOTE_E2,NOTE_F1,NOTE_DS1,
  NOTE_C5,NOTE_B3,NOTE_F4,NOTE_A4,NOTE_B3,NOTE_DS4,
  NOTE_DS5,NOTE_GS4,NOTE_E2,NOTE_B0,NOTE_GS4,NOTE_D4,
  NOTE_E2,NOTE_F5,NOTE_GS2,NOTE_AS1,NOTE_G3,NOTE_C2,
  NOTE_CS3,NOTE_DS1,NOTE_DS4,NOTE_DS5,NOTE_G4,NOTE_E2,
  NOTE_E2,NOTE_E2,NOTE_E2,NOTE_B4,NOTE_D5,NOTE_B5,
  NOTE_C6,NOTE_C5,NOTE_GS1,NOTE_DS5,NOTE_B4,NOTE_B3,
  NOTE_DS5,NOTE_DS4,NOTE_C5,NOTE_FS4,NOTE_FS5,NOTE_GS2,
  NOTE_D5,NOTE_E2,NOTE_B5,NOTE_C6,NOTE_C5,NOTE_B3,
  NOTE_C2,NOTE_DS5,NOTE_AS4,NOTE_CS5,NOTE_B3,NOTE_AS5,
  NOTE_D5,NOTE_D4,NOTE_F5,NOTE_F4,NOTE_DS5,NOTE_FS4,
  NOTE_C5,NOTE_FS5,NOTE_DS4,NOTE_CS2,NOTE_GS5,NOTE_GS4,
  NOTE_B3,NOTE_E2,NOTE_GS2,NOTE_AS5,NOTE_AS4,NOTE_DS2,
  NOTE_A3,NOTE_CS3,NOTE_CS5,NOTE_B3,NOTE_B4,NOTE_B3,
  NOTE_FS4,NOTE_C5,NOTE_DS4,NOTE_FS5,NOTE_DS5,NOTE_D5,
  NOTE_B5,NOTE_C6,NOTE_GS1,NOTE_C5,NOTE_DS5,NOTE_AS4,
  NOTE_B3,NOTE_GS2,NOTE_E2,NOTE_CS5,NOTE_AS5,NOTE_D5,
  NOTE_C2,NOTE_F5,NOTE_D4,NOTE_F4,NOTE_DS5,NOTE_FS4,
  NOTE_C5,NOTE_FS5,NOTE_DS4,NOTE_GS4,NOTE_GS5,NOTE_B3,
  NOTE_CS2,NOTE_B3,NOTE_CS2,NOTE_DS4,NOTE_F4,NOTE_B3,
  NOTE_GS2,NOTE_E2,NOTE_GS4,NOTE_AS4,NOTE_B3,NOTE_DS2,
  NOTE_B4,NOTE_B3,NOTE_B5,NOTE_D5,NOTE_C6,NOTE_GS1,
  NOTE_C5,NOTE_DS5,NOTE_B4,NOTE_B3,NOTE_FS4,NOTE_FS5,
  NOTE_C5,NOTE_DS5,NOTE_DS4,NOTE_B5,NOTE_GS2,NOTE_D5,
  NOTE_E2,NOTE_C6,NOTE_C5,NOTE_C2,NOTE_B3,NOTE_DS5,
  NOTE_AS4,NOTE_AS5,NOTE_B3,NOTE_CS5,NOTE_D4,NOTE_F4,
  NOTE_F5,NOTE_D5,NOTE_DS5,NOTE_FS5,NOTE_DS4,NOTE_FS4,
  NOTE_C5,NOTE_GS5,NOTE_GS4,NOTE_CS2,NOTE_B3,NOTE_E2,
  NOTE_GS2,NOTE_F5,NOTE_F4,NOTE_DS2,NOTE_B3,NOTE_GS4,
  NOTE_D4,NOTE_B3,NOTE_F4,NOTE_AS4,NOTE_F5,NOTE_D5,
  NOTE_AS4,NOTE_AS1,NOTE_F4,NOTE_F5,NOTE_AS4,NOTE_B3,
  NOTE_E2,NOTE_GS2,NOTE_AS5,NOTE_D5,NOTE_AS1,NOTE_F5,
  NOTE_D4,NOTE_F4,NOTE_DS5,NOTE_F4,NOTE_GS4,NOTE_F5,
  NOTE_C5,NOTE_GS5,NOTE_B3,NOTE_DS2,NOTE_B3,NOTE_G4,
  NOTE_B3,NOTE_AS4,NOTE_G5,NOTE_E2,NOTE_GS2,NOTE_DS4,
  NOTE_DS5,NOTE_DS1,NOTE_B3,NOTE_B4,NOTE_B3,NOTE_DS5,
  NOTE_C5,NOTE_GS4,NOTE_GS5,NOTE_DS4,NOTE_D5,NOTE_B5,
  NOTE_DS5,NOTE_C5,NOTE_C6,NOTE_GS1,NOTE_AS4,NOTE_B3,
  NOTE_E2,NOTE_GS2,NOTE_CS5,NOTE_AS5,NOTE_DS5,NOTE_GS4,
  NOTE_DS4,NOTE_C5,NOTE_GS1,NOTE_GS5,NOTE_DS5,NOTE_FS5,
  NOTE_DS4,NOTE_FS4,NOTE_C5,NOTE_C2,NOTE_GS5,NOTE_B3,
  NOTE_GS4,NOTE_AS2,NOTE_E2,NOTE_E2,NOTE_C2,NOTE_E2,
  NOTE_E2,NOTE_G3,NOTE_B4,NOTE_B3,NOTE_F4,NOTE_CS5,
  NOTE_GS5,NOTE_CS4,NOTE_D5,NOTE_B5,NOTE_DS5,NOTE_C5,
  NOTE_C6,NOTE_CS2,NOTE_AS4,NOTE_B3,NOTE_GS2,NOTE_E2,
  NOTE_CS5,NOTE_AS5,NOTE_F5,NOTE_GS4,NOTE_CS4,NOTE_CS2,
  NOTE_GS5,NOTE_GS5,NOTE_D4,NOTE_F4,NOTE_D5,NOTE_D3,
  NOTE_B3,NOTE_C5,NOTE_GS4,NOTE_C2,NOTE_A3,NOTE_D2,
  NOTE_B2,NOTE_C2,NOTE_G3,NOTE_F2,NOTE_E3,NOTE_B4,
  NOTE_B3,NOTE_B5,NOTE_D5,NOTE_DS5,NOTE_C5,NOTE_DS2,
  NOTE_C6,NOTE_B4,NOTE_B3,NOTE_DS5,NOTE_DS4,NOTE_C5,
  NOTE_FS4,NOTE_FS5,NOTE_GS2,NOTE_B5,NOTE_E2,NOTE_D5,
  NOTE_DS5,NOTE_C5,NOTE_B3,NOTE_DS2,NOTE_C6,NOTE_AS4,
  NOTE_AS5,NOTE_B3,NOTE_CS5,NOTE_CS4,NOTE_CS2,NOTE_F5,
  NOTE_F4,NOTE_C5,NOTE_C4,NOTE_GS4,NOTE_DS4,NOTE_DS5,
  NOTE_C2,NOTE_GS5,NOTE_B3,NOTE_E2,NOTE_GS2,NOTE_AS1,
  NOTE_GS1,NOTE_D5,NOTE_CS3,NOTE_B3,NOTE_F4,NOTE_F5,
  NOTE_AS4,NOTE_GS4,NOTE_E2,NOTE_B3,NOTE_AS4,NOTE_FS4,
  NOTE_FS5,NOTE_CS5,NOTE_CS4,NOTE_GS5,NOTE_E2,NOTE_E2,
  NOTE_DS1,NOTE_AS5,NOTE_CS5,NOTE_AS4,NOTE_E2,NOTE_G4,
  NOTE_GS2,NOTE_D5,NOTE_DS2,NOTE_D4,NOTE_G5,NOTE_B4,
  NOTE_GS4,NOTE_G3,NOTE_CS3,NOTE_C2,NOTE_GS1,NOTE_C5,
  NOTE_DS5,NOTE_DS4,NOTE_GS5,NOTE_G4,NOTE_F4,NOTE_DS4,
  NOTE_CS4,NOTE_C4,NOTE_AS3,NOTE_E2,NOTE_E2,NOTE_GS3,
  NOTE_E2,NOTE_E2,NOTE_GS2,NOTE_B3,NOTE_C5,NOTE_C4,
  NOTE_GS3,NOTE_DS4,NOTE_E2,NOTE_GS4,NOTE_GS2,NOTE_B3,
  NOTE_G2,NOTE_B3,NOTE_AS3,NOTE_G3,NOTE_DS4,NOTE_AS4,
  NOTE_G4,NOTE_DS5,NOTE_DS4,NOTE_AS3,NOTE_AS4,NOTE_F2,
  NOTE_B3,NOTE_E2,NOTE_GS2,NOTE_B3,NOTE_A3,NOTE_DS2,
  NOTE_CS3,NOTE_B3,NOTE_CS2,NOTE_B3,NOTE_C4,NOTE_F4,
  NOTE_GS4,NOTE_E2,NOTE_GS2,NOTE_B3,NOTE_C2,NOTE_F3,
  NOTE_B3,NOTE_AS1,NOTE_B3,NOTE_GS2,NOTE_E2,NOTE_DS4,
  NOTE_GS4,NOTE_C4,NOTE_GS3,NOTE_DS3,NOTE_B3,NOTE_GS1,
  NOTE_B3,NOTE_AS1,NOTE_B3,NOTE_GS4,NOTE_CS4,NOTE_F5,
  NOTE_F4,NOTE_GS2,NOTE_CS5,NOTE_E2,NOTE_B3,NOTE_C2,
  NOTE_B3,NOTE_DS4,NOTE_DS5,NOTE_GS4,NOTE_C5,NOTE_C4,
  NOTE_GS5,NOTE_DS5,NOTE_CS2,NOTE_C5,NOTE_GS4,NOTE_DS4,
  NOTE_B3,NOTE_GS2,NOTE_E2,NOTE_B3,NOTE_DS2,NOTE_B3,
  NOTE_CS2,NOTE_B3,NOTE_CS4,NOTE_F4,NOTE_GS4,NOTE_E2,
  NOTE_GS2,NOTE_B3,NOTE_DS2,NOTE_B3,NOTE_F2,NOTE_B3,
  NOTE_GS4,NOTE_GS2,NOTE_E2,NOTE_AS4,NOTE_C5,NOTE_AS3,
  NOTE_DS4,NOTE_G4,NOTE_CS5,NOTE_CS5,NOTE_DS5,NOTE_F5,
  NOTE_G5,NOTE_B3,NOTE_G2,NOTE_B3,NOTE_GS2,NOTE_B3,
  NOTE_C5,NOTE_GS4,NOTE_GS3,NOTE_DS4,NOTE_GS2,NOTE_C4,
  NOTE_E2,NOTE_B3,NOTE_GS5,NOTE_G2,NOTE_B3,NOTE_G4,
  NOTE_AS4,NOTE_DS4,NOTE_AS3,NOTE_G3,NOTE_DS5,NOTE_AS4,
  NOTE_AS3,NOTE_DS4,NOTE_F2,NOTE_B3,NOTE_GS2,NOTE_E2,
  NOTE_B3,NOTE_G5,NOTE_DS2,NOTE_B3,NOTE_CS2,NOTE_B3,
  NOTE_GS4,NOTE_F4,NOTE_GS2,NOTE_C4,NOTE_E2,NOTE_B3,
  NOTE_F5,NOTE_F3,NOTE_C2,NOTE_B3,NOTE_AS1,NOTE_B3,
  NOTE_E2,NOTE_GS2,NOTE_GS3,NOTE_GS4,NOTE_C4,NOTE_DS4,
  NOTE_DS3,NOTE_B3,NOTE_GS1,NOTE_DS5,NOTE_B3,NOTE_AS1,
  NOTE_B3,NOTE_F5,NOTE_CS5,NOTE_CS4,NOTE_GS4,NOTE_GS2,
  NOTE_F4,NOTE_E2,NOTE_B3,NOTE_C2,NOTE_B3,NOTE_C5,
  NOTE_DS5,NOTE_GS4,NOTE_DS4,NOTE_C4,NOTE_G5,NOTE_DS5,
  NOTE_DS4,NOTE_G4,NOTE_CS2,NOTE_AS4,NOTE_B3,NOTE_GS2,
  NOTE_E2,NOTE_DS2,NOTE_B3,NOTE_F2,NOTE_B3,NOTE_E2,
  NOTE_F2,NOTE_E2,NOTE_F4,NOTE_CS4,NOTE_GS2,NOTE_GS4,
  NOTE_G3,NOTE_AS4,NOTE_F5,NOTE_DS2,NOTE_C2,NOTE_CS5,
  NOTE_CS3,NOTE_DS4,NOTE_E2,NOTE_F2,NOTE_E2,NOTE_DS5,
  NOTE_GS5,NOTE_AS4,NOTE_AS3,NOTE_G4,NOTE_E2,NOTE_E2,
  NOTE_G2,NOTE_B4,NOTE_B3,NOTE_DS5,NOTE_C5,NOTE_GS4,
  NOTE_GS5,NOTE_DS4,NOTE_D5,NOTE_B5,NOTE_DS5,NOTE_C5,
  NOTE_C6,NOTE_GS1,NOTE_AS4,NOTE_B3,NOTE_GS2,NOTE_E2,
  NOTE_CS5,NOTE_AS5,NOTE_GS5,NOTE_C5,NOTE_GS4,NOTE_DS5,
  NOTE_GS1,NOTE_DS4,NOTE_FS5,NOTE_DS4,NOTE_DS5,NOTE_C5,
  NOTE_FS4,NOTE_C2,NOTE_GS4,NOTE_B3,NOTE_AS2,NOTE_GS5,
  NOTE_E2,NOTE_C2,NOTE_E2,NOTE_E2,NOTE_E2,NOTE_G3,
  NOTE_B4,NOTE_B3,NOTE_GS5,NOTE_CS5,NOTE_F4,NOTE_CS4,
  NOTE_D5,NOTE_B5,NOTE_DS5,NOTE_C5,NOTE_C6,NOTE_CS2,
  NOTE_AS4,NOTE_B3,NOTE_E2,NOTE_GS2,NOTE_CS5,NOTE_AS5,
  NOTE_GS5,NOTE_GS4,NOTE_F5,NOTE_CS2,NOTE_CS4,NOTE_GS5,
  NOTE_D4,NOTE_D5,NOTE_F4,NOTE_D3,NOTE_B3,NOTE_C2,
  NOTE_GS4,NOTE_C5,NOTE_A3,NOTE_D2,NOTE_B2,NOTE_C2,
  NOTE_G3,NOTE_F2,NOTE_E3,NOTE_B4,NOTE_B3,NOTE_B5,
  NOTE_D5,NOTE_DS5,NOTE_C5,NOTE_DS2,NOTE_C6,NOTE_B4,
  NOTE_B3,NOTE_DS5,NOTE_DS4,NOTE_C5,NOTE_FS5,NOTE_FS4,
  NOTE_GS2,NOTE_E2,NOTE_B5,NOTE_D5,NOTE_DS5,NOTE_C5,
  NOTE_B3,NOTE_DS2,NOTE_C6,NOTE_AS4,NOTE_AS5,NOTE_B3,
  NOTE_CS5,NOTE_CS4,NOTE_F5,NOTE_F4,NOTE_CS2,NOTE_DS5,
  NOTE_C4,NOTE_GS4,NOTE_C5,NOTE_DS4,NOTE_C2,NOTE_GS5,
  NOTE_B3,NOTE_E2,NOTE_GS2,NOTE_AS1,NOTE_GS1,NOTE_CS3,
  NOTE_D5,NOTE_B3,NOTE_F4,NOTE_F5,NOTE_AS4,NOTE_GS4,
  NOTE_E2,NOTE_B3,NOTE_AS4,NOTE_FS4,NOTE_FS5,NOTE_CS5,
  NOTE_CS4,NOTE_GS5,NOTE_E2,NOTE_E2,NOTE_DS1,NOTE_AS5,
  NOTE_CS5,NOTE_AS4,NOTE_E2,NOTE_G4,NOTE_GS2,NOTE_B4,
  NOTE_D5,NOTE_G5,NOTE_D4,NOTE_DS2,NOTE_GS4,NOTE_G3,
  NOTE_CS3,NOTE_C2,NOTE_GS1,NOTE_GS5,NOTE_C5,NOTE_DS5,
  NOTE_DS4,NOTE_G4,NOTE_F4,NOTE_DS4,NOTE_CS4,NOTE_C4,
  NOTE_AS3,NOTE_E2,NOTE_E2,NOTE_G4,NOTE_AS3,NOTE_GS3,
  NOTE_GS4,NOTE_C4,NOTE_AS4,NOTE_CS4,NOTE_E2,NOTE_C5,
  NOTE_DS4,NOTE_F4,NOTE_CS5,NOTE_DS5,NOTE_G4,NOTE_GS4,
  NOTE_F5,NOTE_E2,NOTE_G5,NOTE_AS4,NOTE_B4,NOTE_B5,
  NOTE_B3,NOTE_DS4,NOTE_GS4,NOTE_GS5,NOTE_C5,NOTE_DS5,
  NOTE_D5,NOTE_C6,NOTE_C5,NOTE_GS1,NOTE_DS5,NOTE_AS5,
  NOTE_AS4,NOTE_DS4,NOTE_B3,NOTE_C5,NOTE_GS4,NOTE_GS2,
  NOTE_CS5,NOTE_E2,NOTE_GS5,NOTE_DS5,NOTE_GS1,NOTE_DS5,
  NOTE_FS4,NOTE_FS5,NOTE_DS4,NOTE_C5,NOTE_B3,NOTE_C2,
  NOTE_AS2,NOTE_GS5,NOTE_GS4,NOTE_E2,NOTE_C2,NOTE_E2,
  NOTE_E2,NOTE_E2,NOTE_G3,NOTE_B5,NOTE_B4,NOTE_B3,
  NOTE_F4,NOTE_CS5,NOTE_GS5,NOTE_CS4,NOTE_D5,NOTE_C6,
  NOTE_C5,NOTE_CS2,NOTE_DS5,NOTE_AS5,NOTE_AS4,NOTE_GS4,
  NOTE_B3,NOTE_CS5,NOTE_E2,NOTE_GS2,NOTE_GS5,NOTE_F5,
  NOTE_CS4,NOTE_CS2,NOTE_GS5,NOTE_D4,NOTE_F4,NOTE_D5,
  NOTE_E4,NOTE_GS4,NOTE_A3,NOTE_B4,NOTE_B3,NOTE_C5,
  NOTE_D3,NOTE_C2,NOTE_D2,NOTE_B2,NOTE_G3,NOTE_C2,
  NOTE_F2,NOTE_E5,NOTE_E3,NOTE_B5,NOTE_B5,NOTE_B4,
  NOTE_B3,NOTE_D5,NOTE_C6,NOTE_DS4,NOTE_DS2,NOTE_GS4,
  NOTE_C5,NOTE_DS5,NOTE_B5,NOTE_B4,NOTE_B3,NOTE_C5,
  NOTE_FS4,NOTE_FS5,NOTE_DS4,NOTE_DS5,NOTE_D5,NOTE_E2,
  NOTE_GS2,NOTE_C6,NOTE_B3,NOTE_DS2,NOTE_C5,NOTE_DS5,
  NOTE_AS5,NOTE_AS4,NOTE_B3,NOTE_CS5,NOTE_F4,NOTE_CS2,
  NOTE_F5,NOTE_CS4,NOTE_C5,NOTE_GS4,NOTE_DS4,NOTE_C4,
  NOTE_DS5,NOTE_C2,NOTE_GS5,NOTE_B3,NOTE_GS2,NOTE_E2,
  NOTE_AS1,NOTE_GS1,NOTE_CS3,NOTE_F4,NOTE_AS4,NOTE_D5,
  NOTE_B3,NOTE_F5,NOTE_GS5,NOTE_GS4,NOTE_E2,NOTE_B3,
  NOTE_FS4,NOTE_AS4,NOTE_FS5,NOTE_CS5,NOTE_CS4,NOTE_E2,
  NOTE_E2,NOTE_DS1,NOTE_AS5,NOTE_AS4,NOTE_E2,NOTE_G4,
  NOTE_CS5,NOTE_GS2,NOTE_G5,NOTE_D4,NOTE_B4,NOTE_D5,
  NOTE_DS5,NOTE_DS4,NOTE_DS2,NOTE_GS5,NOTE_FS5,NOTE_DS5,
  NOTE_D5,NOTE_CS5,NOTE_C5,NOTE_B4,NOTE_C5,NOTE_GS4,
  NOTE_GS5,NOTE_G5,NOTE_F5,NOTE_DS5,NOTE_CS5,NOTE_C5,
  NOTE_AS4,NOTE_GS4,NOTE_G4,NOTE_F4,NOTE_DS4,NOTE_CS4,
  NOTE_C4,NOTE_AS3,NOTE_GS3,NOTE_G3,NOTE_F3,NOTE_DS3,
  NOTE_CS3,NOTE_E2,NOTE_C3,NOTE_AS2,NOTE_C2,NOTE_GS1,
  NOTE_A3,NOTE_C6,NOTE_E2,NOTE_GS2,NOTE_C2,NOTE_AS2
};
const int dr_mario_remix_dur[] PROGMEM = {
  8,8,8,8,8,8,
  8,8,8,1,1,8,
  8,8,8,8,8,8,
  8,8,8,8,8,8,
  8,8,8,8,8,8,
  8,8,8,8,8,8,
  8,8,8,8,8,8,
  16,16,8,8,8,8,
  8,8,8,8,8,8,
  8,8,8,8,8,8,
  8,8,8,8,8,8,
  8,8,8,8,8,8,
  8,8,8,8,8,8,
  4,4,8,8,8,8,
  8,8,8,8,8,8,
  8,8,16,8,8,8,
  8,8,8,8,16,8,
  8,8,16,8,8,8,
  16,1,1,8,8,8,
  16,8,8,8,16,8,
  8,8,16,8,8,8,
  16,8,8,8,8,8,
  8,8,8,8,8,16,
  8,8,8,8,8,8,
  8,8,8,8,16,8,
  8,8,16,8,8,8,
  16,8,8,8,16,8,
  8,8,16,8,8,8,
  8,16,8,8,8,8,
  16,8,8,8,8,4,
  8,8,8,8,8,8,
  8,8,4,8,8,8,
  8,8,4,8,8,8,
  8,8,4,1,1,8,
  8,8,8,8,8,8,
  4,8,8,8,8,8,
  8,8,8,8,8,8,
  16,8,8,8,8,4,
  8,8,8,8,8,4,
  8,8,8,8,8,8,
  4,8,8,8,8,8,
  8,8,4,8,8,8,
  8,4,8,8,8,8,
  8,8,8,4,8,8,
  8,8,8,8,8,8,
  8,8,8,8,4,4,
  8,8,4,8,8,8,
  8,8,8,4,8,8,
  8,8,8,8,8,8,
  8,8,8,8,8,8,
  8,8,8,4,8,8,
  8,8,8,8,8,8,
  8,8,8,8,8,8,
  8,8,8,4,8,8,
  8,8,8,8,4,8,
  8,8,8,8,8,16,
  8,8,8,8,8,8,
  16,8,8,8,8,8,
  8,8,8,8,4,8,
  8,8,8,8,8,8,
  8,8,8,8,8,8,
  8,8,8,8,8,8,
  8,8,8,4,8,8,
  8,8,8,8,8,8,
  8,8,8,8,8,8,
  8,4,8,8,8,8,
  8,8,8,8,8,16,
  16,16,16,16,4,8,
  8,8,8,8,8,8,
  4,1,1,8,8,8,
  8,8,8,8,8,8,
  8,8,8,4,8,8,
  8,8,8,8,8,8,
  8,8,8,8,8,16,
  16,16,16,16,8,8,
  8,8,8,16,8,8,
  8,8,8,8,8,8,
  4,8,8,8,8,8,
  4,8,8,8,8,8,
  8,8,8,8,8,8,
  8,8,8,8,4,8,
  8,8,8,8,8,8,
  8,8,8,16,16,16,
  16,16,8,8,4,8,
  8,8,8,8,4,8,
  8,8,8,8,8,8,
  8,8,4,8,8,8,
  8,8,8,8,8,8,
  8,8,8,16,16,16,
  16,8,8,8,8,8,
  8,8,4,4,8,8,
  32,4,4,8,8,8,
  8,8,8,8,8,8,
  8,8,8,8,4,8,
  8,8,8,8,8,8,
  8,8,8,8,8,16,
  16,16,16,16,8,8,
  8,8,8,8,8,8,
  8,8,1,8,8,8,
  8,8,8,8,8,8,
  8,8,4,8,8,8,
  8,8,8,8,8,8,
  8,8,16,16,16,16,
  8,8,8,8,8,8,
  8,8,8,8,8,1,
  8,8,8,8,8,8,
  4,8,8,8,8,8,
  8,8,8,8,8,8,
  8,8,8,8,4,8,
  8,8,8,8,8,8,
  8,8,16,16,16,16,
  16,16,8,8,8,8,
  8,16,1,8,8,8,
  8,8,8,8,8,8,
  8,8,8,8,8,8,
  8,4,8,8,8,8,
  8,8,8,8,8,8,
  8,8,8,8,8,8,
  8,8,8,8,32,32,
  32,32,32,32,8,8,
  8,8,8,4,8,4,
  4,2,4,8,2,8,
  8,4,8,8,8,8,
  8,8,8,8,8,8,
  4,8,8,8,8,1,
  4,1,8,4,8,8,
  2,2,8,2,8,4,
  2,8,4,8,8,8,
  2,2,2,2,1,8,
  4,8,4,8,2,4,
  2,8,4,8,4,8,
  4,8,8,8,8,8,
  8,8,4,8,8,8,
  8,8,8,8,8,4,
  8,4,8,8,2,2,
  8,2,8,4,8,4,
  8,8,8,2,2,1,
  1,2,8,4,8,4,
  8,2,4,4,8,2,
  8,4,8,4,8,8,
  8,8,8,8,8,4,
  8,8,8,8,8,8,
  8,4,8,4,8,8,
  2,2,8,2,8,4,
  2,8,4,8,8,8,
  2,2,2,1,2,8,
  4,8,4,8,2,4,
  2,8,4,8,4,8,
  4,8,8,8,8,8,
  8,8,4,8,8,8,
  8,8,8,8,8,8,
  8,8,8,8,8,2,
  8,2,2,8,2,2,
  4,8,8,8,4,8,
  8,8,2,2,2,1,
  8,8,4,8,8,8,
  8,8,8,8,8,8,
  8,8,8,4,8,8,
  8,8,8,8,8,8,
  8,8,8,8,16,16,
  16,16,16,8,8,8,
  8,8,8,8,8,8,
  8,1,8,8,8,8,
  8,8,8,8,8,8,
  8,4,8,8,8,8,
  8,8,8,8,8,8,
  8,16,16,16,16,8,
  8,8,8,8,8,8,
  8,8,8,8,1,8,
  8,8,8,8,8,4,
  8,8,8,8,8,8,
  8,8,8,8,8,8,
  8,8,8,4,8,8,
  8,8,8,8,8,8,
  8,16,16,16,16,16,
  16,8,8,8,8,8,
  16,1,8,8,8,8,
  8,8,8,8,8,8,
  8,8,8,8,8,8,
  4,8,8,8,8,8,
  8,8,8,8,8,8,
  8,8,8,8,8,8,
  8,8,8,32,32,32,
  32,32,32,8,8,8,
  8,32,8,8,8,8,
  4,8,8,8,8,8,
  4,8,8,4,8,8,
  2,8,2,8,1,4,
  1,8,8,4,8,4,
  8,8,2,2,8,8,
  8,8,8,8,8,8,
  16,8,8,8,8,8,
  4,8,8,8,4,8,
  8,8,8,8,8,8,
  4,8,8,4,8,2,
  8,8,2,8,32,8,
  4,8,4,8,2,2,
  2,8,2,8,8,8,
  8,8,8,8,8,8,
  8,8,8,4,8,8,
  8,8,4,8,2,2,
  8,8,8,8,8,8,
  8,8,8,8,8,8,
  8,8,16,32,8,1,
  8,4,8,4,8,2,
  2,8,8,8,4,8,
  8,8,8,8,8,8,
  8,8,8,8,8,8,
  8,1,8,8,8,8,
  4,8,8,8,8,8,
  8,4,8,8,4,16,
  8,8,8,2,8,2,
  8,4,16,8,1,8,
  8,8,4,8,8,4,
  8,8,8,2,8,8,
  8,8,8,8,8,8,
  8,32,8,8,8,8,
  4,8,8,8,4,8,
  8,8,8,4,4,4,
  8,4,8,8,4,8,
  8,8,2,8,2,2,
  8,4,1,1,8,8,
  4,8,2,8,2,8,
  2,8,8,4,8,4,
  8,4,8,8,8,8,
  2,2,8,4,8,8,
  4,8,8,8,8,4,
  4,4,8,4,8,4,
  8,2,2,2,8,2,
  8,8,4,8,8,4,
  8,8,2,2,2,8,
  8,4,8,8,4,8,
  8,8,2,2,4,8,
  8,4,8,8,4,8,
  8,8,8,4,4,4,
  8,4,8,8,4,8,
  2,8,2,8,2,8,
  8,4,8,8,4,8,
  2,8,2,8,2,8,
  8,4,8,4,8,4,
  8,8,8,8,2,2,
  8,4,8,8,4,8,
  8,8,8,4,4,4,
  8,4,8,4,8,2,
  2,2,8,2,8,8,
  8,8,8,8,8,8,
  8,2,2,2,2,8,
  8,8,8,4,8,4,
  8,8,2,2,2,2,
  4,2,8,8,4,8,
  4,4,8,2,2,8,
  8,8,8,8,8,8,
  8,8,8,8,4,8,
  8,8,8,8,4,8,
  1,8,4,4,8,2,
  2,2,8,8,8,4,
  8,8,8,8,8,8,
  8,8,8,4,8,8,
  8,8,4,8,1,8,
  4,8,8,4,8,8,
  8,8,8,4,8,8,
  2,16,8,8,8,2,
  2,8,2,8,4,16,
  8,1,8,8,8,8,
  4,4,8,8,8,2,
  2,2,8,8,4,8,
  8,8,8,8,8,8,
  8,8,2,8,32,32,
  32,32,32,32,8,32,
  32,32,32,32,32,32,
  32,8,32,32,8,8,
  8,8,4,8,8,8,
  8,8,4,8,8,4,
  8,8,8,2,2,8,
  8,1,4,1,8,8,
  8,4,8,8,8,2,
  8,2,8,8,8,8,
  8,8,8,16,8,8,
  8,8,4,8,8,8,
  8,4,8,8,8,8,
  8,4,8,8,8,4,
  8,8,8,8,2,2,
  8,1,1,8,4,8,
  8,8,4,8,8,8,
  2,8,2,2,8,2,
  2,8,8,8,8,8,
  8,8,8,8,8,4,
  2,2,8,8,8,8,
  4,8,2,8,8,8,
  16,8,8,8,8,8,
  8,8,8,8,8,8,
  8,8,1,1,1,2,
  8,8,8,4,8,2,
  2,8,8,8,2,2,
  8,8,8,8,8,8,
  8,8,8,8,8,8,
  1,2,2,2,8,8,
  8,8,8,4,8,8,
  8,8,8,8,4,8,
  8,8,16,8,8,2,
  8,8,8,8,16,1,
  1,8,8,8,8,8,
  8,8,4,8,8,2,
  8,2,2,8,8,8,
  8,8,8,8,8,8,
  8,8,32,32,32,32,
  32,32,8,32,32,32,
  32,32,32,32,32,8,
  32,32,8,4,8,8,
  8,4,4,4,8,4,
  2,16,8,4,8,8,
  2,8,8,2,8,1,
  2,1,1,4,8,4,
  8,8,8,2,2,8,
  8,2,4,8,8,4,
  8,8,8,8,8,2,
  2,2,8,1,4,2,
  8,8,4,8,8,8,
  8,4,4,4,8,2,
  4,16,8,8,4,8,
  8,8,2,2,8,2,
  8,8,4,8,4,8,
  8,2,8,2,8,2,
  8,8,2,4,2,8,
  8,4,8,8,8,8,
  2,8,2,4,2,16,
  8,8,4,8,8,8,
  4,4,4,8,4,2,
  16,8,4,8,8,8,
  2,2,8,8,4,1,
  2,8,4,8,8,8,
  2,8,2,16,8,4,
  2,8,8,4,8,8,
  8,8,8,2,2,2,
  8,2,4,1,8,8,
  4,8,8,8,8,4,
  4,4,8,2,4,16,
  8,8,4,8,8,8,
  2,2,8,2,8,8,
  8,8,8,8,8,8,
  8,2,2,8,2,2,
  8,2,8,2,4,8,
  8,8,8,8,8,4,
  8,8,8,8,2,2,
  2,8,4,8,8,8,
  4,16,2,2,8,2,
  8,8,8,8,8,8,
  8,8,8,8,8,8,
  8,8,8,8,8,1,
  2,8,1,8,8,8,
  4,8,2,2,8,2,
  8,8,8,8,8,8,
  8,8,8,8,8,8,
  8,8,8,8,1,2,
  2,8,8,8,8,8,
  8,4,8,8,8,8,
  8,8,8,4,8,8,
  8,16,8,8,8,2,
  2,2,8,8,8,8,
  16,1,1,8,8,8,
  8,8,8,32,4,8,
  8,8,8,2,8,2,
  8,2,8,2,2,8,
  8,8,8,8,8,8,
  8,8,8,8,8,8,
  8,8,8,8,8,8,
  8,8,8,8,8,4,
  8,8,8,8,8,8,
  8,8,8,8,8,8,
  8,8,16,16,16,16,
  16,8,8,8,8,8,
  8,8,8,8,8,1,
  8,8,8,8,8,8,
  8,8,8,4,8,8,
  8,8,8,8,8,8,
  8,8,8,8,8,16,
  16,16,16,8,8,8,
  8,8,8,8,8,8,
  8,8,8,8,2,1,
  2,8,8,8,8,8,
  8,4,8,8,8,8,
  8,8,8,8,8,8,
  8,8,8,8,8,8,
  8,4,8,8,8,8,
  8,8,8,8,8,16,
  16,16,16,16,16,8,
  8,8,8,8,16,1,
  8,8,8,8,8,8,
  8,8,8,8,8,8,
  8,8,8,8,4,8,
  8,8,8,8,8,8,
  2,8,8,8,8,8,
  8,8,8,8,8,8,
  8,8,8,8,32,32,
  32,32,32,32,8,8,
  8,8,8,8,16,8,
  8,8,8,16,8,8,
  8,16,8,8,8,8,
  16,1,8,1,8,8,
  16,8,8,8,8,16,
  8,8,8,16,8,8,
  8,8,16,8,8,8,
  16,8,8,8,8,16,
  8,8,8,16,8,8,
  8,8,16,8,8,8,
  4,4,4,4,4,4,
  16,8,4,4,4,4,
  4,4,4,8,8,4,
  4,4,4,4,4,4,
  4,4,4,4,4,4,
  4,4,4,4,4,4,
  4,4,4,4,4,4,
  4,4,4,4,4,4,
  4,4,8,4,16,8,
  8,8,8,8,4,16,
  8,8,8,8,4,16,
  8,8,8,8,8,4,
  16,8,1,8,8,8,
  4,16,8,8,8,8,
  8,4,16,8,8,8,
  8,4,16,8,8,8,
  8,8,4,16,8,8,
  8,8,8,4,16,8,
  8,8,8,8,4,16,
  8,8,8,8,4,16,
  8,8,8,8,8,8,
  4,16,1,8,8,8,
  8,16,8,8,8,8,
  8,4,16,8,8,8,
  8,8,8,4,16,8,
  8,8,8,8,8,32,
  32,8,32,8,4,32,
  32,32,16,8,32,8,
  8,8,8,4,4,8,
  8,8,8,8,8,8,
  8,8,8,8,8,8,
  8,4,4,4,8,8,
  8,8,8,8,8,8,
  8,8,8,8,8,8,
  8,4,4,4,4,8,
  8,8,8,8,8,8,
  8,8,8,8,8,8,
  8,8,8,8,8,8,
  8,8,8,8,8,8,
  8,8,8,8,8,8,
  2,4,4,4,8,8,
  8,8,2,2,2,2,
  8,1,1,8,8,2,
  2,2,8,2,8,8,
  8,2,8,2,2,2,
  8,8,8,2,8,4,
  4,4,8,8,8,2,
  2,2,8,2,8,8,
  8,8,8,8,8,8,
  8,8,8,1,1,1,
  1,8,8,8,4,8,
  8,8,8,8,8,8,
  8,4,8,8,8,8,
  8,4,8,8,8,8,
  8,4,1,1,8,8,
  8,8,8,8,8,4,
  8,8,8,8,8,8,
  8,8,8,8,8,16,
  8,8,8,8,4,8,
  8,8,8,8,4,8,
  8,8,8,8,8,4,
  8,8,8,8,8,8,
  8,4,8,8,8,8,
  4,8,8,8,8,8,
  8,8,4,8,8,8,
  8,8,8,8,8,8,
  8,8,8,4,4,8,
  8,4,8,8,8,8,
  8,8,4,8,8,8,
  8,8,8,8,8,8,
  8,8,8,8,8,8,
  8,8,4,8,8,8,
  8,8,8,8,8,8,
  8,8,8,8,8,8,
  8,8,4,8,8,8,
  8,8,8,4,8,8,
  8,8,8,8,16,8,
  8,8,8,8,8,16,
  8,8,8,8,8,8,
  8,8,8,4,8,8,
  8,8,8,8,8,8,
  8,8,8,8,8,8,
  8,8,8,8,8,8,
  8,8,4,8,8,8,
  8,8,8,8,8,8,
  8,8,8,8,8,8,
  4,8,8,8,8,8,
  8,8,8,8,16,16,
  16,16,16,4,8,8,
  8,8,8,8,8,4,
  1,1,8,8,8,8,
  8,8,8,8,8,8,
  8,8,4,8,8,8,
  8,8,8,8,8,8,
  8,8,8,8,16,16,
  16,16,16,8,8,8,
  8,8,16,8,8,8,
  8,8,8,8,8,4,
  8,8,8,8,8,4,
  8,8,8,8,8,8,
  8,8,8,8,8,8,
  8,8,8,4,8,8,
  8,8,8,8,8,8,
  8,8,16,16,16,16,
  16,8,8,4,8,8,
  8,8,8,4,8,8,
  8,8,8,8,8,8,
  8,4,8,8,8,8,
  8,8,8,8,8,8,
  8,8,16,16,16,16,
  8,8,8,8,8,8,
  8,4,4,8,8,32,
  4,4,8,8,8,8,
  8,8,8,8,8,8,
  8,8,8,4,8,8,
  8,8,8,8,8,8,
  8,8,8,8,16,16,
  16,16,16,8,8,8,
  8,8,8,8,8,8,
  8,1,8,8,8,8,
  8,8,8,8,8,8,
  8,4,8,8,8,8,
  8,8,8,8,8,8,
  8,16,16,16,16,8,
  8,8,8,8,8,8,
  8,8,8,8,1,8,
  8,8,8,8,8,4,
  8,8,8,8,8,8,
  8,8,8,8,8,8,
  8,8,8,4,8,8,
  8,8,8,8,8,8,
  8,16,16,16,16,16,
  16,8,8,8,8,8,
  16,8,1,8,8,8,
  8,8,8,8,8,8,
  8,8,8,8,8,8,
  4,8,8,8,8,8,
  8,8,8,8,8,8,
  8,8,8,8,8,8,
  8,8,8,32,32,32,
  32,32,32,8,8,8,
  8,8,4,8,4,2,
  2,4,8,4,8,8,
  4,8,8,8,8,8,
  8,8,8,8,8,4,
  8,8,8,8,1,4,
  1,8,4,8,2,2,
  2,8,8,8,4,2,
  8,4,8,8,8,2,
  2,2,1,2,8,4,
  8,4,8,4,2,2,
  4,8,4,8,8,4,
  8,8,8,8,8,8,
  8,8,4,8,8,8,
  8,8,8,8,4,8,
  4,8,2,2,2,8,
  8,8,4,8,4,8,
  32,8,8,32,32,2,
  2,2,1,32,32,32,
  32,8,4,8,4,8,
  4,4,2,4,8,2,
  8,8,2,4,8,8,
  8,8,8,8,8,8,
  8,8,4,8,8,8,
  8,2,4,8,4,8,
  2,2,8,2,8,8,
  2,2,4,8,4,8,
  8,8,1,2,2,2,
  2,8,4,2,8,4,
  8,2,4,2,4,8,
  4,8,8,4,8,8,
  8,8,8,8,8,8,
  8,8,4,8,8,8,
  8,8,8,8,8,8,
  8,8,2,2,8,2,
  8,8,2,4,8,2,
  8,8,8,4,8,8,
  1,2,2,2,8,8,
  4,8,8,8,8,8,
  8,8,8,8,8,8,
  8,4,8,8,8,8,
  8,8,8,8,8,8,
  8,8,16,16,16,16,
  16,8,8,8,8,8,
  8,8,8,8,8,1,
  8,8,8,8,8,8,
  8,8,8,8,8,4,
  8,8,8,8,8,8,
  8,8,8,8,8,16,
  16,16,16,8,8,8,
  8,8,8,8,8,8,
  8,8,1,8,8,8,
  8,8,8,4,8,8,
  8,8,8,8,8,8,
  8,8,8,8,8,8,
  8,4,8,8,8,8,
  8,8,8,8,8,16,
  16,16,16,16,16,8,
  8,8,8,8,16,1,
  8,8,8,8,8,8,
  8,8,8,8,8,8,
  8,8,8,8,4,8,
  8,8,8,8,8,8,
  8,8,8,8,8,8,
  8,8,8,8,8,8,
  8,32,32,32,32,32,
  32,8,8,32,32,8,
  32,32,32,32,8,32,
  32,32,32,32,32,32,
  32,8,32,32,8,8,
  8,8,8,8,8,8,
  8,8,8,4,8,8,
  8,8,8,8,8,8,
  8,8,8,8,8,16,
  16,16,16,16,8,8,
  8,8,8,8,8,8,
  8,8,1,8,8,8,
  8,8,8,8,8,8,
  8,4,8,8,8,8,
  8,8,8,8,8,8,
  8,8,16,16,16,16,
  8,8,8,8,8,8,
  8,8,8,8,8,8,
  8,2,1,2,8,8,
  8,8,8,8,4,8,
  8,8,8,8,8,8,
  8,8,8,8,8,8,
  8,8,8,4,8,8,
  8,8,8,8,8,8,
  8,8,16,16,16,16,
  16,16,8,8,8,8,
  8,16,1,8,8,8,
  8,8,8,8,8,8,
  8,8,8,8,8,8,
  8,4,8,8,8,8,
  8,8,8,8,8,8,
  4,2,4,8,8,8,
  16,8,1,16,8,1,
  32,32,32,32,32,32,
  32,32,32,32,32,32,
  32,32,32,32,32,32,
  32,32,32,32,1,1,
  1,1,32,8,2,1
};
const int dr_mario_remix_length = 3888;
