// Song: dream_land
// Generated from: packmidis/Games/dream_land.mid
// Notes: 193

const int dream_land_notes[] PROGMEM = {
  NOTE_G5,NOTE_DS5,NOTE_F5,NOTE_D5,NOTE_DS5,NOTE_C5,
  NOTE_D5,NOTE_AS4,NOTE_AS4,NOTE_F4,NOTE_G4,NOTE_D4,
  NOTE_C5,NOTE_GS4,NOTE_D5,NOTE_AS4,NOTE_DS5,NOTE_C5,
  NOTE_F5,NOTE_D5,NOTE_D5,NOTE_B4,NOTE_C6,NOTE_G5,
  NOTE_DS5,NOTE_D5,NOTE_C5,NOTE_C5,NOTE_D5,NOTE_DS5,
  NOTE_C5,NOTE_AS4,NOTE_C5,NOTE_G4,NOTE_C6,NOTE_G5,
  NOTE_DS5,NOTE_D5,NOTE_C5,NOTE_C5,NOTE_D5,NOTE_DS5,
  NOTE_F5,NOTE_D5,NOTE_AS4,NOTE_C5,NOTE_G4,NOTE_C5,
  NOTE_D5,NOTE_D4,NOTE_F5,NOTE_F4,NOTE_G5,NOTE_G4,
  NOTE_D5,NOTE_D4,NOTE_F5,NOTE_F4,NOTE_G5,NOTE_G4,
  NOTE_D5,NOTE_D4,NOTE_F5,NOTE_F4,NOTE_D5,NOTE_D4,
  NOTE_F5,NOTE_F4,NOTE_G5,NOTE_G4,NOTE_C6,NOTE_C5,
  NOTE_B5,NOTE_B4,NOTE_G5,NOTE_DS5,NOTE_F5,NOTE_D5,
  NOTE_DS5,NOTE_C5,NOTE_D5,NOTE_AS4,NOTE_AS4,NOTE_F4,
  NOTE_G4,NOTE_D4,NOTE_C5,NOTE_GS4,NOTE_D5,NOTE_AS4,
  NOTE_DS5,NOTE_C5,NOTE_F5,NOTE_D5,NOTE_D5,NOTE_B4,
  NOTE_C6,NOTE_G5,NOTE_DS5,NOTE_D5,NOTE_C5,NOTE_C5,
  NOTE_D5,NOTE_DS5,NOTE_C5,NOTE_AS4,NOTE_C5,NOTE_G4,
  NOTE_C6,NOTE_G5,NOTE_DS5,NOTE_D5,NOTE_C5,NOTE_C5,
  NOTE_D5,NOTE_DS5,NOTE_F5,NOTE_D5,NOTE_AS4,NOTE_C5,
  NOTE_G4,NOTE_C5,NOTE_D5,NOTE_D4,NOTE_F5,NOTE_F4,
  NOTE_G5,NOTE_G4,NOTE_D5,NOTE_D4,NOTE_F5,NOTE_F4,
  NOTE_G5,NOTE_G4,NOTE_D5,NOTE_D4,NOTE_F5,NOTE_F4,
  NOTE_D5,NOTE_D4,NOTE_F5,NOTE_F4,NOTE_G5,NOTE_G4,
  NOTE_C6,NOTE_C5,NOTE_B5,NOTE_B4,NOTE_G5,NOTE_DS5,
  NOTE_F5,NOTE_D5,NOTE_DS5,NOTE_C5,NOTE_D5,NOTE_AS4,
  NOTE_AS4,NOTE_F4,NOTE_G4,NOTE_D4,NOTE_C5,NOTE_GS4,
  NOTE_D5,NOTE_AS4,NOTE_DS5,NOTE_C5,NOTE_F5,NOTE_D5,
  NOTE_D5,NOTE_B4,NOTE_C6,NOTE_G5,NOTE_DS5,NOTE_D5,
  NOTE_C5,NOTE_C5,NOTE_D5,NOTE_DS5,NOTE_C5,NOTE_AS4,
  NOTE_C5,NOTE_G4,NOTE_C6,NOTE_G5,NOTE_DS5,NOTE_D5,
  NOTE_C5,NOTE_C5,NOTE_D5,NOTE_DS5,NOTE_F5,NOTE_D5,
  NOTE_AS4
};
const int dream_land_dur[] PROGMEM = {
  4,4,16,16,16,16,
  16,16,16,16,4,4,
  16,16,16,16,16,16,
  16,16,16,16,4,4,
  4,4,4,4,4,4,
  4,4,4,4,4,4,
  4,4,4,8,8,4,
  4,4,4,4,4,2,
  16,16,16,16,16,16,
  16,16,16,16,16,16,
  16,16,16,16,16,16,
  16,16,16,16,16,16,
  16,16,4,4,16,16,
  16,16,16,16,16,16,
  4,4,16,16,16,16,
  16,16,16,16,16,16,
  4,4,4,4,4,4,
  4,4,4,4,4,4,
  4,4,4,4,4,8,
  8,4,4,4,4,4,
  4,2,16,16,16,16,
  16,16,16,16,16,16,
  16,16,16,16,16,16,
  16,16,16,16,16,16,
  16,16,16,16,4,4,
  16,16,16,16,16,16,
  16,16,4,4,16,16,
  16,16,16,16,16,16,
  16,16,4,4,4,4,
  4,4,4,4,4,4,
  4,4,4,4,4,4,
  4,8,8,4,4,4,
  4
};
const int dream_land_length = 193;
