// Song: duck_tales
// Generated from: packmidis/movies/duck_tales.mid
// Notes: 137

const int duck_tales_notes[] PROGMEM = {
  NOTE_G3,NOTE_B3,NOTE_D4,NOTE_E4,NOTE_F4,NOTE_F4,
  NOTE_E4,NOTE_D4,NOTE_C4,NOTE_C4,NOTE_B3,NOTE_C4,
  NOTE_B3,NOTE_G3,NOTE_B3,NOTE_D4,NOTE_E4,NOTE_F4,
  NOTE_F4,NOTE_E4,NOTE_D4,NOTE_C4,NOTE_F4,NOTE_E4,
  NOTE_F4,NOTE_E4,NOTE_A3,NOTE_C4,NOTE_D4,NOTE_E4,
  NOTE_D4,NOTE_E4,NOTE_E4,NOTE_G4,NOTE_A4,NOTE_B4,
  NOTE_A4,NOTE_G4,NOTE_G4,NOTE_G4,NOTE_G4,NOTE_D5,
  NOTE_B4,NOTE_G4,NOTE_F4,NOTE_DS4,NOTE_F4,NOTE_G4,
  NOTE_F4,NOTE_DS4,NOTE_F4,NOTE_G4,NOTE_G4,NOTE_G4,
  NOTE_D5,NOTE_B4,NOTE_G4,NOTE_F4,NOTE_DS4,NOTE_F4,
  NOTE_G4,NOTE_F4,NOTE_DS4,NOTE_F4,NOTE_G4,NOTE_G4,
  NOTE_G4,NOTE_G4,NOTE_B4,NOTE_A4,NOTE_D4,NOTE_D4,
  NOTE_E4,NOTE_G4,NOTE_G4,NOTE_A4,NOTE_A4,NOTE_B4,
  NOTE_A4,NOTE_B4,NOTE_C5,NOTE_B4,NOTE_G4,NOTE_A4,
  NOTE_B4,NOTE_B4,NOTE_A4,NOTE_B4,NOTE_CS5,NOTE_B4,
  NOTE_A4,NOTE_B4,NOTE_E4,NOTE_E4,NOTE_E4,NOTE_B4,
  NOTE_GS4,NOTE_E4,NOTE_D4,NOTE_C4,NOTE_D4,NOTE_E4,
  NOTE_D4,NOTE_C4,NOTE_D4,NOTE_E4,NOTE_E4,NOTE_E4,
  NOTE_B4,NOTE_GS4,NOTE_E4,NOTE_D4,NOTE_C4,NOTE_D4,
  NOTE_E4,NOTE_D4,NOTE_C4,NOTE_D4,NOTE_E4,NOTE_E4,
  NOTE_E4,NOTE_B4,NOTE_GS4,NOTE_E4,NOTE_D4,NOTE_C4,
  NOTE_D4,NOTE_E4,NOTE_D4,NOTE_C4,NOTE_D4,NOTE_E4,
  NOTE_E4,NOTE_E4,NOTE_B4,NOTE_GS4,NOTE_E5
};
const int duck_tales_dur[] PROGMEM = {
  4,4,4,4,4,4,
  4,8,4,2,2,2,
  2,4,4,4,4,4,
  4,4,8,4,2,2,
  2,2,4,4,4,2,
  2,4,4,4,4,2,
  2,4,4,4,8,4,
  4,4,4,4,4,4,
  4,4,4,4,4,8,
  4,4,4,4,4,4,
  4,4,4,4,4,4,
  4,8,4,4,4,4,
  4,4,8,4,8,4,
  4,4,4,4,4,8,
  4,8,4,4,4,4,
  4,4,4,4,8,4,
  4,4,4,4,4,4,
  4,4,4,4,4,8,
  4,4,4,4,4,4,
  4,4,4,4,4,4,
  8,4,4,4,4,4,
  4,4,4,4,4,4,
  4,8,4,4,4
};
const int duck_tales_length = 137;
