// Song: eagle_eye_cherry_save_tonight
// Generated from: packmidis/midi/eagle_eye_cherry_save_tonight.mid
// Notes: 10449

const int eagle_eye_cherry_save_tonight_notes[] PROGMEM = {
  NOTE_FS2,NOTE_FS2,NOTE_FS2,NOTE_FS2,NOTE_GS2,NOTE_C3,
  NOTE_E3,NOTE_D3,NOTE_GS2,NOTE_E3,NOTE_A3,NOTE_C4,
  NOTE_GS2,NOTE_A3,NOTE_E4,NOTE_C4,NOTE_C4,NOTE_A3,
  NOTE_A2,NOTE_E3,NOTE_A4,NOTE_C4,NOTE_F3,NOTE_G3,
  NOTE_F3,NOTE_C4,NOTE_F3,NOTE_F3,NOTE_C4,NOTE_GS2,
  NOTE_C4,NOTE_F3,NOTE_A3,NOTE_F4,NOTE_F2,NOTE_A4,
  NOTE_C3,NOTE_C4,NOTE_A3,NOTE_F3,NOTE_A4,NOTE_A3,
  NOTE_F3,NOTE_C3,NOTE_F2,NOTE_F2,NOTE_F3,NOTE_C4,
  NOTE_A3,NOTE_A4,NOTE_C3,NOTE_C4,NOTE_C3,NOTE_D3,
  NOTE_E3,NOTE_G3,NOTE_GS2,NOTE_C4,NOTE_G3,NOTE_C3,
  NOTE_G4,NOTE_G3,NOTE_G4,NOTE_C4,NOTE_E3,NOTE_G3,
  NOTE_G4,NOTE_G2,NOTE_B3,NOTE_B3,NOTE_G3,NOTE_B3,
  NOTE_G3,NOTE_GS2,NOTE_B3,NOTE_G3,NOTE_D3,NOTE_G4,
  NOTE_G2,NOTE_D4,NOTE_B3,NOTE_G3,NOTE_G4,NOTE_G2,
  NOTE_G3,NOTE_G2,NOTE_G4,NOTE_B3,NOTE_G3,NOTE_C3,
  NOTE_E3,NOTE_D3,NOTE_E3,NOTE_A3,NOTE_C4,NOTE_GS2,
  NOTE_A3,NOTE_E4,NOTE_C4,NOTE_C4,NOTE_A3,NOTE_A2,
  NOTE_E3,NOTE_A4,NOTE_C4,NOTE_F3,NOTE_G3,NOTE_F3,
  NOTE_C4,NOTE_F3,NOTE_F3,NOTE_C4,NOTE_GS2,NOTE_C4,
  NOTE_F3,NOTE_A3,NOTE_F4,NOTE_F2,NOTE_A4,NOTE_C3,
  NOTE_C4,NOTE_A3,NOTE_F3,NOTE_A4,NOTE_A3,NOTE_F3,
  NOTE_C3,NOTE_F2,NOTE_F2,NOTE_F3,NOTE_C4,NOTE_A3,
  NOTE_A4,NOTE_C3,NOTE_C4,NOTE_C3,NOTE_D3,NOTE_E3,
  NOTE_G3,NOTE_GS2,NOTE_C4,NOTE_G3,NOTE_C3,NOTE_G4,
  NOTE_G3,NOTE_G4,NOTE_C4,NOTE_E3,NOTE_G3,NOTE_G4,
  NOTE_G2,NOTE_B3,NOTE_B3,NOTE_G3,NOTE_B3,NOTE_G3,
  NOTE_D2,NOTE_E2,NOTE_AS2,NOTE_GS2,NOTE_B3,NOTE_G3,
  NOTE_D3,NOTE_G4,NOTE_G2,NOTE_D4,NOTE_AS2,NOTE_B3,
  NOTE_G3,NOTE_G4,NOTE_G2,NOTE_G3,NOTE_G2,NOTE_G4,
  NOTE_B3,NOTE_G3,NOTE_CS3,NOTE_GS2,NOTE_AS2,NOTE_C2,
  NOTE_C3,NOTE_E3,NOTE_C4,NOTE_C2,NOTE_GS2,NOTE_D3,
  NOTE_E4,NOTE_E3,NOTE_C3,NOTE_A3,NOTE_C4,NOTE_AS2,
  NOTE_D2,NOTE_E2,NOTE_GS2,NOTE_A3,NOTE_E4,NOTE_C4,
  NOTE_C4,NOTE_E3,NOTE_GS2,NOTE_C4,NOTE_A3,NOTE_A2,
  NOTE_A4,NOTE_C4,NOTE_F3,NOTE_A1,NOTE_C3,NOTE_A3,
  NOTE_GS2,NOTE_G3,NOTE_F3,NOTE_C4,NOTE_F3,NOTE_GS2,
  NOTE_F3,NOTE_C4,NOTE_GS2,NOTE_D2,NOTE_E2,NOTE_C4,
  NOTE_F3,NOTE_A3,NOTE_F4,NOTE_F2,NOTE_A4,NOTE_C3,
  NOTE_A3,NOTE_C4,NOTE_GS2,NOTE_F3,NOTE_A4,NOTE_F3,
  NOTE_A3,NOTE_C3,NOTE_F2,NOTE_F2,NOTE_F3,NOTE_C4,
  NOTE_A3,NOTE_C3,NOTE_A4,NOTE_E4,NOTE_E3,NOTE_F1,
  NOTE_AS2,NOTE_C2,NOTE_GS2,NOTE_E4,NOTE_C4,NOTE_E3,
  NOTE_C3,NOTE_C2,NOTE_GS2,NOTE_D3,NOTE_E4,NOTE_E3,
  NOTE_C4,NOTE_G3,NOTE_D2,NOTE_E2,NOTE_AS2,NOTE_GS2,
  NOTE_C4,NOTE_G3,NOTE_C3,NOTE_G4,NOTE_E3,NOTE_C4,
  NOTE_E4,NOTE_GS2,NOTE_G3,NOTE_G4,NOTE_G3,NOTE_D3,
  NOTE_G2,NOTE_G4,NOTE_C2,NOTE_B3,NOTE_GS2,NOTE_D4,
  NOTE_B3,NOTE_G3,NOTE_GS2,NOTE_C2,NOTE_A4,NOTE_B3,
  NOTE_G3,NOTE_GS2,NOTE_D2,NOTE_E2,NOTE_B3,NOTE_G3,
  NOTE_D3,NOTE_G4,NOTE_G2,NOTE_D4,NOTE_C2,NOTE_GS2,
  NOTE_B3,NOTE_G3,NOTE_G4,NOTE_G2,NOTE_G3,NOTE_C5,
  NOTE_G2,NOTE_G4,NOTE_G3,NOTE_B3,NOTE_G1,NOTE_D3,
  NOTE_C2,NOTE_GS2,NOTE_AS2,NOTE_D4,NOTE_C3,NOTE_E3,
  NOTE_C4,NOTE_C2,NOTE_GS2,NOTE_D3,NOTE_E4,NOTE_E3,
  NOTE_C3,NOTE_C4,NOTE_A3,NOTE_AS2,NOTE_D2,NOTE_E2,
  NOTE_GS2,NOTE_A3,NOTE_E4,NOTE_C4,NOTE_C4,NOTE_E3,
  NOTE_GS2,NOTE_C4,NOTE_A3,NOTE_DS4,NOTE_A4,NOTE_A2,
  NOTE_C4,NOTE_F3,NOTE_C3,NOTE_A1,NOTE_A3,NOTE_GS2,
  NOTE_G3,NOTE_F3,NOTE_C4,NOTE_F3,NOTE_GS2,NOTE_F3,
  NOTE_C4,NOTE_GS2,NOTE_D2,NOTE_E2,NOTE_C4,NOTE_F3,
  NOTE_A3,NOTE_F4,NOTE_F2,NOTE_A4,NOTE_C3,NOTE_A3,
  NOTE_C4,NOTE_GS2,NOTE_F3,NOTE_A4,NOTE_F3,NOTE_A3,
  NOTE_C3,NOTE_F2,NOTE_DS4,NOTE_F2,NOTE_F3,NOTE_C3,
  NOTE_C4,NOTE_A3,NOTE_A4,NOTE_E4,NOTE_E3,NOTE_F1,
  NOTE_C2,NOTE_AS2,NOTE_GS2,NOTE_E4,NOTE_E3,NOTE_C4,
  NOTE_C3,NOTE_C2,NOTE_GS2,NOTE_D3,NOTE_E4,NOTE_E3,
  NOTE_C4,NOTE_G3,NOTE_D2,NOTE_E2,NOTE_AS2,NOTE_GS2,
  NOTE_C4,NOTE_G3,NOTE_C3,NOTE_G4,NOTE_E3,NOTE_C4,
  NOTE_GS2,NOTE_E4,NOTE_G3,NOTE_G4,NOTE_G3,NOTE_D3,
  NOTE_G4,NOTE_G2,NOTE_B3,NOTE_D4,NOTE_GS2,NOTE_B3,
  NOTE_G3,NOTE_E4,NOTE_GS2,NOTE_C2,NOTE_B3,NOTE_G3,
  NOTE_GS2,NOTE_E2,NOTE_D2,NOTE_G4,NOTE_B3,NOTE_G3,
  NOTE_D3,NOTE_G2,NOTE_D4,NOTE_GS2,NOTE_B3,NOTE_G3,
  NOTE_G4,NOTE_G2,NOTE_G3,NOTE_G2,NOTE_GS4,NOTE_G4,
  NOTE_G3,NOTE_B3,NOTE_G1,NOTE_AS2,NOTE_C2,NOTE_GS2,
  NOTE_C3,NOTE_E3,NOTE_C2,NOTE_GS2,NOTE_D3,NOTE_E3,
  NOTE_C4,NOTE_A3,NOTE_AS2,NOTE_D2,NOTE_E2,NOTE_GS2,
  NOTE_A3,NOTE_E4,NOTE_C4,NOTE_GS2,NOTE_C4,NOTE_A3,
  NOTE_A4,NOTE_A2,NOTE_E3,NOTE_C4,NOTE_F3,NOTE_A1,
  NOTE_GS2,NOTE_G3,NOTE_F3,NOTE_C4,NOTE_F3,NOTE_GS2,
  NOTE_F3,NOTE_C4,NOTE_GS2,NOTE_D2,NOTE_E2,NOTE_C4,
  NOTE_F3,NOTE_A3,NOTE_F4,NOTE_F2,NOTE_A4,NOTE_C3,
  NOTE_A3,NOTE_C4,NOTE_GS2,NOTE_F3,NOTE_A4,NOTE_F3,
  NOTE_A3,NOTE_C3,NOTE_F2,NOTE_F2,NOTE_F3,NOTE_C4,
  NOTE_A3,NOTE_C3,NOTE_A4,NOTE_E4,NOTE_E3,NOTE_F1,
  NOTE_C4,NOTE_AS2,NOTE_C2,NOTE_GS2,NOTE_E4,NOTE_C4,
  NOTE_E3,NOTE_C3,NOTE_C2,NOTE_GS2,NOTE_D3,NOTE_E4,
  NOTE_E3,NOTE_C4,NOTE_G3,NOTE_D2,NOTE_E2,NOTE_AS2,
  NOTE_GS2,NOTE_C4,NOTE_G3,NOTE_C3,NOTE_G4,NOTE_E3,
  NOTE_C4,NOTE_E4,NOTE_GS2,NOTE_G3,NOTE_G4,NOTE_G3,
  NOTE_D4,NOTE_D3,NOTE_G2,NOTE_G4,NOTE_B3,NOTE_GS2,
  NOTE_B3,NOTE_G3,NOTE_GS2,NOTE_C2,NOTE_B3,NOTE_G3,
  NOTE_E4,NOTE_GS2,NOTE_D2,NOTE_E2,NOTE_B3,NOTE_F4,
  NOTE_G3,NOTE_D3,NOTE_G4,NOTE_G2,NOTE_D4,NOTE_GS2,
  NOTE_B3,NOTE_G3,NOTE_G4,NOTE_G2,NOTE_G3,NOTE_G2,
  NOTE_G4,NOTE_B3,NOTE_G3,NOTE_G1,NOTE_D3,NOTE_AS2,
  NOTE_C2,NOTE_GS2,NOTE_D4,NOTE_C3,NOTE_E3,NOTE_C4,
  NOTE_C2,NOTE_GS2,NOTE_D3,NOTE_E4,NOTE_E3,NOTE_C3,
  NOTE_A3,NOTE_C4,NOTE_AS2,NOTE_D2,NOTE_E2,NOTE_GS2,
  NOTE_A3,NOTE_E4,NOTE_C4,NOTE_G4,NOTE_C4,NOTE_E3,
  NOTE_GS2,NOTE_C4,NOTE_A3,NOTE_A4,NOTE_A2,NOTE_C4,
  NOTE_F3,NOTE_A1,NOTE_C3,NOTE_A3,NOTE_GS2,NOTE_G3,
  NOTE_F3,NOTE_C4,NOTE_F3,NOTE_GS2,NOTE_F3,NOTE_C4,
  NOTE_GS2,NOTE_D2,NOTE_E2,NOTE_C4,NOTE_F3,NOTE_G4,
  NOTE_A3,NOTE_F4,NOTE_F2,NOTE_A4,NOTE_C3,NOTE_C4,
  NOTE_A3,NOTE_GS2,NOTE_F3,NOTE_A4,NOTE_F3,NOTE_A3,
  NOTE_C3,NOTE_F2,NOTE_F2,NOTE_F3,NOTE_C4,NOTE_A3,
  NOTE_C3,NOTE_A4,NOTE_E4,NOTE_E3,NOTE_F1,NOTE_AS2,
  NOTE_C2,NOTE_GS2,NOTE_E4,NOTE_C4,NOTE_E3,NOTE_C3,
  NOTE_C2,NOTE_GS2,NOTE_D3,NOTE_E4,NOTE_E3,NOTE_C4,
  NOTE_G3,NOTE_D2,NOTE_E2,NOTE_AS2,NOTE_GS2,NOTE_G4,
  NOTE_C4,NOTE_G3,NOTE_C3,NOTE_G4,NOTE_E3,NOTE_C4,
  NOTE_E4,NOTE_GS2,NOTE_G3,NOTE_G4,NOTE_G3,NOTE_D3,
  NOTE_G4,NOTE_G2,NOTE_B3,NOTE_D4,NOTE_GS2,NOTE_B3,
  NOTE_G3,NOTE_GS2,NOTE_C2,NOTE_B3,NOTE_G3,NOTE_GS2,
  NOTE_E2,NOTE_D2,NOTE_B3,NOTE_G3,NOTE_D3,NOTE_G4,
  NOTE_G2,NOTE_D4,NOTE_GS2,NOTE_B3,NOTE_G3,NOTE_G4,
  NOTE_G2,NOTE_G3,NOTE_G2,NOTE_G4,NOTE_B3,NOTE_G3,
  NOTE_G1,NOTE_D3,NOTE_AS2,NOTE_C2,NOTE_GS2,NOTE_D4,
  NOTE_C3,NOTE_E3,NOTE_C4,NOTE_GS4,NOTE_C2,NOTE_GS2,
  NOTE_D3,NOTE_E4,NOTE_E3,NOTE_C3,NOTE_C4,NOTE_A3,
  NOTE_AS2,NOTE_D2,NOTE_E2,NOTE_GS2,NOTE_A3,NOTE_E4,
  NOTE_C4,NOTE_C4,NOTE_E3,NOTE_GS2,NOTE_C4,NOTE_A3,
  NOTE_A4,NOTE_A2,NOTE_C4,NOTE_F3,NOTE_C3,NOTE_A1,
  NOTE_A3,NOTE_GS2,NOTE_G3,NOTE_F3,NOTE_C4,NOTE_F3,
  NOTE_GS2,NOTE_F3,NOTE_C4,NOTE_GS2,NOTE_D2,NOTE_E2,
  NOTE_C4,NOTE_F3,NOTE_A3,NOTE_F4,NOTE_F2,NOTE_A4,
  NOTE_C3,NOTE_A3,NOTE_C4,NOTE_GS2,NOTE_F3,NOTE_G4,
  NOTE_A4,NOTE_F3,NOTE_A3,NOTE_C3,NOTE_F2,NOTE_F2,
  NOTE_F3,NOTE_C4,NOTE_A3,NOTE_C3,NOTE_A4,NOTE_E4,
  NOTE_E3,NOTE_G4,NOTE_F1,NOTE_C2,NOTE_AS2,NOTE_GS2,
  NOTE_E4,NOTE_E3,NOTE_C4,NOTE_E4,NOTE_C3,NOTE_C2,
  NOTE_GS2,NOTE_D3,NOTE_E4,NOTE_E3,NOTE_C4,NOTE_G3,
  NOTE_D2,NOTE_E2,NOTE_AS2,NOTE_GS2,NOTE_C4,NOTE_G3,
  NOTE_C3,NOTE_G4,NOTE_E3,NOTE_C4,NOTE_GS2,NOTE_E4,
  NOTE_G3,NOTE_G4,NOTE_G3,NOTE_D3,NOTE_G4,NOTE_G2,
  NOTE_B3,NOTE_D4,NOTE_GS2,NOTE_B3,NOTE_G3,NOTE_GS2,
  NOTE_C2,NOTE_B3,NOTE_C4,NOTE_G3,NOTE_C4,NOTE_GS2,
  NOTE_D2,NOTE_E2,NOTE_B3,NOTE_G3,NOTE_D3,NOTE_G4,
  NOTE_G2,NOTE_D4,NOTE_GS2,NOTE_B3,NOTE_G3,NOTE_G4,
  NOTE_G2,NOTE_G3,NOTE_G2,NOTE_G4,NOTE_B3,NOTE_G3,
  NOTE_D4,NOTE_G1,NOTE_D3,NOTE_AS2,NOTE_C2,NOTE_GS2,
  NOTE_D4,NOTE_C3,NOTE_E3,NOTE_C4,NOTE_C2,NOTE_GS2,
  NOTE_D3,NOTE_E4,NOTE_E3,NOTE_C3,NOTE_C4,NOTE_A3,
  NOTE_D4,NOTE_AS2,NOTE_D2,NOTE_E2,NOTE_GS2,NOTE_D4,
  NOTE_A3,NOTE_E4,NOTE_C4,NOTE_C4,NOTE_E3,NOTE_GS2,
  NOTE_C4,NOTE_A3,NOTE_A4,NOTE_A2,NOTE_C4,NOTE_F3,
  NOTE_A1,NOTE_C3,NOTE_A3,NOTE_GS2,NOTE_G3,NOTE_F3,
  NOTE_C4,NOTE_F3,NOTE_GS2,NOTE_F3,NOTE_C4,NOTE_GS2,
  NOTE_D2,NOTE_E2,NOTE_C4,NOTE_F3,NOTE_A3,NOTE_F4,
  NOTE_F2,NOTE_A4,NOTE_C3,NOTE_C4,NOTE_A3,NOTE_GS2,
  NOTE_F3,NOTE_A4,NOTE_C4,NOTE_A3,NOTE_F3,NOTE_C3,
  NOTE_F2,NOTE_F2,NOTE_F3,NOTE_C3,NOTE_A3,NOTE_A4,
  NOTE_E4,NOTE_E3,NOTE_F1,NOTE_C2,NOTE_AS2,NOTE_GS2,
  NOTE_E4,NOTE_E3,NOTE_C4,NOTE_C3,NOTE_C2,NOTE_GS2,
  NOTE_D3,NOTE_E4,NOTE_E3,NOTE_C4,NOTE_G3,NOTE_D2,
  NOTE_E2,NOTE_AS2,NOTE_GS2,NOTE_C4,NOTE_G3,NOTE_C3,
  NOTE_G4,NOTE_E3,NOTE_C4,NOTE_GS2,NOTE_E4,NOTE_G3,
  NOTE_G4,NOTE_G3,NOTE_D3,NOTE_G4,NOTE_G2,NOTE_B3,
  NOTE_D4,NOTE_GS2,NOTE_B3,NOTE_G3,NOTE_GS2,NOTE_C2,
  NOTE_B3,NOTE_G3,NOTE_GS2,NOTE_E2,NOTE_D2,NOTE_B3,
  NOTE_G3,NOTE_D3,NOTE_G4,NOTE_G2,NOTE_D4,NOTE_GS2,
  NOTE_B3,NOTE_G3,NOTE_G4,NOTE_G2,NOTE_G3,NOTE_G2,
  NOTE_G4,NOTE_B3,NOTE_G3,NOTE_GS4,NOTE_G1,NOTE_D3,
  NOTE_GS2,NOTE_C2,NOTE_CS3,NOTE_D4,NOTE_C3,NOTE_E3,
  NOTE_C4,NOTE_C2,NOTE_GS2,NOTE_D3,NOTE_E4,NOTE_E3,
  NOTE_C3,NOTE_A3,NOTE_C4,NOTE_D2,NOTE_E2,NOTE_GS2,
  NOTE_A4,NOTE_A3,NOTE_E4,NOTE_C4,NOTE_C4,NOTE_E3,
  NOTE_GS2,NOTE_C4,NOTE_A3,NOTE_A2,NOTE_C4,NOTE_F3,
  NOTE_C3,NOTE_A1,NOTE_A3,NOTE_GS2,NOTE_G3,NOTE_F3,
  NOTE_C4,NOTE_F3,NOTE_GS2,NOTE_F3,NOTE_C4,NOTE_GS2,
  NOTE_D2,NOTE_E2,NOTE_C4,NOTE_F3,NOTE_A3,NOTE_F4,
  NOTE_F2,NOTE_A4,NOTE_C3,NOTE_A3,NOTE_C4,NOTE_GS2,
  NOTE_F3,NOTE_A4,NOTE_F3,NOTE_A3,NOTE_C3,NOTE_F2,
  NOTE_F2,NOTE_F3,NOTE_C3,NOTE_A3,NOTE_C4,NOTE_A4,
  NOTE_E4,NOTE_E3,NOTE_F1,NOTE_C4,NOTE_AS2,NOTE_C2,
  NOTE_GS2,NOTE_E4,NOTE_C4,NOTE_E3,NOTE_C3,NOTE_C2,
  NOTE_GS2,NOTE_D3,NOTE_E4,NOTE_E3,NOTE_C4,NOTE_G3,
  NOTE_D2,NOTE_E2,NOTE_AS2,NOTE_GS2,NOTE_C4,NOTE_D4,
  NOTE_G3,NOTE_C3,NOTE_G4,NOTE_E3,NOTE_C4,NOTE_GS2,
  NOTE_E4,NOTE_G3,NOTE_G4,NOTE_G3,NOTE_D3,NOTE_G4,
  NOTE_G2,NOTE_B3,NOTE_GS2,NOTE_D4,NOTE_B3,NOTE_G3,
  NOTE_GS2,NOTE_C2,NOTE_B3,NOTE_G3,NOTE_GS2,NOTE_E2,
  NOTE_D2,NOTE_E4,NOTE_B3,NOTE_G3,NOTE_D3,NOTE_G4,
  NOTE_F4,NOTE_G2,NOTE_D4,NOTE_GS2,NOTE_B3,NOTE_G3,
  NOTE_G4,NOTE_G2,NOTE_G3,NOTE_G2,NOTE_G4,NOTE_B3,
  NOTE_G3,NOTE_G1,NOTE_D3,NOTE_AS2,NOTE_C2,NOTE_GS2,
  NOTE_D4,NOTE_C3,NOTE_E3,NOTE_C4,NOTE_C2,NOTE_GS2,
  NOTE_D3,NOTE_E4,NOTE_E3,NOTE_C3,NOTE_A3,NOTE_C4,
  NOTE_AS2,NOTE_D2,NOTE_E2,NOTE_GS2,NOTE_A3,NOTE_E4,
  NOTE_C4,NOTE_C4,NOTE_E3,NOTE_GS2,NOTE_G4,NOTE_C4,
  NOTE_A3,NOTE_A4,NOTE_A2,NOTE_C4,NOTE_F3,NOTE_A1,
  NOTE_C3,NOTE_A3,NOTE_GS2,NOTE_G3,NOTE_F3,NOTE_C4,
  NOTE_F3,NOTE_GS2,NOTE_F3,NOTE_G4,NOTE_C4,NOTE_GS2,
  NOTE_D2,NOTE_E2,NOTE_C4,NOTE_A4,NOTE_F3,NOTE_G4,
  NOTE_A3,NOTE_F4,NOTE_F2,NOTE_C3,NOTE_C4,NOTE_A3,
  NOTE_GS2,NOTE_F3,NOTE_A4,NOTE_F3,NOTE_A3,NOTE_C3,
  NOTE_F2,NOTE_F2,NOTE_F3,NOTE_C4,NOTE_A3,NOTE_C3,
  NOTE_A4,NOTE_E4,NOTE_E3,NOTE_F1,NOTE_AS2,NOTE_C2,
  NOTE_GS2,NOTE_E4,NOTE_C4,NOTE_E3,NOTE_G4,NOTE_C3,
  NOTE_C2,NOTE_GS2,NOTE_D3,NOTE_E4,NOTE_E3,NOTE_C4,
  NOTE_G3,NOTE_D2,NOTE_E2,NOTE_AS2,NOTE_GS2,NOTE_C4,
  NOTE_G3,NOTE_C3,NOTE_G4,NOTE_E3,NOTE_C4,NOTE_E4,
  NOTE_GS2,NOTE_D4,NOTE_G3,NOTE_G4,NOTE_G3,NOTE_D3,
  NOTE_G4,NOTE_G2,NOTE_B3,NOTE_GS2,NOTE_B3,NOTE_G3,
  NOTE_GS2,NOTE_C2,NOTE_B3,NOTE_G3,NOTE_E4,NOTE_GS2,
  NOTE_D2,NOTE_E2,NOTE_B3,NOTE_G3,NOTE_F4,NOTE_D3,
  NOTE_G4,NOTE_G2,NOTE_D4,NOTE_GS2,NOTE_B3,NOTE_G3,
  NOTE_G4,NOTE_G2,NOTE_G3,NOTE_G2,NOTE_G4,NOTE_B3,
  NOTE_G3,NOTE_G1,NOTE_D3,NOTE_AS2,NOTE_C2,NOTE_GS2,
  NOTE_D4,NOTE_C3,NOTE_E3,NOTE_C4,NOTE_C2,NOTE_GS2,
  NOTE_D3,NOTE_E4,NOTE_E3,NOTE_C3,NOTE_A3,NOTE_C4,
  NOTE_AS2,NOTE_D2,NOTE_E2,NOTE_GS2,NOTE_A3,NOTE_E4,
  NOTE_C4,NOTE_C4,NOTE_E3,NOTE_GS2,NOTE_C4,NOTE_A3,
  NOTE_A2,NOTE_A4,NOTE_C4,NOTE_F3,NOTE_A1,NOTE_C3,
  NOTE_A3,NOTE_GS2,NOTE_G3,NOTE_F3,NOTE_G4,NOTE_C4,
  NOTE_F3,NOTE_GS2,NOTE_F3,NOTE_C4,NOTE_GS2,NOTE_D2,
  NOTE_E2,NOTE_C4,NOTE_F3,NOTE_A3,NOTE_F4,NOTE_F2,
  NOTE_A4,NOTE_C3,NOTE_A3,NOTE_C4,NOTE_GS2,NOTE_F3,
  NOTE_A4,NOTE_F3,NOTE_A3,NOTE_F2,NOTE_C3,NOTE_F2,
  NOTE_F3,NOTE_C4,NOTE_A3,NOTE_C3,NOTE_A4,NOTE_E4,
  NOTE_E3,NOTE_F1,NOTE_C2,NOTE_AS2,NOTE_GS2,NOTE_E4,
  NOTE_E3,NOTE_C4,NOTE_C3,NOTE_C2,NOTE_GS2,NOTE_D3,
  NOTE_E4,NOTE_E3,NOTE_C4,NOTE_G3,NOTE_D2,NOTE_E2,
  NOTE_AS2,NOTE_GS2,NOTE_C4,NOTE_G3,NOTE_E4,NOTE_C3,
  NOTE_G4,NOTE_E3,NOTE_C4,NOTE_GS2,NOTE_G3,NOTE_G4,
  NOTE_G3,NOTE_D3,NOTE_G2,NOTE_G4,NOTE_B3,NOTE_GS2,
  NOTE_D4,NOTE_B3,NOTE_G3,NOTE_GS2,NOTE_C2,NOTE_B3,
  NOTE_G3,NOTE_GS2,NOTE_D2,NOTE_E2,NOTE_B3,NOTE_G3,
  NOTE_D3,NOTE_G4,NOTE_G2,NOTE_D4,NOTE_GS2,NOTE_B3,
  NOTE_G3,NOTE_G4,NOTE_G2,NOTE_G3,NOTE_G2,NOTE_G4,
  NOTE_B3,NOTE_G3,NOTE_G1,NOTE_D3,NOTE_AS2,NOTE_C2,
  NOTE_GS2,NOTE_D4,NOTE_C3,NOTE_E3,NOTE_E4,NOTE_C4,
  NOTE_C2,NOTE_GS2,NOTE_D3,NOTE_E4,NOTE_E3,NOTE_C3,
  NOTE_C4,NOTE_A3,NOTE_AS2,NOTE_D2,NOTE_E2,NOTE_GS2,
  NOTE_A3,NOTE_E4,NOTE_C4,NOTE_C4,NOTE_D4,NOTE_E3,
  NOTE_GS2,NOTE_C4,NOTE_A3,NOTE_A2,NOTE_A4,NOTE_C4,
  NOTE_F3,NOTE_C3,NOTE_A1,NOTE_D4,NOTE_C4,NOTE_A3,
  NOTE_GS2,NOTE_G3,NOTE_F3,NOTE_C4,NOTE_F3,NOTE_GS2,
  NOTE_F3,NOTE_C4,NOTE_GS2,NOTE_D2,NOTE_E2,NOTE_C4,
  NOTE_F3,NOTE_A3,NOTE_F4,NOTE_F2,NOTE_A4,NOTE_C3,
  NOTE_A3,NOTE_C4,NOTE_GS2,NOTE_F3,NOTE_A4,NOTE_F3,
  NOTE_A3,NOTE_C3,NOTE_F2,NOTE_F2,NOTE_F3,NOTE_C3,
  NOTE_A3,NOTE_C4,NOTE_A4,NOTE_E4,NOTE_E3,NOTE_F1,
  NOTE_C2,NOTE_AS2,NOTE_GS2,NOTE_E4,NOTE_E3,NOTE_C4,
  NOTE_C3,NOTE_C2,NOTE_GS2,NOTE_D3,NOTE_E4,NOTE_E3,
  NOTE_C4,NOTE_G3,NOTE_D2,NOTE_E2,NOTE_AS2,NOTE_GS2,
  NOTE_C4,NOTE_G3,NOTE_C3,NOTE_G4,NOTE_E3,NOTE_C4,
  NOTE_GS2,NOTE_E4,NOTE_G3,NOTE_G4,NOTE_G3,NOTE_D3,
  NOTE_G2,NOTE_G3,NOTE_G4,NOTE_C4,NOTE_F2,NOTE_B3,
  NOTE_D3,NOTE_D4,NOTE_C2,NOTE_B3,NOTE_G3,NOTE_G2,
  NOTE_GS2,NOTE_B3,NOTE_G3,NOTE_D3,NOTE_E2,NOTE_D2,
  NOTE_G2,NOTE_D2,NOTE_E2,NOTE_C2,NOTE_C3,NOTE_E4,
  NOTE_D2,NOTE_E2,NOTE_G3,NOTE_C3,NOTE_B3,NOTE_D3,
  NOTE_G4,NOTE_G3,NOTE_B3,NOTE_A2,NOTE_D4,NOTE_D2,
  NOTE_E2,NOTE_A2,NOTE_C2,NOTE_GS2,NOTE_B3,NOTE_G3,
  NOTE_G4,NOTE_G2,NOTE_G3,NOTE_G2,NOTE_G4,NOTE_D2,
  NOTE_E2,NOTE_A2,NOTE_B3,NOTE_G3,NOTE_D4,NOTE_D3,
  NOTE_G3,NOTE_AS5,NOTE_A3,NOTE_C2,NOTE_GS2,NOTE_AS2,
  NOTE_C3,NOTE_E3,NOTE_C2,NOTE_AS5,NOTE_GS2,NOTE_D3,
  NOTE_C4,NOTE_E4,NOTE_A3,NOTE_E3,NOTE_AS5,NOTE_E4,
  NOTE_A3,NOTE_C4,NOTE_A1,NOTE_G3,NOTE_C4,NOTE_AS2,
  NOTE_E2,NOTE_D2,NOTE_GS2,NOTE_AS5,NOTE_A3,NOTE_E4,
  NOTE_AS5,NOTE_GS2,NOTE_E4,NOTE_C4,NOTE_A3,NOTE_A1,
  NOTE_A4,NOTE_A2,NOTE_E3,NOTE_AS5,NOTE_G3,NOTE_A3,
  NOTE_C4,NOTE_E4,NOTE_F3,NOTE_GS2,NOTE_AS5,NOTE_C4,
  NOTE_F4,NOTE_A3,NOTE_F3,NOTE_F3,NOTE_C4,NOTE_A3,
  NOTE_F4,NOTE_GS2,NOTE_F3,NOTE_F1,NOTE_C4,NOTE_AS5,
  NOTE_F4,NOTE_A3,NOTE_GS2,NOTE_D2,NOTE_E2,NOTE_AS5,
  NOTE_C4,NOTE_A3,NOTE_F3,NOTE_F4,NOTE_F2,NOTE_A4,
  NOTE_C3,NOTE_A3,NOTE_C4,NOTE_AS5,NOTE_GS2,NOTE_F3,
  NOTE_F4,NOTE_F1,NOTE_A4,NOTE_F3,NOTE_A3,NOTE_C3,
  NOTE_F2,NOTE_AS5,NOTE_F3,NOTE_A3,NOTE_C4,NOTE_F4,
  NOTE_F2,NOTE_C3,NOTE_A4,NOTE_C4,NOTE_AS2,NOTE_C2,
  NOTE_AS5,NOTE_GS2,NOTE_C4,NOTE_G3,NOTE_E3,NOTE_C3,
  NOTE_AS5,NOTE_C2,NOTE_GS2,NOTE_D3,NOTE_G4,NOTE_G3,
  NOTE_C4,NOTE_C3,NOTE_E3,NOTE_E3,NOTE_AS5,NOTE_C4,
  NOTE_G4,NOTE_C3,NOTE_G3,NOTE_C4,NOTE_AS5,NOTE_E2,
  NOTE_E3,NOTE_D2,NOTE_G3,NOTE_AS2,NOTE_GS2,NOTE_G3,
  NOTE_C3,NOTE_G4,NOTE_C4,NOTE_E2,NOTE_D4,NOTE_B3,
  NOTE_GS2,NOTE_AS5,NOTE_G4,NOTE_C3,NOTE_G3,NOTE_C4,
  NOTE_F2,NOTE_C4,NOTE_AS5,NOTE_G3,NOTE_G4,NOTE_C3,
  NOTE_G3,NOTE_G2,NOTE_AS5,NOTE_GS2,NOTE_B3,NOTE_B3,
  NOTE_G3,NOTE_AS5,NOTE_GS2,NOTE_C2,NOTE_C4,NOTE_G4,
  NOTE_G3,NOTE_C3,NOTE_B3,NOTE_AS5,NOTE_G4,NOTE_C3,
  NOTE_G3,NOTE_C4,NOTE_D3,NOTE_D4,NOTE_G2,NOTE_D4,
  NOTE_AS5,NOTE_GS2,NOTE_D2,NOTE_E2,NOTE_B3,NOTE_G3,
  NOTE_D3,NOTE_G4,NOTE_D4,NOTE_G2,NOTE_D4,NOTE_AS5,
  NOTE_G2,NOTE_GS2,NOTE_D3,NOTE_G3,NOTE_G4,NOTE_B3,
  NOTE_G3,NOTE_G2,NOTE_G4,NOTE_AS5,NOTE_G3,NOTE_B3,
  NOTE_D3,NOTE_D4,NOTE_A2,NOTE_AS5,NOTE_GS2,NOTE_AS2,
  NOTE_C2,NOTE_C3,NOTE_E3,NOTE_E4,NOTE_C2,NOTE_AS5,
  NOTE_GS2,NOTE_D3,NOTE_A3,NOTE_C4,NOTE_E4,NOTE_E3,
  NOTE_AS5,NOTE_E4,NOTE_A3,NOTE_C4,NOTE_D4,NOTE_A1,
  NOTE_C4,NOTE_AS2,NOTE_D2,NOTE_E2,NOTE_AS5,NOTE_GS2,
  NOTE_C4,NOTE_A3,NOTE_E4,NOTE_AS5,NOTE_GS2,NOTE_A3,
  NOTE_C4,NOTE_E4,NOTE_A1,NOTE_A4,NOTE_A2,NOTE_E3,
  NOTE_AS5,NOTE_G3,NOTE_A3,NOTE_C4,NOTE_E4,NOTE_F3,
  NOTE_GS2,NOTE_AS5,NOTE_C4,NOTE_F4,NOTE_A3,NOTE_F3,
  NOTE_F3,NOTE_A3,NOTE_C4,NOTE_F4,NOTE_GS2,NOTE_F3,
  NOTE_F1,NOTE_C4,NOTE_AS5,NOTE_F4,NOTE_A3,NOTE_GS2,
  NOTE_E2,NOTE_D2,NOTE_AS5,NOTE_C4,NOTE_F3,NOTE_A3,
  NOTE_F4,NOTE_F2,NOTE_A4,NOTE_A3,NOTE_C4,NOTE_A3,
  NOTE_C3,NOTE_F3,NOTE_A3,NOTE_C4,NOTE_AS5,NOTE_GS2,
  NOTE_F3,NOTE_F4,NOTE_F1,NOTE_A4,NOTE_A3,NOTE_F3,
  NOTE_C3,NOTE_F2,NOTE_AS5,NOTE_F4,NOTE_A3,NOTE_F3,
  NOTE_C4,NOTE_F2,NOTE_A4,NOTE_C3,NOTE_C4,NOTE_A3,
  NOTE_A3,NOTE_C2,NOTE_AS2,NOTE_GS2,NOTE_AS5,NOTE_C4,
  NOTE_E3,NOTE_C4,NOTE_C3,NOTE_AS5,NOTE_C2,NOTE_GS2,
  NOTE_D3,NOTE_G3,NOTE_C4,NOTE_G4,NOTE_C3,NOTE_E3,
  NOTE_AS5,NOTE_C4,NOTE_G4,NOTE_C3,NOTE_G3,NOTE_A3,
  NOTE_AS5,NOTE_D2,NOTE_E2,NOTE_AS2,NOTE_GS2,NOTE_C4,
  NOTE_G3,NOTE_C3,NOTE_G4,NOTE_E3,NOTE_A3,NOTE_E2,
  NOTE_GS2,NOTE_AS5,NOTE_C3,NOTE_C4,NOTE_G3,NOTE_G4,
  NOTE_F2,NOTE_AS5,NOTE_C4,NOTE_C3,NOTE_G4,NOTE_G3,
  NOTE_D4,NOTE_E3,NOTE_A3,NOTE_G2,NOTE_G3,NOTE_AS5,
  NOTE_GS2,NOTE_B3,NOTE_G3,NOTE_B3,NOTE_G3,NOTE_AS5,
  NOTE_GS2,NOTE_C2,NOTE_C3,NOTE_C4,NOTE_G4,NOTE_G3,
  NOTE_B3,NOTE_D4,NOTE_D3,NOTE_AS5,NOTE_G3,NOTE_G4,
  NOTE_C4,NOTE_C3,NOTE_G2,NOTE_AS5,NOTE_GS2,NOTE_D2,
  NOTE_E2,NOTE_B3,NOTE_G3,NOTE_D3,NOTE_G4,NOTE_D4,
  NOTE_G2,NOTE_D4,NOTE_AS5,NOTE_G2,NOTE_GS2,NOTE_G3,
  NOTE_D3,NOTE_G4,NOTE_B3,NOTE_G3,NOTE_G2,NOTE_G4,
  NOTE_AS5,NOTE_D4,NOTE_G3,NOTE_B3,NOTE_D3,NOTE_A2,
  NOTE_AS5,NOTE_C2,NOTE_GS2,NOTE_AS2,NOTE_C3,NOTE_E3,
  NOTE_C4,NOTE_E4,NOTE_C2,NOTE_AS5,NOTE_GS2,NOTE_D3,
  NOTE_A3,NOTE_C4,NOTE_E4,NOTE_E3,NOTE_AS5,NOTE_E4,
  NOTE_C4,NOTE_A3,NOTE_A1,NOTE_D4,NOTE_G3,NOTE_B3,
  NOTE_G3,NOTE_C4,NOTE_AS2,NOTE_D2,NOTE_E2,NOTE_AS5,
  NOTE_GS2,NOTE_A3,NOTE_E4,NOTE_C4,NOTE_AS5,NOTE_GS2,
  NOTE_E4,NOTE_A3,NOTE_C4,NOTE_A1,NOTE_A2,NOTE_A4,
  NOTE_E3,NOTE_AS5,NOTE_A3,NOTE_G3,NOTE_E4,NOTE_C4,
  NOTE_F3,NOTE_C4,NOTE_GS2,NOTE_AS5,NOTE_C4,NOTE_A3,
  NOTE_F3,NOTE_F4,NOTE_F3,NOTE_F4,NOTE_C4,NOTE_A3,
  NOTE_GS2,NOTE_F3,NOTE_F1,NOTE_C4,NOTE_AS5,NOTE_F4,
  NOTE_A3,NOTE_GS2,NOTE_E2,NOTE_D2,NOTE_AS5,NOTE_C4,
  NOTE_F3,NOTE_A3,NOTE_F4,NOTE_F2,NOTE_A4,NOTE_C3,
  NOTE_A3,NOTE_C4,NOTE_AS5,NOTE_GS2,NOTE_F3,NOTE_F4,
  NOTE_F1,NOTE_A4,NOTE_F3,NOTE_A3,NOTE_C3,NOTE_F2,
  NOTE_AS5,NOTE_F3,NOTE_A3,NOTE_C4,NOTE_F4,NOTE_F2,
  NOTE_C3,NOTE_A4,NOTE_C4,NOTE_AS2,NOTE_C2,NOTE_AS5,
  NOTE_GS2,NOTE_C4,NOTE_G3,NOTE_E3,NOTE_C3,NOTE_AS5,
  NOTE_C2,NOTE_GS2,NOTE_D3,NOTE_G4,NOTE_G3,NOTE_C4,
  NOTE_C3,NOTE_E3,NOTE_E3,NOTE_AS5,NOTE_C4,NOTE_G4,
  NOTE_C3,NOTE_G3,NOTE_C4,NOTE_AS5,NOTE_E2,NOTE_E3,
  NOTE_D2,NOTE_G3,NOTE_AS2,NOTE_GS2,NOTE_G3,NOTE_C3,
  NOTE_G4,NOTE_C4,NOTE_E2,NOTE_GS2,NOTE_AS5,NOTE_C4,
  NOTE_G3,NOTE_G4,NOTE_C3,NOTE_B3,NOTE_D4,NOTE_F2,
  NOTE_AS5,NOTE_C4,NOTE_G4,NOTE_C3,NOTE_G3,NOTE_G3,
  NOTE_G2,NOTE_AS5,NOTE_GS2,NOTE_B3,NOTE_B3,NOTE_G3,
  NOTE_C4,NOTE_AS5,NOTE_GS2,NOTE_C2,NOTE_G4,NOTE_C3,
  NOTE_C4,NOTE_G3,NOTE_B3,NOTE_AS5,NOTE_C4,NOTE_G4,
  NOTE_C3,NOTE_G3,NOTE_D4,NOTE_G2,NOTE_AS5,NOTE_GS2,
  NOTE_D2,NOTE_E2,NOTE_B3,NOTE_G3,NOTE_D3,NOTE_G4,
  NOTE_D4,NOTE_G2,NOTE_D4,NOTE_G2,NOTE_AS5,NOTE_GS2,
  NOTE_D3,NOTE_G3,NOTE_G4,NOTE_B3,NOTE_G3,NOTE_G2,
  NOTE_G4,NOTE_AS5,NOTE_G3,NOTE_B3,NOTE_D3,NOTE_D4,
  NOTE_A2,NOTE_AS5,NOTE_GS2,NOTE_AS2,NOTE_C2,NOTE_C3,
  NOTE_E3,NOTE_E4,NOTE_C2,NOTE_AS5,NOTE_GS2,NOTE_D3,
  NOTE_A3,NOTE_C4,NOTE_E4,NOTE_E3,NOTE_AS5,NOTE_E4,
  NOTE_A3,NOTE_C4,NOTE_D4,NOTE_A1,NOTE_C4,NOTE_D2,
  NOTE_E2,NOTE_AS2,NOTE_AS5,NOTE_GS2,NOTE_C4,NOTE_A3,
  NOTE_E4,NOTE_AS5,NOTE_GS2,NOTE_C4,NOTE_E4,NOTE_A3,
  NOTE_A1,NOTE_E3,NOTE_A4,NOTE_A2,NOTE_AS5,NOTE_G3,
  NOTE_A3,NOTE_C4,NOTE_E4,NOTE_F3,NOTE_GS2,NOTE_AS5,
  NOTE_C4,NOTE_F4,NOTE_A3,NOTE_F3,NOTE_F3,NOTE_F4,
  NOTE_C4,NOTE_A3,NOTE_GS2,NOTE_F3,NOTE_F1,NOTE_C4,
  NOTE_AS5,NOTE_F4,NOTE_A3,NOTE_GS2,NOTE_E2,NOTE_D2,
  NOTE_AS5,NOTE_C4,NOTE_F3,NOTE_A3,NOTE_F4,NOTE_F2,
  NOTE_A4,NOTE_A3,NOTE_C4,NOTE_A3,NOTE_C3,NOTE_F3,
  NOTE_A3,NOTE_C4,NOTE_AS5,NOTE_GS2,NOTE_F4,NOTE_F3,
  NOTE_F1,NOTE_A4,NOTE_F3,NOTE_A3,NOTE_C3,NOTE_F2,
  NOTE_AS5,NOTE_A3,NOTE_F4,NOTE_F3,NOTE_C4,NOTE_F2,
  NOTE_A4,NOTE_C3,NOTE_C4,NOTE_A3,NOTE_C2,NOTE_AS2,
  NOTE_AS5,NOTE_GS2,NOTE_E3,NOTE_C4,NOTE_A3,NOTE_C4,
  NOTE_C3,NOTE_AS5,NOTE_C2,NOTE_GS2,NOTE_D3,NOTE_G3,
  NOTE_C4,NOTE_G4,NOTE_C3,NOTE_E3,NOTE_AS5,NOTE_C4,
  NOTE_G3,NOTE_C3,NOTE_G4,NOTE_A3,NOTE_AS5,NOTE_D2,
  NOTE_E2,NOTE_AS2,NOTE_GS2,NOTE_C4,NOTE_G3,NOTE_C3,
  NOTE_G4,NOTE_A3,NOTE_E3,NOTE_E2,NOTE_GS2,NOTE_AS5,
  NOTE_C4,NOTE_G3,NOTE_G4,NOTE_C3,NOTE_F2,NOTE_AS5,
  NOTE_C4,NOTE_C3,NOTE_G4,NOTE_G3,NOTE_D4,NOTE_E3,
  NOTE_A3,NOTE_G3,NOTE_G2,NOTE_AS5,NOTE_GS2,NOTE_B3,
  NOTE_G3,NOTE_B3,NOTE_G3,NOTE_AS5,NOTE_GS2,NOTE_G4,
  NOTE_C3,NOTE_C4,NOTE_G3,NOTE_D4,NOTE_B3,NOTE_D3,
  NOTE_AS5,NOTE_E2,NOTE_D2,NOTE_C3,NOTE_G3,NOTE_G4,
  NOTE_C4,NOTE_G2,NOTE_AS5,NOTE_GS2,NOTE_D2,NOTE_E2,
  NOTE_D2,NOTE_E2,NOTE_B3,NOTE_G3,NOTE_E4,NOTE_D3,
  NOTE_G4,NOTE_D4,NOTE_G2,NOTE_D4,NOTE_AS5,NOTE_G2,
  NOTE_D2,NOTE_GS2,NOTE_E2,NOTE_C2,NOTE_D3,NOTE_G3,
  NOTE_G4,NOTE_B3,NOTE_G3,NOTE_G2,NOTE_AS5,NOTE_G4,
  NOTE_B3,NOTE_D3,NOTE_G3,NOTE_D4,NOTE_A2,NOTE_CS3,
  NOTE_GS2,NOTE_C2,NOTE_C3,NOTE_E3,NOTE_A1,NOTE_C2,
  NOTE_GS2,NOTE_D3,NOTE_E3,NOTE_C4,NOTE_A3,NOTE_A1,
  NOTE_E2,NOTE_D2,NOTE_GS2,NOTE_A3,NOTE_E4,NOTE_C4,
  NOTE_GS2,NOTE_G4,NOTE_C4,NOTE_A3,NOTE_A4,NOTE_E3,
  NOTE_A2,NOTE_C4,NOTE_F3,NOTE_GS2,NOTE_G3,NOTE_F3,
  NOTE_C4,NOTE_F1,NOTE_F3,NOTE_GS2,NOTE_F3,NOTE_C4,
  NOTE_F1,NOTE_GS2,NOTE_D2,NOTE_E2,NOTE_C4,NOTE_F3,
  NOTE_A3,NOTE_F4,NOTE_F2,NOTE_G4,NOTE_A4,NOTE_C3,
  NOTE_A3,NOTE_C4,NOTE_GS2,NOTE_F3,NOTE_A4,NOTE_F3,
  NOTE_A3,NOTE_C3,NOTE_F2,NOTE_F2,NOTE_F3,NOTE_C4,
  NOTE_A3,NOTE_C3,NOTE_A4,NOTE_G4,NOTE_E4,NOTE_E3,
  NOTE_AS2,NOTE_C2,NOTE_F1,NOTE_GS2,NOTE_E4,NOTE_C4,
  NOTE_E3,NOTE_C3,NOTE_C2,NOTE_GS2,NOTE_D3,NOTE_E4,
  NOTE_E3,NOTE_C4,NOTE_G3,NOTE_D2,NOTE_E2,NOTE_AS2,
  NOTE_GS2,NOTE_C4,NOTE_D4,NOTE_G3,NOTE_C3,NOTE_G4,
  NOTE_E3,NOTE_C4,NOTE_GS2,NOTE_E4,NOTE_G3,NOTE_G4,
  NOTE_G3,NOTE_D3,NOTE_G2,NOTE_G4,NOTE_B3,NOTE_D4,
  NOTE_GS2,NOTE_G1,NOTE_B3,NOTE_G3,NOTE_GS2,NOTE_C2,
  NOTE_B3,NOTE_G3,NOTE_GS2,NOTE_E2,NOTE_D2,NOTE_G1,
  NOTE_B3,NOTE_G3,NOTE_D3,NOTE_G4,NOTE_E4,NOTE_G2,
  NOTE_D4,NOTE_GS2,NOTE_B3,NOTE_G3,NOTE_G1,NOTE_G4,
  NOTE_G2,NOTE_G3,NOTE_G2,NOTE_G4,NOTE_B3,NOTE_G3,
  NOTE_D3,NOTE_GS2,NOTE_AS2,NOTE_C2,NOTE_D4,NOTE_C3,
  NOTE_E3,NOTE_A1,NOTE_C4,NOTE_C2,NOTE_GS2,NOTE_D3,
  NOTE_E4,NOTE_E3,NOTE_C3,NOTE_A3,NOTE_C4,NOTE_A1,
  NOTE_AS2,NOTE_D2,NOTE_E2,NOTE_GS2,NOTE_A3,NOTE_E4,
  NOTE_C4,NOTE_C4,NOTE_E3,NOTE_GS2,NOTE_C4,NOTE_A3,
  NOTE_A4,NOTE_A2,NOTE_C4,NOTE_F3,NOTE_A1,NOTE_C3,
  NOTE_A3,NOTE_GS2,NOTE_G3,NOTE_F3,NOTE_C4,NOTE_F1,
  NOTE_F3,NOTE_GS2,NOTE_F3,NOTE_C4,NOTE_G4,NOTE_F1,
  NOTE_GS2,NOTE_D2,NOTE_E2,NOTE_C4,NOTE_F3,NOTE_A3,
  NOTE_F4,NOTE_F2,NOTE_A4,NOTE_C3,NOTE_G4,NOTE_C4,
  NOTE_A3,NOTE_GS2,NOTE_F3,NOTE_A4,NOTE_F3,NOTE_A3,
  NOTE_C3,NOTE_F2,NOTE_F2,NOTE_F3,NOTE_C4,NOTE_A3,
  NOTE_C3,NOTE_A4,NOTE_F1,NOTE_E4,NOTE_E3,NOTE_AS2,
  NOTE_C2,NOTE_GS2,NOTE_E4,NOTE_C4,NOTE_E3,NOTE_C3,
  NOTE_C2,NOTE_GS2,NOTE_D3,NOTE_E4,NOTE_E3,NOTE_C4,
  NOTE_G3,NOTE_D2,NOTE_E2,NOTE_G4,NOTE_AS2,NOTE_GS2,
  NOTE_C4,NOTE_G3,NOTE_C3,NOTE_E3,NOTE_C4,NOTE_E4,
  NOTE_GS2,NOTE_G3,NOTE_G4,NOTE_G3,NOTE_D3,NOTE_G4,
  NOTE_G2,NOTE_B3,NOTE_D4,NOTE_GS2,NOTE_G1,NOTE_B3,
  NOTE_G3,NOTE_GS2,NOTE_C2,NOTE_B3,NOTE_G3,NOTE_E4,
  NOTE_GS2,NOTE_D2,NOTE_E2,NOTE_F4,NOTE_G1,NOTE_B3,
  NOTE_G3,NOTE_D3,NOTE_G4,NOTE_G2,NOTE_D4,NOTE_GS2,
  NOTE_B3,NOTE_G3,NOTE_G1,NOTE_G4,NOTE_G2,NOTE_G3,
  NOTE_G2,NOTE_G4,NOTE_B3,NOTE_G3,NOTE_D3,NOTE_GS2,
  NOTE_AS2,NOTE_C2,NOTE_D4,NOTE_C3,NOTE_E3,NOTE_A1,
  NOTE_C4,NOTE_C2,NOTE_GS2,NOTE_D3,NOTE_E4,NOTE_E3,
  NOTE_C3,NOTE_A3,NOTE_C4,NOTE_AS2,NOTE_D2,NOTE_E2,
  NOTE_GS2,NOTE_A1,NOTE_A3,NOTE_E4,NOTE_C4,NOTE_C4,
  NOTE_E3,NOTE_GS2,NOTE_C4,NOTE_A3,NOTE_A4,NOTE_A2,
  NOTE_C4,NOTE_F3,NOTE_G4,NOTE_A1,NOTE_C3,NOTE_A3,
  NOTE_GS2,NOTE_G3,NOTE_F3,NOTE_C4,NOTE_F1,NOTE_F3,
  NOTE_GS2,NOTE_F3,NOTE_C4,NOTE_G4,NOTE_F1,NOTE_GS2,
  NOTE_D2,NOTE_E2,NOTE_C4,NOTE_F3,NOTE_A3,NOTE_F4,
  NOTE_F2,NOTE_A4,NOTE_C3,NOTE_C4,NOTE_A3,NOTE_GS2,
  NOTE_F3,NOTE_G4,NOTE_A4,NOTE_F3,NOTE_A3,NOTE_C3,
  NOTE_F2,NOTE_F2,NOTE_F3,NOTE_C4,NOTE_A3,NOTE_C3,
  NOTE_A4,NOTE_F1,NOTE_E4,NOTE_E3,NOTE_AS2,NOTE_C2,
  NOTE_GS2,NOTE_E4,NOTE_C4,NOTE_E3,NOTE_G4,NOTE_C3,
  NOTE_C2,NOTE_GS2,NOTE_D3,NOTE_E4,NOTE_E3,NOTE_C4,
  NOTE_G3,NOTE_D2,NOTE_E2,NOTE_AS2,NOTE_GS2,NOTE_C4,
  NOTE_G3,NOTE_C3,NOTE_G4,NOTE_E3,NOTE_C4,NOTE_E4,
  NOTE_GS2,NOTE_G3,NOTE_G4,NOTE_G3,NOTE_D3,NOTE_G4,
  NOTE_G2,NOTE_B3,NOTE_GS2,NOTE_D4,NOTE_G1,NOTE_B3,
  NOTE_G3,NOTE_GS2,NOTE_C2,NOTE_B3,NOTE_G3,NOTE_GS2,
  NOTE_D2,NOTE_E2,NOTE_G1,NOTE_B3,NOTE_G3,NOTE_D3,
  NOTE_G4,NOTE_G2,NOTE_D4,NOTE_GS2,NOTE_B3,NOTE_G3,
  NOTE_G1,NOTE_G4,NOTE_G2,NOTE_G3,NOTE_G2,NOTE_G4,
  NOTE_B3,NOTE_G3,NOTE_D4,NOTE_D3,NOTE_GS2,NOTE_AS2,
  NOTE_C2,NOTE_C3,NOTE_E3,NOTE_E4,NOTE_A1,NOTE_C4,
  NOTE_C2,NOTE_D3,NOTE_GS2,NOTE_E3,NOTE_C3,NOTE_A3,
  NOTE_C4,NOTE_AS2,NOTE_D2,NOTE_E2,NOTE_GS2,NOTE_D4,
  NOTE_A1,NOTE_A3,NOTE_E4,NOTE_C4,NOTE_C4,NOTE_E3,
  NOTE_GS2,NOTE_C4,NOTE_A3,NOTE_A2,NOTE_A4,NOTE_C4,
  NOTE_F3,NOTE_A1,NOTE_C3,NOTE_A3,NOTE_GS2,NOTE_G3,
  NOTE_F3,NOTE_C4,NOTE_F1,NOTE_F3,NOTE_GS2,NOTE_F3,
  NOTE_C4,NOTE_F1,NOTE_GS2,NOTE_D2,NOTE_E2,NOTE_C4,
  NOTE_F3,NOTE_A3,NOTE_F4,NOTE_F2,NOTE_A4,NOTE_C3,
  NOTE_A3,NOTE_C4,NOTE_GS2,NOTE_F3,NOTE_A4,NOTE_A3,
  NOTE_F3,NOTE_F2,NOTE_C3,NOTE_F2,NOTE_F3,NOTE_C4,
  NOTE_A3,NOTE_C3,NOTE_A4,NOTE_F1,NOTE_E4,NOTE_E3,
  NOTE_C4,NOTE_AS2,NOTE_C2,NOTE_GS2,NOTE_E4,NOTE_C4,
  NOTE_E3,NOTE_C3,NOTE_C2,NOTE_GS2,NOTE_D3,NOTE_E4,
  NOTE_E3,NOTE_C4,NOTE_G3,NOTE_D2,NOTE_E2,NOTE_AS2,
  NOTE_GS2,NOTE_C4,NOTE_G3,NOTE_C3,NOTE_G4,NOTE_E3,
  NOTE_C4,NOTE_E4,NOTE_GS2,NOTE_G3,NOTE_G4,NOTE_G3,
  NOTE_D3,NOTE_G4,NOTE_G2,NOTE_B3,NOTE_GS2,NOTE_D4,
  NOTE_G1,NOTE_B3,NOTE_G3,NOTE_GS2,NOTE_C2,NOTE_B3,
  NOTE_G3,NOTE_G1,NOTE_D2,NOTE_E2,NOTE_GS2,NOTE_B3,
  NOTE_G3,NOTE_E4,NOTE_D3,NOTE_G4,NOTE_G2,NOTE_D4,
  NOTE_GS2,NOTE_B3,NOTE_G3,NOTE_G4,NOTE_G2,NOTE_G3,
  NOTE_G2,NOTE_G4,NOTE_B3,NOTE_G3,NOTE_G1,NOTE_D3,
  NOTE_CS3,NOTE_C2,NOTE_GS2,NOTE_AS2,NOTE_FS3,NOTE_D4,
  NOTE_C3,NOTE_E3,NOTE_A1,NOTE_C4,NOTE_C2,NOTE_FS3,
  NOTE_GS2,NOTE_D3,NOTE_E4,NOTE_E3,NOTE_C3,NOTE_A3,
  NOTE_C4,NOTE_FS3,NOTE_AS2,NOTE_E2,NOTE_D2,NOTE_GS2,
  NOTE_A1,NOTE_A3,NOTE_E4,NOTE_G4,NOTE_C4,NOTE_C4,
  NOTE_E3,NOTE_FS3,NOTE_GS2,NOTE_C4,NOTE_A3,NOTE_A2,
  NOTE_A4,NOTE_C4,NOTE_F3,NOTE_A1,NOTE_C3,NOTE_A3,
  NOTE_GS2,NOTE_FS3,NOTE_G4,NOTE_G3,NOTE_F3,NOTE_C4,
  NOTE_F1,NOTE_F3,NOTE_FS3,NOTE_GS2,NOTE_F3,NOTE_C4,
  NOTE_F1,NOTE_FS3,NOTE_GS2,NOTE_D2,NOTE_E2,NOTE_C4,
  NOTE_F3,NOTE_A3,NOTE_F4,NOTE_F2,NOTE_A4,NOTE_C3,
  NOTE_A3,NOTE_C4,NOTE_FS3,NOTE_GS2,NOTE_F3,NOTE_A4,
  NOTE_C4,NOTE_A3,NOTE_F3,NOTE_C3,NOTE_F2,NOTE_F2,
  NOTE_F3,NOTE_C3,NOTE_A3,NOTE_A4,NOTE_F1,NOTE_E4,
  NOTE_E3,NOTE_FS3,NOTE_AS2,NOTE_C2,NOTE_GS2,NOTE_E4,
  NOTE_C4,NOTE_E3,NOTE_C3,NOTE_FS3,NOTE_C2,NOTE_GS2,
  NOTE_D3,NOTE_C4,NOTE_E4,NOTE_E3,NOTE_G3,NOTE_FS3,
  NOTE_D2,NOTE_E2,NOTE_AS2,NOTE_GS2,NOTE_C4,NOTE_D4,
  NOTE_G3,NOTE_C3,NOTE_G4,NOTE_E3,NOTE_C4,NOTE_E4,
  NOTE_GS2,NOTE_FS3,NOTE_G3,NOTE_G4,NOTE_G3,NOTE_D3,
  NOTE_G2,NOTE_G4,NOTE_FS3,NOTE_B3,NOTE_GS2,NOTE_D4,
  NOTE_G1,NOTE_B3,NOTE_G3,NOTE_FS3,NOTE_GS2,NOTE_C2,
  NOTE_B3,NOTE_G3,NOTE_FS3,NOTE_E2,NOTE_GS2,NOTE_D2,
  NOTE_G1,NOTE_B3,NOTE_G3,NOTE_D3,NOTE_G4,NOTE_G2,
  NOTE_D4,NOTE_E4,NOTE_FS3,NOTE_GS2,NOTE_B3,NOTE_G3,
  NOTE_G1,NOTE_G4,NOTE_G2,NOTE_G3,NOTE_G2,NOTE_G4,
  NOTE_B3,NOTE_G3,NOTE_FS3,NOTE_D3,NOTE_AS2,NOTE_C2,
  NOTE_GS2,NOTE_D4,NOTE_C3,NOTE_E3,NOTE_A1,NOTE_C4,
  NOTE_FS3,NOTE_C2,NOTE_GS2,NOTE_D3,NOTE_E4,NOTE_E3,
  NOTE_C3,NOTE_A3,NOTE_C4,NOTE_AS2,NOTE_D2,NOTE_E2,
  NOTE_FS3,NOTE_GS2,NOTE_A1,NOTE_A3,NOTE_E4,NOTE_C4,
  NOTE_C4,NOTE_E3,NOTE_FS3,NOTE_GS2,NOTE_C4,NOTE_A3,
  NOTE_G4,NOTE_A2,NOTE_A4,NOTE_C4,NOTE_F3,NOTE_A1,
  NOTE_C3,NOTE_A3,NOTE_GS2,NOTE_FS3,NOTE_G3,NOTE_F3,
  NOTE_C4,NOTE_F1,NOTE_F3,NOTE_FS3,NOTE_GS2,NOTE_F3,
  NOTE_C4,NOTE_F1,NOTE_FS3,NOTE_GS2,NOTE_D2,NOTE_E2,
  NOTE_C4,NOTE_F3,NOTE_A3,NOTE_F4,NOTE_F2,NOTE_A4,
  NOTE_C3,NOTE_A3,NOTE_C4,NOTE_FS3,NOTE_GS2,NOTE_F3,
  NOTE_A4,NOTE_A3,NOTE_F3,NOTE_C3,NOTE_F2,NOTE_F2,
  NOTE_F3,NOTE_C4,NOTE_A3,NOTE_C3,NOTE_A4,NOTE_F1,
  NOTE_E4,NOTE_E3,NOTE_FS3,NOTE_AS2,NOTE_C2,NOTE_GS2,
  NOTE_E4,NOTE_E3,NOTE_C4,NOTE_C3,NOTE_C2,NOTE_FS3,
  NOTE_GS2,NOTE_D3,NOTE_E4,NOTE_E3,NOTE_C4,NOTE_G3,
  NOTE_D2,NOTE_E2,NOTE_FS3,NOTE_AS2,NOTE_GS2,NOTE_E4,
  NOTE_C4,NOTE_G3,NOTE_C3,NOTE_G4,NOTE_E3,NOTE_C4,
  NOTE_GS2,NOTE_E4,NOTE_FS3,NOTE_G3,NOTE_G4,NOTE_G3,
  NOTE_D3,NOTE_G2,NOTE_G4,NOTE_B3,NOTE_FS3,NOTE_GS2,
  NOTE_D4,NOTE_G1,NOTE_B3,NOTE_G3,NOTE_FS3,NOTE_GS2,
  NOTE_C2,NOTE_B3,NOTE_G3,NOTE_D3,NOTE_G4,NOTE_FS3,
  NOTE_D2,NOTE_E2,NOTE_GS2,NOTE_G1,NOTE_B3,NOTE_G3,
  NOTE_D3,NOTE_G4,NOTE_D4,NOTE_G2,NOTE_D4,NOTE_D3,
  NOTE_G4,NOTE_FS3,NOTE_GS2,NOTE_G3,NOTE_B3,NOTE_G1,
  NOTE_G2,NOTE_G3,NOTE_G2,NOTE_G4,NOTE_B3,NOTE_G3,
  NOTE_D4,NOTE_D3,NOTE_GS2,NOTE_AS2,NOTE_C2,NOTE_FS3,
  NOTE_D4,NOTE_C3,NOTE_E3,NOTE_A1,NOTE_C4,NOTE_C2,
  NOTE_FS3,NOTE_GS2,NOTE_D3,NOTE_E4,NOTE_E3,NOTE_D4,
  NOTE_C3,NOTE_A3,NOTE_C4,NOTE_FS3,NOTE_AS2,NOTE_E2,
  NOTE_D2,NOTE_GS2,NOTE_A1,NOTE_A3,NOTE_E4,NOTE_C4,
  NOTE_C4,NOTE_E3,NOTE_FS3,NOTE_GS2,NOTE_E4,NOTE_C4,
  NOTE_D4,NOTE_A3,NOTE_A4,NOTE_A2,NOTE_C4,NOTE_F3,
  NOTE_A1,NOTE_C3,NOTE_A3,NOTE_GS2,NOTE_FS3,NOTE_G3,
  NOTE_F3,NOTE_C4,NOTE_F1,NOTE_F3,NOTE_D4,NOTE_FS3,
  NOTE_GS2,NOTE_F3,NOTE_C4,NOTE_F1,NOTE_FS3,NOTE_GS2,
  NOTE_D2,NOTE_E2,NOTE_C4,NOTE_F3,NOTE_A3,NOTE_F4,
  NOTE_F2,NOTE_A4,NOTE_C3,NOTE_C4,NOTE_A3,NOTE_FS3,
  NOTE_GS2,NOTE_F3,NOTE_A4,NOTE_A3,NOTE_F3,NOTE_C3,
  NOTE_F2,NOTE_F2,NOTE_F3,NOTE_C3,NOTE_A3,NOTE_C4,
  NOTE_A4,NOTE_F1,NOTE_E4,NOTE_E3,NOTE_FS3,NOTE_AS2,
  NOTE_C2,NOTE_GS2,NOTE_E4,NOTE_C4,NOTE_E3,NOTE_C3,
  NOTE_FS3,NOTE_C2,NOTE_GS2,NOTE_D3,NOTE_E4,NOTE_E3,
  NOTE_C4,NOTE_G3,NOTE_FS3,NOTE_D2,NOTE_E2,NOTE_AS2,
  NOTE_GS2,NOTE_C4,NOTE_G3,NOTE_C3,NOTE_G4,NOTE_E3,
  NOTE_C4,NOTE_GS2,NOTE_FS3,NOTE_E4,NOTE_G3,NOTE_G4,
  NOTE_G3,NOTE_D3,NOTE_G4,NOTE_G2,NOTE_FS3,NOTE_B3,
  NOTE_GS2,NOTE_D4,NOTE_G1,NOTE_B3,NOTE_G3,NOTE_C4,
  NOTE_FS3,NOTE_GS2,NOTE_C2,NOTE_B3,NOTE_G3,NOTE_FS3,
  NOTE_D2,NOTE_E2,NOTE_GS2,NOTE_G1,NOTE_B3,NOTE_G3,
  NOTE_D3,NOTE_G4,NOTE_G2,NOTE_D4,NOTE_FS3,NOTE_GS2,
  NOTE_B3,NOTE_G3,NOTE_G1,NOTE_G4,NOTE_G2,NOTE_G3,
  NOTE_G2,NOTE_G4,NOTE_B3,NOTE_G3,NOTE_C4,NOTE_FS3,
  NOTE_D3,NOTE_AS2,NOTE_C2,NOTE_GS2,NOTE_D4,NOTE_C3,
  NOTE_E3,NOTE_A1,NOTE_C4,NOTE_FS3,NOTE_C2,NOTE_GS2,
  NOTE_D3,NOTE_E4,NOTE_E3,NOTE_C3,NOTE_A3,NOTE_C4,
  NOTE_AS2,NOTE_D2,NOTE_E2,NOTE_GS2,NOTE_FS3,NOTE_D4,
  NOTE_A1,NOTE_A3,NOTE_E4,NOTE_C4,NOTE_C4,NOTE_E3,
  NOTE_FS3,NOTE_GS2,NOTE_C4,NOTE_A3,NOTE_A2,NOTE_A4,
  NOTE_C4,NOTE_F3,NOTE_A1,NOTE_C3,NOTE_A3,NOTE_GS2,
  NOTE_FS3,NOTE_G3,NOTE_F3,NOTE_C4,NOTE_F1,NOTE_F3,
  NOTE_FS3,NOTE_GS2,NOTE_D4,NOTE_F3,NOTE_C4,NOTE_F1,
  NOTE_FS3,NOTE_GS2,NOTE_D2,NOTE_E2,NOTE_C4,NOTE_F3,
  NOTE_A3,NOTE_F4,NOTE_F2,NOTE_A4,NOTE_C3,NOTE_C4,
  NOTE_A3,NOTE_FS3,NOTE_GS2,NOTE_F3,NOTE_A4,NOTE_A3,
  NOTE_F3,NOTE_F2,NOTE_C3,NOTE_F2,NOTE_F3,NOTE_C3,
  NOTE_C4,NOTE_A3,NOTE_A4,NOTE_F1,NOTE_E4,NOTE_E3,
  NOTE_AS2,NOTE_C2,NOTE_FS3,NOTE_GS2,NOTE_E4,NOTE_E3,
  NOTE_C4,NOTE_C3,NOTE_C2,NOTE_FS3,NOTE_GS2,NOTE_D3,
  NOTE_E4,NOTE_E3,NOTE_C4,NOTE_G3,NOTE_D2,NOTE_E2,
  NOTE_FS3,NOTE_GS2,NOTE_AS2,NOTE_C4,NOTE_G3,NOTE_C3,
  NOTE_G4,NOTE_E3,NOTE_C4,NOTE_GS2,NOTE_E4,NOTE_FS3,
  NOTE_G3,NOTE_G4,NOTE_G3,NOTE_D3,NOTE_G4,NOTE_G3,
  NOTE_G2,NOTE_C4,NOTE_F2,NOTE_FS3,NOTE_B3,NOTE_C2,
  NOTE_GS2,NOTE_D4,NOTE_B3,NOTE_G3,NOTE_G2,NOTE_FS3,
  NOTE_GS2,NOTE_D2,NOTE_E2,NOTE_B3,NOTE_D2,NOTE_G3,
  NOTE_E2,NOTE_D3,NOTE_D2,NOTE_E2,NOTE_G2,NOTE_FS3,
  NOTE_E2,NOTE_C2,NOTE_GS2,NOTE_D2,NOTE_D3,NOTE_E4,
  NOTE_B2,NOTE_B3,NOTE_D2,NOTE_E2,NOTE_G3,NOTE_G4,
  NOTE_G3,NOTE_B3,NOTE_A2,NOTE_D4,NOTE_FS3,NOTE_B2,
  NOTE_D2,NOTE_GS2,NOTE_E2,NOTE_C2,NOTE_B3,NOTE_G3,
  NOTE_G4,NOTE_G2,NOTE_G3,NOTE_G2,NOTE_G4,NOTE_D2,
  NOTE_E2,NOTE_B3,NOTE_G3,NOTE_D3,NOTE_FS3,NOTE_AS5,
  NOTE_C2,NOTE_A3,NOTE_GS2,NOTE_C3,NOTE_E3,NOTE_C2,
  NOTE_FS3,NOTE_AS5,NOTE_GS2,NOTE_D3,NOTE_E4,NOTE_A3,
  NOTE_C4,NOTE_E3,NOTE_AS5,NOTE_E4,NOTE_A3,NOTE_C4,
  NOTE_A1,NOTE_G3,NOTE_C4,NOTE_FS3,NOTE_E2,NOTE_D2,
  NOTE_GS2,NOTE_AS5,NOTE_A3,NOTE_E4,NOTE_FS3,NOTE_AS5,
  NOTE_GS2,NOTE_C4,NOTE_E4,NOTE_A3,NOTE_A1,NOTE_A2,
  NOTE_A4,NOTE_E3,NOTE_AS5,NOTE_G3,NOTE_A3,NOTE_C4,
  NOTE_E4,NOTE_F3,NOTE_FS3,NOTE_GS2,NOTE_AS5,NOTE_C4,
  NOTE_F3,NOTE_A3,NOTE_F4,NOTE_F3,NOTE_C4,NOTE_A3,
  NOTE_F4,NOTE_FS3,NOTE_GS2,NOTE_F3,NOTE_F1,NOTE_C4,
  NOTE_AS5,NOTE_F4,NOTE_A3,NOTE_FS3,NOTE_GS2,NOTE_D2,
  NOTE_E2,NOTE_AS5,NOTE_C2,NOTE_C4,NOTE_A3,NOTE_F3,
  NOTE_F4,NOTE_F2,NOTE_A4,NOTE_C3,NOTE_A3,NOTE_FS3,
  NOTE_C4,NOTE_AS5,NOTE_GS2,NOTE_F3,NOTE_F4,NOTE_F1,
  NOTE_A4,NOTE_A3,NOTE_F3,NOTE_F2,NOTE_C3,NOTE_AS5,
  NOTE_F3,NOTE_A3,NOTE_C4,NOTE_F4,NOTE_F2,NOTE_C3,
  NOTE_A4,NOTE_C4,NOTE_FS3,NOTE_C2,NOTE_AS2,NOTE_AS5,
  NOTE_GS2,NOTE_C4,NOTE_G3,NOTE_E3,NOTE_C3,NOTE_FS3,
  NOTE_AS5,NOTE_C2,NOTE_GS2,NOTE_D3,NOTE_G3,NOTE_C4,
  NOTE_G4,NOTE_C3,NOTE_E3,NOTE_E3,NOTE_AS5,NOTE_C4,
  NOTE_G4,NOTE_C3,NOTE_G3,NOTE_C4,NOTE_FS3,NOTE_E2,
  NOTE_E3,NOTE_AS5,NOTE_D2,NOTE_G3,NOTE_AS2,NOTE_GS2,
  NOTE_G3,NOTE_C3,NOTE_G4,NOTE_C4,NOTE_E2,NOTE_D4,
  NOTE_B3,NOTE_GS2,NOTE_FS3,NOTE_AS5,NOTE_C3,NOTE_G4,
  NOTE_C4,NOTE_G3,NOTE_F2,NOTE_C4,NOTE_AS5,NOTE_G3,
  NOTE_G4,NOTE_C3,NOTE_G3,NOTE_G2,NOTE_FS3,NOTE_AS5,
  NOTE_C2,NOTE_GS2,NOTE_B3,NOTE_B3,NOTE_G3,NOTE_FS3,
  NOTE_AS5,NOTE_GS2,NOTE_C2,NOTE_C4,NOTE_G4,NOTE_C3,
  NOTE_G3,NOTE_B3,NOTE_AS5,NOTE_G4,NOTE_C3,NOTE_G3,
  NOTE_C4,NOTE_D3,NOTE_D4,NOTE_G2,NOTE_D4,NOTE_AS5,
  NOTE_FS3,NOTE_D2,NOTE_E2,NOTE_C2,NOTE_GS2,NOTE_B3,
  NOTE_G3,NOTE_D3,NOTE_G4,NOTE_D4,NOTE_G2,NOTE_D4,
  NOTE_AS5,NOTE_FS3,NOTE_G2,NOTE_GS2,NOTE_D3,NOTE_G3,
  NOTE_G4,NOTE_B3,NOTE_G3,NOTE_G2,NOTE_G4,NOTE_AS5,
  NOTE_G3,NOTE_B3,NOTE_D3,NOTE_D4,NOTE_A2,NOTE_FS3,
  NOTE_AS5,NOTE_AS2,NOTE_GS2,NOTE_C2,NOTE_C3,NOTE_E3,
  NOTE_E4,NOTE_FS3,NOTE_C2,NOTE_AS5,NOTE_GS2,NOTE_D3,
  NOTE_C4,NOTE_E4,NOTE_A3,NOTE_E3,NOTE_AS5,NOTE_E4,
  NOTE_A3,NOTE_C4,NOTE_D4,NOTE_A1,NOTE_C4,NOTE_AS2,
  NOTE_D2,NOTE_E2,NOTE_GS2,NOTE_FS3,NOTE_AS5,NOTE_C4,
  NOTE_A3,NOTE_E4,NOTE_FS3,NOTE_AS5,NOTE_GS2,NOTE_A3,
  NOTE_C4,NOTE_E4,NOTE_A1,NOTE_A4,NOTE_A2,NOTE_E3,
  NOTE_AS5,NOTE_G3,NOTE_A3,NOTE_C4,NOTE_E4,NOTE_F3,
  NOTE_GS2,NOTE_AS5,NOTE_FS3,NOTE_C4,NOTE_F4,NOTE_A3,
  NOTE_F3,NOTE_F3,NOTE_A3,NOTE_C4,NOTE_F4,NOTE_FS3,
  NOTE_GS2,NOTE_F3,NOTE_F1,NOTE_C4,NOTE_AS5,NOTE_F4,
  NOTE_A3,NOTE_FS3,NOTE_C2,NOTE_GS2,NOTE_E2,NOTE_D2,
  NOTE_AS5,NOTE_C4,NOTE_F3,NOTE_A3,NOTE_F4,NOTE_F2,
  NOTE_A3,NOTE_A4,NOTE_C4,NOTE_A3,NOTE_C3,NOTE_F3,
  NOTE_A3,NOTE_C4,NOTE_FS3,NOTE_AS5,NOTE_GS2,NOTE_F4,
  NOTE_F3,NOTE_F1,NOTE_A4,NOTE_F3,NOTE_A3,NOTE_C3,
  NOTE_F2,NOTE_AS5,NOTE_A3,NOTE_F4,NOTE_F3,NOTE_C4,
  NOTE_F2,NOTE_A4,NOTE_C3,NOTE_C4,NOTE_A3,NOTE_A3,
  NOTE_FS3,NOTE_AS2,NOTE_C2,NOTE_AS5,NOTE_GS2,NOTE_C4,
  NOTE_E3,NOTE_C4,NOTE_C3,NOTE_AS5,NOTE_C2,NOTE_FS3,
  NOTE_GS2,NOTE_D3,NOTE_G3,NOTE_G4,NOTE_C4,NOTE_C3,
  NOTE_E3,NOTE_AS5,NOTE_C4,NOTE_G4,NOTE_C3,NOTE_G3,
  NOTE_A3,NOTE_AS5,NOTE_D2,NOTE_E2,NOTE_FS3,NOTE_AS2,
  NOTE_GS2,NOTE_C4,NOTE_G3,NOTE_C3,NOTE_G4,NOTE_E3,
  NOTE_A3,NOTE_E2,NOTE_GS2,NOTE_AS5,NOTE_FS3,NOTE_C3,
  NOTE_C4,NOTE_G3,NOTE_G4,NOTE_F2,NOTE_AS5,NOTE_C4,
  NOTE_C3,NOTE_G4,NOTE_G3,NOTE_D4,NOTE_E3,NOTE_A3,
  NOTE_G3,NOTE_G2,NOTE_FS3,NOTE_AS5,NOTE_C2,NOTE_GS2,
  NOTE_B3,NOTE_G3,NOTE_B3,NOTE_G3,NOTE_FS3,NOTE_AS5,
  NOTE_GS2,NOTE_C2,NOTE_C4,NOTE_G4,NOTE_C3,NOTE_G3,
  NOTE_B3,NOTE_D4,NOTE_D3,NOTE_AS5,NOTE_G3,NOTE_G4,
  NOTE_C4,NOTE_C3,NOTE_G2,NOTE_AS5,NOTE_FS3,NOTE_GS2,
  NOTE_D2,NOTE_E2,NOTE_B3,NOTE_G3,NOTE_D3,NOTE_G4,
  NOTE_D4,NOTE_G2,NOTE_D4,NOTE_AS5,NOTE_FS3,NOTE_G2,
  NOTE_GS2,NOTE_G3,NOTE_D3,NOTE_G4,NOTE_B3,NOTE_G3,
  NOTE_G2,NOTE_G4,NOTE_AS5,NOTE_D4,NOTE_G3,NOTE_B3,
  NOTE_D3,NOTE_A2,NOTE_FS3,NOTE_C2,NOTE_AS5,NOTE_AS2,
  NOTE_GS2,NOTE_C3,NOTE_E3,NOTE_C4,NOTE_E4,NOTE_C2,
  NOTE_FS3,NOTE_AS5,NOTE_GS2,NOTE_D3,NOTE_C4,NOTE_E4,
  NOTE_A3,NOTE_E3,NOTE_AS5,NOTE_E4,NOTE_C4,NOTE_A3,
  NOTE_A1,NOTE_G3,NOTE_D4,NOTE_B3,NOTE_C4,NOTE_FS3,
  NOTE_AS2,NOTE_D2,NOTE_E2,NOTE_AS5,NOTE_GS2,NOTE_A3,
  NOTE_E4,NOTE_C4,NOTE_FS3,NOTE_GS2,NOTE_AS5,NOTE_E4,
  NOTE_A3,NOTE_C4,NOTE_A1,NOTE_A4,NOTE_A2,NOTE_E3,
  NOTE_AS5,NOTE_A3,NOTE_G3,NOTE_E4,NOTE_C4,NOTE_F3,
  NOTE_C4,NOTE_GS2,NOTE_FS3,NOTE_AS5,NOTE_A3,NOTE_F4,
  NOTE_C4,NOTE_F3,NOTE_F3,NOTE_F4,NOTE_C4,NOTE_A3,
  NOTE_FS3,NOTE_GS2,NOTE_F3,NOTE_F1,NOTE_C4,NOTE_AS5,
  NOTE_F4,NOTE_A3,NOTE_FS3,NOTE_E2,NOTE_GS2,NOTE_D2,
  NOTE_AS5,NOTE_C2,NOTE_C4,NOTE_F3,NOTE_A3,NOTE_F4,
  NOTE_F2,NOTE_A4,NOTE_C3,NOTE_A3,NOTE_FS3,NOTE_C4,
  NOTE_GS2,NOTE_AS5,NOTE_F3,NOTE_F4,NOTE_F1,NOTE_A4,
  NOTE_A3,NOTE_F3,NOTE_C3,NOTE_F2,NOTE_AS5,NOTE_C4,
  NOTE_F4,NOTE_A3,NOTE_F3,NOTE_F2,NOTE_C3,NOTE_A4,
  NOTE_C4,NOTE_FS3,NOTE_AS2,NOTE_C2,NOTE_AS5,NOTE_GS2,
  NOTE_C4,NOTE_G3,NOTE_E3,NOTE_C3,NOTE_FS3,NOTE_AS5,
  NOTE_C2,NOTE_GS2,NOTE_D3,NOTE_G3,NOTE_C4,NOTE_G4,
  NOTE_C3,NOTE_E3,NOTE_E3,NOTE_AS5,NOTE_C4,NOTE_G4,
  NOTE_C3,NOTE_G3,NOTE_C4,NOTE_FS3,NOTE_E2,NOTE_E3,
  NOTE_AS5,NOTE_D2,NOTE_G3,NOTE_AS2,NOTE_GS2,NOTE_G3,
  NOTE_C3,NOTE_G4,NOTE_C4,NOTE_E2,NOTE_GS2,NOTE_FS3,
  NOTE_AS5,NOTE_G3,NOTE_G4,NOTE_C3,NOTE_C4,NOTE_B3,
  NOTE_D4,NOTE_F2,NOTE_AS5,NOTE_C4,NOTE_G4,NOTE_C3,
  NOTE_G3,NOTE_G2,NOTE_G3,NOTE_FS3,NOTE_AS5,NOTE_C2,
  NOTE_GS2,NOTE_B3,NOTE_B3,NOTE_G3,NOTE_C4,NOTE_FS3,
  NOTE_AS5,NOTE_GS2,NOTE_C2,NOTE_G4,NOTE_C4,NOTE_G3,
  NOTE_C3,NOTE_B3,NOTE_AS5,NOTE_C4,NOTE_G4,NOTE_C3,
  NOTE_G3,NOTE_D4,NOTE_G2,NOTE_AS5,NOTE_FS3,NOTE_GS2,
  NOTE_D2,NOTE_E2,NOTE_C2,NOTE_B3,NOTE_G3,NOTE_D3,
  NOTE_G4,NOTE_D4,NOTE_G2,NOTE_D4,NOTE_G2,NOTE_AS5,
  NOTE_FS3,NOTE_GS2,NOTE_D3,NOTE_G3,NOTE_G4,NOTE_B3,
  NOTE_G3,NOTE_G2,NOTE_G4,NOTE_AS5,NOTE_G3,NOTE_B3,
  NOTE_D3,NOTE_D4,NOTE_A2,NOTE_FS3,NOTE_AS5,NOTE_AS2,
  NOTE_GS2,NOTE_C2,NOTE_C3,NOTE_E3,NOTE_E4,NOTE_FS3,
  NOTE_C2,NOTE_AS5,NOTE_GS2,NOTE_D3,NOTE_C4,NOTE_E4,
  NOTE_A3,NOTE_E3,NOTE_AS5,NOTE_E4,NOTE_A3,NOTE_C4,
  NOTE_D4,NOTE_A1,NOTE_C4,NOTE_D2,NOTE_E2,NOTE_AS2,
  NOTE_GS2,NOTE_FS3,NOTE_AS5,NOTE_C4,NOTE_A3,NOTE_E4,
  NOTE_FS3,NOTE_AS5,NOTE_GS2,NOTE_C4,NOTE_A3,NOTE_E4,
  NOTE_A1,NOTE_E3,NOTE_A4,NOTE_A2,NOTE_AS5,NOTE_G3,
  NOTE_A3,NOTE_C4,NOTE_E4,NOTE_F3,NOTE_GS2,NOTE_AS5,
  NOTE_FS3,NOTE_C4,NOTE_F4,NOTE_A3,NOTE_F3,NOTE_F3,
  NOTE_F4,NOTE_C4,NOTE_A3,NOTE_FS3,NOTE_GS2,NOTE_F3,
  NOTE_F1,NOTE_C4,NOTE_AS5,NOTE_F4,NOTE_A3,NOTE_FS3,
  NOTE_E2,NOTE_GS2,NOTE_D2,NOTE_AS5,NOTE_C4,NOTE_F3,
  NOTE_A3,NOTE_F4,NOTE_F2,NOTE_A4,NOTE_A3,NOTE_C4,
  NOTE_C3,NOTE_A3,NOTE_F3,NOTE_A3,NOTE_C4,NOTE_FS3,
  NOTE_GS2,NOTE_AS5,NOTE_F3,NOTE_F4,NOTE_F1,NOTE_A4,
  NOTE_A3,NOTE_F3,NOTE_F2,NOTE_C3,NOTE_AS5,NOTE_A3,
  NOTE_F4,NOTE_F3,NOTE_C4,NOTE_F2,NOTE_A4,NOTE_C3,
  NOTE_C4,NOTE_A3,NOTE_FS3,NOTE_C2,NOTE_AS2,NOTE_GS2,
  NOTE_AS5,NOTE_E3,NOTE_A3,NOTE_C4,NOTE_C4,NOTE_C3,
  NOTE_AS5,NOTE_C2,NOTE_FS3,NOTE_GS2,NOTE_D3,NOTE_G3,
  NOTE_G4,NOTE_C4,NOTE_C3,NOTE_E3,NOTE_AS5,NOTE_C4,
  NOTE_G3,NOTE_C3,NOTE_G4,NOTE_A3,NOTE_AS5,NOTE_D2,
  NOTE_E2,NOTE_FS3,NOTE_AS2,NOTE_GS2,NOTE_C4,NOTE_G3,
  NOTE_C3,NOTE_G4,NOTE_A3,NOTE_E3,NOTE_E2,NOTE_GS2,
  NOTE_AS5,NOTE_FS3,NOTE_C4,NOTE_G3,NOTE_G4,NOTE_C3,
  NOTE_F2,NOTE_AS5,NOTE_C4,NOTE_C3,NOTE_G4,NOTE_G3,
  NOTE_D4,NOTE_E3,NOTE_A3,NOTE_G3,NOTE_G2,NOTE_FS3,
  NOTE_AS5,NOTE_D3,NOTE_C2,NOTE_GS2,NOTE_B3,NOTE_G3,
  NOTE_B3,NOTE_G3,NOTE_FS3,NOTE_AS5,NOTE_GS2,NOTE_G4,
  NOTE_C4,NOTE_G3,NOTE_C3,NOTE_D4,NOTE_B3,NOTE_D3,
  NOTE_AS5,NOTE_G3,NOTE_G4,NOTE_C4,NOTE_C3,NOTE_G2,
  NOTE_AS5,NOTE_FS3,NOTE_A2,NOTE_GS2,NOTE_D2,NOTE_E2,
  NOTE_C2,NOTE_B3,NOTE_G3,NOTE_D3,NOTE_G4,NOTE_D4,
  NOTE_G2,NOTE_D4,NOTE_G2,NOTE_AS5,NOTE_FS3,NOTE_GS2,
  NOTE_D3,NOTE_G3,NOTE_G4,NOTE_B3,NOTE_G3,NOTE_G2,
  NOTE_AS5,NOTE_G4,NOTE_B3,NOTE_D3,NOTE_G3,NOTE_D4,
  NOTE_A2,NOTE_AS5,NOTE_F3,NOTE_C2,NOTE_CS3,NOTE_GS2,
  NOTE_C3,NOTE_E3,NOTE_A1,NOTE_C2,NOTE_D3,NOTE_AS5,
  NOTE_GS2,NOTE_E4,NOTE_C4,NOTE_A3,NOTE_E3,NOTE_AS5,
  NOTE_E4,NOTE_C4,NOTE_A3,NOTE_C4,NOTE_D2,NOTE_E2,
  NOTE_GS2,NOTE_AS5,NOTE_F3,NOTE_A1,NOTE_A3,NOTE_E4,
  NOTE_AS5,NOTE_GS2,NOTE_E4,NOTE_A3,NOTE_C4,NOTE_A4,
  NOTE_E3,NOTE_A2,NOTE_AS5,NOTE_C4,NOTE_G3,NOTE_A3,
  NOTE_E4,NOTE_F3,NOTE_A1,NOTE_GS2,NOTE_C2,NOTE_AS5,
  NOTE_F3,NOTE_C4,NOTE_A3,NOTE_F4,NOTE_F1,NOTE_F3,
  NOTE_F4,NOTE_C4,NOTE_A3,NOTE_GS2,NOTE_C2,NOTE_F3,
  NOTE_C4,NOTE_AS5,NOTE_F4,NOTE_A3,NOTE_F1,NOTE_F3,
  NOTE_E2,NOTE_GS2,NOTE_D2,NOTE_AS5,NOTE_C4,NOTE_F3,
  NOTE_A3,NOTE_F4,NOTE_F2,NOTE_A4,NOTE_C3,NOTE_A3,
  NOTE_C4,NOTE_AS5,NOTE_GS2,NOTE_F3,NOTE_F4,NOTE_A4,
  NOTE_F3,NOTE_A3,NOTE_C3,NOTE_F2,NOTE_AS5,NOTE_F3,
  NOTE_A3,NOTE_C4,NOTE_F4,NOTE_F2,NOTE_C3,NOTE_A4,
  NOTE_F1,NOTE_G3,NOTE_E4,NOTE_E3,NOTE_F3,NOTE_C2,
  NOTE_GS2,NOTE_AS5,NOTE_E4,NOTE_C4,NOTE_E3,NOTE_C3,
  NOTE_AS5,NOTE_C2,NOTE_GS2,NOTE_D3,NOTE_C3,NOTE_C4,
  NOTE_G4,NOTE_G3,NOTE_E4,NOTE_E3,NOTE_C4,NOTE_AS5,
  NOTE_G4,NOTE_G3,NOTE_C4,NOTE_C3,NOTE_AS5,NOTE_F3,
  NOTE_D2,NOTE_E2,NOTE_GS2,NOTE_C4,NOTE_G3,NOTE_C3,
  NOTE_G4,NOTE_C4,NOTE_E3,NOTE_C4,NOTE_GS2,NOTE_AS5,
  NOTE_E4,NOTE_C3,NOTE_G4,NOTE_G3,NOTE_AS5,NOTE_C4,
  NOTE_G4,NOTE_C3,NOTE_G3,NOTE_D4,NOTE_D3,NOTE_G3,
  NOTE_G2,NOTE_AS5,NOTE_B3,NOTE_F3,NOTE_C2,NOTE_D4,
  NOTE_GS2,NOTE_G1,NOTE_B3,NOTE_G3,NOTE_AS5,NOTE_GS2,
  NOTE_C2,NOTE_C4,NOTE_G3,NOTE_C3,NOTE_G4,NOTE_B3,
  NOTE_AS5,NOTE_G4,NOTE_C4,NOTE_G3,NOTE_C3,NOTE_D4,
  NOTE_D3,NOTE_AS5,NOTE_F3,NOTE_GS2,NOTE_D2,NOTE_E2,
  NOTE_A3,NOTE_G1,NOTE_B3,NOTE_G3,NOTE_D3,NOTE_G4,
  NOTE_D4,NOTE_G2,NOTE_D4,NOTE_AS5,NOTE_C2,NOTE_GS2,
  NOTE_G3,NOTE_D3,NOTE_G4,NOTE_B3,NOTE_G1,NOTE_G2,
  NOTE_G3,NOTE_G2,NOTE_AS5,NOTE_G4,NOTE_B3,NOTE_G3,
  NOTE_D4,NOTE_D3,NOTE_F3,NOTE_C2,NOTE_AS5,NOTE_GS2,
  NOTE_C3,NOTE_E3,NOTE_A1,NOTE_C4,NOTE_C2,NOTE_AS5,
  NOTE_D3,NOTE_GS2,NOTE_A3,NOTE_C4,NOTE_E4,NOTE_E3,
  NOTE_AS5,NOTE_C3,NOTE_E4,NOTE_A3,NOTE_C4,NOTE_C4,
  NOTE_F3,NOTE_E2,NOTE_D2,NOTE_GS2,NOTE_AS5,NOTE_A1,
  NOTE_A3,NOTE_E4,NOTE_C4,NOTE_E3,NOTE_GS2,NOTE_E4,
  NOTE_AS5,NOTE_C4,NOTE_A3,NOTE_A4,NOTE_A2,NOTE_AS5,
  NOTE_A3,NOTE_E4,NOTE_C4,NOTE_G3,NOTE_F3,NOTE_A1,
  NOTE_C3,NOTE_C4,NOTE_A3,NOTE_GS2,NOTE_F3,NOTE_AS5,
  NOTE_C2,NOTE_F4,NOTE_C4,NOTE_F1,NOTE_F4,NOTE_F3,
  NOTE_C4,NOTE_A3,NOTE_GS2,NOTE_C2,NOTE_F3,NOTE_C4,
  NOTE_AS5,NOTE_F4,NOTE_A3,NOTE_F1,NOTE_F3,NOTE_E2,
  NOTE_GS2,NOTE_D2,NOTE_AS5,NOTE_C4,NOTE_F3,NOTE_A3,
  NOTE_F4,NOTE_F2,NOTE_A4,NOTE_C3,NOTE_A3,NOTE_C4,
  NOTE_AS5,NOTE_GS2,NOTE_F3,NOTE_F4,NOTE_A4,NOTE_F3,
  NOTE_A3,NOTE_F2,NOTE_C3,NOTE_AS5,NOTE_C4,NOTE_F4,
  NOTE_A3,NOTE_F3,NOTE_F2,NOTE_C3,NOTE_A4,NOTE_F1,
  NOTE_E4,NOTE_E3,NOTE_F3,NOTE_C2,NOTE_AS5,NOTE_GS2,
  NOTE_E4,NOTE_E3,NOTE_C4,NOTE_C3,NOTE_AS5,NOTE_C2,
  NOTE_GS2,NOTE_D3,NOTE_G4,NOTE_C4,NOTE_C3,NOTE_G3,
  NOTE_E4,NOTE_E3,NOTE_AS5,NOTE_G4,NOTE_G3,NOTE_C4,
  NOTE_C3,NOTE_AS5,NOTE_D2,NOTE_E2,NOTE_F3,NOTE_GS2,
  NOTE_C4,NOTE_G3,NOTE_C3,NOTE_G4,NOTE_E3,NOTE_C4,
  NOTE_GS2,NOTE_AS5,NOTE_E4,NOTE_C3,NOTE_G4,NOTE_G3,
  NOTE_AS5,NOTE_C4,NOTE_C3,NOTE_G3,NOTE_G4,NOTE_D3,
  NOTE_G2,NOTE_G3,NOTE_F2,NOTE_F3,NOTE_AS5,NOTE_B3,
  NOTE_D4,NOTE_GS2,NOTE_B3,NOTE_G3,NOTE_G2,NOTE_AS5,
  NOTE_GS2,NOTE_C2,NOTE_C4,NOTE_G3,NOTE_C3,NOTE_G4,
  NOTE_B3,NOTE_AS5,NOTE_G3,NOTE_C4,NOTE_G4,NOTE_C3,
  NOTE_G2,NOTE_AS5,NOTE_GS2,NOTE_D2,NOTE_E2,NOTE_F3,
  NOTE_A3,NOTE_B3,NOTE_G3,NOTE_D3,NOTE_G4,NOTE_D4,
  NOTE_A2,NOTE_D4,NOTE_AS5,NOTE_GS2,NOTE_D3,NOTE_G3,
  NOTE_G4,NOTE_B3,NOTE_G2,NOTE_G3,NOTE_G2,NOTE_AS5,
  NOTE_G4,NOTE_B3,NOTE_D3,NOTE_G3,NOTE_D4,NOTE_F3,
  NOTE_C2,NOTE_AS5,NOTE_GS2,NOTE_C3,NOTE_E3,NOTE_A1,
  NOTE_C4,NOTE_C2,NOTE_AS5,NOTE_D3,NOTE_GS2,NOTE_A3,
  NOTE_C4,NOTE_E4,NOTE_E3,NOTE_AS5,NOTE_C3,NOTE_E4,
  NOTE_A3,NOTE_C4,NOTE_C4,NOTE_F3,NOTE_E2,NOTE_D2,
  NOTE_GS2,NOTE_AS5,NOTE_A1,NOTE_A3,NOTE_E4,NOTE_C4,
  NOTE_E3,NOTE_GS2,NOTE_E4,NOTE_AS5,NOTE_C4,NOTE_A3,
  NOTE_A4,NOTE_A2,NOTE_AS5,NOTE_A3,NOTE_E4,NOTE_C4,
  NOTE_G3,NOTE_F3,NOTE_A1,NOTE_C3,NOTE_C4,NOTE_A3,
  NOTE_GS2,NOTE_F3,NOTE_AS5,NOTE_F4,NOTE_C4,NOTE_F1,
  NOTE_F4,NOTE_F3,NOTE_C4,NOTE_A3,NOTE_GS2,NOTE_C2,
  NOTE_F3,NOTE_C4,NOTE_AS5,NOTE_F4,NOTE_A3,NOTE_F1,
  NOTE_GS2,NOTE_E2,NOTE_D2,NOTE_AS5,NOTE_F3,NOTE_C4,
  NOTE_A3,NOTE_F4,NOTE_F2,NOTE_A4,NOTE_C3,NOTE_A3,
  NOTE_C4,NOTE_AS5,NOTE_GS2,NOTE_F3,NOTE_F4,NOTE_C5,
  NOTE_A4,NOTE_A3,NOTE_F3,NOTE_F2,NOTE_C3,NOTE_AS5,
  NOTE_A3,NOTE_F3,NOTE_F4,NOTE_C4,NOTE_F2,NOTE_C3,
  NOTE_A4,NOTE_F1,NOTE_E4,NOTE_E3,NOTE_C2,NOTE_AS5,
  NOTE_GS2,NOTE_F3,NOTE_E4,NOTE_C4,NOTE_E3,NOTE_C3,
  NOTE_AS5,NOTE_C2,NOTE_GS2,NOTE_D3,NOTE_G4,NOTE_C4,
  NOTE_C3,NOTE_G3,NOTE_E4,NOTE_E3,NOTE_AS5,NOTE_G4,
  NOTE_G3,NOTE_C4,NOTE_C3,NOTE_F3,NOTE_AS5,NOTE_D2,
  NOTE_E2,NOTE_GS2,NOTE_C4,NOTE_G3,NOTE_C3,NOTE_G4,
  NOTE_E3,NOTE_C4,NOTE_GS2,NOTE_AS5,NOTE_E4,NOTE_G3,
  NOTE_G4,NOTE_C3,NOTE_AS5,NOTE_C4,NOTE_G4,NOTE_C3,
  NOTE_G3,NOTE_C5,NOTE_D3,NOTE_G3,NOTE_G2,NOTE_F3,
  NOTE_AS5,NOTE_B3,NOTE_GS2,NOTE_D4,NOTE_C2,NOTE_G1,
  NOTE_B3,NOTE_G3,NOTE_AS5,NOTE_GS2,NOTE_C2,NOTE_G3,
  NOTE_C3,NOTE_C4,NOTE_G4,NOTE_C5,NOTE_B3,NOTE_AS5,
  NOTE_C4,NOTE_G3,NOTE_C3,NOTE_G4,NOTE_AS5,NOTE_F3,
  NOTE_GS2,NOTE_D2,NOTE_E2,NOTE_A3,NOTE_G1,NOTE_B3,
  NOTE_G3,NOTE_D3,NOTE_G4,NOTE_D4,NOTE_G2,NOTE_D4,
  NOTE_AS5,NOTE_GS2,NOTE_G3,NOTE_D3,NOTE_G4,NOTE_B3,
  NOTE_G1,NOTE_G2,NOTE_G3,NOTE_G2,NOTE_AS5,NOTE_G4,
  NOTE_B3,NOTE_G3,NOTE_D4,NOTE_D3,NOTE_GS2,NOTE_C2,
  NOTE_AS5,NOTE_F3,NOTE_C3,NOTE_E3,NOTE_A1,NOTE_C4,
  NOTE_C2,NOTE_AS5,NOTE_D3,NOTE_GS2,NOTE_A3,NOTE_E4,
  NOTE_C4,NOTE_E3,NOTE_AS5,NOTE_C3,NOTE_E4,NOTE_A3,
  NOTE_C4,NOTE_F5,NOTE_C4,NOTE_D2,NOTE_E2,NOTE_F3,
  NOTE_AS5,NOTE_GS2,NOTE_A1,NOTE_A3,NOTE_E4,NOTE_C4,
  NOTE_E3,NOTE_GS2,NOTE_E4,NOTE_AS5,NOTE_C4,NOTE_A3,
  NOTE_A4,NOTE_A2,NOTE_AS5,NOTE_A3,NOTE_E4,NOTE_C4,
  NOTE_G3,NOTE_F3,NOTE_A1,NOTE_C3,NOTE_F5,NOTE_A3,
  NOTE_C4,NOTE_GS2,NOTE_F3,NOTE_C2,NOTE_AS5,NOTE_C4,
  NOTE_F4,NOTE_F1,NOTE_F4,NOTE_F3,NOTE_C4,NOTE_A3,
  NOTE_GS2,NOTE_C2,NOTE_F3,NOTE_C4,NOTE_AS5,NOTE_F4,
  NOTE_A3,NOTE_F1,NOTE_F5,NOTE_F3,NOTE_D2,NOTE_E2,
  NOTE_GS2,NOTE_AS5,NOTE_C4,NOTE_F3,NOTE_A3,NOTE_F4,
  NOTE_F2,NOTE_A4,NOTE_C3,NOTE_A3,NOTE_C4,NOTE_AS5,
  NOTE_GS2,NOTE_F3,NOTE_F4,NOTE_A4,NOTE_F3,NOTE_A3,
  NOTE_F2,NOTE_C3,NOTE_AS5,NOTE_C4,NOTE_F4,NOTE_A3,
  NOTE_F3,NOTE_F2,NOTE_C3,NOTE_A4,NOTE_F1,NOTE_E4,
  NOTE_F5,NOTE_E3,NOTE_F3,NOTE_C2,NOTE_GS2,NOTE_AS5,
  NOTE_E4,NOTE_C4,NOTE_E3,NOTE_C3,NOTE_C2,NOTE_F5,
  NOTE_C2,NOTE_AS5,NOTE_GS2,NOTE_D3,NOTE_C4,NOTE_C3,
  NOTE_G4,NOTE_G3,NOTE_E4,NOTE_E3,NOTE_AS5,NOTE_G4,
  NOTE_G3,NOTE_C4,NOTE_C3,NOTE_F5,NOTE_AS5,NOTE_F3,
  NOTE_D2,NOTE_E2,NOTE_AS2,NOTE_GS2,NOTE_C4,NOTE_G3,
  NOTE_C3,NOTE_G4,NOTE_F5,NOTE_E3,NOTE_C4,NOTE_GS2,
  NOTE_AS5,NOTE_E4,NOTE_G3,NOTE_G4,NOTE_C3,NOTE_AS5,
  NOTE_C4,NOTE_C3,NOTE_G3,NOTE_G4,NOTE_F2,NOTE_F5,
  NOTE_D3,NOTE_G2,NOTE_G3,NOTE_AS5,NOTE_B3,NOTE_F3,
  NOTE_D4,NOTE_GS2,NOTE_G2,NOTE_B3,NOTE_G3,NOTE_F5,
  NOTE_AS5,NOTE_GS2,NOTE_C2,NOTE_C4,NOTE_G3,NOTE_C3,
  NOTE_G4,NOTE_B3,NOTE_AS5,NOTE_G3,NOTE_C4,NOTE_G4,
  NOTE_C3,NOTE_G2,NOTE_AS5,NOTE_F3,NOTE_GS2,NOTE_C3,
  NOTE_C2,NOTE_C3,NOTE_B3,NOTE_G3,NOTE_D3,NOTE_G4,
  NOTE_D4,NOTE_F1,NOTE_D4,NOTE_AS5,NOTE_A2,NOTE_GS2,
  NOTE_G3,NOTE_D3,NOTE_G4,NOTE_B3,NOTE_G2,NOTE_G3,
  NOTE_G2,NOTE_AS5,NOTE_G4,NOTE_A2,NOTE_G3,NOTE_D3,
  NOTE_B3,NOTE_D4,NOTE_E2,NOTE_D2,NOTE_G1,NOTE_GS2,
  NOTE_C2,NOTE_F2,NOTE_D2,NOTE_E2,NOTE_C3,NOTE_E3,
  NOTE_G4,NOTE_GS2,NOTE_D3,NOTE_E3,NOTE_C4,NOTE_A3,
  NOTE_G4,NOTE_GS2,NOTE_A3,NOTE_E4,NOTE_C4,NOTE_A1,
  NOTE_GS2,NOTE_C4,NOTE_A3,NOTE_A2,NOTE_E3,NOTE_A4,
  NOTE_C4,NOTE_F3,NOTE_GS2,NOTE_G4,NOTE_G3,NOTE_F3,
  NOTE_C4,NOTE_F3,NOTE_GS2,NOTE_F3,NOTE_C4,NOTE_GS2,
  NOTE_C4,NOTE_F3,NOTE_A3,NOTE_F4,NOTE_F2,NOTE_A4,
  NOTE_C3,NOTE_C4,NOTE_A3,NOTE_GS2,NOTE_F3,NOTE_A4,
  NOTE_F3,NOTE_A3,NOTE_F2,NOTE_C3,NOTE_F2,NOTE_F3,
  NOTE_C3,NOTE_A4,NOTE_A3,NOTE_C4,NOTE_F4,NOTE_GS2,
  NOTE_E4,NOTE_C4,NOTE_C3,NOTE_GS2,NOTE_D3,NOTE_E3,
  NOTE_F4,NOTE_G3,NOTE_GS2,NOTE_C4,NOTE_G3,NOTE_C3,
  NOTE_G4,NOTE_GS2,NOTE_G3,NOTE_G5,NOTE_G4,NOTE_C4,
  NOTE_E3,NOTE_G3,NOTE_G4,NOTE_G2,NOTE_GS2,NOTE_B3,
  NOTE_B3,NOTE_G3,NOTE_GS2,NOTE_D4,NOTE_B3,NOTE_G3,
  NOTE_GS2,NOTE_B3,NOTE_G3,NOTE_D3,NOTE_G4,NOTE_G2,
  NOTE_D4,NOTE_GS2,NOTE_B3,NOTE_G3,NOTE_G4,NOTE_G2,
  NOTE_G3,NOTE_G2,NOTE_G4,NOTE_B3,NOTE_G3,NOTE_GS2,
  NOTE_C3,NOTE_E3,NOTE_GS2,NOTE_D3,NOTE_E3,NOTE_C4,
  NOTE_A3,NOTE_E4,NOTE_GS2,NOTE_A4,NOTE_A3,NOTE_E4,
  NOTE_C4,NOTE_GS2,NOTE_C4,NOTE_A3,NOTE_G4,NOTE_E3,
  NOTE_A2,NOTE_C4,NOTE_F3,NOTE_GS2,NOTE_G3,NOTE_F3,
  NOTE_C4,NOTE_F3,NOTE_GS2,NOTE_F3,NOTE_G4,NOTE_C4,
  NOTE_GS2,NOTE_C4,NOTE_F3,NOTE_A3,NOTE_F4,NOTE_F2,
  NOTE_A4,NOTE_C3,NOTE_C4,NOTE_A3,NOTE_GS2,NOTE_F3,
  NOTE_E4,NOTE_A4,NOTE_F3,NOTE_A3,NOTE_F2,NOTE_C3,
  NOTE_F2,NOTE_F3,NOTE_A3,NOTE_C4,NOTE_A4,NOTE_C3,
  NOTE_GS2,NOTE_F4,NOTE_C4,NOTE_C3,NOTE_GS2,NOTE_D3,
  NOTE_E3,NOTE_G3,NOTE_GS2,NOTE_F4,NOTE_C4,NOTE_G3,
  NOTE_C3,NOTE_G4,NOTE_GS2,NOTE_G3,NOTE_G4,NOTE_C4,
  NOTE_E3,NOTE_G3,NOTE_D4,NOTE_G4,NOTE_G2,NOTE_GS2,
  NOTE_B3,NOTE_B3,NOTE_G3,NOTE_GS2,NOTE_B3,NOTE_G3,
  NOTE_GS2,NOTE_B3,NOTE_G3,NOTE_D3,NOTE_G4,NOTE_G2,
  NOTE_D4,NOTE_GS2,NOTE_B3,NOTE_G3,NOTE_G4,NOTE_G2,
  NOTE_G3,NOTE_G2,NOTE_G4,NOTE_B3,NOTE_G3,NOTE_GS2,
  NOTE_C3,NOTE_E3,NOTE_C4,NOTE_GS2,NOTE_D3,NOTE_E4,
  NOTE_E3,NOTE_D4,NOTE_C3,NOTE_C4,NOTE_A3,NOTE_GS2,
  NOTE_A3,NOTE_E4,NOTE_C4,NOTE_C4,NOTE_E3,NOTE_D4,
  NOTE_GS2,NOTE_C4,NOTE_A3,NOTE_A4,NOTE_A2,NOTE_C4,
  NOTE_F3,NOTE_C3,NOTE_A3,NOTE_GS2,NOTE_E4,NOTE_G3,
  NOTE_F3,NOTE_C4,NOTE_F3,NOTE_GS2,NOTE_F3,NOTE_C4,
  NOTE_GS2,NOTE_C4,NOTE_F3,NOTE_A3,NOTE_F4,NOTE_F2,
  NOTE_A4,NOTE_C3,NOTE_C4,NOTE_A3,NOTE_GS2,NOTE_F3,
  NOTE_A4,NOTE_A3,NOTE_F3,NOTE_F2,NOTE_C3,NOTE_F2,
  NOTE_F3,NOTE_A3,NOTE_C3,NOTE_C4,NOTE_A4,NOTE_E4,
  NOTE_E3,NOTE_GS2,NOTE_E4,NOTE_E3,NOTE_C4,NOTE_C3,
  NOTE_GS2,NOTE_D3,NOTE_E4,NOTE_E3,NOTE_C4,NOTE_G3,
  NOTE_GS2,NOTE_C4,NOTE_G3,NOTE_C3,NOTE_G4,NOTE_E3,
  NOTE_C4,NOTE_E4,NOTE_GS2,NOTE_G3,NOTE_G4,NOTE_G3,
  NOTE_D3,NOTE_G2,NOTE_G4,NOTE_B3,NOTE_D4,NOTE_GS2,
  NOTE_B3,NOTE_G3,NOTE_GS2,NOTE_B3,NOTE_G3,NOTE_GS2,
  NOTE_B3,NOTE_G3,NOTE_D3,NOTE_G4,NOTE_G2,NOTE_D4,
  NOTE_GS2,NOTE_B3,NOTE_G3,NOTE_G4,NOTE_G2,NOTE_G3,
  NOTE_G2,NOTE_G4,NOTE_B3,NOTE_G3,NOTE_D4,NOTE_D3,
  NOTE_GS2,NOTE_D4,NOTE_C3,NOTE_E3,NOTE_C4,NOTE_GS2,
  NOTE_D3,NOTE_E4,NOTE_E3,NOTE_C3,NOTE_C4,NOTE_A3,
  NOTE_GS2,NOTE_A3,NOTE_E4,NOTE_D4,NOTE_C4,NOTE_C4,
  NOTE_E3,NOTE_E4,NOTE_GS2,NOTE_C4,NOTE_A3,NOTE_A4,
  NOTE_A2,NOTE_C4,NOTE_F3,NOTE_C3,NOTE_A3,NOTE_GS2,
  NOTE_G3,NOTE_F3,NOTE_C4,NOTE_F3,NOTE_D4,NOTE_GS2,
  NOTE_F3,NOTE_C4,NOTE_GS2,NOTE_C4,NOTE_F3,NOTE_A3,
  NOTE_F4,NOTE_F2,NOTE_A4,NOTE_C3,NOTE_A3,NOTE_C4,
  NOTE_GS2,NOTE_D2,NOTE_E2,NOTE_F3,NOTE_D2,NOTE_E2,
  NOTE_A4,NOTE_A3,NOTE_F3,NOTE_F2,NOTE_C3,NOTE_F2,
  NOTE_F3,NOTE_D2,NOTE_E2,NOTE_A3,NOTE_C3,NOTE_C4,
  NOTE_A4,NOTE_D2,NOTE_E2,NOTE_E4,NOTE_E3,NOTE_GS2,
  NOTE_D3,NOTE_D2,NOTE_E2,NOTE_E4,NOTE_E3,NOTE_C4,
  NOTE_C3,NOTE_GS2,NOTE_D2,NOTE_E2,NOTE_D3,NOTE_D2,
  NOTE_E2,NOTE_E4,NOTE_E3,NOTE_C4,NOTE_E2,NOTE_D2,
  NOTE_D2,NOTE_E2,NOTE_G3,NOTE_D2,NOTE_E2,NOTE_AS2,
  NOTE_GS2,NOTE_D2,NOTE_E2,NOTE_C4,NOTE_D2,NOTE_E2,
  NOTE_G3,NOTE_C3,NOTE_G4,NOTE_D2,NOTE_E2,NOTE_E3,
  NOTE_C4,NOTE_E4,NOTE_GS2,NOTE_D2,NOTE_E2,NOTE_C3,
  NOTE_G3,NOTE_D2,NOTE_E2,NOTE_G4,NOTE_D2,NOTE_E2,
  NOTE_D2,NOTE_E2,NOTE_G3,NOTE_D3,NOTE_G4,NOTE_C4,
  NOTE_G2,NOTE_G3,NOTE_B3,NOTE_D4,NOTE_GS2,NOTE_E2,
  NOTE_D2,NOTE_D2,NOTE_E2,NOTE_D2,NOTE_E2,NOTE_B3,
  NOTE_G3,NOTE_D2,NOTE_E2,NOTE_GS2,NOTE_A2,NOTE_D2,
  NOTE_E2,NOTE_B3,NOTE_E2,NOTE_D2,NOTE_G3,NOTE_D2,
  NOTE_E2,NOTE_D2,NOTE_E2,NOTE_A2,NOTE_GS2,NOTE_D2,
  NOTE_E2,NOTE_D2,NOTE_E2,NOTE_E4,NOTE_A2,NOTE_B3,
  NOTE_G3,NOTE_D3,NOTE_G4,NOTE_G3,NOTE_B3,NOTE_G2,
  NOTE_D4,NOTE_G2,NOTE_C2,NOTE_GS2,NOTE_B3,NOTE_G3,
  NOTE_G4,NOTE_G3,NOTE_G2,NOTE_F2,NOTE_G4,NOTE_B3,
  NOTE_G3,NOTE_D4,NOTE_D3,NOTE_GS2,NOTE_C2,NOTE_AS5,
  NOTE_CS3,NOTE_FS3,NOTE_C3,NOTE_E3,NOTE_C4,NOTE_C2,
  NOTE_GS2,NOTE_D3,NOTE_FS3,NOTE_AS5,NOTE_C4,NOTE_E4,
  NOTE_A3,NOTE_E3,NOTE_AS5,NOTE_C3,NOTE_C4,NOTE_E4,
  NOTE_A3,NOTE_A1,NOTE_G3,NOTE_C4,NOTE_E2,NOTE_FS3,
  NOTE_D2,NOTE_GS2,NOTE_AS5,NOTE_A3,NOTE_E4,NOTE_C4,
  NOTE_E3,NOTE_FS3,NOTE_E4,NOTE_AS5,NOTE_GS2,NOTE_C4,
  NOTE_A3,NOTE_A1,NOTE_A2,NOTE_A4,NOTE_AS5,NOTE_G3,
  NOTE_A3,NOTE_C4,NOTE_E4,NOTE_F3,NOTE_C3,NOTE_C4,
  NOTE_A3,NOTE_GS2,NOTE_FS3,NOTE_AS5,NOTE_F4,NOTE_C4,
  NOTE_F3,NOTE_F3,NOTE_F4,NOTE_C4,NOTE_A3,NOTE_FS3,
  NOTE_GS2,NOTE_C2,NOTE_F3,NOTE_F1,NOTE_C4,NOTE_AS5,
  NOTE_F4,NOTE_A3,NOTE_FS3,NOTE_E2,NOTE_GS2,NOTE_D2,
  NOTE_AS5,NOTE_C4,NOTE_F3,NOTE_A3,NOTE_F4,NOTE_F2,
  NOTE_A4,NOTE_C3,NOTE_A3,NOTE_FS3,NOTE_C4,NOTE_AS5,
  NOTE_GS2,NOTE_F3,NOTE_F4,NOTE_F1,NOTE_A4,NOTE_F3,
  NOTE_A3,NOTE_C3,NOTE_F2,NOTE_AS5,NOTE_A3,NOTE_C4,
  NOTE_F4,NOTE_F3,NOTE_F2,NOTE_C3,NOTE_A4,NOTE_E4,
  NOTE_E3,NOTE_C4,NOTE_AS2,NOTE_C2,NOTE_FS3,NOTE_AS5,
  NOTE_GS2,NOTE_C4,NOTE_E4,NOTE_E3,NOTE_G3,NOTE_C3,
  NOTE_FS3,NOTE_AS5,NOTE_C2,NOTE_GS2,NOTE_D3,NOTE_C3,
  NOTE_G4,NOTE_G3,NOTE_C4,NOTE_E3,NOTE_E4,NOTE_C4,
  NOTE_E3,NOTE_AS5,NOTE_C4,NOTE_C3,NOTE_G4,NOTE_G3,
  NOTE_C4,NOTE_FS3,NOTE_AS5,NOTE_D2,NOTE_E2,NOTE_E3,
  NOTE_G3,NOTE_AS2,NOTE_GS2,NOTE_G3,NOTE_C3,NOTE_G4,
  NOTE_C4,NOTE_E2,NOTE_D4,NOTE_B3,NOTE_C4,NOTE_GS2,
  NOTE_E4,NOTE_FS3,NOTE_AS5,NOTE_G3,NOTE_G4,NOTE_C3,
  NOTE_F2,NOTE_C4,NOTE_AS5,NOTE_G4,NOTE_G3,NOTE_C3,
  NOTE_D3,NOTE_G2,NOTE_G3,NOTE_AS5,NOTE_FS3,NOTE_B3,
  NOTE_D4,NOTE_C2,NOTE_GS2,NOTE_B3,NOTE_G3,NOTE_FS3,
  NOTE_AS5,NOTE_GS2,NOTE_C2,NOTE_C4,NOTE_G4,NOTE_C3,
  NOTE_G3,NOTE_B3,NOTE_AS5,NOTE_G4,NOTE_C3,NOTE_G3,
  NOTE_C4,NOTE_D3,NOTE_D4,NOTE_G2,NOTE_D4,NOTE_AS5,
  NOTE_FS3,NOTE_GS2,NOTE_D2,NOTE_E2,NOTE_C2,NOTE_B3,
  NOTE_G3,NOTE_D3,NOTE_G4,NOTE_D4,NOTE_G2,NOTE_D4,
  NOTE_AS5,NOTE_FS3,NOTE_G2,NOTE_GS2,NOTE_D3,NOTE_G3,
  NOTE_G4,NOTE_B3,NOTE_G3,NOTE_G2,NOTE_G4,NOTE_AS5,
  NOTE_G3,NOTE_B3,NOTE_D3,NOTE_D4,NOTE_A2,NOTE_FS3,
  NOTE_AS5,NOTE_C2,NOTE_AS2,NOTE_GS2,NOTE_C3,NOTE_E3,
  NOTE_E4,NOTE_C4,NOTE_FS3,NOTE_C2,NOTE_D3,NOTE_AS5,
  NOTE_GS2,NOTE_E4,NOTE_A3,NOTE_C4,NOTE_E3,NOTE_AS5,
  NOTE_C3,NOTE_C4,NOTE_E4,NOTE_A3,NOTE_D4,NOTE_A1,
  NOTE_C4,NOTE_E2,NOTE_AS2,NOTE_D2,NOTE_FS3,NOTE_GS2,
  NOTE_C2,NOTE_AS5,NOTE_C4,NOTE_A3,NOTE_E4,NOTE_C4,
  NOTE_E3,NOTE_FS3,NOTE_E4,NOTE_AS5,NOTE_GS2,NOTE_A3,
  NOTE_C4,NOTE_A1,NOTE_A4,NOTE_A2,NOTE_AS5,NOTE_A3,
  NOTE_E4,NOTE_C4,NOTE_G3,NOTE_F3,NOTE_C3,NOTE_A3,
  NOTE_C4,NOTE_GS2,NOTE_AS5,NOTE_FS3,NOTE_F3,NOTE_F4,
  NOTE_C4,NOTE_F3,NOTE_A3,NOTE_C4,NOTE_F4,NOTE_FS3,
  NOTE_GS2,NOTE_C2,NOTE_F3,NOTE_F1,NOTE_C4,NOTE_AS5,
  NOTE_F4,NOTE_A3,NOTE_FS3,NOTE_E2,NOTE_GS2,NOTE_D2,
  NOTE_AS5,NOTE_C4,NOTE_F3,NOTE_A3,NOTE_F4,NOTE_F2,
  NOTE_A4,NOTE_A3,NOTE_C4,NOTE_C3,NOTE_A3,NOTE_F3,
  NOTE_A3,NOTE_C4,NOTE_FS3,NOTE_AS5,NOTE_GS2,NOTE_F3,
  NOTE_F4,NOTE_F1,NOTE_A4,NOTE_F3,NOTE_A3,NOTE_F2,
  NOTE_C3,NOTE_AS5,NOTE_C4,NOTE_F4,NOTE_A3,NOTE_F3,
  NOTE_F2,NOTE_A4,NOTE_C3,NOTE_E4,NOTE_C4,NOTE_E3,
  NOTE_A3,NOTE_A3,NOTE_C2,NOTE_AS2,NOTE_FS3,NOTE_AS5,
  NOTE_GS2,NOTE_C4,NOTE_E3,NOTE_E4,NOTE_E3,NOTE_C4,
  NOTE_C3,NOTE_AS5,NOTE_C2,NOTE_FS3,NOTE_GS2,NOTE_D3,
  NOTE_G3,NOTE_C3,NOTE_G4,NOTE_C4,NOTE_E4,NOTE_E3,
  NOTE_AS5,NOTE_C4,NOTE_C3,NOTE_G4,NOTE_G3,NOTE_A3,
  NOTE_AS5,NOTE_D2,NOTE_E2,NOTE_FS3,NOTE_AS2,NOTE_GS2,
  NOTE_C4,NOTE_G3,NOTE_C3,NOTE_G4,NOTE_A3,NOTE_E3,
  NOTE_E2,NOTE_E3,NOTE_C4,NOTE_GS2,NOTE_E4,NOTE_AS5,
  NOTE_C2,NOTE_FS3,NOTE_G3,NOTE_G4,NOTE_C3,NOTE_F2,
  NOTE_AS5,NOTE_C4,NOTE_G3,NOTE_G4,NOTE_C3,NOTE_D4,
  NOTE_A3,NOTE_D3,NOTE_G2,NOTE_G3,NOTE_FS3,NOTE_B3,
  NOTE_AS5,NOTE_GS2,NOTE_C2,NOTE_D4,NOTE_G3,NOTE_B3,
  NOTE_G3,NOTE_FS3,NOTE_AS5,NOTE_GS2,NOTE_C2,NOTE_C4,
  NOTE_G4,NOTE_C3,NOTE_G3,NOTE_B3,NOTE_D3,NOTE_AS5,
  NOTE_G3,NOTE_G4,NOTE_C4,NOTE_C3,NOTE_G2,NOTE_AS5,
  NOTE_FS3,NOTE_GS2,NOTE_D2,NOTE_E2,NOTE_B3,NOTE_G3,
  NOTE_D3,NOTE_G4,NOTE_D4,NOTE_G2,NOTE_D4,NOTE_AS5,
  NOTE_FS3,NOTE_G2,NOTE_GS2,NOTE_G3,NOTE_D3,NOTE_G4,
  NOTE_B3,NOTE_G3,NOTE_G2,NOTE_G4,NOTE_AS5,NOTE_D4,
  NOTE_G3,NOTE_B3,NOTE_D3,NOTE_A2,NOTE_FS3,NOTE_GS2,
  NOTE_AS2,NOTE_C2,NOTE_AS5,NOTE_C3,NOTE_E3,NOTE_C4,
  NOTE_E4,NOTE_C2,NOTE_FS3,NOTE_AS5,NOTE_GS2,NOTE_D3,
  NOTE_E4,NOTE_A3,NOTE_C4,NOTE_E3,NOTE_AS5,NOTE_C3,
  NOTE_C4,NOTE_E4,NOTE_A3,NOTE_A1,NOTE_G3,NOTE_D4,
  NOTE_B3,NOTE_C4,NOTE_FS3,NOTE_AS2,NOTE_D2,NOTE_E2,
  NOTE_AS5,NOTE_GS2,NOTE_A3,NOTE_E4,NOTE_C4,NOTE_C4,
  NOTE_E3,NOTE_FS3,NOTE_E4,NOTE_AS5,NOTE_GS2,NOTE_C4,
  NOTE_A3,NOTE_A1,NOTE_A4,NOTE_A2,NOTE_AS5,NOTE_A3,
  NOTE_E4,NOTE_C4,NOTE_G3,NOTE_F3,NOTE_C3,NOTE_C4,
  NOTE_A3,NOTE_FS3,NOTE_GS2,NOTE_AS5,NOTE_F3,NOTE_F4,
  NOTE_C4,NOTE_F3,NOTE_F4,NOTE_C4,NOTE_A3,NOTE_FS3,
  NOTE_GS2,NOTE_C2,NOTE_F3,NOTE_F1,NOTE_C4,NOTE_AS5,
  NOTE_F4,NOTE_A3,NOTE_FS3,NOTE_E2,NOTE_GS2,NOTE_D2,
  NOTE_AS5,NOTE_C4,NOTE_F3,NOTE_A3,NOTE_F4,NOTE_F2,
  NOTE_A4,NOTE_C3,NOTE_A3,NOTE_FS3,NOTE_C4,NOTE_AS5,
  NOTE_GS2,NOTE_F3,NOTE_F4,NOTE_F1,NOTE_A4,NOTE_F3,
  NOTE_A3,NOTE_C3,NOTE_F2,NOTE_AS5,NOTE_A3,NOTE_C4,
  NOTE_F4,NOTE_F3,NOTE_F2,NOTE_C3,NOTE_A4,NOTE_E4,
  NOTE_E3,NOTE_C4,NOTE_AS2,NOTE_C2,NOTE_FS3,NOTE_AS5,
  NOTE_GS2,NOTE_C4,NOTE_E4,NOTE_E3,NOTE_G3,NOTE_C3,
  NOTE_FS3,NOTE_AS5,NOTE_C2,NOTE_GS2,NOTE_D3,NOTE_C3,
  NOTE_G4,NOTE_G3,NOTE_C4,NOTE_E3,NOTE_E4,NOTE_C4,
  NOTE_E3,NOTE_AS5,NOTE_C4,NOTE_G4,NOTE_C3,NOTE_G3,
  NOTE_C4,NOTE_FS3,NOTE_AS5,NOTE_E3,NOTE_D2,NOTE_E2,
  NOTE_G3,NOTE_AS2,NOTE_GS2,NOTE_G3,NOTE_C3,NOTE_G4,
  NOTE_C4,NOTE_E2,NOTE_D4,NOTE_C4,NOTE_B3,NOTE_GS2,
  NOTE_E4,NOTE_FS3,NOTE_AS5,NOTE_G3,NOTE_G4,NOTE_C3,
  NOTE_F2,NOTE_AS5,NOTE_C4,NOTE_G4,NOTE_G3,NOTE_C3,
  NOTE_D3,NOTE_G2,NOTE_G3,NOTE_FS3,NOTE_AS5,NOTE_B3,
  NOTE_GS2,NOTE_D4,NOTE_B3,NOTE_G3,NOTE_C4,NOTE_FS3,
  NOTE_AS5,NOTE_GS2,NOTE_C2,NOTE_G4,NOTE_C4,NOTE_G3,
  NOTE_C3,NOTE_B3,NOTE_AS5,NOTE_C4,NOTE_G4,NOTE_C3,
  NOTE_G3,NOTE_G2,NOTE_AS5,NOTE_FS3,NOTE_GS2,NOTE_D2,
  NOTE_E2,NOTE_B3,NOTE_G3,NOTE_D3,NOTE_G4,NOTE_D4,
  NOTE_G2,NOTE_D4,NOTE_G2,NOTE_AS5,NOTE_FS3,NOTE_GS2,
  NOTE_D3,NOTE_G3,NOTE_G4,NOTE_B3,NOTE_G3,NOTE_G2,
  NOTE_G4,NOTE_AS5,NOTE_G3,NOTE_B3,NOTE_D3,NOTE_D4,
  NOTE_A2,NOTE_FS3,NOTE_AS5,NOTE_C2,NOTE_AS2,NOTE_GS2,
  NOTE_C3,NOTE_E3,NOTE_E4,NOTE_C4,NOTE_FS3,NOTE_C2,
  NOTE_D3,NOTE_AS5,NOTE_GS2,NOTE_E4,NOTE_A3,NOTE_C4,
  NOTE_E3,NOTE_AS5,NOTE_C3,NOTE_C4,NOTE_E4,NOTE_A3,
  NOTE_D4,NOTE_A1,NOTE_C4,NOTE_AS2,NOTE_E2,NOTE_D2,
  NOTE_FS3,NOTE_AS5,NOTE_GS2,NOTE_C4,NOTE_A3,NOTE_E4,
  NOTE_C4,NOTE_E3,NOTE_FS3,NOTE_E4,NOTE_AS5,NOTE_GS2,
  NOTE_C4,NOTE_A3,NOTE_A1,NOTE_A2,NOTE_A4,NOTE_AS5,
  NOTE_A3,NOTE_E4,NOTE_C4,NOTE_G3,NOTE_F3,NOTE_C3,
  NOTE_A3,NOTE_C4,NOTE_GS2,NOTE_AS5,NOTE_FS3,NOTE_F3,
  NOTE_F4,NOTE_C4,NOTE_F3,NOTE_F4,NOTE_C4,NOTE_A3,
  NOTE_FS3,NOTE_GS2,NOTE_C2,NOTE_F3,NOTE_F1,NOTE_C4,
  NOTE_AS5,NOTE_F4,NOTE_A3,NOTE_FS3,NOTE_E2,NOTE_GS2,
  NOTE_D2,NOTE_AS5,NOTE_C2,NOTE_C4,NOTE_F3,NOTE_A3,
  NOTE_F4,NOTE_F2,NOTE_A3,NOTE_A4,NOTE_C4,NOTE_A3,
  NOTE_C3,NOTE_F3,NOTE_A3,NOTE_C4,NOTE_FS3,NOTE_GS2,
  NOTE_AS5,NOTE_F3,NOTE_F4,NOTE_F1,NOTE_A4,NOTE_A3,
  NOTE_F3,NOTE_F2,NOTE_C3,NOTE_AS5,NOTE_F4,NOTE_A3,
  NOTE_C4,NOTE_F3,NOTE_F2,NOTE_A4,NOTE_C3,NOTE_E4,
  NOTE_C4,NOTE_E3,NOTE_A3,NOTE_AS2,NOTE_C2,NOTE_FS3,
  NOTE_AS5,NOTE_GS2,NOTE_E4,NOTE_C4,NOTE_E3,NOTE_C3,
  NOTE_E2,NOTE_AS5,NOTE_C2,NOTE_FS3,NOTE_GS2,NOTE_D3,
  NOTE_C4,NOTE_G3,NOTE_AS2,NOTE_G4,NOTE_C3,NOTE_E4,
  NOTE_E3,NOTE_C4,NOTE_AS5,NOTE_G4,NOTE_C4,NOTE_G3,
  NOTE_C3,NOTE_E2,NOTE_AS5,NOTE_D2,NOTE_FS3,NOTE_AS2,
  NOTE_GS2,NOTE_C4,NOTE_G3,NOTE_C3,NOTE_G4,NOTE_E3,
  NOTE_C4,NOTE_E4,NOTE_GS2,NOTE_AS5,NOTE_FS3,NOTE_E2,
  NOTE_G3,NOTE_G4,NOTE_C3,NOTE_AS2,NOTE_F2,NOTE_AS5,
  NOTE_C4,NOTE_G4,NOTE_G3,NOTE_C3,NOTE_D4,NOTE_D3,
  NOTE_G3,NOTE_G2,NOTE_FS3,NOTE_AS5,NOTE_B3,NOTE_C2,
  NOTE_GS2,NOTE_C2,NOTE_B3,NOTE_G3,NOTE_FS3,NOTE_GS2,
  NOTE_AS5,NOTE_C2,NOTE_C3,NOTE_G4,NOTE_C4,NOTE_G3,
  NOTE_B3,NOTE_AS5,NOTE_C2,NOTE_G3,NOTE_C4,NOTE_G4,
  NOTE_C3,NOTE_G2,NOTE_D3,NOTE_E4,NOTE_AS5,NOTE_FS3,
  NOTE_GS2,NOTE_D2,NOTE_E2,NOTE_C2,NOTE_E4,NOTE_C2,
  NOTE_B3,NOTE_G3,NOTE_D3,NOTE_G4,NOTE_D4,NOTE_G2,
  NOTE_D4,NOTE_AS5,NOTE_G2,NOTE_FS3,NOTE_C2,NOTE_GS2,
  NOTE_D3,NOTE_G3,NOTE_G4,NOTE_B3,NOTE_G3,NOTE_G2,
  NOTE_G4,NOTE_AS5,NOTE_C2,NOTE_B3,NOTE_G3,NOTE_D3,
  NOTE_D4,NOTE_A2,NOTE_FS3,NOTE_AS5,NOTE_F3,NOTE_CS3,
  NOTE_GS2,NOTE_C2,NOTE_C3,NOTE_E3,NOTE_C4,NOTE_E4,
  NOTE_C2,NOTE_GS2,NOTE_D3,NOTE_FS3,NOTE_AS5,NOTE_C4,
  NOTE_E4,NOTE_A3,NOTE_E3,NOTE_AS5,NOTE_C3,NOTE_C4,
  NOTE_E4,NOTE_A3,NOTE_A1,NOTE_G3,NOTE_B3,NOTE_D4,
  NOTE_C4,NOTE_FS3,NOTE_D2,NOTE_E2,NOTE_F3,NOTE_GS2,
  NOTE_AS5,NOTE_A3,NOTE_E4,NOTE_C4,NOTE_E3,NOTE_FS3,
  NOTE_AS5,NOTE_E4,NOTE_GS2,NOTE_C4,NOTE_A3,NOTE_A1,
  NOTE_A2,NOTE_A4,NOTE_AS5,NOTE_A3,NOTE_E4,NOTE_C4,
  NOTE_G3,NOTE_F3,NOTE_C3,NOTE_C4,NOTE_A3,NOTE_GS2,
  NOTE_FS3,NOTE_F3,NOTE_AS5,NOTE_C4,NOTE_F4,NOTE_F3,
  NOTE_C4,NOTE_A3,NOTE_F4,NOTE_FS3,NOTE_GS2,NOTE_C2,
  NOTE_F3,NOTE_F1,NOTE_C4,NOTE_AS5,NOTE_F4,NOTE_A3,
  NOTE_FS3,NOTE_D6,NOTE_F3,NOTE_E2,NOTE_GS2,NOTE_D2,
  NOTE_AS5,NOTE_C4,NOTE_F3,NOTE_A3,NOTE_F4,NOTE_F2,
  NOTE_A4,NOTE_C3,NOTE_A3,NOTE_FS3,NOTE_C4,NOTE_AS5,
  NOTE_GS2,NOTE_F3,NOTE_F4,NOTE_F1,NOTE_A4,NOTE_A3,
  NOTE_F3,NOTE_C3,NOTE_F2,NOTE_AS5,NOTE_A3,NOTE_C4,
  NOTE_F4,NOTE_F3,NOTE_F2,NOTE_C3,NOTE_A4,NOTE_E4,
  NOTE_C4,NOTE_E3,NOTE_F3,NOTE_C2,NOTE_AS2,NOTE_FS3,
  NOTE_AS5,NOTE_GS2,NOTE_E4,NOTE_C4,NOTE_E3,NOTE_C3,
  NOTE_FS3,NOTE_AS5,NOTE_C2,NOTE_GS2,NOTE_D3,NOTE_C4,
  NOTE_G3,NOTE_C3,NOTE_G4,NOTE_E4,NOTE_E3,NOTE_C4,
  NOTE_AS5,NOTE_C4,NOTE_G4,NOTE_G3,NOTE_C3,NOTE_FS3,
  NOTE_AS5,NOTE_E2,NOTE_F3,NOTE_D2,NOTE_AS2,NOTE_GS2,
  NOTE_C4,NOTE_G3,NOTE_C3,NOTE_G4,NOTE_C4,NOTE_E2,
  NOTE_E3,NOTE_C4,NOTE_GS2,NOTE_FS3,NOTE_E4,NOTE_AS5,
  NOTE_G3,NOTE_G4,NOTE_C3,NOTE_F2,NOTE_C4,NOTE_AS5,
  NOTE_G4,NOTE_C3,NOTE_G3,NOTE_D3,NOTE_G2,NOTE_G3,
  NOTE_AS5,NOTE_F3,NOTE_FS3,NOTE_B3,NOTE_GS2,NOTE_D4,
  NOTE_B3,NOTE_G3,NOTE_FS3,NOTE_C2,NOTE_AS5,NOTE_GS2,
  NOTE_C4,NOTE_C3,NOTE_G4,NOTE_G3,NOTE_B3,NOTE_AS5,
  NOTE_G4,NOTE_C4,NOTE_C3,NOTE_G3,NOTE_D3,NOTE_D4,
  NOTE_G2,NOTE_D4,NOTE_AS5,NOTE_FS3,NOTE_F3,NOTE_GS2,
  NOTE_D2,NOTE_E2,NOTE_B3,NOTE_G3,NOTE_D3,NOTE_G4,
  NOTE_D4,NOTE_G2,NOTE_D4,NOTE_G2,NOTE_AS5,NOTE_FS3,
  NOTE_GS2,NOTE_G3,NOTE_D3,NOTE_G4,NOTE_B3,NOTE_G3,
  NOTE_G2,NOTE_G4,NOTE_AS5,NOTE_B3,NOTE_G3,NOTE_D4,
  NOTE_D3,NOTE_A2,NOTE_FS3,NOTE_F3,NOTE_AS5,NOTE_C2,
  NOTE_AS2,NOTE_GS2,NOTE_C3,NOTE_E3,NOTE_E4,NOTE_C4,
  NOTE_FS3,NOTE_C2,NOTE_D3,NOTE_AS5,NOTE_GS2,NOTE_E4,
  NOTE_A3,NOTE_C4,NOTE_E3,NOTE_AS5,NOTE_C3,NOTE_C4,
  NOTE_E4,NOTE_A3,NOTE_A1,NOTE_D4,NOTE_C4,NOTE_F3,
  NOTE_E2,NOTE_AS2,NOTE_D2,NOTE_FS3,NOTE_AS5,NOTE_GS2,
  NOTE_A3,NOTE_E4,NOTE_C4,NOTE_C4,NOTE_E3,NOTE_FS3,
  NOTE_E4,NOTE_AS5,NOTE_GS2,NOTE_A3,NOTE_C4,NOTE_A1,
  NOTE_A2,NOTE_A4,NOTE_AS5,NOTE_A3,NOTE_E4,NOTE_C4,
  NOTE_G3,NOTE_F3,NOTE_C3,NOTE_A3,NOTE_C4,NOTE_F3,
  NOTE_GS2,NOTE_AS5,NOTE_FS3,NOTE_F4,NOTE_C4,NOTE_F3,
  NOTE_A3,NOTE_C4,NOTE_F4,NOTE_FS3,NOTE_GS2,NOTE_C2,
  NOTE_F3,NOTE_F1,NOTE_C4,NOTE_AS5,NOTE_F4,NOTE_A3,
  NOTE_FS3,NOTE_F3,NOTE_E2,NOTE_GS2,NOTE_D2,NOTE_AS5,
  NOTE_C4,NOTE_F3,NOTE_A3,NOTE_F4,NOTE_F2,NOTE_A4,
  NOTE_A3,NOTE_C4,NOTE_F3,NOTE_C3,NOTE_A3,NOTE_C4,
  NOTE_FS3,NOTE_AS5,NOTE_GS2,NOTE_F4,NOTE_F3,NOTE_F1,
  NOTE_A4,NOTE_A3,NOTE_F3,NOTE_C3,NOTE_F2,NOTE_AS5,
  NOTE_A3,NOTE_F3,NOTE_F4,NOTE_C4,NOTE_F2,NOTE_A4,
  NOTE_C3,NOTE_E4,NOTE_E3,NOTE_C4,NOTE_F3,NOTE_A3,
  NOTE_C2,NOTE_AS2,NOTE_FS3,NOTE_AS5,NOTE_GS2,NOTE_E4,
  NOTE_E3,NOTE_C4,NOTE_C3,NOTE_AS5,NOTE_C2,NOTE_GS2,
  NOTE_FS3,NOTE_D3,NOTE_G4,NOTE_C4,NOTE_G3,NOTE_C3,
  NOTE_E4,NOTE_E3,NOTE_AS5,NOTE_G4,NOTE_C4,NOTE_G3,
  NOTE_C3,NOTE_AS5,NOTE_F3,NOTE_D2,NOTE_E2,NOTE_FS3,
  NOTE_AS2,NOTE_GS2,NOTE_C2,NOTE_C4,NOTE_G3,NOTE_C3,
  NOTE_G4,NOTE_E2,NOTE_E3,NOTE_C4,NOTE_GS2,NOTE_E4,
  NOTE_AS5,NOTE_FS3,NOTE_G4,NOTE_G3,NOTE_C3,NOTE_F2,
  NOTE_AS5,NOTE_C4,NOTE_G4,NOTE_C3,NOTE_G3,NOTE_D4,
  NOTE_D3,NOTE_G2,NOTE_G3,NOTE_AS5,NOTE_F3,NOTE_FS3,
  NOTE_B3,NOTE_GS2,NOTE_D4,NOTE_B3,NOTE_G3,NOTE_FS3,
  NOTE_AS5,NOTE_GS2,NOTE_C2,NOTE_G4,NOTE_C3,NOTE_C4,
  NOTE_G3,NOTE_B3,NOTE_AS5,NOTE_G4,NOTE_C4,NOTE_G3,
  NOTE_C3,NOTE_G2,NOTE_D3,NOTE_AS5,NOTE_FS3,NOTE_GS2,
  NOTE_D2,NOTE_E2,NOTE_F3,NOTE_B3,NOTE_G3,NOTE_D3,
  NOTE_G4,NOTE_D4,NOTE_G2,NOTE_D4,NOTE_AS5,NOTE_FS3,
  NOTE_G2,NOTE_GS2,NOTE_D3,NOTE_G3,NOTE_G4,NOTE_B3,
  NOTE_G3,NOTE_G2,NOTE_G4,NOTE_AS5,NOTE_B3,NOTE_G3,
  NOTE_D3,NOTE_D4,NOTE_A2,NOTE_F3,NOTE_GS2,NOTE_AS2,
  NOTE_FS3,NOTE_AS5,NOTE_C2,NOTE_C3,NOTE_E3,NOTE_C4,
  NOTE_E4,NOTE_C2,NOTE_AS5,NOTE_GS2,NOTE_D3,NOTE_FS3,
  NOTE_E4,NOTE_A3,NOTE_C4,NOTE_E3,NOTE_AS5,NOTE_C3,
  NOTE_C4,NOTE_E4,NOTE_A3,NOTE_A1,NOTE_D4,NOTE_B3,
  NOTE_G3,NOTE_C4,NOTE_FS3,NOTE_F3,NOTE_AS2,NOTE_D2,
  NOTE_E2,NOTE_AS5,NOTE_GS2,NOTE_A3,NOTE_E4,NOTE_C4,
  NOTE_E3,NOTE_FS3,NOTE_E4,NOTE_AS5,NOTE_GS2,NOTE_A3,
  NOTE_C4,NOTE_A1,NOTE_A4,NOTE_A2,NOTE_AS5,NOTE_A3,
  NOTE_E4,NOTE_C4,NOTE_G3,NOTE_F3,NOTE_C3,NOTE_A3,
  NOTE_C4,NOTE_FS3,NOTE_GS2,NOTE_F3,NOTE_AS5,NOTE_F4,
  NOTE_C4,NOTE_F3,NOTE_C4,NOTE_A3,NOTE_F4,NOTE_FS3,
  NOTE_GS2,NOTE_C2,NOTE_F3,NOTE_F1,NOTE_C4,NOTE_AS5,
  NOTE_F4,NOTE_A3,NOTE_FS3,NOTE_GS2,NOTE_E2,NOTE_D2,
  NOTE_AS5,NOTE_F3,NOTE_C4,NOTE_A3,NOTE_F4,NOTE_F2,
  NOTE_A4,NOTE_C3,NOTE_A3,NOTE_FS3,NOTE_C4,NOTE_AS5,
  NOTE_GS2,NOTE_F3,NOTE_F4,NOTE_F1,NOTE_A4,NOTE_F3,
  NOTE_A3,NOTE_C3,NOTE_F2,NOTE_AS5,NOTE_A3,NOTE_F3,
  NOTE_F4,NOTE_C4,NOTE_F2,NOTE_C3,NOTE_A4,NOTE_E4,
  NOTE_E3,NOTE_C4,NOTE_C4,NOTE_C2,NOTE_AS2,NOTE_FS3,
  NOTE_AS5,NOTE_F3,NOTE_GS2,NOTE_C4,NOTE_E4,NOTE_E3,
  NOTE_C3,NOTE_FS3,NOTE_AS5,NOTE_C2,NOTE_GS2,NOTE_D3,
  NOTE_C4,NOTE_G3,NOTE_C3,NOTE_G4,NOTE_E4,NOTE_E3,
  NOTE_C4,NOTE_AS5,NOTE_C4,NOTE_C3,NOTE_G4,NOTE_G3,
  NOTE_F3,NOTE_FS3,NOTE_AS5,NOTE_E2,NOTE_D2,NOTE_AS2,
  NOTE_GS2,NOTE_C4,NOTE_E3,NOTE_G3,NOTE_G3,NOTE_C3,
  NOTE_G4,NOTE_C4,NOTE_E2,NOTE_C4,NOTE_GS2,NOTE_FS3,
  NOTE_AS5,NOTE_E4,NOTE_G3,NOTE_G4,NOTE_C3,NOTE_F2,
  NOTE_AS5,NOTE_C4,NOTE_G4,NOTE_C3,NOTE_G3,NOTE_D4,
  NOTE_D3,NOTE_G2,NOTE_G3,NOTE_FS3,NOTE_AS5,NOTE_F3,
  NOTE_B3,NOTE_GS2,NOTE_D4,NOTE_B3,NOTE_G3,NOTE_C4,
  NOTE_FS3,NOTE_C2,NOTE_AS5,NOTE_GS2,NOTE_C3,NOTE_G4,
  NOTE_C4,NOTE_G3,NOTE_B3,NOTE_AS5,NOTE_G3,NOTE_G4,
  NOTE_C4,NOTE_C3,NOTE_G2,NOTE_AS5,NOTE_FS3,NOTE_F3,
  NOTE_GS2,NOTE_D2,NOTE_E2,NOTE_B3,NOTE_G3,NOTE_D3,
  NOTE_G4,NOTE_D4,NOTE_G2,NOTE_D4,NOTE_AS5,NOTE_FS3,
  NOTE_G2,NOTE_GS2,NOTE_D3,NOTE_G3,NOTE_G4,NOTE_B3,
  NOTE_G3,NOTE_G2,NOTE_G4,NOTE_AS5,NOTE_G3,NOTE_B3,
  NOTE_D3,NOTE_D4,NOTE_A2,NOTE_FS3,NOTE_AS5,NOTE_C2,
  NOTE_AS2,NOTE_F3,NOTE_GS2,NOTE_D4,NOTE_C3,NOTE_E3,
  NOTE_E4,NOTE_C4,NOTE_FS3,NOTE_C2,NOTE_D3,NOTE_AS5,
  NOTE_GS2,NOTE_E4,NOTE_A3,NOTE_C4,NOTE_E3,NOTE_AS5,
  NOTE_C3,NOTE_C4,NOTE_E4,NOTE_A3,NOTE_A1,NOTE_D4,
  NOTE_C4,NOTE_F3,NOTE_AS2,NOTE_D2,NOTE_E2,NOTE_FS3,
  NOTE_AS5,NOTE_GS2,NOTE_A3,NOTE_E4,NOTE_C4,NOTE_E3,
  NOTE_FS3,NOTE_E4,NOTE_AS5,NOTE_GS2,NOTE_C4,NOTE_A3,
  NOTE_A1,NOTE_A2,NOTE_A4,NOTE_AS5,NOTE_A3,NOTE_E4,
  NOTE_C4,NOTE_G3,NOTE_F3,NOTE_C3,NOTE_A3,NOTE_C4,
  NOTE_GS2,NOTE_AS5,NOTE_F3,NOTE_FS3,NOTE_F4,NOTE_C4,
  NOTE_F3,NOTE_C4,NOTE_A3,NOTE_F4,NOTE_FS3,NOTE_GS2,
  NOTE_C2,NOTE_F3,NOTE_F1,NOTE_C4,NOTE_AS5,NOTE_F4,
  NOTE_A3,NOTE_F3,NOTE_FS3,NOTE_E2,NOTE_GS2,NOTE_D2,
  NOTE_AS5,NOTE_C4,NOTE_F3,NOTE_A3,NOTE_F4,NOTE_F2,
  NOTE_A4,NOTE_A3,NOTE_C4,NOTE_F3,NOTE_C3,NOTE_A3,
  NOTE_C4,NOTE_FS3,NOTE_GS2,NOTE_AS5,NOTE_F3,NOTE_F4,
  NOTE_F1,NOTE_A4,NOTE_A3,NOTE_F3,NOTE_C3,NOTE_F2,
  NOTE_AS5,NOTE_F4,NOTE_A3,NOTE_F3,NOTE_C4,NOTE_F2,
  NOTE_A4,NOTE_C3,NOTE_E4,NOTE_C4,NOTE_E3,NOTE_F3,
  NOTE_AS2,NOTE_C2,NOTE_FS3,NOTE_AS5,NOTE_GS2,NOTE_E4,
  NOTE_E3,NOTE_C4,NOTE_C3,NOTE_A4,NOTE_AS5,NOTE_C2,
  NOTE_FS3,NOTE_GS2,NOTE_D3,NOTE_G3,NOTE_C3,NOTE_G4,
  NOTE_C4,NOTE_E4,NOTE_E3,NOTE_C4,NOTE_AS5,NOTE_C4,
  NOTE_C3,NOTE_G4,NOTE_G3,NOTE_AS5,NOTE_F3,NOTE_D2,
  NOTE_E2,NOTE_FS3,NOTE_A3,NOTE_GS2,NOTE_AS2,NOTE_C4,
  NOTE_G3,NOTE_C3,NOTE_G4,NOTE_E2,NOTE_E3,NOTE_C4,
  NOTE_GS2,NOTE_AS5,NOTE_E4,NOTE_FS3,NOTE_G4,NOTE_G3,
  NOTE_C3,NOTE_F2,NOTE_AS5,NOTE_C4,NOTE_G4,NOTE_C3,
  NOTE_G3,NOTE_D4,NOTE_D3,NOTE_G2,NOTE_G3,NOTE_FS3,
  NOTE_D3,NOTE_B3,NOTE_AS5,NOTE_F3,NOTE_GS2,NOTE_C2,
  NOTE_D4,NOTE_D3,NOTE_B3,NOTE_G3,NOTE_FS3,NOTE_GS2,
  NOTE_AS5,NOTE_D3,NOTE_D2,NOTE_E2,NOTE_C3,NOTE_C4,
  NOTE_G4,NOTE_G3,NOTE_B3,NOTE_AS5,NOTE_C3,NOTE_D2,
  NOTE_E2,NOTE_C4,NOTE_G4,NOTE_G3,NOTE_G2,NOTE_AS5,
  NOTE_FS3,NOTE_C3,NOTE_GS2,NOTE_D2,NOTE_F3,NOTE_E2,
  NOTE_C2,NOTE_D3,NOTE_E2,NOTE_D2,NOTE_B3,NOTE_G3,
  NOTE_G4,NOTE_A4,NOTE_D4,NOTE_G2,NOTE_D4,NOTE_E2,
  NOTE_G2,NOTE_AS5,NOTE_D2,NOTE_FS3,NOTE_B2,NOTE_C2,
  NOTE_GS2,NOTE_G3,NOTE_D3,NOTE_G4,NOTE_B3,NOTE_G3,
  NOTE_G2,NOTE_G4,NOTE_D2,NOTE_E2,NOTE_AS5,NOTE_G3,
  NOTE_B3,NOTE_D4,NOTE_D3,NOTE_A2,NOTE_C2,NOTE_GS2,
  NOTE_AS2,NOTE_FS3,NOTE_CS3,NOTE_AS5,NOTE_F3,NOTE_C3,
  NOTE_E3,NOTE_C4,NOTE_C2,NOTE_FS3,NOTE_AS5,NOTE_B4,
  NOTE_GS2,NOTE_D3,NOTE_E4,NOTE_C4,NOTE_A3,NOTE_E3,
  NOTE_AS5,NOTE_C3,NOTE_E4,NOTE_A3,NOTE_C4,NOTE_C5,
  NOTE_A1,NOTE_C4,NOTE_E2,NOTE_FS3,NOTE_D2,NOTE_AS2,
  NOTE_F3,NOTE_GS2,NOTE_AS5,NOTE_A3,NOTE_E4,NOTE_C4,
  NOTE_E3,NOTE_FS3,NOTE_E4,NOTE_AS5,NOTE_GS2,NOTE_C4,
  NOTE_A3,NOTE_A1,NOTE_A2,NOTE_A4,NOTE_AS5,NOTE_A3,
  NOTE_G3,NOTE_E4,NOTE_C4,NOTE_F3,NOTE_C3,NOTE_C4,
  NOTE_A3,NOTE_GS2,NOTE_FS3,NOTE_F3,NOTE_AS5,NOTE_C4,
  NOTE_F4,NOTE_F3,NOTE_C4,NOTE_A3,NOTE_F4,NOTE_FS3,
  NOTE_GS2,NOTE_C2,NOTE_F3,NOTE_F1,NOTE_C4,NOTE_AS5,
  NOTE_F4,NOTE_A3,NOTE_FS3,NOTE_F3,NOTE_E2,NOTE_GS2,
  NOTE_D2,NOTE_A3,NOTE_AS5,NOTE_C4,NOTE_F3,NOTE_F4,
  NOTE_F2,NOTE_A3,NOTE_A4,NOTE_C4,NOTE_F3,NOTE_C3,
  NOTE_A3,NOTE_C4,NOTE_FS3,NOTE_GS2,NOTE_AS5,NOTE_F3,
  NOTE_F4,NOTE_F1,NOTE_A4,NOTE_F3,NOTE_A3,NOTE_C3,
  NOTE_F2,NOTE_AS5,NOTE_A3,NOTE_F3,NOTE_F4,NOTE_C4,
  NOTE_F2,NOTE_A4,NOTE_C3,NOTE_E4,NOTE_C4,NOTE_C5,
  NOTE_E3,NOTE_F3,NOTE_AS2,NOTE_C2,NOTE_FS3,NOTE_AS5,
  NOTE_GS2,NOTE_E4,NOTE_E3,NOTE_C4,NOTE_C3,NOTE_C5,
  NOTE_FS3,NOTE_AS5,NOTE_C2,NOTE_GS2,NOTE_D3,NOTE_G4,
  NOTE_C4,NOTE_G3,NOTE_C3,NOTE_E4,NOTE_E3,NOTE_C4,
  NOTE_AS5,NOTE_C4,NOTE_C3,NOTE_G4,NOTE_G3,NOTE_D5,
  NOTE_FS3,NOTE_AS5,NOTE_F3,NOTE_D2,NOTE_E2,NOTE_AS2,
  NOTE_GS2,NOTE_E3,NOTE_C4,NOTE_G3,NOTE_G3,NOTE_C3,
  NOTE_G4,NOTE_C4,NOTE_E2,NOTE_C4,NOTE_C4,NOTE_E4,
  NOTE_GS2,NOTE_FS3,NOTE_AS5,NOTE_G3,NOTE_G4,NOTE_C3,
  NOTE_F2,NOTE_AS5,NOTE_C4,NOTE_C3,NOTE_G3,NOTE_G4,
  NOTE_D4,NOTE_D5,NOTE_D3,NOTE_G3,NOTE_G2,NOTE_AS5,
  NOTE_F3,NOTE_FS3,NOTE_B3,NOTE_GS2,NOTE_D4,NOTE_B3,
  NOTE_G3,NOTE_FS3,NOTE_C2,NOTE_AS5,NOTE_GS2,NOTE_G4,
  NOTE_C4,NOTE_G3,NOTE_C3,NOTE_D5,NOTE_B3,NOTE_AS5,
  NOTE_G4,NOTE_C4,NOTE_C3,NOTE_G3,NOTE_D4,NOTE_D3,
  NOTE_G2,NOTE_AS5,NOTE_FS3,NOTE_F3,NOTE_GS2,NOTE_D2,
  NOTE_E2,NOTE_B3,NOTE_G3,NOTE_D3,NOTE_G4,NOTE_D4,
  NOTE_G2,NOTE_D4,NOTE_G2,NOTE_AS5,NOTE_FS3,NOTE_GS2,
  NOTE_C2,NOTE_D3,NOTE_G3,NOTE_G4,NOTE_B3,NOTE_G3,
  NOTE_G2,NOTE_AS5,NOTE_G4,NOTE_B3,NOTE_D3,NOTE_G3,
  NOTE_D4,NOTE_F5,NOTE_A2,NOTE_FS3,NOTE_F3,NOTE_C2,
  NOTE_AS5,NOTE_AS2,NOTE_GS2,NOTE_C3,NOTE_E3,NOTE_C4,
  NOTE_FS3,NOTE_C2,NOTE_D3,NOTE_AS5,NOTE_GS2,NOTE_C4,
  NOTE_A3,NOTE_E4,NOTE_E3,NOTE_AS5,NOTE_C3,NOTE_E4,
  NOTE_A3,NOTE_C4,NOTE_A1,NOTE_C4,NOTE_E2,NOTE_F3,
  NOTE_D2,NOTE_AS2,NOTE_GS2,NOTE_FS3,NOTE_AS5,NOTE_A3,
  NOTE_E4,NOTE_C4,NOTE_E3,NOTE_FS3,NOTE_E4,NOTE_AS5,
  NOTE_GS2,NOTE_C4,NOTE_A3,NOTE_A1,NOTE_A2,NOTE_A4,
  NOTE_AS5,NOTE_A3,NOTE_G3,NOTE_E4,NOTE_C4,NOTE_F3,
  NOTE_C3,NOTE_C4,NOTE_A3,NOTE_GS2,NOTE_F3,NOTE_FS3,
  NOTE_AS5,NOTE_C4,NOTE_F4,NOTE_F3,NOTE_C4,NOTE_A3,
  NOTE_F4,NOTE_FS3,NOTE_GS2,NOTE_C2,NOTE_F3,NOTE_F1,
  NOTE_C4,NOTE_AS5,NOTE_F4,NOTE_A3,NOTE_FS3,NOTE_F3,
  NOTE_E2,NOTE_GS2,NOTE_D2,NOTE_AS5,NOTE_C4,NOTE_F3,
  NOTE_A3,NOTE_F4,NOTE_F2,NOTE_A4,NOTE_A3,NOTE_C4,
  NOTE_F3,NOTE_G5,NOTE_C3,NOTE_A3,NOTE_C4,NOTE_FS3,
  NOTE_GS2,NOTE_AS5,NOTE_F3,NOTE_F4,NOTE_F1,NOTE_A4,
  NOTE_F3,NOTE_A3,NOTE_C3,NOTE_F2,NOTE_AS5,NOTE_A3,
  NOTE_F3,NOTE_F4,NOTE_C4,NOTE_F2,NOTE_A4,NOTE_C3,
  NOTE_G5,NOTE_E4,NOTE_E3,NOTE_C4,NOTE_F3,NOTE_AS2,
  NOTE_C2,NOTE_FS3,NOTE_AS5,NOTE_GS2,NOTE_E4,NOTE_E3,
  NOTE_C4,NOTE_C3,NOTE_AS5,NOTE_C2,NOTE_GS2,NOTE_FS3,
  NOTE_D3,NOTE_G4,NOTE_C4,NOTE_G3,NOTE_C3,NOTE_E4,
  NOTE_E3,NOTE_C4,NOTE_AS5,NOTE_C4,NOTE_C3,NOTE_G4,
  NOTE_G3,NOTE_AS5,NOTE_F3,NOTE_D2,NOTE_E2,NOTE_FS3,
  NOTE_AS2,NOTE_GS2,NOTE_C4,NOTE_G5,NOTE_G3,NOTE_C3,
  NOTE_G4,NOTE_E2,NOTE_E3,NOTE_C4,NOTE_GS2,NOTE_E4,
  NOTE_AS5,NOTE_FS3,NOTE_G4,NOTE_G3,NOTE_C3,NOTE_F2,
  NOTE_AS5,NOTE_C4,NOTE_G4,NOTE_C3,NOTE_G3,NOTE_D4,
  NOTE_G5,NOTE_D3,NOTE_G3,NOTE_G2,NOTE_AS5,NOTE_F3,
  NOTE_FS3,NOTE_B3,NOTE_D4,NOTE_GS2,NOTE_B3,NOTE_G3,
  NOTE_D5,NOTE_AS5,NOTE_GS2,NOTE_FS3,NOTE_C2,NOTE_G4,
  NOTE_C3,NOTE_G3,NOTE_C4,NOTE_B3,NOTE_AS5,NOTE_G4,
  NOTE_C4,NOTE_G3,NOTE_C3,NOTE_G2,NOTE_AS5,NOTE_FS3,
  NOTE_GS2,NOTE_D2,NOTE_E2,NOTE_F3,NOTE_B3,NOTE_G3,
  NOTE_D3,NOTE_G4,NOTE_D4,NOTE_G2,NOTE_D4,NOTE_AS5,
  NOTE_FS3,NOTE_G2,NOTE_GS2,NOTE_G3,NOTE_D3,NOTE_G4,
  NOTE_B3,NOTE_G3,NOTE_G2,NOTE_AS5,NOTE_G4,NOTE_B3,
  NOTE_D3,NOTE_G3,NOTE_D4,NOTE_A2,NOTE_D5,NOTE_F3,
  NOTE_AS2,NOTE_C2,NOTE_AS5,NOTE_GS2,NOTE_FS3,NOTE_C3,
  NOTE_E3,NOTE_C4,NOTE_C2,NOTE_FS3,NOTE_D3,NOTE_AS5,
  NOTE_GS2,NOTE_C4,NOTE_A3,NOTE_E4,NOTE_E3,NOTE_AS5,
  NOTE_C3,NOTE_E4,NOTE_A3,NOTE_C4,NOTE_A1,NOTE_C4,
  NOTE_E2,NOTE_FS3,NOTE_D2,NOTE_F3,NOTE_AS2,NOTE_GS2,
  NOTE_AS5,NOTE_A3,NOTE_E4,NOTE_C4,NOTE_E3,NOTE_FS3,
  NOTE_E4,NOTE_AS5,NOTE_GS2,NOTE_C4,NOTE_A3,NOTE_A1,
  NOTE_A2,NOTE_A4,NOTE_AS5,NOTE_A3,NOTE_G3,NOTE_E4,
  NOTE_C4,NOTE_F3,NOTE_C3,NOTE_A3,NOTE_C4,NOTE_FS3,
  NOTE_GS2,NOTE_F3,NOTE_AS5,NOTE_F4,NOTE_C4,NOTE_F3,
  NOTE_C4,NOTE_A3,NOTE_F4,NOTE_FS3,NOTE_GS2,NOTE_C2,
  NOTE_F3,NOTE_F1,NOTE_C4,NOTE_AS5,NOTE_F4,NOTE_A3,
  NOTE_FS3,NOTE_GS2,NOTE_E2,NOTE_D2,NOTE_AS5,NOTE_F3,
  NOTE_C4,NOTE_C5,NOTE_A3,NOTE_F4,NOTE_F2,NOTE_A4,
  NOTE_A3,NOTE_C4,NOTE_C3,NOTE_F3,NOTE_A3,NOTE_C4,
  NOTE_FS3,NOTE_GS2,NOTE_AS5,NOTE_F3,NOTE_F4,NOTE_F1,
  NOTE_A4,NOTE_F3,NOTE_A3,NOTE_C3,NOTE_F2,NOTE_AS5,
  NOTE_A3,NOTE_F3,NOTE_F4,NOTE_C4,NOTE_F2,NOTE_A4,
  NOTE_C3,NOTE_G4,NOTE_E4,NOTE_E3,NOTE_C4,NOTE_AS2,
  NOTE_C2,NOTE_FS3,NOTE_AS5,NOTE_F3,NOTE_GS2,NOTE_E4,
  NOTE_E3,NOTE_C4,NOTE_C3,NOTE_C5,NOTE_FS3,NOTE_AS5,
  NOTE_C2,NOTE_GS2,NOTE_D3,NOTE_C4,NOTE_G3,NOTE_C3,
  NOTE_G4,NOTE_E4,NOTE_E3,NOTE_C4,NOTE_AS5,NOTE_C4,
  NOTE_C3,NOTE_G4,NOTE_G3,NOTE_F3,NOTE_FS3,NOTE_AS5,
  NOTE_D2,NOTE_E2,NOTE_AS2,NOTE_GS2,NOTE_G3,NOTE_C4,
  NOTE_E3,NOTE_G3,NOTE_C3,NOTE_G4,NOTE_E2,NOTE_C4,
  NOTE_GS2,NOTE_FS3,NOTE_E4,NOTE_AS5,NOTE_G3,NOTE_G4,
  NOTE_C3,NOTE_F2,NOTE_AS5,NOTE_C4,NOTE_G4,NOTE_C3,
  NOTE_G3,NOTE_D4,NOTE_C5,NOTE_D3,NOTE_G3,NOTE_G2,
  NOTE_AS5,NOTE_F3,NOTE_FS3,NOTE_B3,NOTE_D4,NOTE_GS2,
  NOTE_B3,NOTE_G3,NOTE_FS3,NOTE_C2,NOTE_AS5,NOTE_GS2,
  NOTE_C3,NOTE_G4,NOTE_C4,NOTE_G3,NOTE_B3,NOTE_AS5,
  NOTE_G4,NOTE_C4,NOTE_G3,NOTE_C3,NOTE_G2,NOTE_AS5,
  NOTE_FS3,NOTE_F3,NOTE_GS2,NOTE_D2,NOTE_E2,NOTE_B3,
  NOTE_G3,NOTE_D3,NOTE_G4,NOTE_D4,NOTE_G2,NOTE_D4,
  NOTE_G2,NOTE_AS5,NOTE_FS3,NOTE_GS2,NOTE_D3,NOTE_G3,
  NOTE_G4,NOTE_B3,NOTE_G3,NOTE_G2,NOTE_AS5,NOTE_G4,
  NOTE_B3,NOTE_D3,NOTE_G3,NOTE_D4,NOTE_A2,NOTE_FS3,
  NOTE_C2,NOTE_AS5,NOTE_AS2,NOTE_F3,NOTE_GS2,NOTE_C3,
  NOTE_E3,NOTE_C4,NOTE_FS3,NOTE_C2,NOTE_D5,NOTE_AS5,
  NOTE_GS2,NOTE_D3,NOTE_C4,NOTE_A3,NOTE_E4,NOTE_E3,
  NOTE_AS5,NOTE_D5,NOTE_C3,NOTE_E4,NOTE_A3,NOTE_C4,
  NOTE_A1,NOTE_C5,NOTE_C4,NOTE_D2,NOTE_E2,NOTE_F3,
  NOTE_AS2,NOTE_FS3,NOTE_AS5,NOTE_GS2,NOTE_A3,NOTE_E4,
  NOTE_C4,NOTE_E3,NOTE_FS3,NOTE_E4,NOTE_AS5,NOTE_GS2,
  NOTE_A3,NOTE_C4,NOTE_A1,NOTE_A2,NOTE_A4,NOTE_AS5,
  NOTE_A3,NOTE_G3,NOTE_E4,NOTE_C4,NOTE_F3,NOTE_C3,
  NOTE_C4,NOTE_A3,NOTE_D5,NOTE_GS2,NOTE_FS3,NOTE_AS5,
  NOTE_F3,NOTE_F4,NOTE_C4,NOTE_F3,NOTE_C4,NOTE_A3,
  NOTE_D5,NOTE_F4,NOTE_C5,NOTE_FS3,NOTE_GS2,NOTE_C2,
  NOTE_F3,NOTE_F1,NOTE_C4,NOTE_AS5,NOTE_F4,NOTE_A3,
  NOTE_F3,NOTE_FS3,NOTE_E2,NOTE_GS2,NOTE_D2,NOTE_AS5,
  NOTE_C4,NOTE_F3,NOTE_A3,NOTE_F4,NOTE_D5,NOTE_F2,
  NOTE_A4,NOTE_A3,NOTE_F3,NOTE_C4,NOTE_C3,NOTE_A3,
  NOTE_C4,NOTE_FS3,NOTE_AS5,NOTE_GS2,NOTE_F4,NOTE_F3,
  NOTE_F1,NOTE_A4,NOTE_A3,NOTE_F3,NOTE_C3,NOTE_F2,
  NOTE_AS5,NOTE_A3,NOTE_F3,NOTE_F4,NOTE_C4,NOTE_F2,
  NOTE_A4,NOTE_C3,NOTE_D5,NOTE_E4,NOTE_C4,NOTE_E3,
  NOTE_F3,NOTE_C5,NOTE_C2,NOTE_FS3,NOTE_AS5,NOTE_GS2,
  NOTE_D3,NOTE_E4,NOTE_C4,NOTE_E3,NOTE_C3,NOTE_AS5,
  NOTE_D3,NOTE_CS3,NOTE_FS3,NOTE_GS2,NOTE_C4,NOTE_G3,
  NOTE_C3,NOTE_G4,NOTE_E4,NOTE_E3,NOTE_C4,NOTE_AS5,
  NOTE_D3,NOTE_C2,NOTE_C4,NOTE_G3,NOTE_C3,NOTE_G4,
  NOTE_AS5,NOTE_F3,NOTE_FS3,NOTE_GS2,NOTE_E3,NOTE_C4,
  NOTE_G3,NOTE_D2,NOTE_B2,NOTE_G3,NOTE_C3,NOTE_G4,
  NOTE_E2,NOTE_D5,NOTE_C4,NOTE_E4,NOTE_GS2,NOTE_C2,
  NOTE_AS5,NOTE_B2,NOTE_FS3,NOTE_G4,NOTE_G3,NOTE_C3,
  NOTE_F2,NOTE_AS5,NOTE_C4,NOTE_C3,NOTE_G3,NOTE_G4,
  NOTE_D4,NOTE_D5,NOTE_D3,NOTE_G3,NOTE_G2,NOTE_AS5,
  NOTE_B3,NOTE_F3,NOTE_FS3,NOTE_A2,NOTE_GS2,NOTE_D4,
  NOTE_C2,NOTE_A2,NOTE_B3,NOTE_G3,NOTE_GS2,NOTE_FS3,
  NOTE_A3,NOTE_AS5,NOTE_A2,NOTE_G4,NOTE_C3,NOTE_C4,
  NOTE_G3,NOTE_B3,NOTE_AS5,NOTE_A2,NOTE_G3,NOTE_C4,
  NOTE_G4,NOTE_C3,NOTE_D5,NOTE_G2,NOTE_AS5,NOTE_FS3,
  NOTE_F3,NOTE_A2,NOTE_GS2,NOTE_C2,NOTE_CS3,NOTE_A2,
  NOTE_B3,NOTE_G3,NOTE_D3,NOTE_G4,NOTE_D4,NOTE_G2,
  NOTE_D4,NOTE_G2,NOTE_AS5,NOTE_A2,NOTE_FS3,NOTE_GS2,
  NOTE_C2,NOTE_D3,NOTE_G3,NOTE_G4,NOTE_B3,NOTE_G3,
  NOTE_G2,NOTE_AS5,NOTE_G4,NOTE_A2,NOTE_D3,NOTE_B3,
  NOTE_G3,NOTE_D4,NOTE_F5,NOTE_GS2,NOTE_AS2,NOTE_C2,
  NOTE_F3,NOTE_CS3,NOTE_FS3,NOTE_AS5,NOTE_C3,NOTE_E3,
  NOTE_C4,NOTE_C2,NOTE_FS3,NOTE_D3,NOTE_AS5,NOTE_GS2,
  NOTE_E4,NOTE_C4,NOTE_A3,NOTE_E3,NOTE_AS5,NOTE_C3,
  NOTE_E4,NOTE_A3,NOTE_C4,NOTE_A1,NOTE_G5,NOTE_C4,
  NOTE_D2,NOTE_E2,NOTE_FS3,NOTE_AS2,NOTE_C2,NOTE_F3,
  NOTE_GS2,NOTE_AS5,NOTE_G5,NOTE_A3,NOTE_E4,NOTE_C4,
  NOTE_E3,NOTE_FS3,NOTE_E4,NOTE_GS2,NOTE_AS5,NOTE_C4,
  NOTE_A3,NOTE_A1,NOTE_A2,NOTE_A4,NOTE_AS5,NOTE_A3,
  NOTE_G3,NOTE_E4,NOTE_C4,NOTE_F3,NOTE_G5,NOTE_C3,
  NOTE_C4,NOTE_A3,NOTE_GS2,NOTE_FS3,NOTE_AS5,NOTE_F3,
  NOTE_F4,NOTE_C4,NOTE_F3,NOTE_C4,NOTE_A3,NOTE_F4,
  NOTE_G5,NOTE_FS3,NOTE_GS2,NOTE_C2,NOTE_F3,NOTE_F1,
  NOTE_C4,NOTE_AS5,NOTE_F4,NOTE_A3,NOTE_G5,NOTE_FS3,
  NOTE_E2,NOTE_F3,NOTE_D2,NOTE_GS2,NOTE_AS5,NOTE_C4,
  NOTE_F3,NOTE_A3,NOTE_G5,NOTE_F4,NOTE_F2,NOTE_A4,
  NOTE_C3,NOTE_A3,NOTE_FS3,NOTE_C4,NOTE_AS5,NOTE_GS2,
  NOTE_F3,NOTE_F4,NOTE_F1,NOTE_A4,NOTE_A3,NOTE_F3,
  NOTE_C3,NOTE_F2,NOTE_AS5,NOTE_A3,NOTE_F3,NOTE_F4,
  NOTE_C4,NOTE_F2,NOTE_C3,NOTE_A4,NOTE_G5,NOTE_E4,
  NOTE_E3,NOTE_F3,NOTE_FS3,NOTE_AS2,NOTE_C2,NOTE_AS5,
  NOTE_GS2,NOTE_E4,NOTE_C4,NOTE_E3,NOTE_C3,NOTE_FS3,
  NOTE_AS5,NOTE_C2,NOTE_GS2,NOTE_D3,NOTE_C4,NOTE_G3,
  NOTE_C3,NOTE_G4,NOTE_E4,NOTE_E3,NOTE_AS5,NOTE_G4,
  NOTE_G3,NOTE_C4,NOTE_C3,NOTE_FS3,NOTE_AS5,NOTE_F3,
  NOTE_D2,NOTE_E2,NOTE_AS2,NOTE_GS2,NOTE_C4,NOTE_G3,
  NOTE_C3,NOTE_G4,NOTE_E2,NOTE_G5,NOTE_E3,NOTE_C4,
  NOTE_GS2,NOTE_AS5,NOTE_E4,NOTE_FS3,NOTE_G3,NOTE_G4,
  NOTE_C3,NOTE_F2,NOTE_AS5,NOTE_C4,NOTE_G4,NOTE_C3,
  NOTE_G3,NOTE_G5,NOTE_D3,NOTE_G3,NOTE_G2,NOTE_FS3,
  NOTE_B3,NOTE_F3,NOTE_AS5,NOTE_D4,NOTE_GS2,NOTE_B3,
  NOTE_G3,NOTE_FS3,NOTE_AS5,NOTE_C2,NOTE_GS2,NOTE_G4,
  NOTE_G3,NOTE_C3,NOTE_C4,NOTE_B3,NOTE_AS5,NOTE_G4,
  NOTE_G3,NOTE_C4,NOTE_C3,NOTE_D4,NOTE_D3,NOTE_G2,
  NOTE_G5,NOTE_AS5,NOTE_FS3,NOTE_F3,NOTE_GS2,NOTE_D2,
  NOTE_E2,NOTE_B3,NOTE_G3,NOTE_D3,NOTE_D5,NOTE_G4,
  NOTE_D4,NOTE_G2,NOTE_D4,NOTE_FS3,NOTE_G2,NOTE_AS5,
  NOTE_GS2,NOTE_G3,NOTE_D3,NOTE_G4,NOTE_B3,NOTE_G3,
  NOTE_G2,NOTE_AS5,NOTE_G4,NOTE_B3,NOTE_D3,NOTE_G3,
  NOTE_D4,NOTE_E5,NOTE_A2,NOTE_FS3,NOTE_F3,NOTE_C2,
  NOTE_AS5,NOTE_AS2,NOTE_GS2,NOTE_C3,NOTE_E3,NOTE_C4,
  NOTE_FS3,NOTE_C2,NOTE_D3,NOTE_AS5,NOTE_GS2,NOTE_C4,
  NOTE_A3,NOTE_E4,NOTE_E3,NOTE_AS5,NOTE_C3,NOTE_E4,
  NOTE_A3,NOTE_C4,NOTE_A1,NOTE_E5,NOTE_C4,NOTE_D2,
  NOTE_E2,NOTE_F3,NOTE_AS2,NOTE_GS2,NOTE_FS3,NOTE_AS5,
  NOTE_A3,NOTE_E5,NOTE_E4,NOTE_C4,NOTE_E3,NOTE_FS3,
  NOTE_E4,NOTE_AS5,NOTE_GS2,NOTE_A3,NOTE_C4,NOTE_A1,
  NOTE_E5,NOTE_A2,NOTE_A4,NOTE_AS5,NOTE_A3,NOTE_G3,
  NOTE_E4,NOTE_C4,NOTE_F3,NOTE_E5,NOTE_C3,NOTE_A3,
  NOTE_C4,NOTE_GS2,NOTE_F3,NOTE_AS5,NOTE_FS3,NOTE_F4,
  NOTE_C4,NOTE_E5,NOTE_F3,NOTE_C4,NOTE_A3,NOTE_F4,
  NOTE_E5,NOTE_FS3,NOTE_GS2,NOTE_C2,NOTE_F3,NOTE_F1,
  NOTE_C4,NOTE_AS5,NOTE_E5,NOTE_F4,NOTE_A3,NOTE_FS3,
  NOTE_E2,NOTE_F3,NOTE_D2,NOTE_GS2,NOTE_AS5,NOTE_C4,
  NOTE_F3,NOTE_A3,NOTE_F4,NOTE_F2,NOTE_A4,NOTE_C3,
  NOTE_A3,NOTE_FS3,NOTE_C4,NOTE_GS2,NOTE_AS5,NOTE_F3,
  NOTE_F4,NOTE_F1,NOTE_A4,NOTE_F3,NOTE_A3,NOTE_C3,
  NOTE_F2,NOTE_AS5,NOTE_E5,NOTE_A3,NOTE_F3,NOTE_F4,
  NOTE_C4,NOTE_F2,NOTE_A4,NOTE_C3,NOTE_E4,NOTE_E3,
  NOTE_F3,NOTE_FS3,NOTE_AS2,NOTE_C2,NOTE_GS2,NOTE_AS5,
  NOTE_E4,NOTE_C4,NOTE_E3,NOTE_F5,NOTE_C3,NOTE_E5,
  NOTE_C2,NOTE_AS5,NOTE_GS2,NOTE_FS3,NOTE_D3,NOTE_G4,
  NOTE_C4,NOTE_C3,NOTE_G3,NOTE_E4,NOTE_E3,NOTE_AS5,
  NOTE_G3,NOTE_G4,NOTE_C4,NOTE_C3,NOTE_AS5,NOTE_F3,
  NOTE_D2,NOTE_E2,NOTE_GS2,NOTE_FS3,NOTE_AS2,NOTE_C2,
  NOTE_C4,NOTE_G3,NOTE_C3,NOTE_G4,NOTE_E2,NOTE_D5,
  NOTE_E3,NOTE_C4,NOTE_GS2,NOTE_AS5,NOTE_E4,NOTE_FS3,
  NOTE_G3,NOTE_G4,NOTE_C3,NOTE_F2,NOTE_AS5,NOTE_C4,
  NOTE_C5,NOTE_G3,NOTE_G4,NOTE_C3,NOTE_D3,NOTE_G3,
  NOTE_G2,NOTE_FS3,NOTE_B3,NOTE_AS5,NOTE_F3,NOTE_D4,
  NOTE_GS2,NOTE_B3,NOTE_G3,NOTE_FS3,NOTE_AS5,NOTE_GS2,
  NOTE_C2,NOTE_G4,NOTE_C4,NOTE_G3,NOTE_C3,NOTE_B3,
  NOTE_C5,NOTE_AS5,NOTE_C4,NOTE_G3,NOTE_C3,NOTE_G4,
  NOTE_G2,NOTE_AS5,NOTE_FS3,NOTE_GS2,NOTE_D2,NOTE_E2,
  NOTE_F3,NOTE_C2,NOTE_B3,NOTE_G3,NOTE_D3,NOTE_G4,
  NOTE_D4,NOTE_G2,NOTE_D4,NOTE_D5,NOTE_G2,NOTE_AS5,
  NOTE_FS3,NOTE_GS2,NOTE_D3,NOTE_G3,NOTE_G4,NOTE_B3,
  NOTE_G3,NOTE_G2,NOTE_AS5,NOTE_G4,NOTE_B3,NOTE_D3,
  NOTE_G3,NOTE_D4,NOTE_A2,NOTE_F3,NOTE_AS2,NOTE_C2,
  NOTE_FS3,NOTE_GS2,NOTE_AS5,NOTE_C3,NOTE_E3,NOTE_C4,
  NOTE_C2,NOTE_FS3,NOTE_D3,NOTE_AS5,NOTE_GS2,NOTE_C4,
  NOTE_A3,NOTE_E4,NOTE_E3,NOTE_AS5,NOTE_C3,NOTE_E4,
  NOTE_A3,NOTE_C4,NOTE_G4,NOTE_A1,NOTE_C4,NOTE_D2,
  NOTE_E2,NOTE_FS3,NOTE_AS2,NOTE_F3,NOTE_AS5,NOTE_GS2,
  NOTE_G4,NOTE_A3,NOTE_E4,NOTE_C4,NOTE_E3,NOTE_FS3,
  NOTE_E4,NOTE_GS2,NOTE_AS5,NOTE_C4,NOTE_A3,NOTE_A1,
  NOTE_A2,NOTE_A4,NOTE_AS5,NOTE_A3,NOTE_G3,NOTE_E4,
  NOTE_C4,NOTE_F3,NOTE_C3,NOTE_C4,NOTE_A3,NOTE_FS3,
  NOTE_GS2,NOTE_F3,NOTE_AS5,NOTE_F4,NOTE_C4,NOTE_F3,
  NOTE_C4,NOTE_A3,NOTE_F4,NOTE_FS3,NOTE_GS2,NOTE_C2,
  NOTE_F3,NOTE_F1,NOTE_C4,NOTE_AS5,NOTE_F4,NOTE_A3,
  NOTE_FS3,NOTE_GS2,NOTE_E2,NOTE_D2,NOTE_AS5,NOTE_F3,
  NOTE_C4,NOTE_G4,NOTE_A3,NOTE_F4,NOTE_F2,NOTE_A4,
  NOTE_C3,NOTE_A3,NOTE_FS3,NOTE_C4,NOTE_AS5,NOTE_GS2,
  NOTE_F3,NOTE_F4,NOTE_F1,NOTE_A4,NOTE_A3,NOTE_F3,
  NOTE_F2,NOTE_C3,NOTE_AS5,NOTE_F4,NOTE_A3,NOTE_F3,
  NOTE_C4,NOTE_F2,NOTE_C3,NOTE_A4,NOTE_E4,NOTE_E3,
  NOTE_FS3,NOTE_AS2,NOTE_C2,NOTE_F3,NOTE_GS2,NOTE_AS5,
  NOTE_E4,NOTE_C4,NOTE_E3,NOTE_C3,NOTE_FS3,NOTE_AS5,
  NOTE_C2,NOTE_GS2,NOTE_D3,NOTE_C4,NOTE_G3,NOTE_C3,
  NOTE_G4,NOTE_E4,NOTE_E3,NOTE_AS5,NOTE_G4,NOTE_G3,
  NOTE_C4,NOTE_C3,NOTE_A4,NOTE_F3,NOTE_FS3,NOTE_AS5,
  NOTE_D2,NOTE_E2,NOTE_GS2,NOTE_AS2,NOTE_C2,NOTE_C4,
  NOTE_G3,NOTE_C3,NOTE_G4,NOTE_E2,NOTE_E3,NOTE_F4,
  NOTE_C4,NOTE_GS2,NOTE_E4,NOTE_FS3,NOTE_AS5,NOTE_G3,
  NOTE_G4,NOTE_C3,NOTE_F2,NOTE_AS5,NOTE_C4,NOTE_G4,
  NOTE_C3,NOTE_G3,NOTE_D3,NOTE_G3,NOTE_G2,NOTE_AS5,
  NOTE_FS3,NOTE_B3,NOTE_F3,NOTE_D4,NOTE_GS2,NOTE_B3,
  NOTE_G3,NOTE_FS3,NOTE_AS5,NOTE_C2,NOTE_GS2,NOTE_G4,
  NOTE_C4,NOTE_G3,NOTE_C3,NOTE_B3,NOTE_AS5,NOTE_G3,
  NOTE_C4,NOTE_G4,NOTE_C3,NOTE_G2,NOTE_AS5,NOTE_FS3,
  NOTE_F3,NOTE_GS2,NOTE_D2,NOTE_E2,NOTE_B3,NOTE_G3,
  NOTE_D3,NOTE_G4,NOTE_D4,NOTE_G2,NOTE_D4,NOTE_G2,
  NOTE_AS5,NOTE_FS3,NOTE_GS2,NOTE_F4,NOTE_D3,NOTE_G3,
  NOTE_G4,NOTE_B3,NOTE_G3,NOTE_G2,NOTE_AS5,NOTE_G4,
  NOTE_B3,NOTE_G3,NOTE_D4,NOTE_D3,NOTE_A2,NOTE_FS3,
  NOTE_AS2,NOTE_C2,NOTE_F3,NOTE_GS2,NOTE_AS5,NOTE_C3,
  NOTE_E3,NOTE_C4,NOTE_FS3,NOTE_C2,NOTE_D3,NOTE_AS5,
  NOTE_GS2,NOTE_C4,NOTE_A3,NOTE_E4,NOTE_E3,NOTE_AS5,
  NOTE_C3,NOTE_E4,NOTE_A3,NOTE_C4,NOTE_A1,NOTE_C4,
  NOTE_E2,NOTE_F3,NOTE_D2,NOTE_AS2,NOTE_GS2,NOTE_FS3,
  NOTE_AS5,NOTE_A3,NOTE_E4,NOTE_C4,NOTE_E3,NOTE_FS3,
  NOTE_E4,NOTE_AS5,NOTE_GS2,NOTE_C4,NOTE_A3,NOTE_A1,
  NOTE_A2,NOTE_A4,NOTE_AS5,NOTE_A3,NOTE_G3,NOTE_E4,
  NOTE_C4,NOTE_F3,NOTE_C3,NOTE_C4,NOTE_A3,NOTE_GS2,
  NOTE_AS5,NOTE_FS3,NOTE_F3,NOTE_C2,NOTE_F4,NOTE_C4,
  NOTE_F3,NOTE_C4,NOTE_A3,NOTE_F4,NOTE_FS3,NOTE_GS2,
  NOTE_F3,NOTE_F1,NOTE_C4,NOTE_AS5,NOTE_F4,NOTE_A3,
  NOTE_F3,NOTE_FS3,NOTE_E2,NOTE_GS2,NOTE_D2,NOTE_AS5,
  NOTE_C4,NOTE_F3,NOTE_A3,NOTE_F4,NOTE_F2,NOTE_A4,
  NOTE_C3,NOTE_A3,NOTE_FS3,NOTE_C4,NOTE_AS5,NOTE_GS2,
  NOTE_F3,NOTE_F4,NOTE_F1,NOTE_A4,NOTE_A3,NOTE_F3,
  NOTE_C3,NOTE_F2,NOTE_AS5,NOTE_A3,NOTE_F3,NOTE_F4,
  NOTE_C4,NOTE_F2,NOTE_C3,NOTE_A4,NOTE_G4,NOTE_E4,
  NOTE_E3,NOTE_F3,NOTE_FS3,NOTE_AS2,NOTE_C2,NOTE_GS2,
  NOTE_AS5,NOTE_E4,NOTE_C4,NOTE_E3,NOTE_C3,NOTE_AS5,
  NOTE_C2,NOTE_FS3,NOTE_GS2,NOTE_D3,NOTE_G4,NOTE_C4,
  NOTE_C3,NOTE_G3,NOTE_E4,NOTE_E3,NOTE_AS5,NOTE_G3,
  NOTE_G4,NOTE_C4,NOTE_C3,NOTE_AS5,NOTE_F3,NOTE_D2,
  NOTE_E2,NOTE_GS2,NOTE_FS3,NOTE_AS2,NOTE_C4,NOTE_G3,
  NOTE_C3,NOTE_G4,NOTE_E2,NOTE_E3,NOTE_C4,NOTE_GS2,
  NOTE_AS5,NOTE_E4,NOTE_FS3,NOTE_G3,NOTE_G4,NOTE_C3,
  NOTE_F2,NOTE_AS5,NOTE_C4,NOTE_G4,NOTE_C3,NOTE_G3,
  NOTE_A4,NOTE_D3,NOTE_G2,NOTE_G3,NOTE_G4,NOTE_FS3,
  NOTE_AS5,NOTE_B3,NOTE_F3,NOTE_D3,NOTE_C2,NOTE_D4,
  NOTE_GS2,NOTE_B3,NOTE_G3,NOTE_FS3,NOTE_AS5,NOTE_GS2,
  NOTE_C3,NOTE_G4,NOTE_C4,NOTE_G3,NOTE_B3,NOTE_AS5,
  NOTE_G3,NOTE_C4,NOTE_G4,NOTE_C3,NOTE_D2,NOTE_E2,
  NOTE_G2,NOTE_AS5,NOTE_FS3,NOTE_GS2,NOTE_D2,NOTE_E2,
  NOTE_F3,NOTE_C2,NOTE_A2,NOTE_D2,NOTE_E2,NOTE_B3,
  NOTE_G3,NOTE_D3,NOTE_G4,NOTE_E4,NOTE_D4,NOTE_G2,
  NOTE_D4,NOTE_G2,NOTE_AS5,NOTE_E2,NOTE_FS3,NOTE_D2,
  NOTE_GS2,NOTE_D3,NOTE_G3,NOTE_G4,NOTE_B3,NOTE_G3,
  NOTE_G2,NOTE_AS5,NOTE_G4,NOTE_D2,NOTE_E2,NOTE_D3,
  NOTE_G3,NOTE_B3,NOTE_D4,NOTE_A2,NOTE_GS2,NOTE_AS2,
  NOTE_C2,NOTE_F3,NOTE_CS3,NOTE_FS3,NOTE_AS5,NOTE_C3,
  NOTE_E3,NOTE_C4,NOTE_C2,NOTE_FS3,NOTE_D3,NOTE_AS5,
  NOTE_GS2,NOTE_E4,NOTE_C4,NOTE_A3,NOTE_E3,NOTE_AS5,
  NOTE_C3,NOTE_E4,NOTE_A3,NOTE_C4,NOTE_A1,NOTE_C4,
  NOTE_E2,NOTE_FS3,NOTE_D2,NOTE_AS2,NOTE_GS2,NOTE_AS5,
  NOTE_F3,NOTE_C5,NOTE_G5,NOTE_A3,NOTE_E4,NOTE_C4,
  NOTE_E3,NOTE_FS3,NOTE_E4,NOTE_AS5,NOTE_GS2,NOTE_C4,
  NOTE_A3,NOTE_A1,NOTE_A2,NOTE_A4,NOTE_AS5,NOTE_A3,
  NOTE_G3,NOTE_E4,NOTE_C4,NOTE_F3,NOTE_C3,NOTE_C4,
  NOTE_A3,NOTE_FS3,NOTE_GS2,NOTE_F3,NOTE_AS5,NOTE_F4,
  NOTE_C4,NOTE_F3,NOTE_C4,NOTE_A3,NOTE_F4,NOTE_FS3,
  NOTE_GS2,NOTE_C2,NOTE_F3,NOTE_F1,NOTE_C4,NOTE_AS5,
  NOTE_F4,NOTE_A3,NOTE_FS3,NOTE_F3,NOTE_E2,NOTE_GS2,
  NOTE_D2,NOTE_AS5,NOTE_C4,NOTE_F3,NOTE_A3,NOTE_F4,
  NOTE_F2,NOTE_A4,NOTE_C3,NOTE_A3,NOTE_FS3,NOTE_C4,
  NOTE_AS5,NOTE_GS2,NOTE_F3,NOTE_F4,NOTE_F1,NOTE_C5,
  NOTE_A4,NOTE_A3,NOTE_F3,NOTE_C3,NOTE_F2,NOTE_AS5,
  NOTE_F4,NOTE_A3,NOTE_F3,NOTE_C4,NOTE_F2,NOTE_A4,
  NOTE_C3,NOTE_E4,NOTE_E3,NOTE_F3,NOTE_FS3,NOTE_AS2,
  NOTE_C2,NOTE_GS2,NOTE_AS5,NOTE_E4,NOTE_C4,NOTE_E3,
  NOTE_C3,NOTE_FS3,NOTE_AS5,NOTE_C2,NOTE_GS2,NOTE_C5,
  NOTE_D3,NOTE_C3,NOTE_G4,NOTE_G3,NOTE_C4,NOTE_E4,
  NOTE_E3,NOTE_AS5,NOTE_B4,NOTE_C3,NOTE_G3,NOTE_G4,
  NOTE_C4,NOTE_FS3,NOTE_AS5,NOTE_F3,NOTE_D2,NOTE_E2,
  NOTE_AS2,NOTE_GS2,NOTE_C4,NOTE_G3,NOTE_C3,NOTE_G4,
  NOTE_E2,NOTE_E3,NOTE_C4,NOTE_GS2,NOTE_A4,NOTE_FS3,
  NOTE_E4,NOTE_AS5,NOTE_G3,NOTE_G4,NOTE_C3,NOTE_F2,
  NOTE_AS5,NOTE_C4,NOTE_G4,NOTE_C3,NOTE_G3,NOTE_D3,
  NOTE_G2,NOTE_G3,NOTE_AS5,NOTE_FS3,NOTE_B3,NOTE_F3,
  NOTE_D4,NOTE_GS2,NOTE_B3,NOTE_G3,NOTE_FS3,NOTE_AS5,
  NOTE_C2,NOTE_GS2,NOTE_G4,NOTE_G3,NOTE_C3,NOTE_C4,
  NOTE_B3,NOTE_AS5,NOTE_G4,NOTE_G3,NOTE_C4,NOTE_C3,
  NOTE_D4,NOTE_D3,NOTE_G2,NOTE_AS5,NOTE_FS3,NOTE_F3,
  NOTE_GS2,NOTE_D2,NOTE_E2,NOTE_B3,NOTE_G3,NOTE_D3,
  NOTE_G4,NOTE_D4,NOTE_G2,NOTE_D4,NOTE_G2,NOTE_AS5,
  NOTE_FS3,NOTE_GS2,NOTE_D3,NOTE_G3,NOTE_G4,NOTE_B3,
  NOTE_G3,NOTE_G2,NOTE_AS5,NOTE_G4,NOTE_B3,NOTE_D3,
  NOTE_G3,NOTE_D4,NOTE_C5,NOTE_A2,NOTE_FS3,NOTE_F3,
  NOTE_C2,NOTE_GS2,NOTE_AS2,NOTE_AS5,NOTE_C3,NOTE_E3,
  NOTE_C4,NOTE_FS3,NOTE_C2,NOTE_D3,NOTE_AS5,NOTE_GS2,
  NOTE_C4,NOTE_A3,NOTE_E4,NOTE_E3,NOTE_AS5,NOTE_C3,
  NOTE_E4,NOTE_A3,NOTE_C4,NOTE_A1,NOTE_C4,NOTE_E2,
  NOTE_F3,NOTE_D2,NOTE_AS2,NOTE_GS2,NOTE_FS3,NOTE_AS5,
  NOTE_D5,NOTE_A3,NOTE_E4,NOTE_C4,NOTE_E3,NOTE_FS3,
  NOTE_E4,NOTE_GS2,NOTE_AS5,NOTE_C4,NOTE_A3,NOTE_A1,
  NOTE_A2,NOTE_A4,NOTE_AS5,NOTE_A3,NOTE_G3,NOTE_E4,
  NOTE_C4,NOTE_F3,NOTE_C3,NOTE_C4,NOTE_A3,NOTE_F3,
  NOTE_GS2,NOTE_FS3,NOTE_AS5,NOTE_F4,NOTE_C4,NOTE_F3,
  NOTE_C4,NOTE_A3,NOTE_F4,NOTE_FS3,NOTE_GS2,NOTE_C2,
  NOTE_F3,NOTE_F1,NOTE_C4,NOTE_AS5,NOTE_F4,NOTE_A3,
  NOTE_FS3,NOTE_F3,NOTE_E2,NOTE_GS2,NOTE_D2,NOTE_AS5,
  NOTE_C4,NOTE_F3,NOTE_A3,NOTE_F4,NOTE_F2,NOTE_A4,
  NOTE_C3,NOTE_A3,NOTE_FS3,NOTE_C4,NOTE_AS5,NOTE_GS2,
  NOTE_F3,NOTE_F4,NOTE_F1,NOTE_C5,NOTE_A4,NOTE_A3,
  NOTE_F3,NOTE_C3,NOTE_F2,NOTE_AS5,NOTE_F4,NOTE_A3,
  NOTE_F3,NOTE_C4,NOTE_F2,NOTE_A4,NOTE_C3,NOTE_E4,
  NOTE_E3,NOTE_F3,NOTE_AS2,NOTE_FS3,NOTE_C2,NOTE_GS2,
  NOTE_AS5,NOTE_E4,NOTE_C4,NOTE_E3,NOTE_C3,NOTE_AS5,
  NOTE_C2,NOTE_FS3,NOTE_GS2,NOTE_D3,NOTE_G4,NOTE_C4,
  NOTE_C3,NOTE_G3,NOTE_E4,NOTE_E3,NOTE_AS5,NOTE_C5,
  NOTE_C3,NOTE_G3,NOTE_G4,NOTE_C4,NOTE_AS5,NOTE_F3,
  NOTE_D2,NOTE_E2,NOTE_GS2,NOTE_FS3,NOTE_AS2,NOTE_C4,
  NOTE_G3,NOTE_C3,NOTE_G4,NOTE_E2,NOTE_E3,NOTE_C4,
  NOTE_GS2,NOTE_E4,NOTE_AS5,NOTE_FS3,NOTE_G3,NOTE_G4,
  NOTE_C3,NOTE_F2,NOTE_AS5,NOTE_C4,NOTE_B4,NOTE_G3,
  NOTE_G4,NOTE_C3,NOTE_D3,NOTE_G2,NOTE_G3,NOTE_FS3,
  NOTE_B3,NOTE_F3,NOTE_AS5,NOTE_D4,NOTE_GS2,NOTE_B3,
  NOTE_G3,NOTE_FS3,NOTE_AS5,NOTE_GS2,NOTE_C2,NOTE_G4,
  NOTE_C4,NOTE_G3,NOTE_C3,NOTE_B3,NOTE_AS5,NOTE_G3,
  NOTE_C4,NOTE_G4,NOTE_C3,NOTE_A4,NOTE_G2,NOTE_AS5,
  NOTE_FS3,NOTE_GS2,NOTE_D2,NOTE_E2,NOTE_F3,NOTE_B3,
  NOTE_G3,NOTE_D3,NOTE_G4,NOTE_D4,NOTE_G2,NOTE_D4,
  NOTE_G2,NOTE_AS5,NOTE_FS3,NOTE_GS2,NOTE_D3,NOTE_G3,
  NOTE_G4,NOTE_B3,NOTE_G3,NOTE_G2,NOTE_AS5,NOTE_G4,
  NOTE_B3,NOTE_D3,NOTE_G3,NOTE_D4,NOTE_A2,NOTE_F3,
  NOTE_AS2,NOTE_C2,NOTE_AS5,NOTE_GS2,NOTE_FS3,NOTE_C3,
  NOTE_E3,NOTE_C4,NOTE_C2,NOTE_FS3,NOTE_D3,NOTE_AS5,
  NOTE_GS2,NOTE_C4,NOTE_A3,NOTE_E4,NOTE_E3,NOTE_AS5,
  NOTE_C3,NOTE_E4,NOTE_A3,NOTE_C4,NOTE_A1,NOTE_C4,
  NOTE_E2,NOTE_FS3,NOTE_D2,NOTE_F3,NOTE_AS2,NOTE_GS2,
  NOTE_AS5,NOTE_A3,NOTE_E4,NOTE_G4,NOTE_C4,NOTE_E3,
  NOTE_FS3,NOTE_E4,NOTE_GS2,NOTE_AS5,NOTE_C4,NOTE_A3,
  NOTE_A1,NOTE_A2,NOTE_A4,NOTE_AS5,NOTE_A3,NOTE_G3,
  NOTE_E4,NOTE_C4,NOTE_F3,NOTE_C3,NOTE_C4,NOTE_A3,
  NOTE_GS2,NOTE_FS3,NOTE_F3,NOTE_AS5,NOTE_C4,NOTE_F4,
  NOTE_F3,NOTE_C4,NOTE_A3,NOTE_F4,NOTE_FS3,NOTE_GS2,
  NOTE_C2,NOTE_F3,NOTE_F1,NOTE_C4,NOTE_AS5,NOTE_F4,
  NOTE_A3,NOTE_FS3,NOTE_GS2,NOTE_E2,NOTE_D2,NOTE_AS5,
  NOTE_F3,NOTE_C4,NOTE_A3,NOTE_F4,NOTE_F2,NOTE_A4,
  NOTE_C3,NOTE_A3,NOTE_FS3,NOTE_C4,NOTE_AS5,NOTE_GS2,
  NOTE_F3,NOTE_F4,NOTE_F1,NOTE_A4,NOTE_F3,NOTE_A3,
  NOTE_C3,NOTE_F2,NOTE_AS5,NOTE_A3,NOTE_F3,NOTE_F4,
  NOTE_C4,NOTE_F2,NOTE_C3,NOTE_A4,NOTE_G4,NOTE_E4,
  NOTE_E3,NOTE_FS3,NOTE_AS2,NOTE_C2,NOTE_F3,NOTE_GS2,
  NOTE_AS5,NOTE_E4,NOTE_C4,NOTE_E3,NOTE_C3,NOTE_FS3,
  NOTE_AS5,NOTE_C2,NOTE_GS2,NOTE_D3,NOTE_C4,NOTE_G3,
  NOTE_C3,NOTE_G4,NOTE_E4,NOTE_E3,NOTE_AS5,NOTE_G4,
  NOTE_G3,NOTE_C4,NOTE_C3,NOTE_F3,NOTE_FS3,NOTE_AS5,
  NOTE_D2,NOTE_E2,NOTE_AS2,NOTE_GS2,NOTE_C4,NOTE_G3,
  NOTE_C3,NOTE_G4,NOTE_E2,NOTE_E3,NOTE_C4,NOTE_GS2,
  NOTE_FS3,NOTE_AS5,NOTE_E4,NOTE_G3,NOTE_G4,NOTE_C3,
  NOTE_F2,NOTE_AS5,NOTE_C4,NOTE_G4,NOTE_C3,NOTE_G3,
  NOTE_D3,NOTE_G2,NOTE_G3,NOTE_FS3,NOTE_AS5,NOTE_B3,
  NOTE_F3,NOTE_D4,NOTE_GS2,NOTE_B3,NOTE_G3,NOTE_FS3,
  NOTE_AS5,NOTE_C2,NOTE_GS2,NOTE_G4,NOTE_C4,NOTE_G3,
  NOTE_C3,NOTE_B3,NOTE_AS5,NOTE_G3,NOTE_C4,NOTE_G4,
  NOTE_C3,NOTE_G2,NOTE_AS5,NOTE_FS3,NOTE_F3,NOTE_GS2,
  NOTE_D2,NOTE_E2,NOTE_B3,NOTE_G3,NOTE_D3,NOTE_G4,
  NOTE_D4,NOTE_G2,NOTE_D4,NOTE_G2,NOTE_AS5,NOTE_FS3,
  NOTE_GS2,NOTE_D3,NOTE_G3,NOTE_G4,NOTE_B3,NOTE_G3,
  NOTE_G2,NOTE_AS5,NOTE_G4,NOTE_B3,NOTE_D3,NOTE_G3,
  NOTE_D4,NOTE_A2,NOTE_FS3,NOTE_AS2,NOTE_C2,NOTE_AS5,
  NOTE_GS2,NOTE_F3,NOTE_D4,NOTE_C3,NOTE_E3,NOTE_C4,
  NOTE_FS3,NOTE_C2,NOTE_D3,NOTE_AS5,NOTE_GS2,NOTE_C4,
  NOTE_A3,NOTE_E4,NOTE_E3,NOTE_AS5,NOTE_C3,NOTE_E4,
  NOTE_A3,NOTE_C4,NOTE_A1,NOTE_C4,NOTE_E2,NOTE_F3,
  NOTE_D2,NOTE_AS2,NOTE_GS2,NOTE_FS3,NOTE_AS5,NOTE_A3,
  NOTE_E4,NOTE_C4,NOTE_E3,NOTE_FS3,NOTE_E4,NOTE_AS5,
  NOTE_GS2,NOTE_C4,NOTE_A3,NOTE_A1,NOTE_A2,NOTE_A4,
  NOTE_AS5,NOTE_A3,NOTE_G3,NOTE_E4,NOTE_C4,NOTE_F3,
  NOTE_C3,NOTE_C4,NOTE_A3,NOTE_GS2,NOTE_FS3,NOTE_AS5,
  NOTE_F3,NOTE_C4,NOTE_F4,NOTE_F3,NOTE_C4,NOTE_A3,
  NOTE_F4,NOTE_FS3,NOTE_GS2,NOTE_C2,NOTE_F3,NOTE_F1,
  NOTE_C4,NOTE_AS5,NOTE_F4,NOTE_A3,NOTE_F3,NOTE_FS3,
  NOTE_E2,NOTE_GS2,NOTE_D2,NOTE_AS5,NOTE_C4,NOTE_F3,
  NOTE_A3,NOTE_F4,NOTE_F2,NOTE_A4,NOTE_C3,NOTE_A3,
  NOTE_FS3,NOTE_C4,NOTE_AS5,NOTE_GS2,NOTE_F3,NOTE_F4,
  NOTE_F1,NOTE_A4,NOTE_D4,NOTE_A3,NOTE_F3,NOTE_C3,
  NOTE_F2,NOTE_AS5,NOTE_A3,NOTE_C4,NOTE_F4,NOTE_F3,
  NOTE_F2,NOTE_C3,NOTE_A4,NOTE_E4,NOTE_E3,NOTE_F3,
  NOTE_AS2,NOTE_FS3,NOTE_C2,NOTE_GS2,NOTE_AS5,NOTE_E4,
  NOTE_C4,NOTE_E3,NOTE_C3,NOTE_AS5,NOTE_C2,NOTE_FS3,
  NOTE_GS2,NOTE_D3,NOTE_G4,NOTE_C4,NOTE_C3,NOTE_G3,
  NOTE_E4,NOTE_E3,NOTE_AS5,NOTE_C3,NOTE_G3,NOTE_G4,
  NOTE_C4,NOTE_AS5,NOTE_F3,NOTE_D2,NOTE_E2,NOTE_GS2,
  NOTE_FS3,NOTE_AS2,NOTE_C4,NOTE_G3,NOTE_C3,NOTE_G4,
  NOTE_E2,NOTE_E3,NOTE_C4,NOTE_GS2,NOTE_E4,NOTE_AS5,
  NOTE_FS3,NOTE_G3,NOTE_G4,NOTE_C3,NOTE_F2,NOTE_AS5,
  NOTE_C4,NOTE_G4,NOTE_C3,NOTE_G3,NOTE_D4,NOTE_D3,
  NOTE_G2,NOTE_G3,NOTE_FS3,NOTE_B3,NOTE_AS5,NOTE_F3,
  NOTE_GS2,NOTE_B3,NOTE_G3,NOTE_FS3,NOTE_AS5,NOTE_GS2,
  NOTE_C2,NOTE_G4,NOTE_C4,NOTE_G3,NOTE_C3,NOTE_B3,
  NOTE_AS5,NOTE_G3,NOTE_C4,NOTE_G4,NOTE_C3,NOTE_G2,
  NOTE_AS5,NOTE_FS3,NOTE_F3,NOTE_GS2,NOTE_D2,NOTE_E2,
  NOTE_A3,NOTE_D2,NOTE_C2,NOTE_B3,NOTE_G3,NOTE_D3,
  NOTE_G4,NOTE_D4,NOTE_G2,NOTE_D4,NOTE_G2,NOTE_AS5,
  NOTE_D2,NOTE_FS3,NOTE_GS2,NOTE_D3,NOTE_G3,NOTE_G4,
  NOTE_B3,NOTE_F3,NOTE_G3,NOTE_G2,NOTE_AS5,NOTE_F3,
  NOTE_G4,NOTE_B3,NOTE_G3,NOTE_D4,NOTE_D3,NOTE_A2,
  NOTE_F3,NOTE_FS3,NOTE_AS2,NOTE_C2,NOTE_CS3,NOTE_AS5,
  NOTE_GS2,NOTE_F3,NOTE_GS2,NOTE_GS2,NOTE_GS2,NOTE_GS2,
  NOTE_GS2,NOTE_GS2,NOTE_A2,NOTE_C4,NOTE_E3,NOTE_C3,
  NOTE_A3,NOTE_E2,NOTE_C2,NOTE_D2,NOTE_A3,NOTE_C3,
  NOTE_C4,NOTE_A2,NOTE_E3,NOTE_D2,NOTE_E2,NOTE_A3,
  NOTE_C3,NOTE_C4,NOTE_A2,NOTE_E3,NOTE_D2,NOTE_E2,
  NOTE_C3,NOTE_A2,NOTE_C4,NOTE_A3,NOTE_E3,NOTE_D2,
  NOTE_E2,NOTE_A3,NOTE_C3,NOTE_C4,NOTE_A2,NOTE_E3,
  NOTE_A1,NOTE_C4,NOTE_A3,NOTE_D2,NOTE_E2,NOTE_C2,
  NOTE_A3,NOTE_E3,NOTE_E4,NOTE_C4,NOTE_A2,NOTE_C3,
  NOTE_A5,NOTE_A4,NOTE_A1
};
const int eagle_eye_cherry_save_tonight_dur[] PROGMEM = {
  32,32,32,32,32,16,
  16,16,32,16,4,4,
  32,8,8,8,32,32,
  4,4,4,32,32,16,
  32,16,32,32,16,32,
  16,16,8,8,8,8,
  8,32,32,32,16,32,
  32,16,16,32,32,32,
  32,32,32,8,8,16,
  16,4,32,16,8,8,
  8,32,16,16,4,16,
  16,4,8,32,32,16,
  16,32,16,16,8,8,
  8,8,32,32,16,16,
  32,32,32,32,32,16,
  16,16,16,4,4,32,
  8,8,8,32,32,4,
  4,4,32,32,16,32,
  16,32,32,16,32,16,
  16,8,8,8,8,8,
  32,32,32,16,32,32,
  16,16,32,32,32,32,
  32,32,8,8,16,16,
  4,32,16,8,8,8,
  32,16,16,4,16,16,
  4,8,32,32,16,16,
  32,32,32,32,16,16,
  8,8,8,8,32,32,
  32,16,16,32,32,32,
  32,32,32,32,32,32,
  16,16,8,32,32,16,
  8,16,8,8,8,32,
  32,32,32,8,8,8,
  32,8,32,32,32,4,
  4,32,32,2,8,32,
  32,16,32,16,32,32,
  32,16,32,32,32,16,
  16,8,8,8,8,8,
  32,32,32,32,16,32,
  32,16,16,32,32,32,
  32,32,32,16,16,2,
  32,32,32,16,16,16,
  8,32,32,16,16,16,
  16,4,32,32,32,32,
  16,8,8,8,8,32,
  8,32,32,16,16,8,
  4,16,32,16,32,8,
  32,32,32,32,8,16,
  16,32,32,32,16,16,
  8,8,8,8,32,32,
  32,32,16,16,32,4,
  32,32,32,32,2,16,
  32,32,32,16,16,16,
  8,32,32,16,8,16,
  8,8,8,32,32,32,
  32,8,8,8,32,8,
  32,32,32,2,4,4,
  32,32,8,2,32,32,
  16,32,16,32,32,32,
  16,32,32,32,16,16,
  8,8,8,8,8,32,
  32,32,32,16,32,32,
  16,16,2,32,32,32,
  32,32,32,16,16,2,
  32,32,32,16,16,16,
  8,32,32,16,16,16,
  16,4,32,32,32,32,
  16,8,8,8,8,32,
  32,8,32,16,16,8,
  16,4,16,8,32,32,
  32,16,32,32,16,16,
  32,32,32,16,16,16,
  8,8,8,32,32,32,
  16,16,32,32,8,32,
  32,32,2,32,32,32,
  16,16,32,32,16,16,
  4,4,32,32,32,32,
  8,8,8,32,32,32,
  4,4,4,32,32,2,
  32,16,32,16,32,32,
  32,16,32,32,32,16,
  16,8,8,8,8,8,
  32,32,32,32,16,32,
  32,16,16,32,32,32,
  32,32,32,16,16,2,
  32,32,32,32,16,16,
  16,8,32,32,16,16,
  16,16,4,32,32,32,
  32,16,8,8,8,8,
  32,8,32,32,16,16,
  8,8,4,16,16,32,
  32,32,32,32,16,16,
  8,32,32,32,16,16,
  16,8,8,8,8,32,
  32,32,16,16,32,32,
  32,32,32,2,16,32,
  32,32,16,16,16,8,
  32,32,16,8,16,8,
  8,8,32,32,32,32,
  8,8,8,2,32,8,
  32,32,32,4,4,32,
  32,2,8,32,32,16,
  32,16,32,32,32,16,
  32,32,32,16,16,4,
  8,8,8,8,8,32,
  32,32,32,16,32,32,
  16,16,32,32,32,32,
  32,32,16,16,2,32,
  32,32,16,16,16,8,
  32,32,16,16,16,16,
  4,32,32,32,32,32,
  16,8,8,32,8,32,
  8,32,32,16,16,8,
  16,4,16,8,32,32,
  32,32,32,16,16,32,
  32,32,16,16,8,8,
  8,8,32,32,32,16,
  16,32,32,32,32,32,
  2,16,32,32,32,16,
  16,16,8,4,32,32,
  16,8,16,8,8,8,
  32,32,32,32,8,8,
  8,32,8,32,32,32,
  8,4,32,32,8,2,
  32,32,16,32,16,32,
  32,32,16,32,32,32,
  16,16,8,8,8,8,
  8,32,32,32,32,4,
  16,32,32,16,16,32,
  32,32,32,32,32,16,
  16,16,2,32,32,32,
  16,16,16,32,8,32,
  32,16,16,16,16,4,
  32,32,32,32,16,8,
  8,8,8,32,32,8,
  32,16,16,8,16,4,
  16,8,32,32,32,32,
  32,16,16,16,32,32,
  32,32,16,16,8,8,
  8,16,32,32,32,16,
  16,32,32,32,32,32,
  16,2,16,32,32,32,
  32,16,16,8,32,32,
  16,8,16,8,8,8,
  16,32,32,32,32,16,
  8,8,8,32,8,32,
  32,32,4,4,32,32,
  2,8,32,32,16,32,
  16,32,32,32,16,32,
  32,32,16,16,8,8,
  8,8,8,32,32,32,
  32,16,32,32,32,16,
  16,32,32,32,32,32,
  16,16,2,32,32,32,
  16,16,16,8,32,32,
  16,16,16,16,4,32,
  32,32,32,16,8,8,
  8,8,32,32,8,32,
  16,16,8,16,4,16,
  8,32,32,32,32,32,
  16,16,32,32,32,16,
  16,8,8,8,8,32,
  32,32,16,16,32,32,
  32,32,32,8,2,16,
  32,32,32,16,16,16,
  8,32,32,16,8,16,
  8,8,8,32,32,32,
  16,8,8,8,32,8,
  32,32,32,4,32,32,
  8,2,32,32,16,32,
  16,32,32,32,16,32,
  32,32,16,16,8,8,
  8,8,8,32,32,32,
  32,16,32,32,16,16,
  32,32,32,32,32,32,
  16,16,2,32,32,32,
  32,16,16,16,8,32,
  32,16,16,16,16,4,
  32,32,32,32,16,16,
  8,8,8,8,32,32,
  8,32,16,16,8,16,
  4,16,32,8,32,32,
  32,32,16,16,32,32,
  32,8,16,16,8,8,
  8,8,8,32,32,32,
  32,16,32,32,32,32,
  32,2,16,32,32,32,
  16,16,16,8,32,32,
  16,8,16,8,8,8,
  32,32,32,32,8,8,
  8,32,8,32,4,32,
  32,4,4,32,32,2,
  8,32,32,16,32,16,
  32,32,32,16,16,32,
  32,32,16,16,16,32,
  8,8,8,8,32,32,
  32,32,16,32,32,16,
  16,32,32,32,32,32,
  32,16,16,2,32,32,
  32,16,16,16,4,8,
  32,32,16,16,16,16,
  4,32,32,32,32,16,
  8,8,8,8,32,8,
  32,32,32,16,16,8,
  16,4,16,32,32,32,
  32,32,16,16,16,32,
  32,32,16,16,16,8,
  8,8,8,32,32,32,
  32,16,32,32,32,32,
  32,2,16,32,32,32,
  16,16,16,8,32,32,
  16,8,16,8,8,8,
  32,32,32,32,8,8,
  8,32,8,32,32,32,
  4,4,32,32,2,8,
  32,32,16,32,2,16,
  32,32,32,16,32,32,
  32,16,16,8,8,8,
  8,8,32,32,32,32,
  16,32,32,16,16,32,
  32,32,32,32,32,16,
  16,2,32,32,32,16,
  16,16,8,32,32,16,
  16,16,16,4,32,32,
  32,32,16,8,8,8,
  8,8,32,32,32,16,
  16,8,4,16,16,32,
  8,32,32,32,32,16,
  16,32,32,32,16,16,
  8,8,8,8,32,32,
  32,16,16,32,32,32,
  32,32,2,16,32,32,
  32,16,16,16,16,8,
  32,32,16,32,16,8,
  8,8,32,32,32,32,
  8,8,8,32,8,8,
  32,32,32,4,4,32,
  32,8,2,8,32,32,
  32,16,32,16,32,32,
  32,16,32,32,32,16,
  16,8,8,8,8,8,
  32,32,32,32,16,32,
  32,16,16,32,32,32,
  32,32,32,16,16,2,
  32,32,32,16,16,16,
  8,32,32,16,16,16,
  16,4,32,32,32,32,
  16,8,8,8,8,32,
  32,8,32,16,16,8,
  4,32,16,32,8,16,
  32,8,32,32,32,8,
  32,16,16,32,32,32,
  32,32,32,32,32,4,
  32,32,16,32,16,8,
  8,32,32,8,32,32,
  32,32,32,32,32,32,
  16,16,32,32,32,32,
  32,32,32,32,16,8,
  32,32,32,32,32,32,
  16,16,32,32,32,16,
  32,32,32,16,32,32,
  32,32,4,4,32,32,
  32,32,32,32,8,8,
  32,32,32,32,32,8,
  4,4,4,32,32,32,
  32,32,32,32,32,32,
  32,32,32,32,32,32,
  32,32,32,4,16,32,
  8,8,32,32,32,32,
  32,32,16,8,8,8,
  8,32,32,32,32,32,
  32,8,16,32,32,16,
  16,32,32,32,32,32,
  32,32,32,32,32,32,
  32,32,16,8,8,8,
  32,32,32,16,32,32,
  32,32,32,32,32,32,
  32,32,32,32,32,32,
  32,32,32,32,32,32,
  8,8,16,16,16,16,
  32,32,32,32,32,32,
  16,32,32,32,32,32,
  32,32,32,32,16,32,
  32,32,32,32,32,32,
  32,32,16,32,32,32,
  32,32,8,8,4,32,
  32,32,32,32,16,16,
  8,8,8,8,32,32,
  32,32,32,32,32,32,
  32,32,32,32,32,32,
  32,32,8,32,32,32,
  32,16,16,2,32,32,
  32,16,32,32,32,16,
  32,32,32,32,8,4,
  32,32,32,32,32,32,
  8,8,8,32,32,32,
  32,32,8,4,4,4,
  32,32,32,32,32,32,
  32,32,32,32,32,32,
  32,32,32,32,32,32,
  4,16,32,8,8,32,
  32,32,32,16,16,8,
  8,8,8,32,32,32,
  8,32,32,32,32,32,
  32,32,8,16,32,32,
  16,16,32,32,32,32,
  32,32,32,32,32,32,
  32,32,32,32,32,16,
  16,32,8,32,32,32,
  16,32,32,32,32,16,
  32,32,32,32,32,8,
  32,32,32,32,32,16,
  8,8,8,8,8,16,
  32,32,32,32,32,32,
  16,32,32,32,32,32,
  16,8,8,32,32,32,
  32,16,16,32,32,32,
  32,32,32,32,32,32,
  16,8,4,32,32,32,
  32,32,4,32,32,32,
  32,16,16,8,8,8,
  8,32,32,32,32,32,
  32,32,32,32,32,32,
  32,32,32,32,32,8,
  32,32,32,32,16,16,
  16,2,32,32,32,16,
  32,32,32,16,32,32,
  32,32,4,8,8,8,
  32,32,32,32,32,32,
  32,8,8,8,32,32,
  32,32,32,8,4,4,
  4,32,32,32,32,32,
  32,32,32,32,32,32,
  32,32,32,32,32,32,
  32,32,4,16,32,8,
  8,32,32,32,32,16,
  16,8,8,8,8,8,
  32,32,32,32,32,32,
  8,16,32,32,16,16,
  32,32,32,32,32,32,
  32,32,32,32,32,32,
  32,32,8,8,8,32,
  32,32,16,32,32,32,
  32,32,32,32,32,32,
  32,32,32,32,32,32,
  32,32,32,32,32,8,
  8,16,16,32,32,32,
  32,32,32,8,8,16,
  32,32,32,32,32,32,
  32,32,32,16,32,32,
  8,32,32,32,32,32,
  32,32,16,32,32,32,
  32,32,4,4,32,32,
  32,32,16,16,8,8,
  8,8,32,32,32,32,
  32,32,32,32,32,32,
  32,32,32,32,32,32,
  8,32,32,32,32,16,
  16,2,32,32,32,16,
  32,32,32,16,32,32,
  32,32,8,4,32,32,
  32,32,32,32,8,8,
  8,32,32,32,32,32,
  8,4,4,4,32,32,
  32,32,32,32,32,32,
  32,32,32,32,32,32,
  32,32,32,32,4,16,
  32,8,8,32,32,32,
  32,16,16,8,8,8,
  8,32,32,32,8,32,
  32,32,32,32,32,32,
  8,16,32,32,16,16,
  32,32,32,32,32,32,
  32,32,32,32,32,32,
  32,32,16,16,16,32,
  8,32,32,32,16,32,
  32,32,32,16,32,32,
  32,32,32,8,32,32,
  32,32,32,16,8,8,
  8,8,8,16,32,32,
  32,32,32,32,16,32,
  32,32,32,32,16,8,
  8,32,32,32,32,16,
  16,32,32,32,32,32,
  32,32,32,8,16,4,
  32,32,32,32,32,32,
  32,4,32,32,32,32,
  32,32,16,16,8,8,
  8,8,8,32,32,32,
  32,32,32,32,32,32,
  32,32,32,32,32,32,
  32,32,32,32,8,32,
  32,32,16,16,8,32,
  32,16,16,4,4,8,
  32,32,32,8,8,8,
  32,2,32,32,4,4,
  4,32,32,32,16,32,
  16,16,32,32,32,16,
  8,32,32,32,16,16,
  8,8,8,4,8,8,
  32,32,32,32,16,32,
  32,16,16,32,32,32,
  32,32,32,8,16,16,
  32,32,8,32,16,16,
  16,8,32,32,16,16,
  16,16,4,32,32,32,
  32,16,4,8,8,8,
  8,32,32,8,32,16,
  16,8,4,16,16,8,
  32,16,32,32,32,32,
  16,16,32,32,32,4,
  16,16,8,8,8,8,
  8,32,32,32,32,16,
  16,32,32,32,32,32,
  16,32,32,32,16,16,
  16,8,8,32,32,16,
  8,16,8,8,8,8,
  32,32,32,32,8,8,
  8,32,8,32,32,32,
  4,4,32,32,8,8,
  32,32,16,32,16,16,
  32,32,32,16,8,8,
  32,32,32,16,16,8,
  8,8,8,8,8,32,
  32,32,32,16,32,32,
  16,16,32,32,32,32,
  32,32,8,16,16,32,
  32,32,16,16,16,8,
  32,32,16,16,16,16,
  4,32,32,32,32,32,
  16,8,8,8,32,32,
  32,32,16,16,8,16,
  4,16,8,32,16,32,
  32,32,32,16,16,16,
  32,32,32,16,4,16,
  16,8,8,8,8,32,
  32,32,32,16,16,32,
  32,32,32,32,16,32,
  32,32,16,16,16,8,
  8,32,32,16,8,16,
  8,8,8,32,32,32,
  32,4,8,8,8,32,
  8,32,32,32,4,4,
  32,32,2,8,8,32,
  32,16,32,16,16,32,
  32,32,16,8,8,32,
  32,32,16,16,8,8,
  8,8,8,32,32,32,
  32,8,16,32,32,16,
  16,32,32,32,32,32,
  32,8,16,16,32,32,
  32,16,16,16,4,8,
  32,32,16,16,16,32,
  4,32,32,32,32,16,
  8,8,8,8,32,8,
  32,32,16,16,8,16,
  4,16,32,8,16,32,
  32,32,32,16,16,32,
  32,32,4,16,16,8,
  8,8,8,32,32,32,
  32,16,16,32,32,32,
  32,32,32,16,32,32,
  32,16,16,8,8,8,
  32,16,32,16,8,8,
  8,32,32,32,32,8,
  4,8,8,8,32,8,
  32,32,32,4,4,32,
  32,8,8,32,32,16,
  32,16,16,32,32,32,
  16,8,32,32,32,16,
  16,8,8,8,8,8,
  32,32,32,32,16,32,
  32,16,16,32,32,32,
  32,32,32,8,16,16,
  32,32,32,32,16,16,
  16,8,32,32,16,16,
  16,16,4,32,32,32,
  32,16,8,8,8,8,
  32,8,32,32,16,16,
  8,16,4,16,32,8,
  16,32,32,32,32,16,
  16,8,32,32,32,16,
  16,8,8,8,8,8,
  32,32,32,16,16,32,
  32,32,32,32,4,16,
  32,32,32,32,32,16,
  16,16,8,8,32,32,
  32,16,8,16,8,8,
  8,32,32,32,32,32,
  4,8,8,2,8,32,
  8,32,32,32,32,4,
  4,32,32,8,8,32,
  32,32,8,16,32,16,
  16,32,32,32,32,16,
  8,32,32,32,32,16,
  16,8,8,8,8,8,
  32,32,32,32,32,16,
  32,32,32,16,16,32,
  32,32,32,32,8,16,
  16,32,32,32,32,16,
  16,16,8,32,32,32,
  16,16,16,16,4,32,
  32,32,32,32,16,8,
  8,8,8,8,32,8,
  32,32,32,16,16,8,
  4,16,32,16,32,8,
  16,32,32,32,32,32,
  16,16,32,32,32,32,
  4,16,16,8,8,8,
  8,8,32,32,32,32,
  32,32,16,32,32,32,
  32,32,32,16,32,32,
  32,16,16,16,8,8,
  32,32,32,16,8,16,
  8,8,8,32,32,32,
  32,32,4,8,8,8,
  32,8,32,32,32,32,
  4,4,4,32,32,8,
  8,32,32,32,16,32,
  16,16,32,32,32,32,
  16,8,32,32,32,32,
  16,16,8,8,8,8,
  8,32,32,32,32,32,
  16,32,32,16,16,32,
  32,32,32,32,32,8,
  16,16,32,32,32,32,
  16,16,16,8,32,32,
  32,16,16,16,16,4,
  32,32,32,32,32,16,
  16,8,8,8,8,32,
  32,32,32,32,16,16,
  8,4,16,16,32,32,
  8,16,32,32,32,32,
  32,16,16,8,8,32,
  32,32,32,4,16,16,
  8,8,8,8,32,32,
  32,32,32,32,32,32,
  16,32,32,32,32,32,
  16,16,32,32,32,32,
  32,16,16,8,8,32,
  32,32,16,8,16,16,
  8,8,8,32,32,32,
  32,32,4,8,8,8,
  32,8,32,32,32,32,
  8,32,4,4,32,32,
  8,8,32,32,32,16,
  32,16,16,32,8,32,
  32,32,16,8,32,32,
  32,32,16,16,8,8,
  8,8,8,32,32,32,
  32,32,16,32,32,16,
  16,32,32,32,32,32,
  32,8,16,16,32,32,
  32,32,16,16,16,8,
  32,32,32,16,16,16,
  16,4,32,32,32,32,
  32,16,8,8,8,8,
  32,32,32,8,32,16,
  16,8,16,4,32,16,
  32,8,16,32,32,8,
  32,32,32,16,16,32,
  32,32,32,4,16,16,
  8,8,8,8,32,32,
  32,32,32,16,16,32,
  32,32,32,32,8,32,
  16,32,32,32,32,16,
  16,8,8,32,32,32,
  16,8,16,8,8,8,
  32,32,32,32,32,8,
  4,8,8,8,32,8,
  32,32,32,32,4,4,
  32,32,8,8,32,32,
  32,16,32,16,16,32,
  32,32,8,32,16,8,
  32,32,32,32,16,16,
  8,8,8,8,8,32,
  32,32,32,32,16,32,
  32,16,16,32,32,32,
  32,32,32,8,16,16,
  32,32,32,32,16,16,
  16,8,32,32,32,16,
  16,16,16,4,32,32,
  32,32,32,16,8,8,
  8,8,32,32,8,32,
  32,16,16,8,16,32,
  4,32,8,32,16,32,
  32,8,32,32,8,32,
  32,32,32,16,32,16,
  32,32,32,32,32,32,
  32,32,32,32,32,4,
  32,16,32,32,16,8,
  32,32,8,32,32,32,
  32,32,32,32,32,32,
  16,16,32,32,32,32,
  32,32,32,8,32,32,
  32,32,32,16,16,32,
  32,32,32,16,32,32,
  32,16,32,32,32,32,
  4,4,32,32,32,32,
  32,32,8,8,32,32,
  32,32,32,32,8,4,
  4,4,32,32,32,32,
  32,32,32,32,32,32,
  32,32,32,32,32,32,
  32,32,32,32,4,16,
  32,8,8,32,32,32,
  32,32,32,32,32,16,
  8,8,8,8,32,32,
  32,32,32,32,32,8,
  16,32,32,16,16,32,
  32,32,32,32,32,32,
  32,32,32,32,32,32,
  32,16,8,8,8,32,
  32,32,32,16,32,32,
  32,32,32,32,32,32,
  32,32,32,32,32,32,
  32,32,32,32,32,32,
  32,8,8,16,16,16,
  16,32,32,32,32,32,
  32,32,16,32,32,32,
  32,32,32,32,32,32,
  32,32,16,32,32,32,
  32,32,32,32,32,32,
  32,16,32,32,32,32,
  32,8,8,4,32,32,
  32,32,32,32,32,16,
  16,8,8,8,8,32,
  32,32,32,32,32,32,
  32,32,32,32,32,32,
  32,32,32,32,8,32,
  32,32,32,32,16,16,
  2,32,32,32,32,16,
  32,32,32,16,32,32,
  32,32,8,4,32,32,
  32,32,32,32,32,8,
  8,8,32,32,32,32,
  32,32,8,4,4,4,
  32,32,32,32,32,32,
  32,32,32,32,32,32,
  32,32,32,32,32,32,
  32,32,4,16,32,8,
  8,32,32,32,32,32,
  32,16,16,8,8,8,
  32,8,32,32,8,32,
  32,32,32,32,32,32,
  32,8,16,32,32,16,
  16,32,32,32,32,32,
  32,32,32,32,32,32,
  32,32,32,32,32,16,
  16,32,8,32,32,32,
  32,16,32,32,32,32,
  16,32,32,32,32,32,
  8,32,32,32,32,32,
  32,16,8,8,8,8,
  8,16,32,32,32,32,
  32,32,32,16,32,32,
  32,32,32,16,8,8,
  32,32,32,32,32,32,
  16,16,32,32,32,32,
  32,32,32,32,32,32,
  16,8,4,32,32,32,
  32,32,4,32,32,32,
  32,32,16,16,8,8,
  8,8,32,32,32,32,
  32,32,32,32,32,32,
  32,32,32,32,32,32,
  32,8,32,32,32,32,
  32,16,16,16,2,32,
  32,32,32,16,32,32,
  32,16,32,32,32,32,
  4,8,8,8,32,32,
  32,32,32,32,32,8,
  8,8,32,32,32,32,
  32,32,8,4,4,4,
  32,32,32,32,32,32,
  32,32,32,32,32,32,
  32,32,32,32,32,32,
  32,32,32,4,16,32,
  8,8,32,32,32,32,
  32,32,16,16,8,8,
  8,8,8,32,32,32,
  32,32,32,32,8,16,
  32,32,16,16,32,32,
  32,32,32,32,32,32,
  32,32,32,32,32,32,
  32,8,8,8,32,32,
  32,32,16,32,32,32,
  32,32,32,32,32,32,
  32,32,32,32,32,32,
  32,32,32,32,32,32,
  8,8,16,16,32,32,
  32,32,32,32,32,8,
  8,16,32,32,32,32,
  32,32,32,32,32,32,
  32,16,32,32,8,32,
  32,32,32,32,32,32,
  32,16,32,32,32,32,
  32,4,4,32,32,32,
  32,32,32,16,16,8,
  8,8,8,32,32,32,
  32,32,32,32,32,32,
  32,32,32,32,32,32,
  32,32,8,32,32,32,
  32,32,16,16,2,32,
  32,32,32,16,32,32,
  32,16,32,32,32,32,
  8,4,32,32,32,32,
  32,32,32,8,8,8,
  32,32,32,32,32,32,
  8,4,4,4,32,32,
  32,32,32,32,32,32,
  32,32,32,32,32,32,
  32,32,32,32,32,32,
  4,16,32,8,8,32,
  32,32,32,32,16,16,
  8,8,8,8,32,32,
  8,32,32,32,32,32,
  32,32,32,32,8,16,
  32,32,16,16,32,32,
  32,32,32,32,32,32,
  32,32,32,32,32,32,
  32,16,16,16,32,8,
  32,32,32,32,16,32,
  32,32,32,16,32,32,
  32,32,32,8,32,32,
  32,32,32,32,16,8,
  8,8,8,8,16,32,
  32,32,32,32,32,32,
  16,32,32,32,32,32,
  16,8,8,32,32,32,
  32,32,32,32,16,16,
  32,32,32,32,32,32,
  32,32,32,8,16,4,
  32,32,32,32,32,4,
  32,32,32,32,32,32,
  32,16,16,8,8,8,
  8,32,32,32,32,32,
  32,32,32,32,32,32,
  32,32,32,32,32,32,
  8,32,32,32,32,32,
  16,16,8,32,16,32,
  32,32,32,32,16,32,
  32,32,32,32,32,32,
  32,32,32,4,8,8,
  32,32,32,32,32,4,
  4,4,32,32,32,32,
  32,32,8,32,32,32,
  32,32,32,32,16,32,
  32,32,32,32,32,32,
  16,32,8,8,8,32,
  32,32,32,32,16,16,
  8,8,8,8,8,32,
  32,32,32,32,32,16,
  32,32,16,16,32,32,
  32,32,32,32,32,32,
  8,8,16,16,32,32,
  32,32,16,16,16,8,
  32,32,32,16,32,32,
  32,32,16,16,32,32,
  32,32,32,32,32,32,
  32,32,32,32,8,8,
  8,16,8,32,32,32,
  8,32,32,32,32,32,
  32,32,32,8,8,32,
  4,32,16,32,32,32,
  32,16,32,32,32,32,
  32,32,32,32,32,16,
  32,32,32,32,32,32,
  8,32,32,32,32,32,
  32,4,16,16,8,8,
  8,8,32,32,32,32,
  32,32,32,32,32,16,
  32,32,32,32,32,32,
  32,32,32,32,32,32,
  16,16,8,8,32,32,
  16,32,32,32,32,16,
  32,8,32,32,32,32,
  32,32,32,32,32,4,
  8,8,32,8,32,32,
  32,32,32,4,4,32,
  32,32,32,32,32,8,
  8,32,32,32,32,32,
  32,32,32,16,32,32,
  32,32,32,32,32,16,
  32,8,8,8,32,32,
  32,32,32,16,16,8,
  8,8,8,8,32,32,
  32,32,32,32,16,32,
  32,16,16,32,32,32,
  32,32,32,32,32,8,
  16,16,32,32,32,32,
  16,16,16,8,32,32,
  32,16,32,32,32,32,
  16,16,32,32,32,32,
  32,32,32,32,32,32,
  16,8,8,8,8,32,
  32,32,8,32,32,32,
  32,32,32,32,32,8,
  4,32,8,32,32,16,
  8,32,32,32,8,32,
  32,32,32,32,32,32,
  16,32,32,32,32,32,
  32,32,32,32,32,32,
  32,16,16,8,8,8,
  8,32,32,32,32,32,
  32,32,16,32,32,32,
  32,32,32,32,32,32,
  32,32,32,16,16,8,
  8,32,32,16,32,32,
  32,32,16,32,8,32,
  32,32,32,32,32,32,
  32,32,4,8,8,32,
  8,32,32,32,32,32,
  4,4,32,32,32,32,
  32,32,8,8,32,32,
  32,32,32,32,32,16,
  32,32,32,32,32,32,
  32,16,32,8,8,8,
  32,32,32,32,32,16,
  8,8,8,8,8,32,
  32,32,32,32,32,1,
  16,32,32,16,16,32,
  32,32,32,32,32,32,
  32,8,16,16,32,32,
  32,32,16,16,16,8,
  32,32,32,16,32,32,
  32,32,16,16,32,32,
  32,32,32,32,32,32,
  32,32,16,8,8,8,
  8,32,32,32,8,32,
  32,32,32,32,32,32,
  32,2,8,32,4,32,
  32,16,32,8,32,16,
  32,32,32,32,32,32,
  32,32,32,4,16,32,
  32,32,32,32,32,32,
  32,32,32,32,4,16,
  16,8,8,8,8,32,
  32,32,32,32,32,32,
  32,16,32,32,32,32,
  32,32,32,32,32,32,
  32,32,16,16,8,8,
  32,32,16,32,32,32,
  32,16,32,8,32,32,
  32,2,32,32,32,32,
  32,32,4,8,8,32,
  8,32,32,32,32,32,
  4,4,32,32,32,32,
  32,32,8,8,4,32,
  32,32,32,32,32,32,
  32,16,32,32,32,32,
  32,32,32,16,32,8,
  8,8,4,32,32,32,
  32,32,16,16,8,8,
  8,8,8,32,32,32,
  32,32,32,16,32,32,
  16,16,32,32,32,32,
  32,32,32,32,8,16,
  4,16,32,32,32,32,
  16,16,16,8,32,8,
  32,32,32,16,32,32,
  32,32,16,16,32,32,
  32,32,32,8,32,32,
  32,32,32,32,16,8,
  8,8,8,8,32,32,
  32,8,32,32,32,32,
  32,32,32,32,8,8,
  8,4,32,32,16,32,
  8,32,16,32,32,8,
  32,32,32,32,32,32,
  32,16,32,32,32,32,
  32,32,32,32,32,32,
  32,32,16,16,8,8,
  8,8,32,32,32,32,
  32,32,32,32,16,32,
  32,32,32,32,32,32,
  32,32,32,32,8,32,
  32,32,32,32,16,16,
  8,32,16,16,4,4,
  32,32,8,8,8,2,
  32,32,32,4,4,4,
  32,32,32,8,16,32,
  16,32,32,32,16,32,
  16,16,8,8,8,8,
  8,32,32,32,32,16,
  32,32,16,16,32,32,
  32,32,32,32,8,32,
  16,8,8,32,16,16,
  16,4,32,16,8,8,
  8,32,32,1,16,16,
  4,16,16,4,32,8,
  32,32,32,8,16,16,
  32,16,16,8,8,8,
  8,32,32,32,16,16,
  32,32,32,32,32,32,
  16,16,32,16,16,4,
  4,8,32,16,8,8,
  8,32,32,32,16,4,
  4,32,32,32,16,32,
  16,32,32,32,4,16,
  32,16,16,8,8,8,
  8,8,32,32,32,32,
  16,16,32,32,16,16,
  32,32,32,32,32,32,
  32,16,8,8,32,16,
  16,4,32,4,16,8,
  8,8,32,32,16,16,
  4,16,8,16,4,32,
  8,32,32,32,16,16,
  32,16,16,8,8,8,
  8,32,32,32,16,16,
  32,32,32,32,32,32,
  16,16,8,32,16,8,
  16,16,8,8,8,32,
  8,8,8,32,8,8,
  32,32,32,4,4,32,
  32,8,32,32,8,16,
  32,16,32,32,32,16,
  32,16,16,8,8,8,
  8,8,32,32,32,32,
  16,32,32,16,16,32,
  32,32,32,32,32,16,
  16,32,16,16,16,8,
  32,16,16,16,16,4,
  32,16,8,8,8,8,
  32,8,32,32,16,16,
  8,4,16,16,8,32,
  32,32,32,16,16,32,
  16,16,8,8,8,32,
  32,32,32,16,16,32,
  32,32,32,32,16,16,
  32,32,16,16,8,32,
  16,32,16,8,8,8,
  32,8,8,8,8,32,
  8,32,32,32,32,4,
  4,32,32,8,32,32,
  16,32,16,32,8,32,
  32,16,32,16,16,8,
  8,8,8,8,32,32,
  32,32,32,32,32,32,
  16,32,32,16,16,32,
  32,32,32,32,32,32,
  32,32,32,16,16,32,
  32,32,32,16,16,16,
  8,32,32,32,16,32,
  32,16,16,16,32,32,
  32,32,4,32,32,32,
  32,32,32,16,32,32,
  8,8,8,32,32,8,
  32,8,32,32,32,32,
  32,32,32,16,32,32,
  32,32,16,8,16,32,
  4,32,16,8,32,32,
  32,32,32,32,32,32,
  32,32,32,32,32,32,
  32,16,32,32,16,32,
  32,32,32,32,32,32,
  32,32,32,4,32,16,
  16,8,8,32,32,8,
  32,32,32,32,32,32,
  16,32,32,32,32,32,
  32,32,16,32,32,32,
  32,32,16,16,8,32,
  32,16,32,32,32,32,
  32,16,32,8,32,32,
  32,4,4,32,32,32,
  32,32,32,8,8,32,
  8,32,32,32,32,32,
  32,8,4,4,32,32,
  32,32,32,32,8,32,
  32,32,32,32,32,32,
  32,32,32,32,32,32,
  32,32,32,4,16,32,
  8,8,32,32,32,32,
  32,16,16,8,8,8,
  8,8,32,32,32,32,
  32,32,32,8,16,32,
  32,16,16,32,32,32,
  32,32,32,32,32,16,
  32,32,32,32,32,32,
  32,16,16,16,8,8,
  32,32,32,32,16,32,
  32,32,32,32,16,32,
  32,32,32,32,32,32,
  32,32,32,32,32,32,
  32,32,32,32,8,8,
  16,16,16,32,32,32,
  8,32,32,32,32,32,
  16,32,32,32,32,32,
  8,32,32,32,32,32,
  32,32,32,32,32,32,
  32,32,32,32,32,32,
  32,16,32,32,32,32,
  32,8,8,4,32,32,
  32,32,32,32,32,16,
  16,8,8,8,8,32,
  32,32,32,32,32,32,
  32,32,32,32,32,32,
  32,32,32,32,8,32,
  32,32,32,32,16,16,
  16,8,32,32,16,32,
  32,32,32,32,16,32,
  8,32,32,32,8,4,
  32,32,32,32,32,32,
  32,32,8,8,8,32,
  8,32,32,32,32,32,
  32,8,4,4,32,32,
  32,32,32,32,8,32,
  32,32,32,32,32,32,
  32,32,32,32,32,32,
  32,32,32,4,16,32,
  8,8,32,32,32,32,
  32,16,16,8,8,8,
  8,32,32,8,32,32,
  32,32,32,32,32,32,
  32,8,16,32,32,16,
  16,32,32,32,32,32,
  32,32,32,16,32,32,
  32,32,32,32,32,32,
  32,16,16,16,32,32,
  8,32,32,32,32,16,
  32,32,32,32,16,16,
  32,32,32,32,32,8,
  32,32,32,32,32,32,
  16,8,8,8,8,8,
  16,32,32,32,8,32,
  32,32,32,32,32,16,
  32,32,32,32,32,16,
  8,32,32,32,32,32,
  32,32,32,32,16,32,
  32,32,32,32,32,32,
  32,32,32,16,4,32,
  32,32,32,32,4,32,
  32,32,32,32,16,16,
  8,8,8,8,32,32,
  32,32,32,32,32,32,
  32,32,32,32,32,32,
  32,32,32,8,32,32,
  32,32,32,16,16,16,
  8,32,32,32,32,16,
  32,32,32,16,32,8,
  32,32,32,4,8,8,
  8,32,32,32,32,32,
  32,32,8,8,8,32,
  8,32,32,32,32,32,
  32,8,4,4,32,32,
  32,32,32,32,8,32,
  32,32,32,32,32,32,
  32,32,32,32,32,32,
  32,32,32,4,16,32,
  8,8,32,32,32,32,
  32,16,16,8,8,8,
  8,8,32,32,32,32,
  32,32,32,8,16,32,
  32,16,16,32,32,32,
  32,32,32,32,32,16,
  32,32,32,32,32,32,
  32,32,16,16,8,8,
  32,32,32,32,16,32,
  32,32,32,32,16,32,
  32,32,32,32,32,32,
  32,32,32,32,32,32,
  32,32,32,32,8,8,
  16,16,16,32,32,32,
  8,32,32,32,32,32,
  16,32,32,32,32,32,
  8,32,32,32,32,32,
  32,32,32,32,8,32,
  32,32,32,32,32,32,
  32,16,32,32,32,32,
  32,4,32,32,32,32,
  32,16,16,8,8,8,
  8,32,32,32,32,32,
  32,32,32,32,32,32,
  32,32,32,32,32,32,
  8,32,32,32,32,32,
  16,16,16,8,32,32,
  16,32,32,32,32,32,
  16,32,8,32,32,32,
  8,4,32,32,32,32,
  32,32,32,8,8,8,
  32,8,32,32,32,32,
  32,32,8,4,4,32,
  32,32,32,32,32,8,
  32,32,32,32,32,32,
  32,32,32,32,32,32,
  32,32,32,32,4,16,
  32,8,8,32,32,32,
  32,32,32,16,16,8,
  8,8,32,8,32,32,
  8,32,32,32,32,32,
  32,32,32,8,16,32,
  32,16,16,32,32,32,
  32,32,32,32,32,16,
  32,32,32,32,32,32,
  32,32,16,16,16,8,
  8,32,32,32,32,16,
  32,32,32,32,32,16,
  16,32,32,32,32,32,
  32,32,32,32,32,32,
  32,16,8,8,8,8,
  32,8,32,32,32,16,
  32,32,32,32,16,32,
  32,32,32,32,16,32,
  32,32,32,32,32,32,
  32,32,32,32,32,32,
  32,32,32,32,32,32,
  16,32,32,32,32,32,
  32,4,4,32,32,32,
  32,32,32,32,16,32,
  16,16,8,8,8,8,
  32,32,32,32,32,32,
  32,32,32,32,32,32,
  32,32,32,32,32,32,
  32,8,32,32,32,32,
  32,32,16,16,8,8,
  32,32,16,32,32,32,
  32,32,16,32,8,32,
  32,32,4,8,8,8,
  32,32,32,32,32,32,
  32,8,8,32,8,32,
  32,32,32,32,32,8,
  4,4,32,32,32,32,
  32,32,8,32,32,32,
  32,32,32,32,32,32,
  32,32,32,32,32,32,
  32,4,16,32,8,8,
  32,1,32,32,32,32,
  32,16,16,8,8,8,
  8,8,32,32,32,32,
  32,32,32,8,16,32,
  32,16,16,32,32,32,
  32,32,32,32,32,16,
  32,32,32,32,32,32,
  32,32,16,16,16,8,
  32,32,32,32,16,32,
  32,32,32,16,16,32,
  32,32,32,32,32,32,
  32,32,32,32,32,32,
  16,8,8,8,16,16,
  8,32,32,32,8,32,
  32,32,32,16,32,32,
  32,32,32,8,32,32,
  32,32,32,32,32,32,
  32,32,32,32,32,32,
  32,32,32,32,16,32,
  32,32,32,32,8,8,
  4,32,32,32,32,32,
  32,32,16,16,8,8,
  8,8,32,32,32,32,
  32,32,32,32,32,32,
  32,32,32,32,32,32,
  32,8,32,32,32,32,
  32,32,16,16,8,8,
  32,32,16,32,32,32,
  32,32,16,32,8,32,
  32,32,4,8,32,32,
  32,32,32,32,32,32,
  8,8,8,32,8,32,
  32,32,32,32,32,8,
  4,4,32,32,32,32,
  32,32,8,32,32,32,
  32,32,32,32,32,32,
  32,32,32,32,32,32,
  32,4,16,32,8,8,
  32,32,32,32,32,32,
  16,16,8,8,8,8,
  32,32,32,8,32,32,
  32,32,32,32,32,8,
  16,32,32,16,16,32,
  32,32,32,32,32,32,
  32,16,32,32,32,32,
  32,32,32,32,32,16,
  16,16,8,32,32,32,
  32,16,32,32,32,32,
  16,16,32,32,32,32,
  32,32,32,32,32,32,
  32,32,32,16,8,8,
  8,16,8,32,32,8,
  32,32,32,32,32,16,
  32,32,32,32,32,16,
  32,32,32,32,32,32,
  32,32,32,32,32,32,
  32,32,32,32,32,32,
  32,16,32,32,32,32,
  32,4,4,32,32,32,
  32,32,32,16,16,8,
  8,8,8,32,32,32,
  32,32,32,32,32,32,
  32,32,32,32,32,32,
  32,32,8,32,32,32,
  32,32,32,16,16,8,
  8,32,32,32,16,32,
  32,32,32,16,32,8,
  32,32,32,4,8,8,
  8,32,32,32,32,32,
  32,32,32,8,8,32,
  8,32,32,32,32,32,
  32,8,4,4,32,32,
  32,32,32,32,8,32,
  32,32,32,32,32,32,
  32,32,32,32,32,32,
  32,32,32,4,16,32,
  8,8,32,32,32,32,
  32,32,16,8,8,8,
  8,8,32,32,32,32,
  32,32,32,8,16,32,
  32,16,16,32,32,32,
  32,32,32,32,32,16,
  32,32,32,32,32,32,
  32,32,32,32,16,16,
  8,32,32,32,32,16,
  32,32,32,32,16,16,
  32,32,32,32,32,32,
  32,32,32,32,32,32,
  32,32,16,16,32,8,
  8,16,16,32,32,32,
  32,8,32,32,32,16,
  32,32,32,32,32,8,
  8,32,32,32,32,32,
  16,32,32,32,32,8,
  32,32,32,32,32,32,
  32,32,16,32,32,32,
  32,32,4,32,32,32,
  32,32,32,16,16,8,
  8,8,8,32,32,32,
  32,32,32,32,32,32,
  32,32,32,32,32,32,
  32,32,8,32,32,32,
  32,32,32,32,16,16,
  8,8,32,32,16,32,
  32,32,32,32,16,32,
  8,32,32,32,4,8,
  32,32,32,32,32,32,
  32,32,8,8,32,8,
  32,32,32,32,32,32,
  8,4,4,32,32,32,
  32,32,32,8,32,32,
  32,32,32,32,32,32,
  32,32,32,32,32,32,
  32,32,4,16,32,8,
  8,32,32,32,32,32,
  32,16,16,8,8,8,
  8,32,32,32,8,32,
  32,32,32,32,32,32,
  8,16,32,32,16,16,
  32,32,32,32,32,32,
  32,32,16,32,32,32,
  32,32,32,32,32,16,
  16,16,8,8,32,32,
  32,32,16,32,32,32,
  32,16,16,32,32,32,
  32,32,32,32,32,32,
  32,32,32,32,32,16,
  8,8,8,16,8,32,
  32,32,8,32,32,32,
  32,16,32,32,32,32,
  32,16,32,32,32,32,
  32,32,32,32,32,32,
  32,32,32,32,32,32,
  32,32,32,32,32,32,
  32,32,16,32,32,32,
  32,32,32,32,4,32,
  32,32,32,32,32,32,
  32,32,32,32,16,16,
  8,1,8,8,32,32,
  32,32,32,32,32,32,
  32,32,32,32,32,32,
  32,32,32,32,32,32,
  32,32,32,8,32,32,
  32,32,32,32,32,16,
  16,8,32,32,32,8,
  32,16,32,32,32,16,
  32,8,32,32,32,8,
  4,32,32,32,32,32,
  32,32,32,8,8,32,
  8,32,32,32,32,32,
  32,8,4,4,32,32,
  32,32,32,32,8,32,
  32,32,32,32,32,32,
  32,32,32,32,32,32,
  32,32,32,4,16,32,
  8,8,32,32,32,32,
  32,32,32,16,16,8,
  8,32,8,32,32,8,
  32,32,32,32,32,32,
  32,8,16,32,32,16,
  16,32,32,32,32,32,
  32,32,32,16,32,1,
  32,32,32,32,32,32,
  32,16,16,16,8,8,
  32,32,32,32,16,32,
  32,32,32,16,16,32,
  32,32,32,32,32,8,
  32,32,32,32,32,32,
  32,16,16,16,32,8,
  8,16,16,32,32,8,
  32,32,32,32,32,32,
  16,32,32,32,32,32,
  16,4,8,32,32,32,
  32,32,16,32,32,32,
  32,32,32,32,32,32,
  32,32,32,8,16,32,
  32,32,32,32,8,8,
  4,32,32,32,32,32,
  32,16,16,8,8,8,
  8,32,32,32,32,32,
  32,32,32,32,32,32,
  32,32,32,32,32,32,
  32,4,8,32,32,32,
  32,32,32,16,16,8,
  32,32,16,32,32,32,
  32,32,16,32,8,32,
  32,32,4,32,32,32,
  32,32,32,32,32,8,
  8,32,8,32,32,32,
  32,32,32,8,4,4,
  32,32,32,32,32,32,
  8,32,32,32,32,32,
  32,32,32,32,32,32,
  32,32,32,32,32,4,
  16,32,8,8,32,32,
  32,32,32,32,16,16,
  8,8,8,8,32,32,
  32,1,8,32,32,32,
  32,32,32,32,8,16,
  32,32,16,16,32,32,
  32,32,32,32,32,32,
  8,16,32,32,32,32,
  32,32,32,32,16,16,
  16,8,32,32,32,32,
  16,32,32,32,32,16,
  16,32,32,32,32,32,
  32,32,32,32,32,32,
  32,32,16,2,8,8,
  8,16,8,32,32,8,
  32,32,32,32,32,16,
  32,32,32,32,32,16,
  8,8,32,32,32,32,
  32,32,32,32,32,32,
  8,32,32,32,32,32,
  32,32,32,16,32,32,
  32,32,32,4,32,32,
  32,32,32,32,16,16,
  8,8,8,8,32,32,
  32,32,32,32,32,32,
  32,32,32,32,32,32,
  32,32,32,8,4,32,
  32,32,32,32,32,16,
  16,8,32,32,16,32,
  32,32,32,32,16,32,
  8,32,32,32,4,32,
  32,32,32,32,32,32,
  32,8,8,32,8,32,
  32,32,32,32,32,8,
  4,4,32,32,32,32,
  32,32,8,32,32,32,
  32,32,32,32,32,32,
  32,32,32,32,32,32,
  32,4,16,32,8,8,
  32,32,32,32,32,32,
  16,1,8,8,8,8,
  32,32,8,32,32,32,
  32,32,32,32,32,8,
  16,32,32,16,16,32,
  32,32,32,32,32,32,
  32,8,16,32,32,32,
  32,32,32,32,32,16,
  16,16,8,8,32,32,
  32,32,16,32,32,32,
  32,16,16,32,32,32,
  32,32,32,32,32,32,
  32,32,32,32,16,16,
  16,32,8,8,16,32,
  32,32,8,32,32,32,
  32,16,32,32,32,32,
  32,16,4,8,32,32,
  32,32,32,16,32,32,
  32,32,32,32,32,32,
  32,32,32,32,16,32,
  32,32,32,32,4,32,
  32,32,32,32,32,16,
  16,8,8,8,8,32,
  32,32,32,32,32,32,
  32,32,32,32,32,32,
  32,32,32,32,8,32,
  32,32,32,32,32,16,
  16,8,32,32,2,32,
  32,16,32,32,32,16,
  32,16,8,32,32,32,
  4,16,32,32,32,32,
  32,32,32,32,8,8,
  32,8,32,32,32,32,
  32,32,8,4,4,32,
  32,32,32,32,32,8,
  32,32,4,32,32,32,
  32,32,32,32,32,32,
  16,32,16,32,32,32,
  32,4,16,32,8,8,
  32,32,32,32,32,32,
  16,16,8,8,4,8,
  8,32,32,32,8,32,
  32,32,32,32,32,32,
  8,16,32,32,16,16,
  32,32,32,32,32,32,
  32,32,16,16,32,32,
  32,16,32,32,32,32,
  32,16,16,16,8,32,
  32,32,32,32,32,32,
  32,32,16,16,32,32,
  32,32,32,32,32,32,
  32,32,32,32,16,16,
  16,16,32,32,8,8,
  16,2,32,8,32,32,
  32,32,32,32,32,32,
  16,32,32,32,32,32,
  16,8,8,32,32,32,
  16,32,32,32,32,32,
  32,32,32,32,32,32,
  32,32,32,32,32,32,
  32,16,32,32,32,32,
  32,32,4,4,32,32,
  32,32,32,32,32,32,
  16,16,8,8,8,8,
  32,32,32,32,32,32,
  32,32,32,32,32,32,
  32,32,32,32,32,32,
  32,32,4,32,32,32,
  32,32,32,32,16,16,
  8,32,32,16,32,32,
  32,32,32,16,32,8,
  32,32,32,4,4,32,
  32,32,32,32,32,32,
  32,32,8,8,8,32,
  8,32,32,32,32,32,
  32,8,4,4,32,32,
  32,32,32,32,8,8,
  32,32,32,32,32,32,
  32,32,32,32,32,32,
  8,32,32,32,32,4,
  16,32,8,8,8,32,
  32,32,32,32,32,16,
  16,8,8,8,8,8,
  8,32,32,32,32,32,
  32,32,8,16,32,32,
  16,16,32,32,32,32,
  32,32,32,32,8,16,
  16,32,32,32,32,32,
  32,16,16,16,8,32,
  32,32,32,16,32,32,
  32,32,16,16,32,32,
  32,32,32,32,32,32,
  32,32,32,32,16,8,
  8,8,16,2,8,32,
  32,32,8,32,32,32,
  32,16,32,32,32,32,
  32,8,8,32,32,32,
  16,32,32,8,32,32,
  32,32,32,32,32,32,
  32,32,32,16,32,32,
  32,32,32,8,8,4,
  4,32,32,32,32,32,
  32,16,16,8,8,8,
  8,8,32,32,32,32,
  32,32,32,32,32,32,
  32,32,32,32,32,32,
  32,16,8,32,32,32,
  32,32,32,16,16,8,
  32,32,16,32,32,32,
  32,32,16,32,8,32,
  32,32,4,4,32,32,
  32,32,32,32,32,32,
  8,8,8,32,8,32,
  32,32,32,32,32,8,
  32,4,4,32,32,32,
  32,32,32,32,8,32,
  32,32,32,32,32,32,
  32,32,32,32,32,32,
  32,32,32,32,32,4,
  16,32,8,8,8,32,
  32,32,32,32,32,16,
  16,8,8,8,8,8,
  32,32,32,32,32,32,
  32,8,16,32,32,16,
  16,32,4,32,32,32,
  32,32,32,32,16,16,
  32,32,32,32,32,32,
  16,16,16,8,8,16,
  32,32,32,32,16,32,
  32,32,32,16,16,32,
  32,32,32,32,32,32,
  32,32,32,32,32,32,
  16,8,8,8,16,4,
  8,32,32,32,8,32,
  32,32,32,16,32,32,
  16,32,32,32,8,32,
  32,32,16,32,32,8,
  32,32,32,32,32,32,
  32,32,32,32,32,16,
  4,32,32,32,32,32,
  4,32,32,32,32,32,
  32,32,16,16,8,8,
  8,8,32,8,32,32,
  32,32,32,32,32,32,
  32,32,32,32,32,32,
  32,32,8,32,32,32,
  32,32,32,16,16,8,
  32,32,16,32,32,32,
  32,32,16,32,8,32,
  32,32,4,4,32,32,
  32,32,32,32,32,32,
  16,8,8,32,8,32,
  32,32,32,32,32,8,
  4,4,32,32,32,32,
  32,32,8,32,32,32,
  32,32,32,32,32,32,
  32,32,32,32,32,32,
  32,4,16,32,8,8,
  32,32,32,32,32,32,
  16,2,8,8,8,8,
  8,32,32,32,32,32,
  32,32,8,16,32,32,
  16,16,32,32,32,32,
  32,32,32,32,16,16,
  32,32,32,32,32,32,
  16,16,16,8,32,32,
  32,32,16,32,32,32,
  32,16,16,32,32,32,
  32,32,4,32,32,32,
  32,32,32,32,32,16,
  8,8,8,16,8,8,
  32,32,32,32,32,32,
  32,32,16,32,32,32,
  32,32,8,32,32,32,
  32,16,32,8,32,32,
  32,32,32,32,32,32,
  32,32,32,16,32,32,
  32,32,32,4,32,32,
  32,32,32,32,16,16,
  8,8,8,8,32,32,
  32,32,32,2,32,32,
  32,32,32,32,32,32,
  32,32,32,32,8,32,
  32,32,32,32,32,16,
  16,8,32,32,16,32,
  32,32,32,32,16,32,
  8,32,32,32,4,32,
  32,32,32,32,32,32,
  32,8,8,32,8,32,
  32,32,32,32,32,8,
  4,4,32,32,32,32,
  32,32,8,32,32,32,
  32,32,32,32,32,32,
  32,32,32,32,32,32,
  32,4,16,32,8,8,
  32,32,32,32,32,32,
  16,16,8,8,8,8,
  8,32,32,32,32,32,
  32,32,8,16,32,32,
  16,16,32,32,32,32,
  32,32,32,32,1,16,
  16,32,32,32,32,32,
  32,16,16,16,8,32,
  32,32,32,16,32,32,
  32,32,16,16,32,32,
  32,32,32,32,32,32,
  32,32,32,32,16,8,
  8,8,16,8,32,32,
  32,8,32,32,32,32,
  16,32,32,32,32,32,
  2,8,32,32,32,32,
  32,16,32,32,32,8,
  32,32,32,32,32,32,
  32,32,32,32,16,32,
  32,32,32,32,32,32,
  4,32,32,32,32,32,
  32,32,32,32,32,16,
  16,8,8,8,32,8,
  32,32,32,32,32,32,
  32,32,32,32,32,32,
  32,32,32,32,32,32,
  32,32,32,8,32,32,
  32,32,32,32,32,16,
  16,8,32,32,16,32,
  32,32,32,32,16,32,
  8,32,32,32,4,32,
  32,32,32,32,32,32,
  32,4,16,8,8,32,
  8,32,32,32,32,32,
  32,8,4,4,32,32,
  32,32,32,32,8,32,
  32,32,32,32,32,32,
  32,32,32,32,32,32,
  32,32,32,4,16,32,
  8,8,32,32,32,32,
  32,32,16,16,8,8,
  8,8,8,32,32,32,
  32,32,32,32,8,2,
  16,32,32,16,16,32,
  32,32,32,32,32,32,
  32,16,16,32,32,32,
  32,32,32,16,16,16,
  8,32,32,32,32,8,
  16,32,32,32,32,16,
  16,32,16,32,32,32,
  32,32,32,32,32,32,
  32,32,16,8,8,8,
  16,8,32,32,8,32,
  8,32,32,32,32,16,
  32,32,32,32,32,8,
  32,32,32,32,16,32,
  8,32,32,32,32,32,
  32,32,32,32,32,32,
  16,32,32,32,32,32,
  8,8,4,32,32,32,
  32,32,32,16,16,8,
  8,8,8,32,32,32,
  32,32,32,32,32,32,
  32,32,32,32,32,32,
  32,32,4,8,32,32,
  32,32,32,32,16,16,
  8,32,32,16,32,32,
  32,32,32,16,32,8,
  32,32,32,4,32,32,
  32,32,32,32,32,32,
  2,8,8,32,8,32,
  32,32,32,32,32,8,
  4,4,32,32,32,32,
  32,32,8,32,32,32,
  32,32,32,32,32,32,
  32,32,32,32,32,32,
  32,4,16,32,8,8,
  32,32,32,32,32,32,
  16,16,8,8,8,8,
  8,32,32,32,32,32,
  32,32,8,2,16,32,
  32,16,16,32,32,32,
  32,32,32,32,32,16,
  16,32,32,32,32,32,
  32,16,16,16,8,32,
  32,32,32,16,32,32,
  32,32,16,16,32,4,
  32,32,32,32,32,32,
  32,32,32,32,32,16,
  8,8,8,16,8,32,
  32,8,32,32,32,32,
  32,16,32,32,4,32,
  32,32,8,32,32,32,
  16,32,32,8,32,32,
  32,32,32,32,32,32,
  32,32,32,16,32,32,
  32,32,32,4,4,32,
  32,32,32,32,32,16,
  16,8,8,8,8,32,
  32,32,32,32,32,32,
  32,32,32,32,32,32,
  32,32,32,32,8,32,
  32,32,32,32,32,16,
  16,8,32,32,16,32,
  32,32,32,32,16,32,
  8,32,32,32,4,32,
  32,32,32,32,32,32,
  32,8,8,2,32,8,
  32,32,32,32,32,32,
  8,4,4,32,32,32,
  32,32,32,8,32,32,
  32,32,32,32,32,32,
  32,32,32,32,32,32,
  32,32,4,16,32,8,
  8,32,32,32,32,32,
  32,16,8,8,8,8,
  8,32,32,32,32,32,
  32,32,8,16,32,32,
  16,16,32,32,32,32,
  32,32,32,32,2,16,
  16,32,32,32,32,32,
  32,16,16,16,8,32,
  32,32,32,16,32,32,
  32,32,16,16,32,32,
  32,32,32,32,32,32,
  32,32,32,32,16,8,
  8,8,16,8,32,32,
  32,32,8,32,32,32,
  16,32,32,32,32,32,
  8,32,32,32,32,16,
  32,8,32,32,32,32,
  32,32,32,32,32,32,
  32,16,32,32,32,32,
  32,4,32,32,32,32,
  32,32,16,16,8,8,
  8,8,32,32,32,32,
  32,32,32,32,32,32,
  32,32,32,32,32,32,
  32,8,32,32,32,32,
  32,32,32,16,16,8,
  32,32,16,32,32,32,
  32,32,16,32,8,32,
  32,32,4,32,32,32,
  32,32,32,32,32,8,
  8,32,8,32,32,32,
  32,32,32,8,4,4,
  32,32,32,32,32,32,
  8,32,32,32,32,32,
  32,32,32,32,32,32,
  32,32,32,32,32,4,
  16,32,8,8,32,32,
  32,32,32,32,16,16,
  8,8,8,8,8,32,
  32,32,32,32,32,32,
  8,16,2,32,32,16,
  16,32,32,32,32,32,
  32,32,32,16,16,32,
  32,32,32,32,32,16,
  16,16,8,32,32,32,
  32,16,32,32,32,32,
  16,16,32,32,32,32,
  32,32,32,32,32,32,
  32,32,16,8,8,8,
  16,8,32,32,8,32,
  32,32,32,32,16,32,
  32,32,32,32,8,8,
  32,32,32,16,32,32,
  32,32,32,32,32,32,
  32,32,32,32,32,16,
  32,32,32,32,32,4,
  32,32,32,32,32,32,
  32,32,32,16,16,8,
  8,8,8,32,32,32,
  32,32,32,32,32,32,
  32,32,32,32,32,32,
  32,32,32,32,32,8,
  32,32,32,32,32,32,
  32,32,32,32,32,32,
  32,32,1,1,1,1,
  1,32,32,32,32,32,
  32,32,32,32,32,32,
  32,32,32,32,32,32,
  32,32,32,32,32,32,
  32,32,32,32,32,32,
  1,32,32,32,32,32,
  32,8,8,8,8,4,
  4,4,4
};
const int eagle_eye_cherry_save_tonight_length = 10449;
